<?xml version="1.0" encoding="UTF-8"?>
<svg xmlns="http://www.w3.org/2000/svg" xmlns:xlink="http://www.w3.org/1999/xlink" width="1417.5pt" height="1417.499962pt" viewBox="0 0 1417.5 1417.499962" version="1.2">
<defs>
<clipPath id="clip1">
  <path d="M 0 0 L 1417 0 L 1417 1417 L 0 1417 Z M 0 0 "/>
</clipPath>
</defs>
<g id="surface1">
<g clip-path="url(#clip1)" clip-rule="nonzero">
<path style=" stroke:none;fill-rule:nonzero;fill:rgb(23.139954%,34.899902%,59.609985%);fill-opacity:1;" d="M 212.652344 0 L 1205.035156 0 C 1208.515625 0 1211.992188 0.0859375 1215.46875 0.257812 C 1218.945312 0.425781 1222.414062 0.683594 1225.878906 1.023438 C 1229.339844 1.363281 1232.792969 1.789062 1236.238281 2.300781 C 1239.679688 2.8125 1243.109375 3.40625 1246.519531 4.085938 C 1249.933594 4.765625 1253.328125 5.527344 1256.703125 6.371094 C 1260.082031 7.21875 1263.433594 8.148438 1266.765625 9.15625 C 1270.09375 10.167969 1273.398438 11.257812 1276.675781 12.429688 C 1279.953125 13.601562 1283.199219 14.855469 1286.414062 16.1875 C 1289.628906 17.519531 1292.808594 18.929688 1295.957031 20.417969 C 1299.101562 21.90625 1302.207031 23.46875 1305.277344 25.109375 C 1308.347656 26.75 1311.375 28.464844 1314.359375 30.253906 C 1317.34375 32.042969 1320.285156 33.90625 1323.179688 35.839844 C 1326.070312 37.773438 1328.917969 39.773438 1331.710938 41.847656 C 1334.507812 43.921875 1337.25 46.0625 1339.941406 48.269531 C 1342.628906 50.476562 1345.265625 52.75 1347.84375 55.085938 C 1350.421875 57.425781 1352.941406 59.824219 1355.402344 62.285156 C 1357.863281 64.746094 1360.261719 67.265625 1362.601562 69.84375 C 1364.9375 72.421875 1367.210938 75.058594 1369.417969 77.746094 C 1371.625 80.4375 1373.765625 83.179688 1375.839844 85.976562 C 1377.910156 88.769531 1379.914062 91.617188 1381.847656 94.507812 C 1383.78125 97.402344 1385.644531 100.34375 1387.433594 103.328125 C 1389.222656 106.3125 1390.9375 109.339844 1392.578125 112.410156 C 1394.21875 115.476562 1395.78125 118.585938 1397.269531 121.730469 C 1398.757812 124.878906 1400.167969 128.058594 1401.5 131.273438 C 1402.832031 134.488281 1404.082031 137.734375 1405.257812 141.011719 C 1406.429688 144.289062 1407.519531 147.59375 1408.53125 150.921875 C 1409.539062 154.253906 1410.46875 157.605469 1411.3125 160.984375 C 1412.160156 164.359375 1412.921875 167.753906 1413.601562 171.167969 C 1414.28125 174.578125 1414.875 178.007812 1415.386719 181.449219 C 1415.894531 184.894531 1416.320312 188.347656 1416.664062 191.808594 C 1417.003906 195.273438 1417.261719 198.742188 1417.429688 202.21875 C 1417.601562 205.695312 1417.6875 209.171875 1417.6875 212.652344 L 1417.6875 1205.035156 C 1417.6875 1208.515625 1417.601562 1211.992188 1417.429688 1215.46875 C 1417.261719 1218.945312 1417.003906 1222.414062 1416.664062 1225.878906 C 1416.320312 1229.339844 1415.894531 1232.792969 1415.386719 1236.238281 C 1414.875 1239.679688 1414.28125 1243.109375 1413.601562 1246.519531 C 1412.921875 1249.933594 1412.160156 1253.328125 1411.3125 1256.703125 C 1410.46875 1260.082031 1409.539062 1263.433594 1408.53125 1266.765625 C 1407.519531 1270.09375 1406.429688 1273.398438 1405.257812 1276.675781 C 1404.082031 1279.953125 1402.832031 1283.199219 1401.5 1286.414062 C 1400.167969 1289.628906 1398.757812 1292.808594 1397.269531 1295.953125 C 1395.78125 1299.101562 1394.21875 1302.207031 1392.578125 1305.277344 C 1390.9375 1308.347656 1389.222656 1311.375 1387.433594 1314.359375 C 1385.644531 1317.34375 1383.78125 1320.285156 1381.847656 1323.179688 C 1379.914062 1326.070312 1377.910156 1328.917969 1375.839844 1331.710938 C 1373.765625 1334.507812 1371.625 1337.25 1369.417969 1339.941406 C 1367.210938 1342.628906 1364.9375 1345.265625 1362.601562 1347.84375 C 1360.261719 1350.421875 1357.863281 1352.941406 1355.402344 1355.402344 C 1352.941406 1357.863281 1350.421875 1360.261719 1347.84375 1362.601562 C 1345.265625 1364.9375 1342.628906 1367.210938 1339.941406 1369.417969 C 1337.25 1371.625 1334.507812 1373.765625 1331.710938 1375.839844 C 1328.914062 1377.910156 1326.070312 1379.914062 1323.179688 1381.847656 C 1320.285156 1383.78125 1317.34375 1385.644531 1314.359375 1387.433594 C 1311.375 1389.222656 1308.347656 1390.9375 1305.277344 1392.578125 C 1302.207031 1394.21875 1299.101562 1395.78125 1295.957031 1397.269531 C 1292.808594 1398.757812 1289.628906 1400.167969 1286.414062 1401.5 C 1283.199219 1402.832031 1279.953125 1404.082031 1276.675781 1405.257812 C 1273.398438 1406.429688 1270.09375 1407.519531 1266.765625 1408.53125 C 1263.433594 1409.539062 1260.082031 1410.46875 1256.703125 1411.3125 C 1253.328125 1412.160156 1249.933594 1412.921875 1246.519531 1413.601562 C 1243.109375 1414.28125 1239.679688 1414.875 1236.238281 1415.386719 C 1232.792969 1415.894531 1229.339844 1416.320312 1225.878906 1416.664062 C 1222.414062 1417.003906 1218.945312 1417.261719 1215.46875 1417.429688 C 1211.992188 1417.601562 1208.515625 1417.6875 1205.035156 1417.6875 L 212.652344 1417.6875 C 209.171875 1417.6875 205.695312 1417.601562 202.21875 1417.429688 C 198.742188 1417.261719 195.273438 1417.003906 191.808594 1416.664062 C 188.347656 1416.320312 184.894531 1415.894531 181.449219 1415.386719 C 178.007812 1414.875 174.578125 1414.28125 171.167969 1413.601562 C 167.753906 1412.921875 164.359375 1412.160156 160.984375 1411.3125 C 157.605469 1410.46875 154.253906 1409.539062 150.921875 1408.53125 C 147.59375 1407.519531 144.289062 1406.429688 141.011719 1405.257812 C 137.734375 1404.082031 134.488281 1402.832031 131.273438 1401.5 C 128.058594 1400.167969 124.878906 1398.757812 121.730469 1397.269531 C 118.585938 1395.78125 115.476562 1394.21875 112.410156 1392.578125 C 109.339844 1390.9375 106.3125 1389.222656 103.328125 1387.433594 C 100.34375 1385.644531 97.402344 1383.78125 94.507812 1381.847656 C 91.617188 1379.914062 88.769531 1377.910156 85.976562 1375.839844 C 83.179688 1373.765625 80.4375 1371.625 77.746094 1369.417969 C 75.058594 1367.210938 72.421875 1364.9375 69.84375 1362.601562 C 67.265625 1360.261719 64.746094 1357.863281 62.285156 1355.402344 C 59.824219 1352.941406 57.425781 1350.421875 55.085938 1347.84375 C 52.75 1345.265625 50.476562 1342.628906 48.269531 1339.941406 C 46.0625 1337.25 43.921875 1334.507812 41.847656 1331.710938 C 39.773438 1328.914062 37.773438 1326.070312 35.839844 1323.179688 C 33.90625 1320.285156 32.042969 1317.34375 30.253906 1314.359375 C 28.464844 1311.375 26.75 1308.347656 25.109375 1305.277344 C 23.46875 1302.207031 21.90625 1299.101562 20.417969 1295.953125 C 18.929688 1292.808594 17.519531 1289.628906 16.1875 1286.414062 C 14.855469 1283.199219 13.601562 1279.953125 12.429688 1276.675781 C 11.257812 1273.398438 10.167969 1270.09375 9.15625 1266.765625 C 8.148438 1263.433594 7.21875 1260.082031 6.371094 1256.703125 C 5.527344 1253.328125 4.765625 1249.933594 4.085938 1246.519531 C 3.40625 1243.109375 2.8125 1239.679688 2.300781 1236.238281 C 1.789062 1232.792969 1.363281 1229.339844 1.023438 1225.878906 C 0.683594 1222.414062 0.425781 1218.945312 0.257812 1215.46875 C 0.0859375 1211.992188 0 1208.515625 0 1205.035156 L 0 212.652344 C 0 209.171875 0.0859375 205.695312 0.257812 202.21875 C 0.425781 198.742188 0.683594 195.273438 1.023438 191.808594 C 1.363281 188.347656 1.789062 184.894531 2.300781 181.449219 C 2.8125 178.007812 3.40625 174.578125 4.085938 171.167969 C 4.765625 167.753906 5.527344 164.359375 6.371094 160.984375 C 7.21875 157.605469 8.148438 154.253906 9.15625 150.921875 C 10.167969 147.59375 11.257812 144.289062 12.429688 141.011719 C 13.601562 137.734375 14.855469 134.488281 16.1875 131.273438 C 17.519531 128.058594 18.929688 124.878906 20.417969 121.730469 C 21.90625 118.585938 23.46875 115.476562 25.109375 112.410156 C 26.75 109.339844 28.464844 106.3125 30.253906 103.328125 C 32.042969 100.34375 33.90625 97.402344 35.839844 94.507812 C 37.773438 91.617188 39.773438 88.769531 41.847656 85.976562 C 43.921875 83.179688 46.0625 80.4375 48.269531 77.746094 C 50.476562 75.058594 52.75 72.421875 55.085938 69.84375 C 57.425781 67.265625 59.824219 64.746094 62.285156 62.285156 C 64.746094 59.824219 67.265625 57.425781 69.84375 55.085938 C 72.421875 52.75 75.058594 50.476562 77.746094 48.269531 C 80.4375 46.0625 83.179688 43.921875 85.976562 41.847656 C 88.769531 39.773438 91.617188 37.773438 94.507812 35.839844 C 97.402344 33.90625 100.34375 32.042969 103.328125 30.253906 C 106.3125 28.464844 109.339844 26.75 112.410156 25.109375 C 115.476562 23.46875 118.585938 21.90625 121.730469 20.417969 C 124.878906 18.929688 128.058594 17.519531 131.273438 16.1875 C 134.488281 14.855469 137.734375 13.601562 141.011719 12.429688 C 144.289062 11.257812 147.59375 10.167969 150.921875 9.15625 C 154.253906 8.148438 157.605469 7.21875 160.984375 6.371094 C 164.359375 5.527344 167.753906 4.765625 171.167969 4.085938 C 174.578125 3.40625 178.007812 2.8125 181.449219 2.300781 C 184.894531 1.789062 188.347656 1.363281 191.808594 1.023438 C 195.273438 0.683594 198.742188 0.425781 202.21875 0.257812 C 205.695312 0.0859375 209.171875 0 212.652344 0 Z M 212.652344 0 "/>
</g>
<path style=" stroke:none;fill-rule:nonzero;fill:rgb(100%,100%,100%);fill-opacity:1;" d="M 794.679688 1262.628906 L 794.679688 434.71875 C 794.679688 376.574219 811.292969 337.808594 891.59375 337.808594 L 996.8125 337.808594 L 996.8125 163.367188 C 977.429688 160.597656 916.511719 155.058594 844.519531 155.058594 C 695 155.058594 592.550781 246.433594 592.550781 415.339844 L 592.550781 1262.628906 M 988.503906 559.320312 L 420.875 559.320312 L 420.875 758.683594 L 963.585938 758.683594 "/>
</g>
</svg>
