<svg width="210" height="223" viewBox="0 0 210 223" fill="none" xmlns="http://www.w3.org/2000/svg">
<path fill-rule="evenodd" clip-rule="evenodd" d="M112.274 128.5L54.25 95L4.86641 180.535C2.83136 184.06 5.63552 188.409 9.68605 188.011L41.0118 184.929L54.0059 213.599C55.6861 217.306 60.8551 217.56 62.8901 214.035L112.274 128.5Z" fill="#FFC269" stroke="white" stroke-width="5"/>
<path fill-rule="evenodd" clip-rule="evenodd" d="M96.9997 128.5L155.023 95L204.407 180.535C206.442 184.06 203.638 188.409 199.587 188.011L168.262 184.929L155.268 213.599C153.587 217.306 148.418 217.56 146.383 214.035L96.9997 128.5Z" fill="#FFC269" stroke="white" stroke-width="5"/>
<circle cx="105" cy="81" r="78" fill="#FFC269" stroke="white" stroke-width="5"/>
<path d="M111.608 101.88V59H102.84C100.728 63.224 97.528 64.312 92.792 64.312H91V70.904H102.008V101.88H111.608Z" fill="white"/>
</svg>
