<svg width="210" height="223" viewBox="0 0 210 223" fill="none" xmlns="http://www.w3.org/2000/svg">
<path fill-rule="evenodd" clip-rule="evenodd" d="M112.274 128.5L54.25 95L4.86641 180.535C2.83136 184.06 5.63552 188.409 9.68605 188.011L41.0118 184.929L54.0059 213.599C55.6861 217.306 60.8551 217.56 62.8901 214.035L112.274 128.5Z" fill="#97D0ED" stroke="white" stroke-width="5"/>
<path fill-rule="evenodd" clip-rule="evenodd" d="M96.9997 128.5L155.023 95L204.407 180.535C206.442 184.06 203.638 188.409 199.587 188.011L168.262 184.929L155.268 213.599C153.587 217.306 148.418 217.56 146.383 214.035L96.9997 128.5Z" fill="#97D0ED" stroke="white" stroke-width="5"/>
<circle cx="105" cy="81" r="78" fill="#97D0ED" stroke="white" stroke-width="5"/>
<path d="M123.552 101V92.36H106.784L95.584 93.448C95.584 90.056 97.568 88.84 101.728 87.56L111.072 85C118.688 82.888 123.68 79.112 123.68 71.496C123.68 63.368 118.432 57.48 105.504 57.48C91.232 57.48 85.536 65.032 85.536 73.352V74.184H94.944V73.352C94.944 68.616 97.312 66.248 105.184 66.248C112.224 66.248 114.016 68.104 114.016 71.368C114.016 74.184 112.608 75.464 108.768 76.808L97.76 80.392C88.736 83.4 85.472 87.304 85.472 94.856V101H123.552Z" fill="white"/>
</svg>
