<svg width="210" height="223" viewBox="0 0 210 223" fill="none" xmlns="http://www.w3.org/2000/svg">
<path fill-rule="evenodd" clip-rule="evenodd" d="M112.274 128.5L54.25 95L4.86641 180.535C2.83136 184.06 5.63552 188.409 9.68605 188.011L41.0118 184.929L54.0059 213.599C55.6861 217.306 60.8551 217.56 62.8901 214.035L112.274 128.5Z" fill="#B05F20" stroke="white" stroke-width="5"/>
<path fill-rule="evenodd" clip-rule="evenodd" d="M96.9997 128.5L155.023 95L204.407 180.535C206.442 184.06 203.638 188.409 199.587 188.011L168.262 184.929L155.268 213.599C153.587 217.306 148.418 217.56 146.383 214.035L96.9997 128.5Z" fill="#B05F20" stroke="white" stroke-width="5"/>
<circle cx="105" cy="81" r="78" fill="#B05F20" stroke="white" stroke-width="5"/>
<path d="M105.952 101.64C118.432 101.64 125.856 97.288 125.856 88.968C125.856 82.696 121.76 79.496 115.488 78.6V77.896C121.056 77.192 124 73.864 124 68.936C124 61.384 117.664 57.48 106.208 57.48C92.256 57.48 85.6 63.624 85.6 72.648V72.968H95.776V72.648C95.776 68.296 97.696 66.696 105.376 66.696C112.672 66.696 114.464 67.976 114.464 70.984C114.464 73.672 112.8 75.016 109.088 75.016H97.632V82.888H109.984C114.016 82.888 116.064 84.232 116.064 87.432C116.064 91.144 113.568 92.424 105.504 92.424C96.992 92.424 95.776 90.824 95.776 86.472V85.448H85.6V86.472C85.6 95.944 91.936 101.64 105.952 101.64Z" fill="white"/>
</svg>
