<?xml version="1.0" encoding="UTF-8"?>
<svg xmlns="http://www.w3.org/2000/svg" xmlns:xlink="http://www.w3.org/1999/xlink" width="1417.5pt" height="1417.499962pt" viewBox="0 0 1417.5 1417.499962" version="1.2">
<defs>
<clipPath id="clip1">
  <path d="M 0.152344 745 L 615 745 L 615 1275.765625 L 0.152344 1275.765625 Z M 0.152344 745 "/>
</clipPath>
<clipPath id="clip2">
  <path d="M 631 586 L 1417 586 L 1417 1062 L 631 1062 Z M 631 586 "/>
</clipPath>
<clipPath id="clip3">
  <path d="M 631 426 L 1417 426 L 1417 902 L 631 902 Z M 631 426 "/>
</clipPath>
<clipPath id="clip4">
  <path d="M 30 83.265625 L 1414 83.265625 L 1414 878 L 30 878 Z M 30 83.265625 "/>
</clipPath>
</defs>
<g id="surface1">
<path style=" stroke:none;fill-rule:nonzero;fill:rgb(74.119568%,11.759949%,39.219666%);fill-opacity:1;" d="M 610.203125 1274.964844 L 1398.117188 820.003906 C 1400.980469 818.339844 1402.792969 814.8125 1402.792969 809.765625 L 1402.792969 662.082031 L 1380.78125 674.800781 L 1279.023438 733.539062 L 1259.117188 745.023438 L 614.824219 1117.035156 L 614.824219 1264.722656 C 614.824219 1269.769531 613.058594 1273.296875 610.203125 1274.964844 "/>
<path style=" stroke:none;fill-rule:nonzero;fill:rgb(65.098572%,6.269836%,32.159424%);fill-opacity:1;" d="M 1256.878906 901.5625 L 1147.316406 964.824219 L 1147.316406 809.578125 L 1256.878906 746.3125 Z M 1108.011719 832.269531 L 1108.011719 987.519531 L 1053.230469 1019.148438 L 1053.230469 863.902344 L 1108.011719 832.269531 "/>
<path style=" stroke:none;fill-rule:nonzero;fill:rgb(100%,32.159424%,61.959839%);fill-opacity:1;" d="M 1.457031 746.117188 C 2.261719 745.6875 3.410156 745.738281 4.644531 746.457031 L 599.011719 1089.644531 C 607.777344 1094.699219 614.824219 1106.941406 614.824219 1117.035156 L 1259.117188 745.023438 L 1279.023438 733.539062 L 1380.78125 674.800781 L 1402.792969 662.082031 C 1402.792969 651.980469 1395.691406 639.742188 1386.972656 634.6875 L 792.558594 291.496094 C 791.324219 290.78125 790.226562 290.734375 789.417969 291.210938 L 1.457031 746.117188 "/>
<path style=" stroke:none;fill-rule:nonzero;fill:rgb(100%,32.159424%,61.959839%);fill-opacity:1;" d="M 1.457031 907.328125 C 2.261719 906.851562 3.410156 906.902344 4.597656 907.613281 L 17.695312 915.191406 L 32.320312 906.710938 L 32.320312 889.515625 L 1.457031 907.328125 "/>
<path style=" stroke:none;fill-rule:nonzero;fill:rgb(100%,97.648621%,94.898987%);fill-opacity:1;" d="M 32.3125 906.726562 L 607.460938 1238.792969 L 607.460938 1100.644531 L 32.3125 768.570312 L 32.3125 906.726562 "/>
<path style=" stroke:none;fill-rule:nonzero;fill:rgb(94.898987%,85.879517%,74.899292%);fill-opacity:1;" d="M 41.589844 797.949219 L 598.171875 1119.304688 C 599.882812 1120.285156 601.265625 1119.488281 601.265625 1117.519531 C 601.265625 1115.539062 599.882812 1113.144531 598.171875 1112.15625 L 41.589844 790.808594 C 39.882812 789.816406 38.496094 790.617188 38.496094 792.59375 C 38.496094 794.5625 39.882812 796.96875 41.589844 797.949219 "/>
<path style=" stroke:none;fill-rule:nonzero;fill:rgb(94.898987%,85.879517%,74.899292%);fill-opacity:1;" d="M 41.589844 826.140625 L 598.171875 1147.488281 C 599.882812 1148.476562 601.265625 1147.679688 601.265625 1145.699219 C 601.265625 1143.730469 599.882812 1141.328125 598.171875 1140.347656 L 41.589844 818.988281 C 39.882812 818.007812 38.496094 818.808594 38.496094 820.777344 C 38.496094 822.753906 39.882812 825.152344 41.589844 826.140625 "/>
<path style=" stroke:none;fill-rule:nonzero;fill:rgb(94.898987%,85.879517%,74.899292%);fill-opacity:1;" d="M 41.589844 846.578125 L 598.171875 1167.933594 C 599.882812 1168.917969 601.265625 1168.117188 601.265625 1166.148438 C 601.265625 1164.179688 599.882812 1161.773438 598.171875 1160.785156 L 41.589844 839.4375 C 39.882812 838.449219 38.496094 839.246094 38.496094 841.226562 C 38.496094 843.195312 39.882812 845.597656 41.589844 846.578125 "/>
<path style=" stroke:none;fill-rule:nonzero;fill:rgb(94.898987%,85.879517%,74.899292%);fill-opacity:1;" d="M 41.589844 893.222656 L 598.171875 1214.582031 C 599.882812 1215.570312 601.265625 1214.761719 601.265625 1212.792969 C 601.265625 1210.816406 599.882812 1208.417969 598.171875 1207.429688 L 41.589844 886.082031 C 39.882812 885.09375 38.496094 885.898438 38.496094 887.871094 C 38.496094 889.839844 39.882812 892.242188 41.589844 893.222656 "/>
<path style=" stroke:none;fill-rule:nonzero;fill:rgb(94.898987%,85.879517%,74.899292%);fill-opacity:1;" d="M 41.589844 872.390625 L 598.171875 1193.738281 C 599.882812 1194.726562 601.265625 1193.917969 601.265625 1191.949219 C 601.265625 1189.980469 599.882812 1187.574219 598.171875 1186.59375 L 41.589844 865.238281 C 39.882812 864.257812 38.496094 865.058594 38.496094 867.027344 C 38.496094 868.996094 39.882812 871.402344 41.589844 872.390625 "/>
<path style=" stroke:none;fill-rule:nonzero;fill:rgb(100%,32.159424%,61.959839%);fill-opacity:1;" d="M 17.695312 915.191406 L 592.820312 1247.230469 L 592.820312 1230.367188 L 32.320312 906.710938 L 17.695312 915.191406 "/>
<g clip-path="url(#clip1)" clip-rule="nonzero">
<path style=" stroke:none;fill-rule:nonzero;fill:rgb(87.838745%,21.179199%,50.588989%);fill-opacity:1;" d="M 592.828125 1247.238281 L 592.835938 1109.09375 L 4.621094 769.472656 C 2.152344 768.050781 0.152344 764.585938 0.152344 761.738281 L 0.152344 749.035156 C 0.152344 747.609375 0.65625 746.605469 1.464844 746.140625 C 2.269531 745.671875 3.386719 745.738281 4.621094 746.457031 L 599.019531 1089.636719 C 607.753906 1094.683594 614.832031 1106.941406 614.832031 1117.027344 L 614.832031 1264.707031 C 614.832031 1269.75 613.058594 1273.296875 610.203125 1274.941406 C 607.339844 1276.59375 603.386719 1276.355469 599.019531 1273.832031 L 4.621094 930.652344 C 2.152344 929.230469 0.152344 925.765625 0.152344 922.910156 L 0.152344 910.207031 C 0.152344 907.359375 2.152344 906.203125 4.621094 907.628906 L 592.828125 1247.238281 "/>
</g>
<path style=" stroke:none;fill-rule:nonzero;fill:rgb(98.039246%,68.629456%,28.239441%);fill-opacity:1;" d="M 210.171875 916.320312 C 140.179688 952.183594 123.113281 973.574219 105.648438 1030.816406 L 194.542969 1082.144531 C 212.007812 1024.902344 229.078125 1003.511719 299.066406 967.648438 L 210.171875 916.320312 "/>
<path style=" stroke:none;fill-rule:nonzero;fill:rgb(87.838745%,21.179199%,50.588989%);fill-opacity:1;" d="M 1276.4375 530.40625 L 1393.285156 597.90625 L 1413.089844 586.46875 L 1296.195312 518.96875 L 1276.4375 530.40625 "/>
<path style=" stroke:none;fill-rule:nonzero;fill:rgb(98.039246%,68.629456%,28.239441%);fill-opacity:1;" d="M 1413.105469 586.453125 L 631.28125 1037.878906 L 47.632812 700.902344 L 829.464844 249.476562 L 1413.105469 586.453125 "/>
<path style=" stroke:none;fill-rule:nonzero;fill:rgb(85.099792%,53.729248%,11.759949%);fill-opacity:1;" d="M 47.640625 563.824219 L 58.042969 557.820312 L 58.042969 694.890625 L 47.632812 700.902344 L 47.640625 563.824219 "/>
<path style=" stroke:none;fill-rule:nonzero;fill:rgb(100%,97.648621%,94.898987%);fill-opacity:1;" d="M 628.71875 1024.386719 L 58.042969 694.890625 L 58.042969 557.820312 L 628.726562 887.308594 L 628.71875 1024.386719 "/>
<path style=" stroke:none;fill-rule:nonzero;fill:rgb(94.898987%,85.879517%,74.899292%);fill-opacity:1;" d="M 619.511719 905.824219 L 67.246094 586.960938 C 65.554688 585.988281 64.179688 583.605469 64.179688 581.644531 C 64.179688 579.691406 65.554688 578.902344 67.246094 579.875 L 619.511719 898.730469 C 621.207031 899.710938 622.582031 902.089844 622.582031 904.054688 C 622.582031 906.007812 621.207031 906.796875 619.511719 905.824219 "/>
<path style=" stroke:none;fill-rule:nonzero;fill:rgb(94.898987%,85.879517%,74.899292%);fill-opacity:1;" d="M 619.511719 954.074219 L 67.246094 635.21875 C 65.554688 634.238281 64.179688 631.859375 64.179688 629.902344 C 64.179688 627.941406 65.554688 627.152344 67.246094 628.132812 L 619.511719 946.988281 C 621.207031 947.96875 622.582031 950.351562 622.582031 952.304688 C 622.582031 954.265625 621.207031 955.054688 619.511719 954.074219 "/>
<path style=" stroke:none;fill-rule:nonzero;fill:rgb(94.898987%,85.879517%,74.899292%);fill-opacity:1;" d="M 619.511719 1000.355469 L 67.246094 681.5 C 65.554688 680.519531 64.179688 678.136719 64.179688 676.183594 C 64.179688 674.222656 65.554688 673.433594 67.246094 674.414062 L 619.511719 993.269531 C 621.207031 994.25 622.582031 996.628906 622.582031 998.585938 C 622.582031 1000.546875 621.207031 1001.335938 619.511719 1000.355469 "/>
<path style=" stroke:none;fill-rule:nonzero;fill:rgb(94.898987%,85.879517%,74.899292%);fill-opacity:1;" d="M 619.511719 979.679688 L 67.246094 660.824219 C 65.554688 659.84375 64.179688 657.460938 64.179688 655.507812 C 64.179688 653.546875 65.554688 652.753906 67.246094 653.734375 L 619.511719 972.59375 C 621.207031 973.566406 622.582031 975.953125 622.582031 977.90625 C 622.582031 979.863281 621.207031 980.660156 619.511719 979.679688 "/>
<path style=" stroke:none;fill-rule:nonzero;fill:rgb(96.078491%,89.408875%,81.568909%);fill-opacity:1;" d="M 628.71875 1024.386719 L 1389.742188 584.984375 L 1389.742188 447.898438 L 628.726562 887.308594 L 628.71875 1024.386719 "/>
<path style=" stroke:none;fill-rule:nonzero;fill:rgb(87.838745%,76.858521%,63.139343%);fill-opacity:1;" d="M 637.886719 924.050781 C 638.488281 924.050781 639.097656 923.898438 639.652344 923.574219 L 1382.363281 494.738281 C 1384.054688 493.757812 1384.632812 491.589844 1383.660156 489.898438 C 1382.671875 488.199219 1380.503906 487.621094 1378.8125 488.601562 L 636.109375 917.4375 C 634.414062 918.417969 633.835938 920.578125 634.8125 922.277344 C 635.46875 923.417969 636.660156 924.050781 637.886719 924.050781 "/>
<path style=" stroke:none;fill-rule:nonzero;fill:rgb(87.838745%,76.858521%,63.139343%);fill-opacity:1;" d="M 637.886719 970.628906 C 638.488281 970.628906 639.097656 970.480469 639.652344 970.15625 L 1382.363281 541.320312 C 1384.054688 540.339844 1384.632812 538.171875 1383.660156 536.480469 C 1382.671875 534.785156 1380.503906 534.203125 1378.8125 535.183594 L 636.109375 964.019531 C 634.414062 964.992188 633.835938 967.160156 634.8125 968.859375 C 635.46875 969.996094 636.660156 970.628906 637.886719 970.628906 "/>
<path style=" stroke:none;fill-rule:nonzero;fill:rgb(87.838745%,76.858521%,63.139343%);fill-opacity:1;" d="M 637.886719 1006.914062 C 638.488281 1006.914062 639.097656 1006.761719 639.652344 1006.4375 L 1382.363281 577.601562 C 1384.054688 576.628906 1384.632812 574.464844 1383.660156 572.761719 C 1382.671875 571.070312 1380.503906 570.492188 1378.8125 571.464844 L 636.109375 1000.300781 C 634.414062 1001.28125 633.835938 1003.449219 634.8125 1005.140625 C 635.46875 1006.28125 636.660156 1006.914062 637.886719 1006.914062 "/>
<g clip-path="url(#clip2)" clip-rule="nonzero">
<path style=" stroke:none;fill-rule:nonzero;fill:rgb(85.099792%,53.729248%,11.759949%);fill-opacity:1;" d="M 631.289062 1037.898438 L 634.40625 1061.007812 L 1416.253906 609.628906 C 1417.0625 609.15625 1417.535156 608.167969 1417.535156 606.75 L 1417.535156 594.128906 C 1417.535156 591.296875 1415.550781 587.886719 1413.089844 586.46875 L 1393.332031 597.90625 L 631.289062 1037.898438 "/>
</g>
<g clip-path="url(#clip3)" clip-rule="nonzero">
<path style=" stroke:none;fill-rule:nonzero;fill:rgb(85.099792%,53.729248%,11.759949%);fill-opacity:1;" d="M 631.289062 877.933594 L 634.40625 901.09375 L 1276.4375 530.40625 L 1296.195312 518.96875 L 1416.253906 449.667969 C 1417.0625 449.25 1417.535156 448.253906 1417.535156 446.835938 L 1417.535156 434.210938 C 1417.535156 431.382812 1415.550781 427.925781 1413.089844 426.507812 L 1393.285156 437.945312 L 1274.59375 506.484375 L 1254.796875 517.929688 L 631.289062 877.933594 "/>
</g>
<path style=" stroke:none;fill-rule:nonzero;fill:rgb(93.728638%,62.348938%,19.999695%);fill-opacity:1;" d="M 47.632812 700.902344 L 47.640625 563.824219 L 631.28125 900.800781 C 632.507812 901.507812 633.617188 901.578125 634.421875 901.109375 C 635.222656 900.644531 635.71875 899.65625 635.71875 898.238281 L 635.71875 885.632812 C 635.71875 882.808594 633.734375 879.367188 631.28125 877.949219 L 41.496094 537.429688 C 37.160156 534.929688 33.238281 534.691406 30.398438 536.328125 C 27.558594 537.976562 25.800781 541.488281 25.800781 546.492188 L 25.800781 693.023438 C 25.800781 703.03125 32.824219 715.195312 41.496094 720.203125 L 631.28125 1060.726562 C 632.507812 1061.429688 633.617188 1061.5 634.414062 1061.03125 C 635.222656 1060.574219 635.71875 1059.578125 635.71875 1058.160156 L 635.71875 1045.5625 C 635.71875 1042.730469 633.734375 1039.289062 631.28125 1037.878906 L 47.632812 700.902344 "/>
<g clip-path="url(#clip4)" clip-rule="nonzero">
<path style=" stroke:none;fill-rule:nonzero;fill:rgb(98.039246%,68.629456%,28.239441%);fill-opacity:1;" d="M 30.382812 536.3125 L 631.289062 877.933594 L 1254.796875 517.929688 L 1274.59375 506.484375 L 1393.285156 437.945312 L 1413.089844 426.507812 L 823.332031 86.027344 C 818.992188 83.519531 815.070312 83.28125 812.230469 84.894531 L 30.382812 536.3125 "/>
</g>
<path style=" stroke:none;fill-rule:nonzero;fill:rgb(100%,97.648621%,94.898987%);fill-opacity:1;" d="M 619.511719 322.175781 L 984.449219 532.890625 C 1000.039062 541.890625 1025.3125 541.890625 1040.902344 532.890625 L 1157.730469 465.433594 C 1173.3125 456.429688 1173.3125 441.84375 1157.730469 432.84375 L 792.789062 222.125 C 777.199219 213.121094 751.925781 213.121094 736.335938 222.125 L 619.511719 289.578125 C 603.925781 298.582031 603.925781 313.175781 619.511719 322.175781 "/>
<path style=" stroke:none;fill-rule:nonzero;fill:rgb(50.588989%,20.779419%,76.858521%);fill-opacity:1;" d="M 202.4375 706.1875 C 144.5 735.871094 130.367188 753.574219 115.90625 800.972656 L 189.496094 843.457031 C 203.957031 796.066406 218.089844 778.355469 276.019531 748.671875 L 202.4375 706.1875 "/>
</g>
</svg>
