<svg width="123" height="138" viewBox="0 0 123 138" fill="none" xmlns="http://www.w3.org/2000/svg">
<path d="M87.4162 22.0147L53.3542 119.406C52.8147 114.122 41.0558 107.604 35.4742 113.481L69.6638 15.9806C72.9663 11.8317 85.6189 14.5367 87.4162 22.0147Z" fill="#D9C14A" stroke="black" stroke-width="0.5"/>
<path d="M87.8696 17.1177L52.5642 118.223L49.6177 114.776L84.6473 15.6745L87.8696 17.1177Z" fill="#EFCF34" stroke="black" stroke-width="0.5"/>
<path d="M84.6843 15.201L49.2162 115.341L42.0222 114.421L77.6571 12.1499L84.6843 15.201Z" fill="#FCDB39" stroke="black" stroke-width="0.5"/>
<path d="M78.2027 12.788L42.7346 112.928L35.5757 113.082L71.4843 10.3567L78.2027 12.788Z" fill="#FFE35C" stroke="black" stroke-width="0.5"/>
<path d="M35.549 113.568L36.3198 137.213L53.429 119.493C53.4164 115.085 42.1439 107.223 35.549 113.568Z" fill="#FBCC69" stroke="black" stroke-width="0.5"/>
<path d="M36.1013 129.204L36.4371 137.092L42.0187 131.215C41.3461 130.17 39.221 128.304 36.1013 129.204Z" fill="#626260" stroke="black" stroke-width="0.5"/>
<path d="M69.51 15.8006C71.7356 13.2351 84.6534 13.7691 87.2068 22.5451L88.5409 19.1951C87.9992 15.4602 77.972 8.12457 70.5517 13.1424L69.51 15.8006Z" fill="#C4C4C4" stroke="black" stroke-width="0.5"/>
<path d="M70.5517 13.1426C74.235 10.2146 85.0713 11.777 88.4317 19.0676L90.6984 12.9319C90.1568 9.19702 80.0574 1.26014 72.6001 6.75157L70.5517 13.1426Z" fill="#F7B4A7" stroke="black" stroke-width="0.5"/>
</svg>
