<svg width="111" height="100" viewBox="0 0 111 100" fill="none" xmlns="http://www.w3.org/2000/svg">
<path d="M109.5 47.8322C109.5 73.3924 88.3493 94.1644 62.1943 94.1644C36.0394 94.1644 14.8884 73.3924 14.8884 47.8322C14.8884 22.272 36.0394 1.5 62.1943 1.5C88.3493 1.5 109.5 22.272 109.5 47.8322Z" fill="#6CA6FF" stroke="#2B2B2B" stroke-width="3"/>
<path d="M96.1118 51.9704C96.1118 77.5306 74.9608 98.3026 48.8059 98.3026C22.6509 98.3026 1.5 77.5306 1.5 51.9704C1.5 26.4102 22.6509 5.63818 48.8059 5.63818C74.9608 5.63818 96.1118 26.4102 96.1118 51.9704Z" fill="#1B6AE3" stroke="#2B2B2B" stroke-width="3"/>
<circle cx="48.6844" cy="51.8487" r="36.9737" fill="#1B6AE3" stroke="#2B2B2B" stroke-width="2"/>
<rect x="15.8625" y="26.4122" width="9.24999" height="1.70395" transform="rotate(45.4516 15.8625 26.4122)" fill="#1B6AE3"/>
<rect x="86.8806" y="73.8798" width="4.70705" height="1.70395" transform="rotate(29.065 86.8806 73.8798)" fill="#1B6AE3"/>
<rect x="24.719" y="17.8007" width="9.24999" height="1.70395" transform="rotate(53.6213 24.719 17.8007)" fill="#1B6AE3"/>
<path d="M90.3924 68.2008L93.839 70.4703L93.1086 72.1743L89.4389 69.6129L90.3924 68.2008Z" fill="#1B6AE3"/>
<rect x="46.7368" y="27.2632" width="3.89473" height="8.76315" rx="1" fill="#2B2B2B"/>
<rect x="46.7368" y="70.8354" width="3.89473" height="8.76315" rx="1" fill="#2B2B2B"/>
</svg>
