<?xml version="1.0" encoding="UTF-8"?>
<svg xmlns="http://www.w3.org/2000/svg" xmlns:xlink="http://www.w3.org/1999/xlink" width="1417.5pt" height="1417.499962pt" viewBox="0 0 1417.5 1417.499962" version="1.2">
<defs>
<clipPath id="clip1">
  <path d="M 279 142 L 1149 142 L 1149 1274 L 279 1274 Z M 279 142 "/>
</clipPath>
<clipPath id="clip2">
  <path d="M 1148.824219 1231.046875 C 1148.824219 1241.609375 1145.421875 1250.046875 1138.472656 1253.800781 C 1131.527344 1257.558594 1103.953125 1273.152344 1103.953125 1273.152344 L 338.828125 772.144531 C 329.773438 766.542969 320.667969 756.902344 313.75 744.570312 C 306.792969 732.234375 303.335938 719.546875 303.335938 708.984375 L 279.25 163.890625 C 279.25 163.890625 306.792969 148.246094 313.75 144.511719 C 320.667969 140.71875 329.773438 142.320312 338.863281 147.941406 L 1113.34375 626.136719 C 1122.417969 631.757812 1131.5625 641.390625 1138.507812 653.746094 C 1145.457031 666.066406 1148.859375 678.773438 1148.859375 689.320312 Z M 1148.824219 1231.046875 "/>
</clipPath>
<clipPath id="clip3">
  <path d="M 1148.824219 1231.046875 C 1148.824219 1241.609375 1145.421875 1250.046875 1138.472656 1253.800781 C 1131.527344 1257.558594 1103.953125 1273.152344 1103.953125 1273.152344 L 338.828125 772.144531 C 329.773438 766.542969 320.667969 756.902344 313.75 744.570312 C 306.792969 732.234375 303.335938 719.546875 303.335938 708.984375 L 279.25 163.890625 C 279.25 163.890625 306.792969 148.246094 313.75 144.511719 C 320.667969 140.71875 329.773438 142.320312 338.863281 147.941406 L 1113.34375 626.136719 C 1122.417969 631.757812 1131.5625 641.390625 1138.507812 653.746094 C 1145.457031 666.066406 1148.859375 678.773438 1148.859375 689.320312 L 1148.859375 1231.046875 "/>
</clipPath>
<clipPath id="clip4">
  <path d="M 863.796875 -267.503906 L -252.347656 511.941406 L 564.308594 1681.390625 L 1680.457031 901.945312 Z M 863.796875 -267.503906 "/>
</clipPath>
<linearGradient id="linear0" gradientUnits="userSpaceOnUse" x1="-0.0157106" y1="0" x2="1.021353" y2="0" gradientTransform="matrix(787.029127,1126.919608,-1126.919608,787.029127,330.321145,132.44035)">
<stop offset="0" style="stop-color:rgb(55.699158%,56.898499%,58.799744%);stop-opacity:1;"/>
<stop offset="0.015625" style="stop-color:rgb(55.844116%,57.012939%,58.891296%);stop-opacity:1;"/>
<stop offset="0.0195312" style="stop-color:rgb(57.885742%,58.654785%,60.18219%);stop-opacity:1;"/>
<stop offset="0.0234375" style="stop-color:rgb(59.78241%,60.18219%,61.381531%);stop-opacity:1;"/>
<stop offset="0.0273438" style="stop-color:rgb(60.974121%,61.373901%,62.530518%);stop-opacity:1;"/>
<stop offset="0.03125" style="stop-color:rgb(62.165833%,62.565613%,63.68103%);stop-opacity:1;"/>
<stop offset="0.0351562" style="stop-color:rgb(63.322449%,63.722229%,64.880371%);stop-opacity:1;"/>
<stop offset="0.0390625" style="stop-color:rgb(64.479065%,64.878845%,66.079712%);stop-opacity:1;"/>
<stop offset="0.0429687" style="stop-color:rgb(65.670776%,66.070557%,67.198181%);stop-opacity:1;"/>
<stop offset="0.046875" style="stop-color:rgb(66.862488%,67.263794%,68.318176%);stop-opacity:1;"/>
<stop offset="0.0507812" style="stop-color:rgb(67.990112%,68.190002%,69.117737%);stop-opacity:1;"/>
<stop offset="0.0546875" style="stop-color:rgb(69.117737%,69.117737%,69.917297%);stop-opacity:1;"/>
<stop offset="0.0585937" style="stop-color:rgb(69.88678%,69.717407%,70.516968%);stop-opacity:1;"/>
<stop offset="0.0625" style="stop-color:rgb(70.657349%,70.317078%,71.116638%);stop-opacity:1;"/>
<stop offset="0.0664062" style="stop-color:rgb(71.028137%,70.857239%,71.656799%);stop-opacity:1;"/>
<stop offset="0.0703125" style="stop-color:rgb(71.398926%,71.398926%,72.198486%);stop-opacity:1;"/>
<stop offset="0.078125" style="stop-color:rgb(71.398926%,71.398926%,72.198486%);stop-opacity:1;"/>
<stop offset="0.09375" style="stop-color:rgb(71.398926%,71.398926%,72.198486%);stop-opacity:1;"/>
<stop offset="0.125" style="stop-color:rgb(71.398926%,71.398926%,72.198486%);stop-opacity:1;"/>
<stop offset="0.25" style="stop-color:rgb(71.398926%,71.398926%,72.198486%);stop-opacity:1;"/>
<stop offset="0.5" style="stop-color:rgb(71.398926%,71.398926%,72.198486%);stop-opacity:1;"/>
<stop offset="0.5625" style="stop-color:rgb(71.398926%,71.398926%,72.198486%);stop-opacity:1;"/>
<stop offset="0.578125" style="stop-color:rgb(71.398926%,71.398926%,72.198486%);stop-opacity:1;"/>
<stop offset="0.585938" style="stop-color:rgb(71.398926%,71.412659%,72.198486%);stop-opacity:1;"/>
<stop offset="0.589844" style="stop-color:rgb(71.612549%,71.627808%,72.209167%);stop-opacity:1;"/>
<stop offset="0.59375" style="stop-color:rgb(71.827698%,71.827698%,72.219849%);stop-opacity:1;"/>
<stop offset="0.597656" style="stop-color:rgb(72.406006%,72.219849%,72.814941%);stop-opacity:1;"/>
<stop offset="0.601563" style="stop-color:rgb(72.984314%,72.612%,73.41156%);stop-opacity:1;"/>
<stop offset="0.605469" style="stop-color:rgb(74.459839%,74.273682%,75.045776%);stop-opacity:1;"/>
<stop offset="0.609375" style="stop-color:rgb(75.935364%,75.935364%,76.681519%);stop-opacity:1;"/>
<stop offset="0.613281" style="stop-color:rgb(79.316711%,79.316711%,79.53949%);stop-opacity:1;"/>
<stop offset="0.617188" style="stop-color:rgb(82.699585%,82.699585%,82.398987%);stop-opacity:1;"/>
<stop offset="0.625" style="stop-color:rgb(82.699585%,82.699585%,82.398987%);stop-opacity:1;"/>
<stop offset="0.632812" style="stop-color:rgb(82.649231%,82.649231%,82.359314%);stop-opacity:1;"/>
<stop offset="0.636719" style="stop-color:rgb(80.99823%,80.99823%,81.057739%);stop-opacity:1;"/>
<stop offset="0.640625" style="stop-color:rgb(79.396057%,79.396057%,79.795837%);stop-opacity:1;"/>
<stop offset="0.644531" style="stop-color:rgb(76.449585%,76.449585%,76.863098%);stop-opacity:1;"/>
<stop offset="0.648438" style="stop-color:rgb(73.504639%,73.504639%,73.930359%);stop-opacity:1;"/>
<stop offset="0.652344" style="stop-color:rgb(70.414734%,70.426941%,71.180725%);stop-opacity:1;"/>
<stop offset="0.65625" style="stop-color:rgb(67.326355%,67.350769%,68.431091%);stop-opacity:1;"/>
<stop offset="0.660156" style="stop-color:rgb(64.564514%,64.788818%,65.893555%);stop-opacity:1;"/>
<stop offset="0.664062" style="stop-color:rgb(61.802673%,62.226868%,63.357544%);stop-opacity:1;"/>
<stop offset="0.667969" style="stop-color:rgb(58.750916%,59.562683%,61.071777%);stop-opacity:1;"/>
<stop offset="0.671875" style="stop-color:rgb(55.699158%,56.898499%,58.787537%);stop-opacity:1;"/>
<stop offset="0.679687" style="stop-color:rgb(55.699158%,56.898499%,58.59375%);stop-opacity:1;"/>
<stop offset="0.683594" style="stop-color:rgb(55.499268%,56.698608%,58.399963%);stop-opacity:1;"/>
<stop offset="0.6875" style="stop-color:rgb(55.299377%,56.498718%,58.399963%);stop-opacity:1;"/>
<stop offset="0.695312" style="stop-color:rgb(55.299377%,56.498718%,58.39386%);stop-opacity:1;"/>
<stop offset="0.703125" style="stop-color:rgb(55.293274%,56.492615%,58.192444%);stop-opacity:1;"/>
<stop offset="0.710937" style="stop-color:rgb(55.093384%,56.292725%,57.987976%);stop-opacity:1;"/>
<stop offset="0.714844" style="stop-color:rgb(54.699707%,55.899048%,57.788086%);stop-opacity:1;"/>
<stop offset="0.71875" style="stop-color:rgb(54.499817%,55.699158%,57.598877%);stop-opacity:1;"/>
<stop offset="0.75" style="stop-color:rgb(54.489136%,55.688477%,57.449341%);stop-opacity:1;"/>
<stop offset="0.753906" style="stop-color:rgb(54.289246%,55.488586%,57.098389%);stop-opacity:1;"/>
<stop offset="0.757813" style="stop-color:rgb(54.098511%,55.299377%,56.898499%);stop-opacity:1;"/>
<stop offset="0.765625" style="stop-color:rgb(54.089355%,55.288696%,56.898499%);stop-opacity:1;"/>
<stop offset="0.769531" style="stop-color:rgb(53.889465%,55.088806%,56.698608%);stop-opacity:1;"/>
<stop offset="0.773438" style="stop-color:rgb(53.69873%,54.899597%,56.498718%);stop-opacity:1;"/>
<stop offset="0.78125" style="stop-color:rgb(53.69873%,54.890442%,56.498718%);stop-opacity:1;"/>
<stop offset="0.785156" style="stop-color:rgb(53.49884%,54.690552%,56.498718%);stop-opacity:1;"/>
<stop offset="0.789063" style="stop-color:rgb(53.29895%,54.499817%,56.498718%);stop-opacity:1;"/>
<stop offset="0.796875" style="stop-color:rgb(53.29895%,54.499817%,56.491089%);stop-opacity:1;"/>
<stop offset="0.800781" style="stop-color:rgb(53.09906%,54.298401%,56.291199%);stop-opacity:1;"/>
<stop offset="0.804688" style="stop-color:rgb(52.89917%,54.098511%,56.098938%);stop-opacity:1;"/>
<stop offset="0.8125" style="stop-color:rgb(52.89917%,54.098511%,56.098938%);stop-opacity:1;"/>
<stop offset="0.816406" style="stop-color:rgb(52.69928%,53.898621%,55.899048%);stop-opacity:1;"/>
<stop offset="0.820313" style="stop-color:rgb(52.49939%,53.69873%,55.699158%);stop-opacity:1;"/>
<stop offset="0.828125" style="stop-color:rgb(52.49939%,53.69873%,55.699158%);stop-opacity:1;"/>
<stop offset="0.835938" style="stop-color:rgb(52.49939%,53.69873%,55.699158%);stop-opacity:1;"/>
<stop offset="0.839844" style="stop-color:rgb(52.493286%,53.691101%,55.499268%);stop-opacity:1;"/>
<stop offset="0.84375" style="stop-color:rgb(52.488708%,53.684998%,55.299377%);stop-opacity:1;"/>
<stop offset="0.851562" style="stop-color:rgb(52.34375%,53.491211%,55.299377%);stop-opacity:1;"/>
<stop offset="0.859375" style="stop-color:rgb(52.192688%,53.292847%,55.293274%);stop-opacity:1;"/>
<stop offset="0.875" style="stop-color:rgb(51.992798%,53.092957%,55.093384%);stop-opacity:1;"/>
<stop offset="0.882812" style="stop-color:rgb(51.799011%,52.896118%,54.896545%);stop-opacity:1;"/>
<stop offset="0.886719" style="stop-color:rgb(51.795959%,52.696228%,54.696655%);stop-opacity:1;"/>
<stop offset="0.890625" style="stop-color:rgb(51.792908%,52.49939%,54.499817%);stop-opacity:1;"/>
<stop offset="0.894531" style="stop-color:rgb(51.596069%,52.49939%,54.499817%);stop-opacity:1;"/>
<stop offset="0.898438" style="stop-color:rgb(51.399231%,52.49939%,54.499817%);stop-opacity:1;"/>
<stop offset="0.902344" style="stop-color:rgb(51.199341%,52.348328%,54.499817%);stop-opacity:1;"/>
<stop offset="0.90625" style="stop-color:rgb(50.999451%,52.198792%,54.499817%);stop-opacity:1;"/>
<stop offset="0.914062" style="stop-color:rgb(50.999451%,52.198792%,54.493713%);stop-opacity:1;"/>
<stop offset="0.917969" style="stop-color:rgb(50.994873%,52.194214%,54.289246%);stop-opacity:1;"/>
<stop offset="0.921875" style="stop-color:rgb(50.990295%,52.189636%,54.089355%);stop-opacity:1;"/>
<stop offset="0.925781" style="stop-color:rgb(50.590515%,51.789856%,53.694153%);stop-opacity:1;"/>
<stop offset="0.929687" style="stop-color:rgb(50.190735%,51.390076%,53.29895%);stop-opacity:1;"/>
<stop offset="0.933594" style="stop-color:rgb(49.790955%,50.990295%,53.091431%);stop-opacity:1;"/>
<stop offset="0.9375" style="stop-color:rgb(49.391174%,50.590515%,52.883911%);stop-opacity:1;"/>
<stop offset="0.941406" style="stop-color:rgb(48.786926%,49.986267%,52.333069%);stop-opacity:1;"/>
<stop offset="0.945312" style="stop-color:rgb(48.184204%,49.382019%,51.782227%);stop-opacity:1;"/>
<stop offset="0.949219" style="stop-color:rgb(47.233582%,48.579407%,50.982666%);stop-opacity:1;"/>
<stop offset="0.953125" style="stop-color:rgb(46.282959%,47.776794%,50.183105%);stop-opacity:1;"/>
<stop offset="0.957031" style="stop-color:rgb(45.280457%,46.826172%,49.377441%);stop-opacity:1;"/>
<stop offset="0.960937" style="stop-color:rgb(44.277954%,45.877075%,48.571777%);stop-opacity:1;"/>
<stop offset="0.964844" style="stop-color:rgb(43.121338%,44.471741%,47.218323%);stop-opacity:1;"/>
<stop offset="0.96875" style="stop-color:rgb(41.964722%,43.066406%,45.864868%);stop-opacity:1;"/>
<stop offset="0.972656" style="stop-color:rgb(39.779663%,41.12854%,43.925476%);stop-opacity:1;"/>
<stop offset="0.976562" style="stop-color:rgb(37.594604%,39.1922%,41.986084%);stop-opacity:1;"/>
<stop offset="0.980469" style="stop-color:rgb(37.046814%,38.595581%,41.192627%);stop-opacity:1;"/>
<stop offset="0.984375" style="stop-color:rgb(36.499023%,37.998962%,40.39917%);stop-opacity:1;"/>
<stop offset="1" style="stop-color:rgb(36.499023%,37.998962%,40.39917%);stop-opacity:1;"/>
</linearGradient>
</defs>
<g id="surface1">
<g clip-path="url(#clip1)" clip-rule="nonzero">
<g clip-path="url(#clip2)" clip-rule="nonzero">
<g clip-path="url(#clip3)" clip-rule="nonzero">
<g clip-path="url(#clip4)" clip-rule="nonzero">
<path style=" stroke:none;fill-rule:nonzero;fill:url(#linear0);" d="M 863.761719 -266.449219 L -251.855469 512.6875 L 564.34375 1681.371094 L 1679.960938 902.238281 Z M 863.761719 -266.449219 "/>
</g>
</g>
</g>
</g>
<path style=" stroke:none;fill-rule:nonzero;fill:rgb(96.078491%,95.689392%,95.289612%);fill-opacity:1;" d="M 1114.375 1250.472656 C 1114.375 1261.03125 1110.898438 1269.46875 1103.953125 1273.152344 C 1097.007812 1276.980469 1087.933594 1275.351562 1078.789062 1269.75 L 304.378906 791.566406 C 295.277344 785.964844 286.167969 776.324219 279.25 763.921875 C 272.296875 751.585938 268.835938 738.898438 268.835938 728.335938 L 268.835938 186.625 C 268.835938 176.078125 272.296875 167.65625 279.25 163.890625 C 286.167969 160.128906 295.277344 161.703125 304.363281 167.324219 L 1078.773438 645.515625 C 1087.917969 651.136719 1096.992188 660.804688 1103.9375 673.125 C 1110.886719 685.445312 1114.359375 698.15625 1114.359375 708.730469 L 1114.359375 1250.472656 "/>
<path style=" stroke:none;fill-rule:nonzero;fill:rgb(53.329468%,83.918762%,79.998779%);fill-opacity:1;" d="M 1049.726562 1233.742188 L 333.441406 791.496094 L 333.460938 203.351562 L 1049.746094 645.601562 L 1049.746094 1233.742188 "/>
<path style=" stroke:none;fill-rule:nonzero;fill:rgb(42.349243%,43.528748%,45.878601%);fill-opacity:1;" d="M 342.597656 790.359375 L 342.597656 208.96875 L 333.460938 203.351562 L 333.460938 791.496094 L 342.597656 790.359375 "/>
<path style=" stroke:none;fill-rule:nonzero;fill:rgb(57.649231%,58.428955%,59.999084%);fill-opacity:1;" d="M 333.460938 791.496094 L 1049.746094 1233.742188 L 1049.746094 1226.9375 L 342.621094 790.359375 L 333.484375 791.496094 "/>
<path style=" stroke:none;fill-rule:nonzero;fill:rgb(23.139954%,25.878906%,38.42926%);fill-opacity:1;" d="M 1073.757812 1006.984375 C 1070.28125 1004.855469 1067.09375 1001.3125 1064.613281 996.988281 C 1062.203125 992.664062 1060.855469 988.058594 1060.855469 984.015625 L 1060.855469 909.019531 C 1060.855469 905.050781 1062.203125 902.144531 1064.613281 900.796875 C 1067.09375 899.453125 1070.28125 899.875 1073.757812 902.003906 L 1088.289062 911.003906 C 1091.761719 913.132812 1095.023438 916.675781 1097.433594 921.070312 C 1099.839844 925.394531 1101.257812 930.003906 1101.257812 933.972656 L 1101.257812 1008.96875 C 1101.257812 1013.007812 1099.839844 1015.914062 1097.433594 1017.261719 C 1095.023438 1018.539062 1091.761719 1018.113281 1088.289062 1015.984375 L 1073.757812 1006.984375 "/>
<path style=" stroke:none;fill-rule:nonzero;fill:rgb(71.369934%,71.369934%,71.759033%);fill-opacity:1;" d="M 1094.808594 1005 C 1094.808594 1006.914062 1094.171875 1008.402344 1092.894531 1009.109375 C 1091.617188 1009.820312 1089.988281 1009.464844 1088.289062 1008.472656 L 1073.757812 999.46875 C 1072.125 998.476562 1070.425781 996.703125 1069.21875 994.507812 C 1067.945312 992.238281 1067.304688 989.972656 1067.304688 987.984375 L 1067.304688 912.992188 C 1067.304688 911.148438 1067.945312 909.589844 1069.21875 908.878906 C 1070.425781 908.171875 1072.125 908.523438 1073.757812 909.515625 L 1088.289062 918.519531 C 1089.988281 919.511719 1091.621094 921.285156 1092.894531 923.550781 C 1094.171875 925.820312 1094.808594 928.089844 1094.808594 930.003906 L 1094.808594 1005 "/>
<path style=" stroke:none;fill-rule:nonzero;fill:rgb(23.139954%,25.878906%,38.42926%);fill-opacity:1;" d="M 307.210938 533.261719 C 307.210938 534.015625 306.992188 534.625 306.488281 534.902344 C 305.992188 535.148438 305.355469 535.035156 304.71875 534.652344 L 299.046875 531.164062 C 298.410156 530.746094 297.769531 530.050781 297.273438 529.195312 C 296.800781 528.308594 296.550781 527.421875 296.550781 526.679688 L 296.550781 422.535156 C 296.550781 421.789062 296.800781 421.210938 297.273438 420.933594 C 297.769531 420.683594 298.410156 420.789062 299.046875 421.152344 L 304.71875 424.667969 C 305.355469 425.058594 305.992188 425.746094 306.488281 426.609375 C 306.992188 427.496094 307.210938 428.410156 307.210938 429.125 L 307.210938 533.261719 "/>
<path style=" stroke:none;fill-rule:nonzero;fill:rgb(96.078491%,95.689392%,95.289612%);fill-opacity:1;" d="M 497.878906 804.679688 C 496.914062 804.679688 496.164062 803.898438 496.164062 802.90625 L 496.164062 395.734375 C 496.164062 394.789062 496.914062 394.019531 497.878906 394.019531 C 498.820312 394.019531 499.570312 394.789062 499.570312 395.734375 L 499.570312 802.90625 C 499.570312 803.898438 498.820312 804.679688 497.878906 804.679688 "/>
<path style=" stroke:none;fill-rule:nonzero;fill:rgb(96.078491%,95.689392%,95.289612%);fill-opacity:1;" d="M 600.25 869.609375 C 599.304688 869.609375 598.535156 868.828125 598.535156 867.90625 L 598.535156 460.691406 C 598.535156 459.75 599.304688 458.976562 600.25 458.976562 C 601.183594 458.976562 601.964844 459.75 601.964844 460.691406 L 601.964844 867.90625 C 601.964844 868.828125 601.183594 869.609375 600.25 869.609375 "/>
<path style=" stroke:none;fill-rule:nonzero;fill:rgb(96.078491%,95.689392%,95.289612%);fill-opacity:1;" d="M 702.640625 933.757812 C 701.671875 933.757812 700.925781 932.980469 700.925781 932.058594 L 700.925781 524.878906 C 700.925781 523.90625 701.671875 523.160156 702.640625 523.160156 C 703.585938 523.160156 704.328125 523.90625 704.328125 524.878906 L 704.328125 932.058594 C 704.328125 932.980469 703.585938 933.757812 702.640625 933.757812 "/>
<path style=" stroke:none;fill-rule:nonzero;fill:rgb(96.078491%,95.689392%,95.289612%);fill-opacity:1;" d="M 805.035156 994.507812 C 804.042969 994.507812 803.261719 993.726562 803.261719 992.804688 L 803.261719 585.597656 C 803.261719 584.652344 804.042969 583.882812 805.035156 583.882812 C 805.957031 583.882812 806.734375 584.652344 806.734375 585.597656 L 806.734375 992.804688 C 806.734375 993.726562 805.957031 994.507812 805.035156 994.507812 "/>
<path style=" stroke:none;fill-rule:nonzero;fill:rgb(96.078491%,95.689392%,95.289612%);fill-opacity:1;" d="M 907.390625 1055.824219 C 906.46875 1055.824219 905.691406 1055.042969 905.691406 1054.121094 L 905.691406 646.90625 C 905.691406 645.960938 906.46875 645.210938 907.390625 645.210938 C 908.3125 645.210938 909.09375 645.960938 909.09375 646.90625 L 909.09375 1054.121094 C 909.09375 1055.042969 908.3125 1055.824219 907.390625 1055.824219 "/>
<path style=" stroke:none;fill-rule:nonzero;fill:rgb(96.078491%,95.689392%,95.289612%);fill-opacity:1;" d="M 963.320312 1012.230469 C 963.035156 1012.230469 962.679688 1012.15625 962.398438 1012.015625 L 436.160156 690.015625 C 435.359375 689.511719 435.082031 688.464844 435.578125 687.664062 C 436.082031 686.855469 437.128906 686.605469 437.929688 687.109375 L 964.167969 1009.109375 C 965.019531 1009.605469 965.230469 1010.597656 964.808594 1011.449219 C 964.453125 1011.945312 963.886719 1012.230469 963.320312 1012.230469 "/>
<path style=" stroke:none;fill-rule:nonzero;fill:rgb(96.078491%,95.689392%,95.289612%);fill-opacity:1;" d="M 963.320312 921 C 963.035156 921 962.679688 920.929688 962.398438 920.71875 L 436.160156 598.78125 C 435.359375 598.277344 435.082031 597.230469 435.578125 596.398438 C 436.082031 595.589844 437.128906 595.34375 437.929688 595.847656 L 964.167969 917.8125 C 965.019531 918.308594 965.230469 919.371094 964.808594 920.222656 C 964.453125 920.71875 963.886719 921 963.320312 921 "/>
<path style=" stroke:none;fill-rule:nonzero;fill:rgb(96.078491%,95.689392%,95.289612%);fill-opacity:1;" d="M 963.320312 829.703125 C 963.035156 829.703125 962.679688 829.628906 962.398438 829.488281 L 436.160156 507.519531 C 435.359375 507.015625 435.082031 505.964844 435.578125 505.164062 C 436.082031 504.328125 437.128906 504.078125 437.929688 504.582031 L 964.167969 826.582031 C 965.019531 827.078125 965.230469 828.140625 964.808594 828.921875 C 964.453125 829.488281 963.886719 829.703125 963.320312 829.703125 "/>
<path style=" stroke:none;fill-rule:nonzero;fill:rgb(96.078491%,95.689392%,95.289612%);fill-opacity:1;" d="M 963.320312 738.472656 C 963.035156 738.472656 962.679688 738.402344 962.398438 738.261719 L 436.160156 416.253906 C 435.359375 415.75 435.082031 414.703125 435.578125 413.902344 C 436.082031 413.09375 437.128906 412.84375 437.929688 413.339844 L 964.167969 735.285156 C 965.019531 735.78125 965.230469 736.84375 964.808594 737.695312 C 964.453125 738.191406 963.886719 738.472656 963.320312 738.472656 "/>
<path style=" stroke:none;fill-rule:nonzero;fill:rgb(9.799194%,10.198975%,17.248535%);fill-opacity:1;" d="M 903.632812 938.933594 L 911.148438 935.390625 L 805.246094 731.101562 L 701.535156 767.820312 L 603.488281 664.816406 L 502.003906 465.902344 L 493.753906 468.199219 L 597.007812 670.550781 L 703.71875 782.632812 L 804.75 746.835938 L 903.632812 938.933594 "/>
<path style=" stroke:none;fill-rule:nonzero;fill:rgb(93.328857%,20.388794%,21.179199%);fill-opacity:1;" d="M 481.765625 457.117188 C 481.765625 466.867188 488.960938 479.214844 497.878906 484.699219 C 506.765625 490.179688 513.96875 486.71875 513.96875 476.972656 C 513.96875 467.226562 506.765625 454.878906 497.878906 449.394531 C 488.960938 443.914062 481.765625 447.371094 481.765625 457.117188 "/>
<path style=" stroke:none;fill-rule:nonzero;fill:rgb(93.328857%,20.388794%,21.179199%);fill-opacity:1;" d="M 584.128906 657.757812 C 584.128906 667.53125 591.359375 679.851562 600.25 685.339844 C 609.167969 690.816406 616.359375 687.359375 616.359375 677.613281 C 616.359375 667.867188 609.167969 655.515625 600.25 650.03125 C 591.359375 644.550781 584.128906 648.011719 584.128906 657.757812 "/>
<path style=" stroke:none;fill-rule:nonzero;fill:rgb(93.328857%,20.388794%,21.179199%);fill-opacity:1;" d="M 686.527344 765.269531 C 686.527344 775.050781 693.722656 787.382812 702.640625 792.839844 C 711.539062 798.300781 718.695312 794.898438 718.695312 785.117188 C 718.695312 775.402344 711.539062 763 702.640625 757.542969 C 693.722656 752.082031 686.527344 755.554688 686.527344 765.269531 "/>
<path style=" stroke:none;fill-rule:nonzero;fill:rgb(93.328857%,20.388794%,21.179199%);fill-opacity:1;" d="M 788.871094 729.046875 C 788.871094 738.828125 796.101562 751.160156 805.035156 756.621094 C 813.894531 762.078125 821.125 758.605469 821.125 748.894531 C 821.125 739.109375 813.894531 726.777344 805.035156 721.320312 C 796.101562 715.859375 788.871094 719.335938 788.871094 729.046875 "/>
<path style=" stroke:none;fill-rule:nonzero;fill:rgb(93.328857%,20.388794%,21.179199%);fill-opacity:1;" d="M 891.300781 927.238281 C 891.300781 937.019531 898.460938 949.355469 907.390625 954.8125 C 916.320312 960.269531 923.480469 956.796875 923.480469 947.085938 C 923.480469 937.304688 916.320312 924.96875 907.390625 919.511719 C 898.460938 914.054688 891.300781 917.527344 891.300781 927.238281 "/>
<path style=" stroke:none;fill-rule:nonzero;fill:rgb(96.078491%,95.689392%,95.289612%);fill-opacity:1;" d="M 985.929688 1115.011719 L 965.019531 1079.285156 L 965.019531 1091.265625 L 437.042969 766.117188 L 437.042969 369.152344 L 447.597656 375.628906 L 426.6875 339.882812 L 405.785156 349.90625 L 416.113281 356.25 L 416.113281 776.183594 L 965.019531 1114.160156 L 965.019531 1125.078125 L 985.929688 1115.011719 "/>
</g>
</svg>
