<?xml version="1.0" encoding="UTF-8"?>
<svg xmlns="http://www.w3.org/2000/svg" xmlns:xlink="http://www.w3.org/1999/xlink" width="1417.5pt" height="1417.499962pt" viewBox="0 0 1417.5 1417.499962" version="1.2">
<g id="surface1">
<path style=" stroke:none;fill-rule:nonzero;fill:rgb(9.01947%,9.408569%,8.239746%);fill-opacity:1;" d="M 752.335938 1171.585938 C 753.5625 1180.707031 754.136719 1190.125 754.761719 1199.277344 C 755.226562 1206.089844 754.601562 1212.777344 749.128906 1217.640625 C 745.152344 1221.175781 738.21875 1222.164062 732.925781 1222.148438 C 726.027344 1222.132812 719.570312 1222.613281 712.753906 1223.945312 C 703.011719 1225.863281 694.4375 1230.300781 686.167969 1235.457031 C 674.09375 1242.960938 661.578125 1249.808594 648.660156 1255.726562 C 635.140625 1261.914062 620.667969 1264.953125 605.875 1263.347656 C 596.519531 1262.324219 579.40625 1260.292969 575.363281 1249.925781 C 572.882812 1243.5625 574.558594 1232.660156 576.582031 1226.371094 C 579.601562 1216.992188 587.992188 1209.910156 595.402344 1203.875 C 604.15625 1196.730469 613.824219 1191.140625 623.757812 1185.796875 C 638.574219 1177.839844 651.34375 1170.761719 663.644531 1159.117188 L 752.335938 1171.585938 "/>
<path style=" stroke:none;fill-rule:nonzero;fill:rgb(3.919983%,3.919983%,3.138733%);fill-opacity:1;" d="M 604.152344 1255.34375 C 619.375 1257.003906 634.277344 1253.878906 648.183594 1247.5 C 661.492188 1241.410156 674.375 1234.355469 686.800781 1226.621094 C 695.328125 1221.324219 704.144531 1216.75 714.175781 1214.785156 C 721.199219 1213.402344 727.84375 1212.910156 734.949219 1212.925781 C 740.394531 1212.945312 747.535156 1211.929688 751.628906 1208.289062 C 752.96875 1207.089844 754.019531 1205.789062 754.84375 1204.40625 C 754.59375 1209.363281 753.21875 1214.011719 749.128906 1217.640625 C 745.152344 1221.175781 738.21875 1222.164062 732.925781 1222.148438 C 726.027344 1222.132812 719.570312 1222.613281 712.753906 1223.945312 C 703.011719 1225.863281 694.4375 1230.300781 686.167969 1235.457031 C 674.09375 1242.960938 661.578125 1249.808594 648.660156 1255.726562 C 635.140625 1261.914062 620.667969 1264.953125 605.875 1263.347656 C 596.519531 1262.324219 579.40625 1260.292969 575.363281 1249.925781 C 574.71875 1248.273438 574.367188 1246.300781 574.214844 1244.203125 C 580.058594 1252.546875 595.386719 1254.386719 604.152344 1255.34375 "/>
<path style=" stroke:none;fill-rule:nonzero;fill:rgb(9.01947%,9.408569%,8.239746%);fill-opacity:1;" d="M 912.402344 1267.671875 C 914.925781 1280.5625 917.714844 1293.816406 916.15625 1307.128906 C 914.71875 1319.441406 909.28125 1325.0625 900.554688 1333.140625 C 886.527344 1346.125 880.175781 1365.632812 867.1875 1379.882812 C 854.609375 1393.699219 829.976562 1408.421875 810.542969 1407.90625 C 790.128906 1407.371094 781.066406 1391.898438 783.507812 1372.992188 C 784.695312 1363.773438 787.195312 1354.171875 789.882812 1345.082031 C 792.898438 1334.890625 797.085938 1324.988281 800.773438 1314.984375 C 804.429688 1305.042969 808.339844 1296.105469 815.109375 1287.867188 C 818.074219 1284.261719 821.644531 1282.113281 821.457031 1277.023438 L 912.402344 1267.671875 "/>
<path style=" stroke:none;fill-rule:nonzero;fill:rgb(3.919983%,3.919983%,3.138733%);fill-opacity:1;" d="M 807.535156 1395.972656 C 828.453125 1396.511719 854.976562 1380.671875 868.515625 1365.808594 C 882.496094 1350.453125 889.332031 1329.453125 904.4375 1315.484375 C 909.601562 1310.695312 913.648438 1306.679688 916.542969 1301.867188 C 916.480469 1303.625 916.355469 1305.375 916.15625 1307.128906 C 914.71875 1319.441406 909.28125 1325.0625 900.554688 1333.140625 C 886.527344 1346.125 880.175781 1365.632812 867.1875 1379.882812 C 854.609375 1393.699219 829.976562 1408.421875 810.542969 1407.90625 C 794.359375 1407.480469 785.339844 1397.652344 783.5 1384.183594 C 788.328125 1391.1875 796.335938 1395.679688 807.535156 1395.972656 "/>
<path style=" stroke:none;fill-rule:nonzero;fill:rgb(25.489807%,31.369019%,63.529968%);fill-opacity:1;" d="M 893 857.878906 C 892.382812 869.886719 897.21875 881.914062 897.171875 894.066406 C 897.113281 908.613281 896.410156 922.457031 897.308594 937.121094 C 899.972656 980.621094 900.21875 1024.480469 904.273438 1067.890625 C 907.847656 1106.066406 917.691406 1143.667969 920.0625 1181.945312 C 921.273438 1201.59375 914.027344 1220.398438 919.292969 1238.074219 C 927.433594 1265.363281 915.847656 1283.929688 896.617188 1302.667969 C 880.414062 1318.441406 848.421875 1328.121094 827.128906 1319.292969 C 814.960938 1314.226562 809.640625 1302.976562 808.441406 1290.691406 C 807.324219 1279.238281 813.523438 1269.085938 812.59375 1259.5625 C 811.328125 1246.480469 806.644531 1234.613281 807.074219 1220.214844 C 807.691406 1199.46875 809.847656 1178.546875 811.949219 1157.886719 C 813.671875 1140.917969 813.449219 1124.136719 811.386719 1107.183594 C 809.976562 1095.554688 809.347656 1083.789062 806.414062 1072.453125 C 801.105469 1051.949219 790.167969 1033.316406 784.207031 1013.019531 C 777.265625 989.367188 776.242188 965.464844 770.871094 941.671875 C 764.894531 915.210938 745.402344 884.4375 745.335938 857.253906 L 893 857.878906 "/>
<path style=" stroke:none;fill-rule:nonzero;fill:rgb(14.898682%,19.60907%,37.249756%);fill-opacity:1;" d="M 763.421875 886.269531 C 767.15625 903.824219 762.03125 924.4375 762.03125 942.371094 C 762.027344 966.71875 762.199219 990.972656 762.183594 1015.253906 C 762.167969 1039.707031 760.441406 1065.015625 762.03125 1089.351562 C 762.449219 1095.761719 765.546875 1101.683594 766.035156 1107.882812 C 766.578125 1114.832031 763.464844 1117.207031 761.996094 1123.804688 C 756.785156 1147.148438 766.628906 1169.871094 744.710938 1187.34375 C 726.878906 1201.5625 700.492188 1208.847656 677.652344 1203.617188 C 665.367188 1200.800781 653.808594 1192.589844 648.21875 1181.28125 C 641.902344 1168.511719 645.808594 1160.042969 646.328125 1147.367188 C 646.582031 1141.148438 644.09375 1135.632812 644.234375 1129.195312 C 644.425781 1120.214844 648.75 1114.902344 651.199219 1106.472656 C 653.425781 1098.828125 653.324219 1090.242188 653.261719 1082.238281 C 653.125 1066.816406 654.925781 1051.414062 655.992188 1035.832031 C 658.308594 1002.035156 657.832031 969.453125 656.710938 935.617188 C 656.09375 916.925781 656.84375 898.035156 654.109375 879.539062 C 651.476562 861.765625 648.277344 840.792969 650.46875 823.257812 L 763.421875 886.269531 "/>
<path style=" stroke:none;fill-rule:nonzero;fill:rgb(90.979004%,97.24884%,99.609375%);fill-opacity:1;" d="M 840.679688 195.136719 C 873.527344 204.691406 894.234375 247.039062 900.738281 277.253906 C 909.074219 315.96875 910.386719 358.644531 907.203125 398.730469 C 903.578125 444.394531 890.171875 488.664062 888.492188 535.570312 C 886.320312 596.269531 890.886719 662.203125 900.9375 721.539062 C 909.632812 772.886719 922.019531 824.691406 929.933594 874.3125 C 895.707031 873.324219 861.667969 895.875 826.128906 898.386719 C 791.8125 900.816406 750.1875 904.246094 718.089844 892.097656 C 714.925781 890.90625 711.1875 890.640625 707.800781 889.921875 C 708.171875 885.15625 705.980469 881.285156 705.382812 876.730469 C 679.828125 877.613281 630.03125 854.507812 624.476562 827.75 C 619.738281 804.863281 626.109375 774.996094 625.523438 751.691406 C 624.476562 710.507812 631.335938 662.570312 640.144531 622.78125 C 650.234375 577.089844 641.738281 523.800781 645.234375 476.828125 C 648.386719 434.089844 646.882812 390.304688 653.246094 347.878906 C 658.257812 314.464844 657.03125 276 674.082031 245.625 C 695.683594 207.152344 722.46875 186.96875 767.921875 185.785156 L 840.679688 195.136719 "/>
<path style=" stroke:none;fill-rule:nonzero;fill:rgb(90.979004%,97.24884%,99.609375%);fill-opacity:1;" d="M 667.832031 259.082031 C 656.84375 280.855469 644.050781 317.601562 634.53125 340.398438 C 620.449219 374.1875 612.03125 410.246094 604.023438 445.832031 C 597.203125 476.214844 589.601562 507.105469 586.582031 538.105469 C 583.601562 568.507812 595.992188 599.652344 605.285156 627.421875 C 609.125 638.898438 612.890625 651.050781 624.675781 657.570312 C 643.5 668.003906 661.492188 657.042969 676.84375 645.433594 C 689.457031 635.890625 691.542969 625.4375 692.59375 609.808594 C 693.59375 594.878906 689.894531 581.964844 688.050781 567.347656 C 684.292969 537.5 683.636719 507.042969 682.351562 477 C 682.351562 477 675.675781 243.550781 667.832031 259.082031 "/>
<path style=" stroke:none;fill-rule:nonzero;fill:rgb(32.939148%,51.368713%,79.60968%);fill-opacity:1;" d="M 835.117188 244.269531 C 824.570312 256.960938 813.917969 269.5 801.78125 280.730469 C 789.160156 292.410156 775.714844 302.613281 761.328125 311.988281 C 751.832031 318.195312 742.523438 324.546875 734.347656 332.367188 C 735.265625 307.964844 730.871094 283.613281 732.933594 259.210938 C 735.015625 234.539062 741.597656 210.898438 749.433594 187.53125 C 755.246094 186.566406 761.375 185.960938 767.921875 185.785156 L 840.679688 195.136719 C 845.359375 196.5 849.765625 198.589844 853.945312 201.152344 C 856.628906 217.320312 845.269531 232.054688 835.117188 244.269531 "/>
<path style=" stroke:none;fill-rule:nonzero;fill:rgb(89.019775%,60.778809%,43.528748%);fill-opacity:1;" d="M 946.355469 674.015625 C 938.078125 684.871094 926.839844 688.875 913.796875 687.507812 C 905.71875 686.667969 897.460938 685.84375 889.191406 686.136719 C 882.152344 686.386719 876.039062 688.800781 869.183594 689.609375 C 861.085938 690.566406 851.695312 685.96875 844.511719 682.40625 C 833.609375 676.992188 830.601562 666.296875 836.777344 655.230469 C 846.25 638.273438 863.773438 630.46875 880.957031 623.796875 C 890.460938 620.117188 900.882812 613.914062 912.054688 614.519531 C 919.96875 614.953125 925.738281 618.675781 931.113281 624.15625 L 946.355469 674.015625 "/>
<path style=" stroke:none;fill-rule:nonzero;fill:rgb(22.349548%,39.608765%,72.549438%);fill-opacity:1;" d="M 288.023438 889.136719 C 288.625 890.171875 289.09375 891.210938 289.464844 892.3125 L -0.234375 1062.265625 L 7.4375 1049.300781 L 285.839844 886.023438 C 286.761719 887.179688 287.59375 888.398438 288.023438 889.136719 "/>
<path style=" stroke:none;fill-rule:nonzero;fill:rgb(90.979004%,97.24884%,99.609375%);fill-opacity:1;" d="M 1293.648438 204.15625 L 1293.105469 203.222656 L 1302.183594 197.0625 C 1327.582031 182.570312 1368.054688 205.644531 1392.601562 248.609375 C 1417.140625 291.566406 1416.453125 338.113281 1391.066406 352.613281 L 1381.980469 358.773438 L 1380.59375 356.359375 C 1355.535156 360.832031 1322.046875 338.519531 1300.648438 301.066406 C 1279.257812 263.628906 1277.050781 223.441406 1293.648438 204.15625 "/>
<path style=" stroke:none;fill-rule:nonzero;fill:rgb(81.959534%,90.19928%,96.859741%);fill-opacity:1;" d="M 1291.570312 307.234375 C 1316.117188 350.195312 1356.59375 373.273438 1381.980469 358.773438 C 1407.375 344.292969 1408.0625 297.738281 1383.523438 254.765625 C 1358.976562 211.800781 1318.515625 188.730469 1293.109375 203.222656 C 1267.71875 217.710938 1267.019531 264.269531 1291.570312 307.234375 "/>
<path style=" stroke:none;fill-rule:nonzero;fill:rgb(90.979004%,97.24884%,99.609375%);fill-opacity:1;" d="M 1328.328125 221.636719 L 1340.101562 229.203125 L 1082.890625 379.597656 L 1076.839844 368.675781 L 1328.328125 221.636719 "/>
<path style=" stroke:none;fill-rule:nonzero;fill:rgb(81.959534%,90.19928%,96.859741%);fill-opacity:1;" d="M 1381.949219 316.265625 L 1381.648438 330.542969 L 1148.597656 466.765625 L 1141.480469 456.851562 L 1381.949219 316.265625 "/>
<path style=" stroke:none;fill-rule:nonzero;fill:rgb(81.959534%,90.19928%,96.859741%);fill-opacity:1;" d="M 1340.101562 229.203125 L 1340.824219 287.46875 L 1115.996094 418.875 L 1082.886719 379.59375 L 1340.101562 229.203125 "/>
<path style=" stroke:none;fill-rule:nonzero;fill:rgb(90.979004%,97.24884%,99.609375%);fill-opacity:1;" d="M 1340.824219 287.46875 L 1381.949219 316.265625 L 1141.480469 456.851562 L 1115.996094 418.875 L 1340.824219 287.46875 "/>
<path style=" stroke:none;fill-rule:nonzero;fill:rgb(90.979004%,97.24884%,99.609375%);fill-opacity:1;" d="M 1059.863281 441.996094 C 1082.125 480.863281 1118.726562 501.761719 1141.738281 488.628906 C 1164.734375 475.484375 1165.359375 433.367188 1143.171875 394.414062 C 1120.910156 355.554688 1084.222656 334.648438 1061.296875 347.78125 C 1038.285156 360.917969 1037.671875 403.042969 1059.863281 441.996094 Z M 1022.164062 279.324219 L 1021.222656 277.582031 L 1037.832031 266.28125 C 1084.492188 239.65625 1158.792969 282.03125 1203.832031 360.933594 C 1248.863281 439.773438 1247.632812 525.320312 1201.046875 551.882812 L 1191.03125 558.660156 L 1184.359375 563.183594 L 1181.808594 558.757812 C 1154.785156 563.621094 1122.476562 551.496094 1092.40625 526.660156 C 1071.296875 509.289062 1051.253906 485.652344 1035.050781 457.226562 C 1018.695312 428.644531 1008.449219 399.195312 1004.308594 372.046875 C 998.332031 333.78125 1004.351562 300.070312 1022.164062 279.324219 "/>
<path style=" stroke:none;fill-rule:nonzero;fill:rgb(81.959534%,90.19928%,96.859741%);fill-opacity:1;" d="M 1059.863281 441.996094 C 1082.125 480.863281 1118.726562 501.761719 1141.738281 488.628906 C 1164.734375 475.484375 1165.359375 433.367188 1143.171875 394.414062 C 1120.910156 355.554688 1084.222656 334.648438 1061.296875 347.78125 C 1038.285156 360.917969 1037.671875 403.042969 1059.863281 441.996094 Z M 1021.222656 277.582031 C 1067.816406 251.03125 1142.117188 293.398438 1187.160156 372.238281 C 1229.992188 447.15625 1230.933594 528.070312 1191.03125 558.660156 L 1184.359375 563.183594 C 1154.246094 580.390625 1112.503906 568.804688 1074.636719 537.097656 C 1053.878906 519.785156 1034.277344 496.523438 1018.355469 468.597656 C 1001.792969 439.511719 991.460938 409.546875 987.402344 381.953125 C 980.382812 334.699219 991.761719 294.429688 1021.222656 277.582031 "/>
<path style=" stroke:none;fill-rule:nonzero;fill:rgb(100%,100%,100%);fill-opacity:1;" d="M 1141.738281 488.628906 C 1164.734375 475.484375 1165.359375 433.367188 1143.171875 394.414062 C 1120.910156 355.554688 1084.222656 334.648438 1061.296875 347.78125 C 1038.285156 360.917969 1037.671875 403.042969 1059.863281 441.996094 C 1082.125 480.863281 1118.726562 501.761719 1141.738281 488.628906 Z M 987.402344 381.953125 L 1004.308594 372.046875 L 1053.433594 343.226562 L 1057.363281 340.964844 C 1082.605469 326.523438 1122.78125 349.457031 1147.164062 392.167969 C 1171.550781 434.808594 1170.851562 481.074219 1145.664062 495.441406 L 1092.40625 526.660156 L 1074.636719 537.097656 L 526.265625 858.757812 L 437.441406 704.640625 L 987.402344 381.953125 "/>
<path style=" stroke:none;fill-rule:nonzero;fill:rgb(81.959534%,90.19928%,96.859741%);fill-opacity:1;" d="M 1061.296875 347.78125 C 1064.714844 345.828125 1068.460938 344.726562 1072.382812 344.210938 C 1050.425781 358.027344 1050.117188 399.378906 1071.964844 437.722656 C 1090.914062 470.828125 1120.25 490.789062 1142.753906 487.929688 L 1141.738281 488.628906 C 1118.726562 501.761719 1082.125 480.863281 1059.863281 441.996094 C 1037.671875 403.042969 1038.285156 360.917969 1061.296875 347.78125 "/>
<path style=" stroke:none;fill-rule:nonzero;fill:rgb(90.979004%,97.24884%,99.609375%);fill-opacity:1;" d="M 1104.179688 352.65625 C 1107.921875 354.898438 1111.628906 357.566406 1115.28125 360.609375 L 752.9375 573.160156 L 746.878906 562.234375 L 1104.179688 352.65625 "/>
<path style=" stroke:none;fill-rule:nonzero;fill:rgb(81.959534%,90.19928%,96.859741%);fill-opacity:1;" d="M 1158.507812 460.957031 L 818.628906 660.328125 L 811.519531 650.40625 L 1159.273438 446.425781 C 1159.5 451.554688 1159.246094 456.417969 1158.507812 460.957031 "/>
<path style=" stroke:none;fill-rule:nonzero;fill:rgb(81.959534%,90.19928%,96.859741%);fill-opacity:1;" d="M 1143.132812 394.449219 C 1144.375 396.597656 1145.511719 398.761719 1146.597656 400.945312 L 786.019531 612.429688 L 752.9375 573.160156 L 1115.28125 360.609375 C 1125.535156 369.179688 1135.257812 380.648438 1143.132812 394.449219 "/>
<path style=" stroke:none;fill-rule:nonzero;fill:rgb(90.979004%,97.24884%,99.609375%);fill-opacity:1;" d="M 1159.273438 446.425781 L 811.519531 650.40625 L 786.019531 612.429688 L 1146.597656 400.945312 C 1154.453125 416.570312 1158.652344 432.394531 1159.273438 446.425781 "/>
<path style=" stroke:none;fill-rule:nonzero;fill:rgb(90.979004%,20.779419%,30.979919%);fill-opacity:1;" d="M 480.148438 743.828125 C 470.332031 730.078125 459.363281 717.535156 447.597656 705.839844 L 766.445312 518.765625 L 770.078125 516.636719 C 793.589844 503.226562 831.058594 524.589844 853.789062 564.363281 C 876.503906 604.144531 875.878906 647.25 852.351562 660.667969 L 528.273438 850.773438 C 519.058594 812.488281 502.558594 775.234375 480.148438 743.828125 "/>
<path style=" stroke:none;fill-rule:nonzero;fill:rgb(94.119263%,25.489807%,33.729553%);fill-opacity:1;" d="M 811.835938 520.355469 C 825.996094 528.3125 840.058594 542.128906 851.160156 560.066406 L 495.859375 768.46875 C 491.015625 759.945312 485.765625 751.707031 480.148438 743.828125 C 475.222656 736.929688 470.023438 730.367188 464.582031 724.039062 L 811.835938 520.355469 "/>
<path style=" stroke:none;fill-rule:nonzero;fill:rgb(90.979004%,97.24884%,99.609375%);fill-opacity:1;" d="M 436.539062 807.65625 C 460.921875 850.351562 501.132812 873.257812 526.351562 858.867188 C 551.582031 844.476562 552.265625 798.230469 527.890625 755.546875 C 503.515625 712.871094 463.300781 689.941406 438.082031 704.335938 C 412.847656 718.722656 412.171875 764.988281 436.539062 807.65625 "/>
<path style=" stroke:none;fill-rule:nonzero;fill:rgb(100%,100%,100%);fill-opacity:1;" d="M 463.839844 792.601562 C 458.007812 781.605469 451.613281 771.726562 442.574219 763.816406 L 459.082031 754.738281 C 468.941406 749.125 484.625 758.070312 494.140625 774.726562 C 503.65625 791.382812 503.390625 809.429688 493.539062 815.050781 L 476.898438 824.191406 C 474 812.996094 468.734375 801.816406 463.839844 792.601562 "/>
<path style=" stroke:none;fill-rule:nonzero;fill:rgb(32.939148%,51.368713%,79.60968%);fill-opacity:1;" d="M 413.488281 763.90625 L 413.199219 763.390625 L 418.113281 760.050781 C 431.878906 752.1875 453.824219 764.699219 467.125 787.992188 C 480.421875 811.28125 480.046875 836.523438 466.28125 844.375 L 461.371094 847.71875 L 460.613281 846.394531 C 447.03125 848.832031 428.871094 836.742188 417.28125 816.433594 C 405.6875 796.128906 404.496094 774.351562 413.488281 763.90625 "/>
<path style=" stroke:none;fill-rule:nonzero;fill:rgb(22.349548%,39.608765%,72.549438%);fill-opacity:1;" d="M 412.355469 819.765625 C 425.664062 843.0625 447.605469 855.570312 461.371094 847.71875 C 475.132812 839.863281 475.507812 814.617188 462.207031 791.324219 C 448.898438 768.046875 426.953125 755.546875 413.199219 763.390625 C 399.429688 771.234375 399.058594 796.476562 412.355469 819.765625 "/>
<path style=" stroke:none;fill-rule:nonzero;fill:rgb(32.939148%,51.368713%,79.60968%);fill-opacity:1;" d="M 418.378906 776.917969 C 428.222656 771.292969 443.925781 780.246094 453.4375 796.914062 C 462.957031 813.5625 462.679688 831.609375 452.847656 837.222656 L 382.171875 876.050781 L 347.710938 815.746094 L 418.378906 776.917969 "/>
<path style=" stroke:none;fill-rule:nonzero;fill:rgb(22.349548%,39.608765%,72.549438%);fill-opacity:1;" d="M 347.121094 856.070312 C 356.621094 872.726562 372.320312 881.671875 382.171875 876.050781 C 392.007812 870.4375 392.273438 852.378906 382.765625 835.722656 C 373.246094 819.074219 357.554688 810.128906 347.710938 815.746094 C 337.871094 821.367188 337.597656 839.414062 347.121094 856.070312 "/>
<path style=" stroke:none;fill-rule:nonzero;fill:rgb(32.939148%,51.368713%,79.60968%);fill-opacity:1;" d="M 348.921875 820.480469 C 357.671875 815.503906 371.632812 823.449219 380.078125 838.253906 C 388.539062 853.054688 388.304688 869.113281 379.566406 874.101562 L 335.238281 899.628906 L 304.605469 846 L 348.921875 820.480469 "/>
<path style=" stroke:none;fill-rule:nonzero;fill:rgb(22.349548%,39.608765%,72.549438%);fill-opacity:1;" d="M 304.089844 881.855469 C 312.539062 896.652344 326.488281 904.617188 335.238281 899.628906 C 343.996094 894.628906 344.230469 878.582031 335.773438 863.773438 C 327.3125 848.957031 313.363281 841.011719 304.605469 846 C 295.863281 850.996094 295.621094 867.039062 304.089844 881.855469 "/>
<path style=" stroke:none;fill-rule:nonzero;fill:rgb(32.939148%,51.368713%,79.60968%);fill-opacity:1;" d="M 311.726562 858 C 316.128906 855.503906 323.148438 859.5 327.394531 866.953125 C 331.648438 874.390625 331.535156 882.464844 327.128906 884.96875 L 304.847656 897.800781 L 289.453125 870.835938 L 311.726562 858 "/>
<path style=" stroke:none;fill-rule:nonzero;fill:rgb(32.939148%,51.368713%,79.60968%);fill-opacity:1;" d="M 283.035156 892.65625 C 287.289062 900.101562 300.460938 900.3125 304.847656 897.800781 C 309.253906 895.289062 309.371094 887.21875 305.128906 879.773438 C 300.863281 872.335938 293.847656 868.332031 289.453125 870.835938 C 285.042969 873.34375 278.789062 885.210938 283.035156 892.65625 "/>
<path style=" stroke:none;fill-rule:nonzero;fill:rgb(22.349548%,39.608765%,72.549438%);fill-opacity:1;" d="M 938.414062 500.367188 L 934.816406 502.476562 C 915.714844 470.023438 886.605469 450.441406 864.582031 453.179688 L 871.8125 448.898438 C 894.164062 450.691406 920.609375 470.136719 938.414062 500.367188 "/>
<path style=" stroke:none;fill-rule:nonzero;fill:rgb(22.349548%,39.608765%,72.549438%);fill-opacity:1;" d="M 914.773438 514.445312 L 911.1875 516.550781 C 892.015625 483.988281 862.785156 464.390625 840.738281 467.28125 L 848.015625 462.964844 C 870.421875 464.671875 896.941406 484.144531 914.773438 514.445312 "/>
<path style=" stroke:none;fill-rule:nonzero;fill:rgb(22.349548%,39.608765%,72.549438%);fill-opacity:1;" d="M 891.144531 528.519531 L 887.550781 530.617188 C 868.320312 497.960938 838.980469 478.339844 816.90625 481.371094 L 824.230469 477.03125 C 846.640625 478.664062 873.246094 498.136719 891.144531 528.519531 "/>
<path style=" stroke:none;fill-rule:nonzero;fill:rgb(22.349548%,39.608765%,72.549438%);fill-opacity:1;" d="M 867.503906 542.585938 L 863.921875 544.695312 C 844.625 511.921875 815.152344 492.273438 793.054688 495.472656 L 800.4375 491.109375 C 822.886719 492.648438 849.574219 512.140625 867.503906 542.585938 "/>
<path style=" stroke:none;fill-rule:nonzero;fill:rgb(22.349548%,39.608765%,72.549438%);fill-opacity:1;" d="M 843.875 556.671875 C 849.988281 567.082031 854.628906 577.875 857.636719 588.761719 L 853.625 589.867188 C 850.710938 579.339844 846.230469 568.863281 840.289062 558.769531 C 820.9375 525.898438 791.339844 506.226562 769.207031 509.574219 L 776.640625 505.183594 C 799.125 506.640625 825.894531 526.144531 843.875 556.671875 "/>
<path style=" stroke:none;fill-rule:nonzero;fill:rgb(22.349548%,39.608765%,72.549438%);fill-opacity:1;" d="M 820.230469 570.738281 L 816.648438 572.84375 C 805.625 554.128906 790.964844 539.089844 775.382812 530.5 C 764.542969 524.53125 754.226562 522.28125 745.335938 523.683594 L 752.976562 519.167969 C 760.632812 519.625 768.898438 522.183594 777.398438 526.863281 C 793.625 535.808594 808.84375 551.390625 820.230469 570.738281 "/>
<path style=" stroke:none;fill-rule:nonzero;fill:rgb(22.349548%,39.608765%,72.549438%);fill-opacity:1;" d="M 796.59375 584.8125 L 793.015625 586.910156 C 773.546875 553.855469 743.699219 534.125 721.527344 537.765625 L 729.042969 533.324219 C 751.601562 534.617188 778.539062 554.140625 796.59375 584.8125 "/>
<path style=" stroke:none;fill-rule:nonzero;fill:rgb(22.349548%,39.608765%,72.549438%);fill-opacity:1;" d="M 772.960938 598.886719 L 769.382812 600.992188 C 749.851562 567.828125 719.886719 548.074219 697.710938 551.855469 L 705.257812 547.390625 C 727.84375 548.597656 754.859375 568.136719 772.960938 598.886719 "/>
<path style=" stroke:none;fill-rule:nonzero;fill:rgb(22.349548%,39.608765%,72.549438%);fill-opacity:1;" d="M 749.335938 612.960938 L 745.734375 615.0625 C 726.152344 581.804688 696.058594 562.007812 673.859375 565.949219 L 681.445312 561.464844 C 704.078125 562.589844 731.179688 582.136719 749.335938 612.960938 "/>
<path style=" stroke:none;fill-rule:nonzero;fill:rgb(22.349548%,39.608765%,72.549438%);fill-opacity:1;" d="M 725.6875 627.03125 C 731.894531 637.5625 736.5625 648.492188 739.558594 659.496094 L 735.542969 660.585938 C 732.636719 649.933594 728.128906 639.355469 722.113281 629.128906 C 702.460938 595.78125 672.25 575.949219 650.035156 580.039062 L 657.65625 575.527344 C 680.300781 576.574219 707.503906 596.140625 725.6875 627.03125 "/>
<path style=" stroke:none;fill-rule:nonzero;fill:rgb(22.349548%,39.608765%,72.549438%);fill-opacity:1;" d="M 702.042969 641.105469 L 698.476562 643.210938 C 687.449219 624.496094 672.792969 609.457031 657.207031 600.859375 C 645.957031 594.65625 635.253906 592.414062 626.125 594.175781 L 634.007812 589.515625 C 641.882812 589.839844 650.417969 592.382812 659.21875 597.21875 C 675.433594 606.167969 690.660156 621.75 702.042969 641.105469 "/>
<path style=" stroke:none;fill-rule:nonzero;fill:rgb(22.349548%,39.608765%,72.549438%);fill-opacity:1;" d="M 678.417969 655.171875 L 674.824219 657.285156 C 655.050781 623.6875 624.542969 603.816406 602.28125 608.28125 L 610.058594 603.683594 C 632.785156 604.542969 660.152344 624.136719 678.417969 655.171875 "/>
<path style=" stroke:none;fill-rule:nonzero;fill:rgb(22.349548%,39.608765%,72.549438%);fill-opacity:1;" d="M 654.792969 669.253906 L 651.210938 671.351562 C 631.324219 637.613281 600.652344 617.710938 578.367188 622.433594 L 586.257812 617.75 C 609.023438 618.535156 636.464844 638.140625 654.792969 669.253906 "/>
<path style=" stroke:none;fill-rule:nonzero;fill:rgb(22.349548%,39.608765%,72.549438%);fill-opacity:1;" d="M 631.160156 683.320312 L 627.558594 685.425781 C 607.601562 651.523438 576.699219 631.617188 554.402344 636.597656 L 562.484375 631.820312 C 585.265625 632.507812 612.789062 652.140625 631.160156 683.320312 "/>
<path style=" stroke:none;fill-rule:nonzero;fill:rgb(22.349548%,39.608765%,72.549438%);fill-opacity:1;" d="M 607.507812 697.394531 C 614.183594 708.738281 619.058594 720.472656 622.007812 732.269531 L 617.976562 733.277344 C 615.125 721.875 610.402344 710.507812 603.933594 699.503906 C 583.875 665.433594 552.789062 645.519531 530.464844 650.757812 L 538.679688 645.886719 C 561.492188 646.492188 589.109375 666.136719 607.507812 697.394531 "/>
<path style=" stroke:none;fill-rule:nonzero;fill:rgb(22.349548%,39.608765%,72.549438%);fill-opacity:1;" d="M 583.875 711.460938 L 580.289062 713.578125 C 560.132812 679.339844 528.855469 659.410156 506.5 664.925781 L 514.882812 659.960938 C 537.714844 660.46875 565.417969 680.140625 583.875 711.460938 "/>
<path style=" stroke:none;fill-rule:nonzero;fill:rgb(22.349548%,39.608765%,72.549438%);fill-opacity:1;" d="M 560.25 725.535156 L 556.667969 727.644531 C 536.414062 693.257812 504.941406 673.3125 482.574219 679.074219 L 491.097656 674.027344 C 513.964844 674.460938 541.765625 694.140625 560.25 725.535156 "/>
<path style=" stroke:none;fill-rule:nonzero;fill:rgb(22.349548%,39.608765%,72.549438%);fill-opacity:1;" d="M 536.609375 739.613281 L 533.035156 741.71875 C 522 723.003906 507.351562 707.964844 491.757812 699.375 C 479.632812 692.699219 468.171875 690.667969 458.632812 693.230469 L 467.429688 688.027344 C 475.613281 688.125 484.550781 690.65625 493.765625 695.730469 C 510 704.683594 525.207031 720.265625 536.609375 739.613281 "/>
<path style=" stroke:none;fill-rule:nonzero;fill:rgb(90.979004%,97.24884%,99.609375%);fill-opacity:1;" d="M 859.234375 204.710938 C 866.074219 210.449219 917.949219 229.203125 977.761719 344.585938 C 997.210938 382.101562 1017.824219 422.96875 1027.632812 464.332031 C 1037.363281 505.359375 952.878906 679.136719 949.765625 687.175781 C 926.261719 681.710938 916.90625 650.414062 910.105469 626.324219 C 918.554688 613.078125 938.417969 517.914062 945.210938 477.035156 C 930.382812 459.144531 902.796875 410.945312 885.382812 348.886719 C 867.042969 283.5625 859.234375 204.710938 859.234375 204.710938 "/>
<path style=" stroke:none;fill-rule:nonzero;fill:rgb(89.019775%,60.778809%,43.528748%);fill-opacity:1;" d="M 864.070312 132.292969 C 866.042969 138.660156 862.347656 149.320312 859.453125 155.148438 C 857.875 158.320312 855.613281 162.40625 852.851562 164.6875 C 849.804688 167.214844 846.230469 167.101562 842.804688 168.171875 C 842.460938 177.675781 844.890625 185.828125 848.144531 194.621094 C 852.121094 205.355469 851.96875 217.472656 844.542969 226.558594 C 830.152344 244.15625 804.351562 250.902344 782.480469 249.570312 C 768.1875 248.707031 753.246094 244.230469 741.160156 236.429688 C 737.371094 233.976562 738.5625 229.160156 737.136719 222.785156 C 727.253906 222.527344 714.917969 212.796875 715.175781 192.804688 C 715.316406 181.992188 714.515625 170.804688 713.367188 160.078125 C 712.433594 151.394531 711.71875 143.289062 712.058594 134.375 C 712.425781 124.941406 708.859375 116.40625 710.5 107.101562 C 711.820312 99.652344 713.375 91.992188 715.75 84.761719 C 719.5 73.386719 730.613281 63.871094 740.5 58.089844 C 757.230469 48.300781 779.601562 43.953125 798.792969 46.328125 C 819.78125 48.921875 836.453125 58.574219 844.582031 78.796875 L 864.070312 132.292969 "/>
<path style=" stroke:none;fill-rule:nonzero;fill:rgb(100%,100%,100%);fill-opacity:1;" d="M 717.972656 145.847656 C 729.90625 140.933594 736.578125 146.679688 746.039062 153.089844 C 752.988281 157.796875 760.265625 161.789062 768.582031 163.515625 C 772.199219 164.269531 775.695312 164.992188 779.382812 165.117188 C 786.984375 165.367188 788.480469 169.757812 785.929688 176.054688 C 783.082031 183.082031 782.140625 191.679688 783.117188 199.1875 C 784.074219 206.527344 790.988281 222.625 779.609375 225.089844 C 769.40625 227.308594 761.101562 229.488281 750.519531 227.769531 C 746.160156 227.058594 740.386719 226.042969 737.664062 225.890625 C 727.785156 225.625 714.011719 213.582031 714.269531 193.585938 C 714.414062 182.78125 713.445312 171.066406 712.289062 160.34375 C 711.855469 156.246094 712.542969 152.023438 712.289062 148.03125 C 714.164062 147.417969 716.039062 146.644531 717.972656 145.847656 "/>
<path style=" stroke:none;fill-rule:nonzero;fill:rgb(25.878906%,7.449341%,19.219971%);fill-opacity:1;" d="M 720.109375 58.386719 C 726.0625 31.910156 755.851562 18.308594 779.679688 12.1875 C 794.34375 8.421875 809.625 8.929688 823.371094 15.617188 C 839.371094 23.394531 852.742188 35.726562 860.953125 51.601562 C 864.230469 57.9375 867.34375 65.257812 868.863281 72.257812 C 872.285156 88.0625 871.347656 104.226562 867.613281 119.902344 C 866.867188 123.027344 866.328125 126.207031 865.5625 129.335938 C 865.15625 130.976562 864.628906 132.503906 864.050781 133.980469 C 861.179688 123.503906 852.855469 115.511719 843.199219 125.203125 C 838.945312 129.46875 832.570312 152.953125 827.691406 151.515625 C 823 150.117188 823.363281 138.539062 822.59375 134.621094 C 821.542969 129.316406 818.394531 124.582031 819.472656 118.886719 C 820.554688 113.207031 825.1875 108.832031 826.566406 103.042969 C 828.335938 95.613281 826.085938 84.84375 818.097656 81.949219 C 806.5625 77.765625 794.894531 83.640625 784.832031 88.789062 C 776.929688 92.84375 766.246094 92.679688 757.535156 93.546875 C 748.027344 94.476562 738.621094 92.980469 730.5 87.710938 C 720.234375 81.054688 717.59375 69.613281 720.109375 58.386719 "/>
<path style=" stroke:none;fill-rule:nonzero;fill:rgb(100%,100%,100%);fill-opacity:1;" d="M 783.6875 172.457031 L 784.269531 172.375 C 815.804688 163.265625 829.714844 150.984375 830.289062 150.472656 C 831.144531 149.710938 831.21875 148.398438 830.449219 147.535156 C 829.679688 146.683594 828.367188 146.621094 827.515625 147.375 C 827.378906 147.5 813.632812 159.566406 783.113281 168.386719 C 782.007812 168.703125 781.378906 169.859375 781.691406 170.957031 C 781.957031 171.871094 782.785156 172.457031 783.6875 172.457031 "/>
<path style=" stroke:none;fill-rule:nonzero;fill:rgb(100%,100%,100%);fill-opacity:1;" d="M 783.253906 219.554688 L 783.527344 219.535156 C 826.765625 214.007812 846.015625 174.359375 846.203125 173.957031 C 846.695312 172.921875 846.253906 171.691406 845.210938 171.191406 C 844.195312 170.703125 842.9375 171.140625 842.441406 172.179688 C 842.265625 172.5625 823.941406 210.171875 783 215.417969 C 781.851562 215.566406 781.050781 216.605469 781.199219 217.738281 C 781.332031 218.796875 782.230469 219.554688 783.253906 219.554688 "/>
<path style=" stroke:none;fill-rule:nonzero;fill:rgb(89.019775%,60.778809%,43.528748%);fill-opacity:1;" d="M 748.335938 728.695312 C 753.394531 724.777344 754.46875 718.25 754.425781 712.097656 C 754.394531 708.679688 750.84375 697.871094 757.1875 697.902344 C 768.171875 697.960938 761.566406 725.046875 759.265625 729.234375 C 756 735.199219 742.5625 738.261719 735.808594 736.046875 L 748.335938 728.695312 "/>
<path style=" stroke:none;fill-rule:nonzero;fill:rgb(89.019775%,60.778809%,43.528748%);fill-opacity:1;" d="M 743.171875 731.617188 C 748.234375 727.695312 749.304688 721.164062 749.261719 715.019531 C 749.234375 711.605469 745.675781 700.785156 752.019531 700.828125 C 763.003906 700.886719 756.398438 727.960938 754.101562 732.160156 C 750.835938 738.113281 737.402344 741.179688 730.644531 738.964844 L 743.171875 731.617188 "/>
<path style=" stroke:none;fill-rule:nonzero;fill:rgb(89.019775%,60.778809%,43.528748%);fill-opacity:1;" d="M 738.011719 734.53125 C 743.070312 730.617188 744.136719 724.089844 744.09375 717.933594 C 744.070312 714.527344 740.511719 703.710938 746.863281 703.742188 C 757.839844 703.808594 751.238281 730.875 748.933594 735.082031 C 745.671875 741.039062 732.234375 744.101562 725.476562 741.886719 L 738.011719 734.53125 "/>
<path style=" stroke:none;fill-rule:nonzero;fill:rgb(89.019775%,60.778809%,43.528748%);fill-opacity:1;" d="M 732.84375 737.457031 C 737.902344 733.542969 738.976562 727.003906 738.929688 720.847656 C 738.902344 717.441406 735.34375 706.632812 741.695312 706.664062 C 752.679688 706.722656 746.070312 733.800781 743.769531 737.996094 C 740.5 743.960938 727.070312 747.023438 720.3125 744.808594 L 732.84375 737.457031 "/>
<path style=" stroke:none;fill-rule:nonzero;fill:rgb(81.959534%,90.19928%,96.859741%);fill-opacity:1;" d="M 730.453125 344.160156 C 722.679688 377.683594 720.519531 412.917969 718.027344 447.433594 C 716.371094 470.289062 712.535156 494.28125 712.542969 517.003906 C 712.542969 520.515625 712.636719 523.988281 712.835938 527.429688 C 712.902344 528.570312 712.027344 529.550781 710.882812 529.621094 C 709.734375 529.695312 708.753906 528.8125 708.683594 527.671875 C 708.476562 524.136719 708.382812 520.582031 708.382812 517.003906 C 708.382812 493.832031 712.25 469.746094 713.875 447.136719 C 716.375 412.652344 718.519531 377.199219 726.402344 343.210938 C 726.660156 342.09375 727.785156 341.40625 728.902344 341.664062 C 730.019531 341.917969 730.710938 343.035156 730.453125 344.160156 "/>
<path style=" stroke:none;fill-rule:nonzero;fill:rgb(81.959534%,90.19928%,96.859741%);fill-opacity:1;" d="M 708.675781 767.515625 L 708.675781 768.570312 C 708.675781 784.136719 710.285156 802.984375 710.285156 821.25 C 710.285156 834.382812 709.457031 847.207031 706.535156 858.402344 C 706.242188 859.511719 705.109375 860.175781 703.992188 859.886719 C 702.886719 859.601562 702.21875 858.460938 702.507812 857.355469 C 705.292969 846.734375 706.136719 834.199219 706.136719 821.25 C 706.136719 803.21875 704.527344 784.402344 704.515625 768.570312 L 704.527344 767.496094 C 704.527344 766.347656 705.46875 765.421875 706.609375 765.421875 C 707.757812 765.433594 708.683594 766.367188 708.675781 767.515625 "/>
<path style=" stroke:none;fill-rule:nonzero;fill:rgb(81.959534%,90.19928%,96.859741%);fill-opacity:1;" d="M 951.792969 659.675781 C 941.503906 645.910156 929.398438 631.800781 921.949219 615.667969 C 921.46875 614.632812 921.921875 613.394531 922.964844 612.921875 C 924.007812 612.4375 925.242188 612.894531 925.726562 613.933594 C 932.820312 629.351562 944.707031 643.285156 955.125 657.183594 C 955.808594 658.113281 955.621094 659.410156 954.703125 660.09375 C 953.78125 660.78125 952.484375 660.601562 951.792969 659.675781 "/>
<path style=" stroke:none;fill-rule:nonzero;fill:rgb(81.959534%,90.19928%,96.859741%);fill-opacity:1;" d="M 949.636719 665.523438 C 948.179688 668.753906 946.628906 671.96875 944.109375 674.859375 C 943.359375 675.726562 942.042969 675.816406 941.179688 675.058594 C 940.316406 674.308594 940.222656 672.992188 940.976562 672.136719 C 943.035156 669.773438 944.421875 666.988281 945.847656 663.816406 C 946.316406 662.765625 947.546875 662.300781 948.59375 662.773438 C 949.640625 663.242188 950.109375 664.472656 949.636719 665.523438 "/>
<path style=" stroke:none;fill-rule:nonzero;fill:rgb(81.959534%,90.19928%,96.859741%);fill-opacity:1;" d="M 936.242188 647.527344 C 935.496094 650.390625 933.914062 653.054688 932.175781 655.101562 C 931.433594 655.976562 930.121094 656.089844 929.242188 655.335938 C 928.371094 654.59375 928.265625 653.28125 929.007812 652.414062 C 930.390625 650.808594 931.699219 648.523438 932.214844 646.484375 C 932.503906 645.375 933.640625 644.710938 934.75 644.996094 C 935.863281 645.277344 936.53125 646.410156 936.242188 647.527344 "/>
<path style=" stroke:none;fill-rule:nonzero;fill:rgb(81.959534%,90.19928%,96.859741%);fill-opacity:1;" d="M 925.230469 630.160156 C 924.144531 632.714844 923.007812 635.265625 921.429688 637.738281 C 920.816406 638.707031 919.53125 638.988281 918.558594 638.371094 C 917.59375 637.757812 917.308594 636.464844 917.925781 635.507812 C 919.289062 633.367188 920.335938 631.042969 921.402344 628.535156 C 921.851562 627.480469 923.070312 626.988281 924.125 627.4375 C 925.183594 627.878906 925.679688 629.101562 925.230469 630.160156 "/>
<path style=" stroke:none;fill-rule:nonzero;fill:rgb(81.959534%,90.19928%,96.859741%);fill-opacity:1;" d="M 665.75 557.667969 C 665.433594 555.710938 664.035156 553.136719 661.792969 550.546875 C 658.4375 546.648438 653.320312 542.679688 648.066406 539.761719 C 642.828125 536.832031 637.375 534.992188 633.710938 535.007812 C 633.125 535.007812 632.59375 535.058594 632.117188 535.132812 C 630.984375 535.332031 629.910156 534.574219 629.71875 533.453125 C 629.507812 532.316406 630.273438 531.242188 631.402344 531.042969 C 632.148438 530.910156 632.917969 530.851562 633.710938 530.851562 C 637 530.859375 640.652344 531.835938 644.417969 533.382812 C 650.058594 535.714844 655.925781 539.394531 660.660156 543.542969 C 665.351562 547.722656 669.003906 552.265625 669.84375 556.984375 C 670.035156 558.117188 669.269531 559.195312 668.132812 559.378906 C 667 559.570312 665.9375 558.800781 665.75 557.667969 "/>
<path style=" stroke:none;fill-rule:nonzero;fill:rgb(81.959534%,90.19928%,96.859741%);fill-opacity:1;" d="M 658.808594 532.773438 C 663.085938 505.332031 659.648438 472.902344 671.433594 445.695312 C 671.894531 444.644531 673.117188 444.160156 674.167969 444.621094 C 675.21875 445.074219 675.703125 446.300781 675.242188 447.347656 C 663.976562 473.117188 667.203125 505.199219 662.917969 533.410156 C 662.742188 534.542969 661.683594 535.316406 660.550781 535.140625 C 659.417969 534.972656 658.632812 533.90625 658.808594 532.773438 "/>
<path style=" stroke:none;fill-rule:nonzero;fill:rgb(81.959534%,90.19928%,96.859741%);fill-opacity:1;" d="M 894.320312 747.765625 C 893.097656 747.824219 891.878906 747.859375 890.664062 747.859375 C 874.394531 747.859375 859.101562 742.261719 845.046875 734.355469 C 830.980469 726.453125 818.109375 716.21875 806.621094 706.78125 C 805.738281 706.058594 805.609375 704.742188 806.339844 703.859375 C 807.066406 702.96875 808.375 702.839844 809.265625 703.578125 C 820.707031 712.980469 833.410156 723.046875 847.082031 730.734375 C 860.761719 738.429688 875.367188 743.703125 890.664062 743.703125 C 891.808594 743.703125 892.953125 743.675781 894.105469 743.617188 C 895.253906 743.558594 896.230469 744.433594 896.292969 745.578125 C 896.351562 746.726562 895.46875 747.707031 894.320312 747.765625 "/>
<path style=" stroke:none;fill-rule:nonzero;fill:rgb(81.959534%,90.19928%,96.859741%);fill-opacity:1;" d="M 901.828125 399.84375 C 895.25 386.703125 885.671875 372.34375 883.949219 356.535156 C 883.828125 355.40625 884.652344 354.378906 885.792969 354.257812 C 886.933594 354.140625 887.960938 354.960938 888.082031 356.105469 C 889.582031 370.496094 898.753906 384.554688 905.542969 397.980469 C 906.058594 399.003906 905.644531 400.25 904.617188 400.761719 C 903.59375 401.285156 902.34375 400.871094 901.828125 399.84375 "/>
<path style=" stroke:none;fill-rule:nonzero;fill:rgb(81.959534%,90.19928%,96.859741%);fill-opacity:1;" d="M 897.917969 410.253906 C 891.875 408.53125 885.808594 404.785156 880.351562 400.277344 C 874.902344 395.753906 870.078125 390.476562 866.640625 385.554688 C 865.984375 384.621094 866.214844 383.320312 867.15625 382.664062 C 868.101562 382.007812 869.394531 382.238281 870.050781 383.179688 C 873.238281 387.753906 877.851562 392.808594 883.007812 397.074219 C 888.148438 401.335938 893.847656 404.785156 899.058594 406.265625 C 900.160156 406.574219 900.804688 407.722656 900.488281 408.824219 C 900.175781 409.929688 899.023438 410.570312 897.917969 410.253906 "/>
</g>
</svg>
