<svg width="90" height="93" viewBox="0 0 90 93" fill="none" xmlns="http://www.w3.org/2000/svg">
<path d="M26.7439 1L23.0295 7.12876L62.676 7.5002L66.1166 1H46.2445H26.7439Z" fill="#FB9E95" stroke="black"/>
<path d="M7.97315 22.7292L1.5 29.0437H85.1033L88.4027 22.7292H49.8322H7.97315Z" fill="#FB9E95" stroke="black"/>
<path d="M62.4019 90.3313V69.0001L65.7448 65.4449V77.2245V84.3586L62.4019 90.3313Z" fill="#DE4334" stroke="black"/>
<path d="M1 28.6723H22.658V7.50018H62.4021V29.0436H85.0599V69.3449H62.2163V90.517H21.7294V69.3449H1V28.6723Z" fill="#ED6A5E" stroke="black"/>
<path d="M62.5879 29.0437V7.87165L66.1166 1.18573V14.3719V22.3578L62.5879 29.0437Z" fill="#E14C3F" stroke="black"/>
<path d="M85.0598 69.5307V29.4152L88.4028 22.7292V44.8819V58.2983L85.0598 69.5307Z" fill="#DE4334" stroke="black"/>
</svg>
