<svg width="139" height="140" viewBox="0 0 139 140" fill="none" xmlns="http://www.w3.org/2000/svg">
<path d="M42.9295 1L37.2448 10.3797L97.9212 10.9481L103.187 1H72.7739H42.9295Z" fill="#FB9E95" stroke="black"/>
<path d="M14.2024 34.2552L2 43.3669L132.245 43.9191L137.295 34.2552H78.2649H14.2024Z" fill="#FB9E95" stroke="black"/>
<path d="M97.5021 137.716V105.07L102.618 99.6287V117.657V128.575L97.5021 137.716Z" fill="#DE4334" stroke="black"/>
<path d="M2 43.3506H36.6763V10.9481H97.5021V43.919H132.178V105.597H97.2179V138H35.2552V105.597L2.28453 105.597L2 43.3506Z" fill="#ED6A5E" stroke="black"/>
<path d="M97.7863 43.9191V11.5166L103.187 1.28424V21.4647V33.6867L97.7863 43.9191Z" fill="#E14C3F" stroke="black"/>
<path d="M132.178 105.882V44.4876L137.295 34.2552V68.1584V88.6914L132.178 105.882Z" fill="#DE4334" stroke="black"/>
</svg>
