<?xml version="1.0" encoding="UTF-8"?>
<svg xmlns="http://www.w3.org/2000/svg" xmlns:xlink="http://www.w3.org/1999/xlink" width="1417.5pt" height="1417.499962pt" viewBox="0 0 1417.5 1417.499962" version="1.2">
<g id="surface1">
<path style=" stroke:none;fill-rule:nonzero;fill:rgb(37.649536%,39.608765%,72.549438%);fill-opacity:1;" d="M 722.277344 1317.390625 C 717.089844 1334.832031 668.964844 1320.699219 652.445312 1330.355469 C 635.699219 1340.253906 552.65625 1368.066406 519.390625 1348.976562 C 515.621094 1346.617188 512.550781 1344.019531 510.433594 1340.953125 C 493.671875 1318.339844 522.703125 1278.273438 556.667969 1278.273438 C 565.15625 1278.273438 573.414062 1277.804688 581.445312 1277.324219 C 610.691406 1275.207031 634.757812 1270.25 634.757812 1270.25 L 651.507812 1229.015625 L 710.949219 1221.234375 C 710.949219 1221.234375 727.707031 1299.949219 722.277344 1317.390625 "/>
<path style=" stroke:none;fill-rule:nonzero;fill:rgb(37.649536%,39.608765%,72.549438%);fill-opacity:1;" d="M 1009.386719 1294.066406 C 1010.792969 1318.339844 948.753906 1328.707031 939.78125 1352.042969 C 930.824219 1375.136719 866.179688 1417.550781 840.476562 1411.199219 C 835.046875 1409.777344 830.328125 1406.484375 827.015625 1401.769531 C 813.109375 1384.566406 814.046875 1348.976562 845.664062 1332.714844 C 857.453125 1326.589844 868.78125 1319.976562 878.921875 1313.625 C 902.519531 1298.300781 919.265625 1282.976562 919.265625 1272.152344 C 919.265625 1256.585938 974.699219 1215.339844 974.699219 1215.339844 C 974.699219 1215.339844 1008.207031 1269.539062 1009.386719 1294.066406 "/>
<path style=" stroke:none;fill-rule:nonzero;fill:rgb(43.528748%,76.469421%,92.939758%);fill-opacity:1;" d="M 635.699219 237.269531 C 635.699219 237.269531 582.746094 438.46875 579.460938 462.875 C 576.171875 487.277344 456.554688 573.917969 456.554688 602.304688 C 456.554688 630.679688 459.539062 642.15625 483.464844 649.121094 C 507.386719 656.085938 634.496094 539.566406 647.957031 515.652344 C 661.402344 491.753906 660.824219 259.136719 635.699219 237.269531 "/>
<path style=" stroke:none;fill-rule:nonzero;fill:rgb(47.44873%,79.998779%,34.509277%);fill-opacity:1;" d="M 631.21875 649.121094 C 631.21875 649.121094 581.636719 891.25 579.617188 914.261719 C 577.59375 937.269531 596.074219 1226.539062 615.121094 1241.261719 C 634.167969 1255.996094 721.160156 1253.050781 728.527344 1223.59375 C 735.90625 1194.125 724.109375 964.347656 709.359375 937.824219 C 709.359375 937.824219 765.394531 761.066406 755.074219 713.929688 C 744.746094 666.800781 631.21875 649.121094 631.21875 649.121094 "/>
<path style=" stroke:none;fill-rule:nonzero;fill:rgb(43.528748%,76.469421%,92.939758%);fill-opacity:1;" d="M 739.351562 716.371094 C 739.351562 716.371094 764.515625 1021 773.207031 1045.09375 C 781.902344 1069.171875 883.917969 1287.378906 908.082031 1285.960938 C 932.246094 1284.539062 987.558594 1257.621094 988.964844 1217.953125 C 990.386719 1178.28125 905.300781 985.574219 893.945312 964.320312 C 882.605469 943.066406 916.640625 748.953125 896.789062 709.285156 C 876.933594 669.605469 739.351562 716.371094 739.351562 716.371094 "/>
<path style=" stroke:none;fill-rule:nonzero;fill:rgb(95.689392%,83.139038%,21.569824%);fill-opacity:1;" d="M 879.628906 539.167969 C 881.28125 574.761719 928.707031 705.796875 895.910156 746.574219 C 877.511719 769.4375 793.050781 762.59375 721.566406 743.035156 L 721.566406 742.808594 C 665.425781 727.484375 617.300781 704.148438 615.878906 680.8125 C 612.113281 628.023438 624.851562 514.425781 624.851562 483.308594 C 624.851562 452.445312 617.53125 272.851562 635.699219 237.269531 C 647.726562 214.164062 688.78125 210.867188 729.117188 212.046875 C 744.214844 212.273438 759.3125 213.226562 772.523438 214.164062 C 773.703125 214.164062 775.121094 214.402344 776.542969 214.632812 C 789.980469 216.050781 805.078125 221.234375 819.949219 228.308594 C 857.921875 246.21875 894.957031 277.335938 905.105469 297.605469 C 919.496094 326.59375 877.738281 503.347656 879.628906 539.167969 "/>
<path style=" stroke:none;fill-rule:nonzero;fill:rgb(92.939758%,17.649841%,26.669312%);fill-opacity:1;" d="M 879.628906 539.167969 C 881.28125 574.761719 928.707031 705.796875 895.910156 746.574219 C 877.511719 769.4375 793.050781 762.59375 721.566406 743.035156 L 721.566406 742.808594 C 727 698.253906 741.386719 537.761719 739.265625 486.375 C 737.375 435.003906 746.347656 330.839844 746.347656 330.839844 C 748.464844 276.855469 760.023438 239.855469 776.542969 214.632812 C 789.980469 216.050781 805.078125 221.234375 819.949219 228.308594 C 857.921875 246.21875 894.957031 277.335938 905.105469 297.605469 C 919.496094 326.59375 877.738281 503.347656 879.628906 539.167969 "/>
<path style=" stroke:none;fill-rule:nonzero;fill:rgb(94.119263%,67.449951%,58.039856%);fill-opacity:1;" d="M 837.898438 606.648438 C 837.898438 606.648438 796.554688 623.621094 799.394531 630.980469 C 802.226562 638.332031 815.671875 625.316406 818.574219 630.980469 C 821.476562 636.632812 778.433594 676.808594 782.394531 683.027344 C 786.367188 689.257812 822.34375 645.152344 825.027344 650.226562 C 827.714844 655.300781 795.988281 683.027344 802.789062 689.824219 C 809.582031 696.609375 835.070312 658.128906 837.898438 659.835938 C 840.730469 661.53125 821.273438 688.679688 828.460938 692.085938 C 835.636719 695.476562 844.136719 661.050781 848.097656 662.710938 C 852.058594 664.359375 843.570312 689.257812 850.359375 688.128906 C 857.164062 686.984375 859.425781 649.082031 865.652344 639.460938 C 871.886719 629.851562 862.257812 600.996094 837.898438 606.648438 "/>
<path style=" stroke:none;fill-rule:nonzero;fill:rgb(47.44873%,79.998779%,34.509277%);fill-opacity:1;" d="M 856.765625 300.238281 C 874.476562 281.511719 905.683594 286.597656 917.4375 309.546875 C 946.71875 366.695312 996.40625 467.382812 995.347656 490.597656 C 993.855469 523.460938 886.492188 651.933594 855.683594 635.492188 C 824.882812 619.0625 824.96875 607.007812 831.410156 580.125 C 837.851562 553.230469 885.21875 480.132812 908.128906 475.660156 C 908.128906 475.660156 829.304688 349.675781 842.003906 321.238281 C 845.339844 313.78125 850.6875 306.671875 856.765625 300.238281 "/>
<path style=" stroke:none;fill-rule:nonzero;fill:rgb(87.449646%,87.449646%,95.289612%);fill-opacity:1;" d="M 741.386719 296.761719 C 741.386719 296.761719 675.480469 327.613281 664.511719 304.460938 C 653.554688 281.316406 701.375 219.457031 731.800781 211.84375 C 762.226562 204.226562 754.773438 282.90625 741.386719 296.761719 "/>
<path style=" stroke:none;fill-rule:nonzero;fill:rgb(87.449646%,87.449646%,95.289612%);fill-opacity:1;" d="M 761.648438 304.460938 C 761.648438 304.460938 812.785156 363.445312 841.59375 346.101562 C 870.417969 328.757812 819.949219 228.308594 819.949219 228.308594 L 761.648438 304.460938 "/>
<path style=" stroke:none;fill-rule:nonzero;fill:rgb(93.328857%,54.508972%,41.178894%);fill-opacity:1;" d="M 819.949219 228.308594 C 808.148438 255.179688 777.722656 315.984375 748.933594 302.546875 C 727.226562 292.417969 726.289062 247.167969 729.117188 212.046875 C 744.214844 212.273438 759.3125 213.226562 772.523438 214.164062 C 787.152344 215.113281 803.667969 220.527344 819.949219 228.308594 "/>
<path style=" stroke:none;fill-rule:nonzero;fill:rgb(94.119263%,67.449951%,58.039856%);fill-opacity:1;" d="M 789.644531 74.464844 C 842.726562 80.035156 819.972656 173.109375 819.972656 193.59375 C 819.972656 214.089844 778.808594 260.425781 733.308594 248.578125 C 687.796875 236.714844 681.304688 161.78125 683.472656 138.625 C 683.472656 138.625 650.964844 59.898438 789.644531 74.464844 "/>
<path style=" stroke:none;fill-rule:nonzero;fill:rgb(56.079102%,40.779114%,34.118652%);fill-opacity:1;" d="M 752.488281 54.5 C 752.488281 54.5 659.285156 65.398438 664.75 90.835938 C 670.207031 116.277344 720.039062 99.414062 740.589844 114.207031 C 761.15625 129.003906 773.882812 148.992188 781.167969 176.25 C 788.4375 203.507812 796.9375 214.585938 819.972656 193.59375 C 843.015625 172.617188 874.789062 63.582031 752.488281 54.5 "/>
<path style=" stroke:none;fill-rule:nonzero;fill:rgb(37.649536%,39.608765%,72.549438%);fill-opacity:1;" d="M 752.488281 308.296875 C 752.488281 308.296875 813.941406 287.609375 824.824219 304.460938 C 835.707031 321.3125 833.972656 372.46875 813.144531 374.199219 C 792.304688 375.933594 768.875 327.375 746.308594 330.851562 C 723.734375 334.3125 658.648438 368.136719 656.035156 323.042969 C 653.433594 277.949219 654.988281 260.316406 675.914062 262.203125 C 696.835938 264.082031 725.6875 305.699219 752.488281 308.296875 "/>
<path style=" stroke:none;fill-rule:nonzero;fill:rgb(26.669312%,31.369019%,67.059326%);fill-opacity:1;" d="M 738.148438 302.476562 C 743.832031 302.476562 759.300781 300.996094 760.289062 308.371094 C 761.265625 315.730469 755.339844 336.839844 749.210938 337.332031 C 743.082031 337.828125 730.898438 340.027344 728.828125 337.332031 C 726.757812 334.640625 727.902344 302.476562 738.148438 302.476562 "/>
<path style=" stroke:none;fill-rule:nonzero;fill:rgb(94.119263%,67.449951%,58.039856%);fill-opacity:1;" d="M 463.609375 603.75 C 463.609375 603.75 428.875 614.875 431.101562 621.09375 C 433.328125 627.324219 444.910156 617.101562 446.246094 622.875 C 447.585938 628.660156 407.058594 647.796875 408.394531 656.699219 C 409.730469 665.585938 440.011719 632.761719 444.910156 636.945312 C 449.8125 641.121094 419.085938 665.585938 422.191406 670.925781 C 425.308594 676.269531 448.476562 648.21875 452.039062 649.121094 C 455.601562 650.023438 435.554688 678.9375 439.121094 682.054688 C 442.683594 685.167969 460.058594 653.582031 463.609375 655.808594 C 467.183594 658.03125 457.386719 678.9375 461.394531 679.828125 C 465.402344 680.71875 480.539062 641.566406 493.011719 630.886719 C 505.484375 620.203125 483.65625 596.628906 472.519531 598.851562 C 461.394531 601.078125 463.609375 603.75 463.609375 603.75 "/>
<path style=" stroke:none;fill-rule:nonzero;fill:rgb(95.689392%,83.139038%,21.569824%);fill-opacity:1;" d="M 880.570312 1364.527344 C 866.652344 1387.863281 843.773438 1397.523438 827.015625 1401.769531 C 813.109375 1384.566406 814.046875 1348.976562 845.664062 1332.714844 C 857.453125 1326.589844 868.78125 1319.976562 878.921875 1313.625 C 886.710938 1324.222656 894.019531 1342.144531 880.570312 1364.527344 "/>
<path style=" stroke:none;fill-rule:nonzero;fill:rgb(95.689392%,83.139038%,21.569824%);fill-opacity:1;" d="M 573.65625 1313.625 C 558.089844 1324.460938 529.300781 1334.832031 510.433594 1340.953125 C 493.671875 1318.339844 522.703125 1278.273438 556.667969 1278.273438 C 565.15625 1278.273438 573.414062 1277.804688 581.445312 1277.324219 C 585.683594 1288.871094 587.332031 1303.953125 573.65625 1313.625 "/>
<path style=" stroke:none;fill-rule:nonzero;fill:rgb(95.289612%,69.40918%,4.708862%);fill-opacity:1;" d="M 850.480469 142.402344 C 850.480469 142.402344 677.429688 114.269531 646.316406 80.132812 C 591.414062 19.894531 682.511719 65.371094 707.976562 80.816406 C 733.441406 96.25 846.628906 117.851562 850.480469 142.402344 "/>
<path style=" stroke:none;fill-rule:nonzero;fill:rgb(95.689392%,83.139038%,21.569824%);fill-opacity:1;" d="M 674.46875 72.664062 C 674.46875 72.664062 750.078125 0.0117188 824.824219 36.347656 C 899.570312 72.6875 845.003906 134.089844 845.003906 134.089844 C 845.003906 134.089844 701.003906 120.777344 674.46875 72.664062 "/>
<path style=" stroke:none;fill-rule:nonzero;fill:rgb(92.939758%,17.649841%,26.669312%);fill-opacity:1;" d="M 729.753906 179.089844 C 729.753906 188.757812 721.90625 196.601562 712.226562 196.601562 C 702.542969 196.601562 694.695312 188.757812 694.695312 179.089844 C 694.695312 169.417969 702.542969 161.574219 712.226562 161.574219 C 721.90625 161.574219 729.753906 169.417969 729.753906 179.089844 "/>
</g>
</svg>
