<?xml version="1.0" encoding="UTF-8"?>
<svg xmlns="http://www.w3.org/2000/svg" xmlns:xlink="http://www.w3.org/1999/xlink" width="1417.5pt" height="1417.499962pt" viewBox="0 0 1417.5 1417.499962" version="1.2">
<defs>
<clipPath id="clip1">
  <path d="M 339 336 L 1079 336 L 1079 1417 L 339 1417 Z M 339 336 "/>
</clipPath>
<clipPath id="clip2">
  <path d="M 295.300781 238 L 1122.695312 238 L 1122.695312 563 L 295.300781 563 Z M 295.300781 238 "/>
</clipPath>
<clipPath id="clip3">
  <path d="M 295.300781 0 L 1122.695312 0 L 1122.695312 478 L 295.300781 478 Z M 295.300781 0 "/>
</clipPath>
</defs>
<g id="surface1">
<g clip-path="url(#clip1)" clip-rule="nonzero">
<path style=" stroke:none;fill-rule:nonzero;fill:rgb(47.839355%,80.389404%,36.859131%);fill-opacity:1;" d="M 1078.835938 336.429688 L 1078.835938 1203.910156 C 1078.320312 1213.292969 1071.007812 1223.464844 1057.445312 1231.03125 L 756.363281 1404.671875 C 742.527344 1412.507812 725.578125 1416.664062 708.875 1416.933594 C 693.476562 1417.710938 678.867188 1414.84375 668.167969 1408.582031 L 354.554688 1227.378906 C 343.601562 1221.117188 338.640625 1212.507812 339.167969 1203.910156 L 339.167969 336.429688 L 1078.835938 336.429688 "/>
</g>
<path style=" stroke:none;fill-rule:nonzero;fill:rgb(41.958618%,76.469421%,34.118652%);fill-opacity:1;" d="M 1078.835938 336.429688 L 1078.835938 1203.910156 C 1078.320312 1213.292969 1071.007812 1223.464844 1057.445312 1231.03125 L 756.363281 1404.671875 C 742.527344 1412.507812 725.578125 1416.664062 708.875 1416.933594 L 708.875 336.429688 L 1078.835938 336.429688 "/>
<path style=" stroke:none;fill-rule:nonzero;fill:rgb(41.958618%,76.469421%,34.118652%);fill-opacity:1;" d="M 1078.835938 336.429688 L 1078.835938 433.421875 L 761.839844 616.199219 C 732.617188 633.148438 688.515625 634.96875 663.480469 620.367188 L 339.167969 433.160156 L 339.167969 336.429688 L 1078.835938 336.429688 "/>
<g clip-path="url(#clip2)" clip-rule="nonzero">
<path style=" stroke:none;fill-rule:nonzero;fill:rgb(47.839355%,80.389404%,36.859131%);fill-opacity:1;" d="M 1122.667969 238.648438 L 1122.667969 324.175781 C 1121.882812 334.867188 1113.792969 346.070312 1098.667969 354.683594 L 761.839844 548.9375 C 732.617188 565.875 688.515625 567.695312 663.480469 553.109375 L 312.558594 350.511719 C 300.296875 343.464844 294.808594 334.078125 295.339844 324.175781 L 295.339844 238.648438 L 1122.667969 238.648438 "/>
</g>
<g clip-path="url(#clip3)" clip-rule="nonzero">
<path style=" stroke:none;fill-rule:nonzero;fill:rgb(54.508972%,82.348633%,38.42926%);fill-opacity:1;" d="M 663.40625 467.480469 L 312.484375 264.996094 C 287.265625 250.445312 290.425781 225.03125 319.550781 208.214844 L 656.328125 13.898438 C 685.464844 -2.902344 729.527344 -4.734375 754.75 9.828125 L 1105.671875 212.300781 C 1130.902344 226.851562 1127.738281 252.277344 1098.605469 269.09375 L 761.828125 463.398438 C 732.703125 480.210938 688.640625 482.035156 663.40625 467.480469 "/>
</g>
<path style=" stroke:none;fill-rule:nonzero;fill:rgb(47.839355%,80.389404%,36.859131%);fill-opacity:1;" d="M 1013.355469 269.15625 L 981.523438 287.679688 L 761.839844 414.132812 C 732.617188 431.082031 688.515625 432.902344 663.480469 418.300781 L 436.753906 287.410156 L 397.871094 264.984375 C 372.5625 250.382812 375.703125 225.09375 404.910156 208.15625 L 656.425781 63.175781 C 685.390625 46.496094 729.480469 44.664062 754.785156 59.007812 L 1020.394531 212.324219 C 1045.445312 226.925781 1042.304688 252.214844 1013.355469 269.15625 "/>
<path style=" stroke:none;fill-rule:nonzero;fill:rgb(54.508972%,82.348633%,38.42926%);fill-opacity:1;" d="M 987.742188 266.597656 L 958.582031 283.558594 L 757.394531 399.371094 C 730.636719 414.894531 690.25 416.554688 667.308594 403.183594 L 459.660156 283.3125 L 424.0625 262.78125 C 400.886719 249.398438 403.753906 226.25 430.511719 210.726562 L 660.859375 77.949219 C 687.382812 62.671875 727.769531 61 750.945312 74.125 L 994.191406 214.539062 C 1017.132812 227.921875 1014.253906 251.074219 987.742188 266.597656 "/>
<path style=" stroke:none;fill-rule:nonzero;fill:rgb(41.958618%,76.469421%,34.118652%);fill-opacity:1;" d="M 647.601562 1215.347656 C 647.601562 1237.195312 632.203125 1246.074219 613.273438 1235.152344 L 415.25 1120.902344 C 396.320312 1109.980469 380.910156 1083.3125 380.910156 1061.464844 L 380.910156 620.738281 C 380.910156 598.890625 396.320312 589.996094 415.25 600.921875 L 613.273438 715.183594 C 632.203125 726.105469 647.601562 752.773438 647.601562 774.609375 Z M 630.34375 705.96875 L 398.363281 572.125 C 379.429688 561.203125 364.019531 569.875 364.019531 591.71875 L 364.019531 1070.777344 C 364.019531 1092.621094 379.429688 1119.289062 398.363281 1130.214844 L 630.34375 1264.058594 C 649.277344 1274.996094 664.488281 1265.992188 664.488281 1244.144531 L 664.488281 765.089844 C 664.488281 743.230469 649.277344 716.894531 630.34375 705.96875 "/>
<path style=" stroke:none;fill-rule:nonzero;fill:rgb(100%,100%,100%);fill-opacity:1;" d="M 507.75 964.140625 L 505.398438 998.65625 C 517.128906 1006.355469 529.042969 1011.117188 539.800781 1011.941406 C 550.484375 1012.582031 560.183594 1009.863281 567.535156 1003.527344 L 585.121094 1030.011719 C 575.496094 1038.3125 562.84375 1041.929688 548.789062 1041.019531 C 534.644531 1039.949219 519 1033.738281 503.699219 1023.652344 L 501.347656 1058.179688 C 481.101562 1028.597656 468.855469 997.292969 464.878906 972.628906 C 484.609375 979.171875 499.726562 975.445312 507.75 964.140625 "/>
<path style=" stroke:none;fill-rule:nonzero;fill:rgb(100%,100%,100%);fill-opacity:1;" d="M 476.078125 872.449219 L 449.863281 837.847656 C 436.914062 853.101562 434.894531 882.042969 443.976562 912.28125 L 423.175781 910.398438 C 411.1875 870.652344 413.910156 832.902344 430.882812 812.804688 L 404.664062 778.199219 C 428.039062 779.75 452.125 792.703125 471.132812 810.171875 C 465.507812 829.261719 467.84375 852.042969 476.078125 872.449219 "/>
<path style=" stroke:none;fill-rule:nonzero;fill:rgb(100%,100%,100%);fill-opacity:1;" d="M 547.25 916.179688 L 574.511719 914.46875 C 568.714844 899.375 560.617188 884.355469 550.78125 871.269531 C 540.910156 858.253906 529.609375 846.988281 517.90625 838.941406 L 520.046875 814.242188 C 535.371094 824.746094 550.277344 839.570312 563.175781 856.644531 C 576.0625 873.804688 586.6875 893.421875 594.269531 913.226562 L 621.53125 911.515625 C 619.476562 939.882812 608.890625 958.691406 594.835938 966.761719 C 580.542969 942.109375 562.929688 924.285156 547.25 916.179688 "/>
<path style=" stroke:none;fill-rule:nonzero;fill:rgb(41.958618%,76.469421%,34.118652%);fill-opacity:1;" d="M 836.613281 209.226562 L 836.613281 235.609375 C 836.378906 238.90625 833.882812 242.363281 829.214844 245.019531 L 725.304688 304.949219 C 716.285156 310.179688 702.683594 310.742188 694.953125 306.242188 L 586.699219 243.742188 C 582.917969 241.5625 581.21875 238.671875 581.378906 235.609375 L 581.378906 209.226562 L 836.613281 209.226562 "/>
<path style=" stroke:none;fill-rule:nonzero;fill:rgb(47.839355%,80.389404%,36.859131%);fill-opacity:1;" d="M 694.941406 279.820312 L 586.671875 217.355469 C 578.894531 212.867188 579.867188 205.03125 588.851562 199.839844 L 692.75 139.898438 C 701.734375 134.707031 715.335938 134.140625 723.117188 138.628906 L 831.371094 201.09375 C 839.164062 205.585938 838.191406 213.433594 829.191406 218.621094 L 725.292969 278.566406 C 716.308594 283.757812 702.71875 284.308594 694.941406 279.820312 "/>
</g>
</svg>
