<svg width="70" height="122" viewBox="0 0 70 122" fill="none" xmlns="http://www.w3.org/2000/svg">
<path d="M65.1862 34.1247C71.1352 50.5118 74.5296 88.1759 40.5152 107.735C3.7716 89.3326 7.44614 38.5939 22.9307 18.6139C25.4677 14.6705 32.589 5.62695 40.7777 1C47.6016 6.25789 61.0108 20.4542 65.1862 34.1247Z" fill="#BAFFA3" stroke="black" stroke-width="0.5"/>
<path d="M41.7135 106.156V116.419C38.5734 119.05 35.4333 119.576 31.8102 119.839V97.21L41.7135 95.6313V106.156Z" fill="#CCF8BD"/>
<path d="M27.5 119.797V107.5L31.9957 107.463V119.797C31.4181 121.441 27.5 121.551 27.5 119.797Z" stroke="black" stroke-width="0.5"/>
<path d="M54.405 35.2251C60.354 51.6122 63.7484 89.2763 29.7341 108.836C-7.00953 90.433 -3.33499 39.6943 12.1495 19.7143C14.6866 15.7709 21.8114 6.62698 30 2.00003C36.8239 7.25793 50.2297 21.5546 54.405 35.2251Z" fill="#A0EB87" stroke="black" stroke-width="0.5"/>
<path d="M50.1887 26.6051L31.8102 43.9142V38.5466L48.1672 22.5622C48.841 23.9098 49.703 25.2632 50.1887 26.6051Z" fill="#82D78C"/>
<path d="M14.7544 16.7412L27.6098 29.8593L27.6098 35.9037L11.7091 21.0388C12.2986 20.1488 13.4427 18.0529 14.7544 16.7412Z" fill="#76B580"/>
<path d="M7.93327 27.4978L27.76 47.9612L27.76 53.4706L5.98467 33.0071C6.50935 31.6953 6.88386 29.0719 7.93327 27.4978Z" fill="#76B580"/>
<path d="M2.94844 41.4034L28.0222 66.0636L28.0221 72.0976L1.89895 46.6501C2.42363 45.3384 2.1613 43.5019 2.94844 41.4034Z" fill="#76B580"/>
<path d="M42.7768 15.1502L29.6095 27.4087V22.017L40.0815 12.4549C40.0815 12.4549 40.0815 11.7811 42.7768 15.1502Z" fill="#82D78C"/>
<path d="M1.11236 57.9306L28.0226 84.4282L28.0226 89.6753L1.37468 64.227C1.37466 62.6529 0.849965 60.0294 1.11236 57.9306Z" fill="#76B580"/>
<path d="M55.5792 40.0815L31.8102 61.52V56.1357L54.2316 35.3648C55.5792 39.4077 55.5792 38.7339 55.5792 40.0815Z" fill="#82D78C"/>
<path d="M57.6007 56.2531L31.8102 80.2262V74.8477L57.6007 50.8626C58.2745 56.2531 57.6007 56.2531 57.6007 56.2531Z" fill="#82D78C"/>
<path d="M55.8131 75.3694L31.8102 98.9324V93.5539L57.0898 69.2226C57.3452 70.247 55.8131 74.8572 55.8131 75.3694Z" fill="#82D78C"/>
<path d="M41 1.00003L30.5 2.00001L37.5 8.50003L41 1.00003Z" fill="#CCF8BD"/>
<path d="M31.9956 119.353C34.0664 120.371 39.0515 117.91 41.4291 116.298V106.116" stroke="black" stroke-width="0.5"/>
<path d="M31.8101 119.896C31.2233 121.208 28.1716 121.365 27.7021 119.896L27.4087 16.7739C27.4087 15.1994 31.8101 14.4648 31.8101 16.7739V20.4474V26.2201V119.896Z" fill="#82D78C"/>
<path d="M30 2.00003L41 1.00003" stroke="black" stroke-width="0.5"/>
</svg>
