<?xml version="1.0" encoding="UTF-8"?>
<svg xmlns="http://www.w3.org/2000/svg" xmlns:xlink="http://www.w3.org/1999/xlink" width="1417.5pt" height="1417.499962pt" viewBox="0 0 1417.5 1417.499962" version="1.2">
<defs>
<clipPath id="clip1">
  <path d="M 780 1250 L 898 1250 L 898 1417 L 780 1417 Z M 780 1250 "/>
</clipPath>
</defs>
<g id="surface1">
<path style=" stroke:none;fill-rule:nonzero;fill:rgb(7.058716%,71.759033%,100%);fill-opacity:1;" d="M 1248.539062 562.546875 L 1248.539062 630.519531 L 313.5 85.359375 L 294.636719 74.375 L 294.636719 6.367188 L 313.5 17.351562 L 1248.539062 562.546875 "/>
<path style=" stroke:none;fill-rule:nonzero;fill:rgb(6.669617%,57.649231%,94.119263%);fill-opacity:1;" d="M 305.628906 -0.0351562 L 294.636719 6.367188 L 313.5 17.351562 L 1248.539062 562.546875 L 1259.527344 556.144531 L 305.628906 -0.0351562 "/>
<path style=" stroke:none;fill-rule:nonzero;fill:rgb(0%,48.239136%,85.099792%);fill-opacity:1;" d="M 1248.539062 562.546875 L 1248.539062 630.519531 L 1259.527344 624.152344 L 1259.527344 556.144531 L 1248.539062 562.546875 "/>
<path style=" stroke:none;fill-rule:nonzero;fill:rgb(55.288696%,70.979309%,85.099792%);fill-opacity:1;" d="M 1259.527344 624.152344 L 1259.527344 1316.625 L 1248.539062 1323.023438 L 1248.539062 630.519531 L 1259.527344 624.152344 "/>
<path style=" stroke:none;fill-rule:nonzero;fill:rgb(89.019775%,94.509888%,100%);fill-opacity:1;" d="M 1248.539062 1323.023438 L 294.636719 766.84375 L 294.636719 74.375 L 1248.539062 630.519531 L 1248.539062 1323.023438 "/>
<path style=" stroke:none;fill-rule:nonzero;fill:rgb(72.158813%,83.529663%,94.898987%);fill-opacity:1;" d="M 494.1875 883.179688 L 317.609375 780.261719 L 317.574219 780.191406 L 494.1875 883.179688 M 294.636719 757.601562 L 294.636719 593.351562 L 294.636719 757.601562 "/>
<path style=" stroke:none;fill-rule:nonzero;fill:rgb(64.309692%,78.819275%,94.898987%);fill-opacity:1;" d="M 1007.425781 1182.421875 L 893.839844 1116.191406 L 894.898438 1113.25 L 916.808594 1042.402344 L 873.296875 953.136719 C 870.832031 985.449219 868.984375 1033.058594 873.570312 1083.128906 L 875.625 1105.582031 L 566.148438 925.140625 C 565.15625 889.101562 563.066406 845.152344 561.390625 812.808594 L 499.667969 878.523438 L 498.742188 879.484375 L 498.058594 880.066406 C 496.789062 881.160156 495.488281 882.222656 494.1875 883.179688 L 317.574219 780.191406 L 297 759.65625 C 296.179688 759.039062 295.355469 758.320312 294.636719 757.601562 L 294.636719 593.351562 C 297.683594 596.121094 300.457031 598.550781 302.203125 600.09375 C 304.941406 602.453125 307.75 604.542969 310.625 606.425781 C 313.191406 608.136719 315.453125 609.777344 317.644531 611.558594 C 320.074219 613.476562 322.472656 615.527344 324.867188 617.925781 C 330.6875 623.605469 336.953125 629.835938 342.394531 637.535156 C 348.214844 645.578125 350.886719 654.445312 352.871094 662.828125 L 353.351562 664.882812 C 360.402344 665.808594 365.367188 669.230469 367.726562 671.214844 L 368.753906 672.140625 L 443.078125 734.5 L 513.804688 633.53125 L 514.113281 633.085938 C 526.574219 617.273438 540.953125 603.960938 556.804688 593.488281 C 566.867188 586.949219 575.835938 582.464844 584.292969 579.761719 C 588.023438 578.597656 591.996094 577.777344 596.515625 577.261719 L 597.578125 577.195312 L 597.714844 577.195312 C 601.511719 576.820312 605.3125 576.578125 609.042969 576.578125 C 609.011719 569.90625 614.523438 561.964844 616.609375 555.253906 C 615.34375 547.488281 608.90625 534.308594 610.34375 519.625 C 609.832031 518.15625 616.644531 516.683594 616.234375 515.175781 C 612.226562 500.765625 605.859375 484.785156 611.578125 470.132812 C 613.667969 464.761719 616.609375 457.984375 620.617188 450.523438 L 620.753906 449.496094 L 620.957031 449.90625 C 638.210938 417.9375 674.433594 373.101562 743.996094 365.710938 C 747.078125 365.402344 750.15625 365.230469 753.203125 365.230469 C 779.597656 365.230469 800.550781 377.3125 817.566406 389.15625 C 840.125 404.796875 846.835938 423.929688 848.855469 433.921875 C 881.136719 486.289062 836.394531 565.179688 828.449219 578.359375 L 824.652344 586.539062 L 824.617188 586.777344 L 823.761719 588.457031 L 819.003906 598.792969 C 825.472656 606.492188 833.3125 618.507812 842.691406 637.671875 C 844.710938 641.816406 846.253906 645.546875 847.417969 648.832031 L 920.199219 714.886719 C 933.242188 726.730469 943.476562 741.6875 949.8125 758.117188 L 1046.386719 1009.097656 C 1048.679688 1014.402344 1059.464844 1042.742188 1050.21875 1081.214844 C 1048.371094 1088.984375 1045.769531 1096.753906 1042.515625 1104.28125 L 1011.398438 1174.753906 L 1007.425781 1182.421875 "/>
<path style=" stroke:none;fill-rule:nonzero;fill:rgb(83.918762%,83.918762%,83.918762%);fill-opacity:1;" d="M 904.65625 1289.277344 C 894.558594 1295.402344 869.359375 1275.722656 869.359375 1275.722656 C 848.066406 1258.371094 853.304688 1250.53125 853.304688 1250.53125 L 853.375 1250.464844 C 854.367188 1250.085938 865.011719 1246.664062 883.738281 1260.148438 C 888.773438 1263.8125 893.460938 1268.054688 897.363281 1272.984375 L 897.398438 1273.054688 L 899.042969 1275.039062 C 899.863281 1276.132812 900.617188 1277.230469 901.335938 1278.390625 L 901.371094 1278.460938 C 902.121094 1279.523438 902.703125 1280.582031 903.285156 1281.609375 C 903.867188 1282.808594 904.417969 1284.003906 904.792969 1285.101562 C 905.238281 1286.574219 905.136719 1288.042969 904.65625 1289.277344 "/>
<path style=" stroke:none;fill-rule:nonzero;fill:rgb(100%,100%,100%);fill-opacity:1;" d="M 912.839844 1276.269531 L 906.539062 1286.195312 L 904.65625 1289.277344 C 905.136719 1288.042969 905.238281 1286.574219 904.792969 1285.101562 C 904.417969 1284.003906 903.867188 1282.808594 903.285156 1281.609375 C 902.703125 1280.582031 902.121094 1279.523438 901.371094 1278.460938 L 901.335938 1278.390625 C 900.617188 1277.230469 899.863281 1276.132812 899.042969 1275.039062 L 897.398438 1273.054688 L 897.363281 1272.984375 C 893.460938 1268.054688 888.773438 1263.8125 883.738281 1260.148438 C 876.035156 1254.605469 869.703125 1251.933594 864.875 1250.738281 C 857.890625 1248.957031 853.957031 1250.222656 853.375 1250.464844 L 853.304688 1250.53125 L 857.859375 1244.882812 L 867.101562 1233.554688 C 874.5625 1236.292969 883.636719 1242.285156 889.96875 1248.101562 C 892.742188 1250.566406 896.097656 1253.988281 899.488281 1257.925781 C 904.519531 1263.675781 909.621094 1270.382812 912.839844 1276.269531 "/>
<path style=" stroke:none;fill-rule:nonzero;fill:rgb(0%,34.118652%,38.038635%);fill-opacity:1;" d="M 679.875 711.261719 L 670.425781 720.46875 C 669.46875 721.425781 668.304688 722.179688 667.070312 722.625 L 665.53125 723.066406 L 663.785156 723.273438 L 662.792969 723.207031 C 661.492188 723.035156 660.019531 722.691406 658.511719 722.074219 L 657.246094 721.5625 C 654.300781 720.433594 651.359375 719.472656 649.542969 717.796875 L 649.304688 717.625 L 649.097656 717.421875 L 649.03125 717.316406 C 648.449219 716.703125 648.003906 715.984375 647.796875 715.128906 L 644.820312 698.765625 L 656.871094 684.460938 L 656.902344 684.460938 L 656.902344 684.496094 C 657.28125 684.632812 662.109375 686.824219 670.324219 687.78125 L 679.875 711.261719 "/>
<path style=" stroke:none;fill-rule:nonzero;fill:rgb(100%,100%,100%);fill-opacity:1;" d="M 656.871094 684.460938 L 644.820312 698.765625 L 635.300781 710.0625 C 635.300781 710.0625 633.316406 706.09375 631.195312 699.484375 C 628.078125 689.9375 624.621094 674.808594 626.195312 657.933594 L 626.402344 655.949219 L 626.605469 656.773438 L 626.605469 656.804688 L 627.292969 658.824219 C 629.207031 663.035156 639.308594 666.9375 649.679688 669.058594 L 649.679688 669.160156 C 648.960938 675.765625 656.871094 684.460938 656.871094 684.460938 "/>
<path style=" stroke:none;fill-rule:nonzero;fill:rgb(49.798584%,22.349548%,0%);fill-opacity:1;" d="M 793.804688 561.3125 L 788.601562 572.507812 C 792.195312 556.726562 777.613281 556.179688 777.613281 556.179688 C 762.140625 555.015625 755.566406 583.390625 755.566406 583.390625 C 750.773438 598.3125 746.800781 593.179688 746.800781 593.179688 L 746.222656 569.355469 C 726.914062 555.871094 725.03125 534.550781 725.03125 534.550781 L 813.011719 431.699219 C 845.601562 477.015625 793.804688 561.3125 793.804688 561.3125 "/>
<path style=" stroke:none;fill-rule:nonzero;fill:rgb(49.798584%,22.349548%,0%);fill-opacity:1;" d="M 813.011719 431.699219 L 725.03125 534.550781 C 725.03125 534.550781 633.078125 556.898438 610.824219 508.535156 C 609.796875 506.3125 608.90625 503.917969 608.1875 501.347656 C 605.175781 490.464844 606.132812 478.792969 610.242188 468.285156 C 620.410156 442.171875 651.597656 383.199219 727.90625 375.085938 C 751.011719 372.65625 769.84375 382.070312 789.011719 395.382812 C 812.328125 411.574219 813.011719 431.699219 813.011719 431.699219 "/>
<path style=" stroke:none;fill-rule:nonzero;fill:rgb(0%,17.248535%,19.999695%);fill-opacity:1;" d="M 817.359375 865.109375 L 817.222656 865.691406 L 817.015625 866.304688 L 816.878906 866.785156 L 816.675781 867.433594 C 816.125 869.316406 815.269531 872.261719 814.175781 876.09375 L 813.832031 877.464844 L 813.660156 878.046875 L 813.492188 878.660156 C 813.183594 879.792969 812.839844 881.058594 812.464844 882.359375 C 812.191406 883.453125 811.847656 884.582031 811.539062 885.746094 C 811.195312 887.046875 810.820312 888.449219 810.476562 889.855469 L 810.238281 890.675781 C 807.945312 899.539062 805.273438 910.253906 802.570312 922.09375 C 802.160156 923.910156 801.78125 925.792969 801.335938 927.675781 C 799.316406 936.847656 797.367188 946.601562 795.550781 956.664062 C 795.277344 958.238281 794.96875 959.8125 794.730469 961.421875 C 793.601562 967.820312 792.539062 974.324219 791.648438 980.863281 C 790.726562 987.363281 789.9375 993.9375 789.289062 1000.40625 C 788.636719 1006.90625 788.125 1013.308594 787.847656 1019.605469 C 787.746094 1021.179688 787.679688 1022.722656 787.679688 1024.261719 C 787.507812 1028.539062 787.472656 1032.75 787.542969 1036.925781 C 787.542969 1038.019531 787.574219 1039.117188 787.609375 1040.210938 C 787.644531 1041.339844 787.679688 1042.503906 787.746094 1043.632812 C 787.746094 1044.761719 787.816406 1045.890625 787.917969 1046.953125 C 788.089844 1049.65625 788.292969 1052.292969 788.601562 1054.859375 L 712.601562 1010.570312 L 809.417969 876.128906 L 815.578125 867.574219 L 817.359375 865.140625 L 817.359375 865.109375 "/>
<path style=" stroke:none;fill-rule:nonzero;fill:rgb(0%,17.248535%,19.999695%);fill-opacity:1;" d="M 817.394531 865.039062 L 817.359375 865.074219 Z M 817.394531 865.039062 "/>
<path style=" stroke:none;fill-rule:nonzero;fill:rgb(0%,15.289307%,18.03894%);fill-opacity:1;" d="M 846.355469 883.554688 L 846.355469 883.589844 L 841.527344 905.050781 C 841.527344 905.050781 828.691406 989.417969 837.25 1083.234375 L 788.601562 1054.859375 C 788.292969 1052.292969 788.089844 1049.65625 787.917969 1046.953125 C 787.816406 1045.859375 787.78125 1044.761719 787.746094 1043.632812 C 787.679688 1042.503906 787.644531 1041.339844 787.609375 1040.210938 C 787.574219 1039.117188 787.574219 1038.019531 787.542969 1036.925781 C 787.472656 1032.75 787.507812 1028.539062 787.679688 1024.261719 C 787.710938 1022.722656 787.78125 1021.144531 787.847656 1019.605469 C 787.917969 1018.03125 788.019531 1016.421875 788.125 1014.847656 C 788.398438 1010.089844 788.808594 1005.265625 789.289062 1000.40625 C 789.9375 993.9375 790.726562 987.363281 791.648438 980.863281 C 792.574219 974.324219 793.601562 967.855469 794.730469 961.421875 C 794.96875 959.847656 795.277344 958.238281 795.550781 956.664062 C 797.367188 946.601562 799.316406 936.847656 801.335938 927.675781 C 801.78125 925.792969 802.160156 923.910156 802.570312 922.09375 C 805.273438 910.253906 807.945312 899.539062 810.238281 890.675781 L 810.476562 889.855469 C 810.820312 888.449219 811.195312 887.046875 811.539062 885.746094 C 811.847656 884.582031 812.191406 883.453125 812.464844 882.359375 C 812.839844 881.058594 813.183594 879.792969 813.492188 878.660156 L 813.660156 878.046875 L 813.832031 877.464844 L 814.175781 876.09375 C 815.269531 872.261719 816.125 869.316406 816.675781 867.433594 L 816.878906 866.785156 L 817.015625 866.304688 L 817.085938 866.167969 L 817.222656 865.691406 L 817.359375 865.140625 L 817.359375 865.074219 L 824.582031 838.925781 L 846.355469 883.554688 "/>
<path style=" stroke:none;fill-rule:nonzero;fill:rgb(0%,21.179199%,25.099182%);fill-opacity:1;" d="M 812.976562 655.367188 L 812.976562 656.085938 L 812.839844 657.765625 L 812.738281 658.6875 L 812.601562 659.851562 L 812.601562 659.886719 L 812.257812 661.769531 L 812.15625 662.488281 C 811.984375 663.207031 811.847656 663.960938 811.640625 664.746094 C 811.472656 665.535156 811.265625 666.390625 810.992188 667.246094 L 810.753906 668.132812 L 810.511719 669.09375 L 809.894531 671.007812 L 809.589844 672.003906 C 809.144531 673.441406 808.628906 674.910156 808.046875 676.453125 L 807.15625 678.777344 C 806.847656 679.601562 806.472656 680.421875 806.128906 681.3125 C 805.789062 682.167969 805.410156 683.023438 805.035156 683.949219 C 804.691406 684.734375 804.316406 685.554688 803.941406 686.34375 L 803.152344 688.15625 L 802.777344 688.910156 C 801.988281 690.621094 801.132812 692.367188 800.207031 694.25 L 800.171875 694.285156 C 799.660156 695.34375 799.113281 696.40625 798.566406 697.5 C 797.402344 699.726562 796.167969 702.054688 794.832031 704.484375 C 794.285156 705.441406 793.738281 706.433594 793.15625 707.460938 C 792.300781 708.96875 791.410156 710.472656 790.484375 712.046875 C 789.730469 713.382812 788.945312 714.683594 788.125 716.050781 C 787.507812 717.078125 786.890625 718.105469 786.207031 719.167969 C 785.589844 720.191406 784.941406 721.289062 784.253906 722.347656 C 783.5 723.511719 782.78125 724.710938 781.996094 725.910156 C 780.695312 727.960938 779.289062 730.085938 777.851562 732.273438 C 777.03125 733.507812 776.175781 734.808594 775.320312 736.074219 C 773.949219 738.160156 772.617188 740.148438 771.347656 742.03125 C 770.699219 742.988281 770.082031 743.945312 769.5 744.835938 C 768.300781 746.683594 767.171875 748.429688 766.109375 750.105469 L 766.078125 750.140625 C 765.527344 750.960938 765.050781 751.785156 764.5 752.570312 C 763.851562 753.597656 763.234375 754.554688 762.652344 755.515625 L 761.59375 757.191406 L 760.257812 759.347656 C 759.402344 760.75 758.578125 762.085938 757.824219 763.320312 C 756.832031 764.960938 755.910156 766.5 755.085938 767.90625 C 754.027344 769.753906 753.066406 771.394531 752.246094 772.832031 L 751.5625 774.101562 L 750.363281 776.289062 C 749.609375 777.625 749.027344 778.71875 748.582031 779.609375 L 748.273438 780.191406 L 748 780.738281 C 747.523438 781.664062 747.316406 782.144531 747.316406 782.144531 L 725.476562 788.0625 L 743.652344 797.132812 C 743.652344 797.132812 742.695312 797.851562 740.984375 799.324219 C 737.046875 802.578125 729.105469 809.457031 719.3125 819.449219 C 717.464844 821.265625 715.546875 823.25 713.59375 825.335938 C 712.261719 826.738281 710.960938 828.144531 709.625 829.613281 L 707.605469 831.875 C 705.550781 834.132812 703.460938 836.496094 701.410156 838.957031 C 699.21875 841.527344 697.027344 844.128906 694.871094 846.898438 C 688.261719 855.113281 681.621094 864.21875 675.355469 874.074219 C 673.953125 876.265625 672.582031 878.492188 671.246094 880.75 C 670.5625 881.878906 669.878906 883.007812 669.226562 884.171875 C 668.542969 885.300781 667.894531 886.464844 667.242188 887.628906 C 666.59375 888.792969 665.941406 889.957031 665.292969 891.15625 C 664.675781 892.351562 664.058594 893.515625 663.410156 894.75 C 662.210938 897.074219 661.046875 899.402344 659.882812 901.796875 L 659.0625 903.578125 L 658.238281 905.390625 C 657.65625 906.589844 657.109375 907.789062 656.597656 909.019531 C 655.910156 910.527344 655.261719 912.066406 654.644531 913.605469 C 654.132812 914.804688 653.652344 916.003906 653.207031 917.199219 C 652.796875 918.261719 652.386719 919.289062 652.007812 920.347656 C 651.425781 921.890625 650.84375 923.5 650.296875 925.039062 C 649.816406 926.375 649.40625 927.742188 648.960938 929.042969 L 648.960938 929.144531 L 648.925781 929.214844 L 648.894531 929.316406 L 642.765625 953.824219 C 642.765625 953.824219 643.550781 917.40625 657.144531 866.785156 C 657.691406 864.730469 658.273438 862.644531 658.855469 860.523438 C 674.125 806.683594 703.734375 738.46875 761.25 680.96875 C 762.449219 679.359375 763.613281 677.855469 764.671875 676.554688 L 764.707031 676.453125 C 767.71875 672.890625 770.492188 669.058594 772.957031 664.953125 C 772.957031 664.953125 778.878906 655.777344 783.605469 645.238281 C 786.960938 637.707031 787.746094 630.007812 786.378906 620.96875 C 785.453125 614.707031 783.398438 608.683594 780.730469 602.96875 L 777.957031 597.113281 L 777.851562 596.875 L 777.683594 596.5 C 780.421875 597.457031 790.28125 603.308594 807.945312 639.351562 C 807.945312 639.351562 812.53125 648.898438 812.941406 652.734375 L 812.976562 653.519531 L 812.976562 655.367188 "/>
<path style=" stroke:none;fill-rule:nonzero;fill:rgb(0%,17.248535%,19.999695%);fill-opacity:1;" d="M 656.902344 684.460938 L 656.902344 684.496094 L 656.871094 684.460938 Z M 656.902344 684.460938 "/>
<path style=" stroke:none;fill-rule:nonzero;fill:rgb(98.039246%,71.369934%,56.469727%);fill-opacity:1;" d="M 765.835938 640 L 765.800781 640 L 765.324219 640.515625 C 764.605469 641.371094 763.851562 642.191406 763.097656 643.011719 L 760.804688 645.339844 L 760.394531 645.75 C 759.433594 646.707031 758.511719 647.667969 757.519531 648.589844 L 755.976562 650.027344 C 754.503906 651.433594 753 652.765625 751.457031 654.066406 C 750.429688 654.992188 749.40625 655.847656 748.34375 656.738281 L 748.308594 656.773438 C 747.417969 657.523438 746.527344 658.210938 745.640625 658.929688 C 744.304688 659.988281 742.96875 661.015625 741.632812 662.042969 C 740.742188 662.691406 739.886719 663.378906 738.996094 663.992188 C 737.183594 665.328125 735.402344 666.59375 733.589844 667.828125 L 731.292969 669.332031 C 729.515625 670.53125 727.734375 671.660156 725.988281 672.6875 L 723.933594 673.917969 L 722.292969 674.84375 L 720.40625 675.902344 L 718.765625 676.792969 L 717.636719 677.375 C 716.128906 678.128906 714.589844 678.847656 713.046875 679.496094 L 712.601562 679.703125 C 694.9375 688.121094 680.183594 688.875 670.324219 687.78125 C 662.109375 686.824219 657.28125 684.632812 656.902344 684.496094 L 656.902344 684.460938 L 656.871094 684.460938 C 656.871094 684.460938 648.960938 675.765625 649.679688 669.160156 L 649.679688 669.058594 C 651.085938 669.332031 652.488281 669.570312 653.890625 669.777344 C 656.699219 670.222656 659.539062 670.359375 662.347656 670.1875 C 666.558594 669.949219 723.011719 650.234375 735.882812 643.082031 C 749.953125 635.277344 766.691406 621.929688 775.421875 600.230469 L 777.511719 596.429688 L 777.683594 596.5 L 777.957031 597.113281 C 778.230469 597.730469 778.605469 598.722656 779.015625 599.988281 L 779.050781 599.988281 C 785.179688 611.457031 777.988281 626.171875 765.835938 640 "/>
<path style=" stroke:none;fill-rule:nonzero;fill:rgb(100%,100%,100%);fill-opacity:1;" d="M 783.605469 645.238281 C 778.878906 655.777344 772.957031 664.953125 772.957031 664.953125 C 770.492188 669.058594 767.71875 672.890625 764.707031 676.453125 L 764.671875 676.554688 C 748.890625 695.414062 727.015625 707.53125 710.136719 714.75 C 696.753906 720.46875 686.550781 723.035156 685.078125 723.445312 L 684.875 723.445312 L 679.875 711.261719 L 670.324219 687.78125 C 680.183594 688.875 694.9375 688.121094 712.601562 679.703125 L 713.046875 679.496094 C 714.589844 678.847656 716.128906 678.128906 717.636719 677.375 L 718.765625 676.792969 L 720.40625 675.902344 L 722.292969 674.84375 L 723.933594 673.917969 L 725.988281 672.6875 C 727.734375 671.660156 729.515625 670.53125 731.292969 669.332031 L 733.589844 667.828125 C 735.402344 666.59375 737.183594 665.328125 738.996094 663.992188 C 739.886719 663.378906 740.742188 662.691406 741.632812 662.042969 C 742.96875 661.015625 744.304688 659.988281 745.640625 658.929688 C 746.527344 658.210938 747.417969 657.523438 748.308594 656.773438 L 748.34375 656.738281 C 749.40625 655.847656 750.429688 654.992188 751.457031 654.066406 C 753 652.765625 754.503906 651.433594 755.976562 650.027344 L 757.519531 648.589844 C 758.511719 647.667969 759.433594 646.707031 760.394531 645.75 L 760.804688 645.339844 L 763.097656 643.011719 C 763.851562 642.191406 764.605469 641.371094 765.324219 640.515625 L 765.835938 640 L 765.800781 640 C 784.941406 610.019531 775.421875 600.230469 775.421875 600.230469 L 777.511719 596.429688 L 777.578125 596.292969 L 777.683594 596.5 L 777.851562 596.875 L 777.957031 597.113281 L 780.730469 602.96875 C 783.398438 608.683594 785.453125 614.707031 786.378906 620.96875 C 787.746094 630.007812 786.960938 637.707031 783.605469 645.238281 "/>
<path style=" stroke:none;fill-rule:nonzero;fill:rgb(0%,21.179199%,25.099182%);fill-opacity:1;" d="M 642.21875 958.203125 C 637.765625 951.5625 633.417969 942.664062 629.621094 933.390625 C 621.539062 913.984375 615.515625 893.171875 614.523438 889.613281 L 614.453125 889.375 L 614.417969 889.203125 L 614.351562 889.066406 C 613.085938 884.273438 611.816406 879.3125 610.484375 874.179688 C 609.933594 872.054688 609.421875 869.898438 608.839844 867.742188 C 607.058594 860.796875 605.277344 853.675781 603.53125 846.386719 C 603.15625 844.984375 602.847656 843.546875 602.507812 842.109375 C 599.046875 827.835938 595.660156 813.082031 592.613281 798.539062 C 592.03125 796.039062 591.515625 793.472656 591.003906 790.972656 C 588.640625 779.542969 586.519531 768.316406 584.738281 757.601562 C 584.566406 756.679688 584.429688 755.6875 584.292969 754.761719 C 583.472656 749.902344 582.753906 745.144531 582.136719 740.558594 L 599.800781 738.265625 L 582.136719 727.347656 C 582.136719 727.347656 582.066406 726.9375 581.964844 726.082031 L 581.929688 725.703125 C 580.5625 713.621094 573.613281 638.527344 609.695312 610.632812 L 615.34375 605.980469 L 618.117188 618.234375 L 625.714844 651.773438 C 625.886719 653.28125 626.128906 654.71875 626.402344 655.949219 L 626.605469 656.773438 L 626.605469 656.804688 L 626.195312 657.933594 C 623.21875 666.320312 621.164062 678.058594 619.726562 689.699219 C 617.945312 703.832031 617.125 717.832031 616.816406 725.363281 L 616.714844 727.175781 L 616.679688 728.648438 C 616.609375 730.222656 616.574219 731.078125 616.574219 731.078125 C 616.4375 735.355469 616.335938 739.804688 616.300781 744.324219 C 616.199219 756.574219 616.4375 769.683594 616.953125 783.136719 L 616.953125 783.273438 C 617.089844 786.867188 617.261719 790.496094 617.433594 794.089844 C 617.671875 799.085938 617.945312 804.117188 618.253906 809.183594 C 618.355469 810.859375 618.460938 812.570312 618.5625 814.246094 C 618.664062 815.925781 618.800781 817.601562 618.871094 819.277344 C 619.382812 826.636719 619.898438 833.960938 620.480469 841.183594 C 620.992188 847.6875 621.503906 854.121094 622.085938 860.417969 C 622.226562 862.402344 622.429688 864.355469 622.601562 866.339844 C 623.148438 872.433594 623.695312 878.421875 624.277344 884.136719 C 624.382812 885.097656 624.484375 886.054688 624.550781 886.980469 L 624.65625 887.9375 C 624.792969 889.441406 624.964844 890.914062 625.101562 892.351562 C 625.203125 893.515625 625.339844 894.679688 625.441406 895.808594 C 625.578125 896.972656 625.785156 898.171875 625.992188 899.402344 C 629.039062 917.78125 637.492188 944.035156 640.847656 954.132812 C 641.464844 955.910156 641.875 957.175781 642.113281 957.828125 L 642.21875 958.203125 "/>
<path style=" stroke:none;fill-rule:nonzero;fill:rgb(76.858521%,76.858521%,76.858521%);fill-opacity:1;" d="M 764.671875 676.554688 C 763.613281 677.855469 762.449219 679.359375 761.25 680.96875 C 703.734375 738.46875 674.125 806.683594 658.855469 860.523438 C 658.273438 862.644531 657.691406 864.730469 657.144531 866.785156 C 654.097656 794.910156 669.332031 738.503906 669.332031 738.503906 L 667.070312 722.625 C 668.304688 722.179688 669.46875 721.425781 670.425781 720.46875 L 679.875 711.261719 L 684.875 723.445312 L 685.078125 723.445312 C 686.550781 723.035156 696.753906 720.46875 710.136719 714.75 C 727.015625 707.53125 748.890625 695.414062 764.671875 676.554688 "/>
<path style=" stroke:none;fill-rule:nonzero;fill:rgb(0%,31.369019%,34.899902%);fill-opacity:1;" d="M 657.246094 868.804688 L 657.28125 868.804688 C 655.570312 875.136719 654.097656 881.503906 652.898438 887.867188 C 648.585938 910.972656 645.09375 932.535156 642.765625 953.824219 L 642.285156 958.304688 L 642.21875 958.238281 L 642.21875 958.203125 L 642.113281 957.828125 C 641.875 957.175781 641.464844 955.910156 640.847656 954.132812 C 637.492188 944.035156 629.039062 917.78125 625.992188 899.402344 C 625.785156 898.171875 625.578125 896.972656 625.441406 895.808594 C 625.339844 894.679688 625.203125 893.515625 625.101562 892.351562 C 624.964844 890.914062 624.792969 889.441406 624.65625 887.9375 L 624.550781 886.980469 C 624.484375 886.054688 624.382812 885.097656 624.277344 884.136719 C 623.695312 878.421875 623.148438 872.433594 622.601562 866.339844 C 622.429688 864.355469 622.226562 862.402344 622.085938 860.417969 C 621.503906 854.121094 620.992188 847.6875 620.480469 841.183594 C 621.609375 823.832031 627.566406 782.65625 627.703125 781.5625 C 629.996094 758.355469 642.285156 722.726562 642.285156 722.726562 L 649.03125 717.316406 L 649.097656 717.421875 L 649.542969 717.796875 C 651.390625 719.304688 654.40625 720.398438 657.246094 721.5625 L 658.511719 722.074219 C 660.019531 722.691406 661.492188 723.035156 662.792969 723.207031 L 663.785156 723.273438 L 667.070312 722.625 L 669.332031 738.503906 C 669.332031 738.503906 654.097656 794.910156 657.144531 866.785156 L 657.246094 868.804688 "/>
<path style=" stroke:none;fill-rule:nonzero;fill:rgb(76.858521%,76.858521%,76.858521%);fill-opacity:1;" d="M 649.03125 717.316406 L 642.285156 722.726562 C 642.285156 722.726562 629.996094 758.355469 627.703125 781.5625 C 627.566406 782.65625 621.609375 823.832031 620.480469 841.183594 C 619.898438 833.960938 619.382812 826.636719 618.871094 819.277344 C 618.800781 817.601562 618.664062 815.925781 618.5625 814.246094 C 618.460938 812.570312 618.355469 810.859375 618.253906 809.183594 C 617.945312 804.117188 617.671875 799.085938 617.433594 794.089844 C 617.261719 790.496094 617.089844 786.867188 616.953125 783.273438 L 616.953125 783.136719 C 616.4375 769.683594 616.199219 756.574219 616.300781 744.324219 C 616.335938 739.804688 616.4375 735.355469 616.574219 731.078125 C 616.574219 731.078125 616.609375 730.222656 616.679688 728.648438 L 616.714844 727.175781 L 616.816406 725.363281 C 617.125 717.832031 617.945312 703.832031 619.726562 689.699219 C 621.164062 678.058594 623.21875 666.320312 626.195312 657.933594 C 624.621094 674.808594 628.078125 689.9375 631.195312 699.484375 C 633.316406 706.09375 635.300781 710.0625 635.300781 710.0625 L 644.820312 698.765625 L 647.796875 715.128906 C 648.003906 715.984375 648.449219 716.703125 649.03125 717.316406 "/>
<path style=" stroke:none;fill-rule:nonzero;fill:rgb(30.979919%,14.509583%,3.529358%);fill-opacity:1;" d="M 803.699219 442.582031 L 813.011719 431.699219 C 809.621094 434.09375 806.335938 436.558594 803.117188 439.089844 L 802.84375 437.515625 C 802.636719 436.558594 802.332031 435.632812 802.089844 434.675781 C 801.644531 432.757812 800.925781 430.910156 800.242188 429.132812 C 797.46875 421.875 793.257812 415.441406 788.363281 409.863281 L 784.597656 405.789062 C 783.226562 404.558594 781.824219 403.359375 780.453125 402.125 L 778.433594 400.347656 L 776.210938 398.738281 L 771.792969 395.554688 C 768.78125 393.605469 765.632812 391.894531 762.550781 390.042969 L 752.929688 385.492188 L 761.761719 391.414062 C 764.5 393.636719 767.273438 395.761719 769.910156 398.054688 L 773.675781 401.714844 L 775.558594 403.53125 L 777.238281 405.480469 L 780.558594 409.449219 L 783.46875 413.695312 C 787.164062 419.375 789.9375 425.570312 791.375 431.9375 C 791.753906 433.546875 792.128906 435.121094 792.230469 436.730469 C 792.300781 437.550781 792.472656 438.339844 792.503906 439.125 L 792.574219 441.488281 C 792.640625 442.308594 792.574219 443.097656 792.539062 443.882812 L 792.402344 446.210938 L 792.128906 448.230469 C 790.621094 449.53125 789.148438 450.898438 787.679688 452.234375 C 787.164062 450.625 786.546875 449.015625 785.933594 447.476562 C 784.664062 444.257812 783.195312 441.144531 781.515625 438.132812 C 779.871094 435.085938 777.957031 432.175781 775.800781 429.542969 C 771.554688 424.269531 766.660156 419.652344 761.386719 415.78125 C 756.113281 411.914062 750.464844 408.765625 744.644531 406.164062 C 749.710938 410.066406 754.367188 414.34375 758.40625 419.070312 C 762.449219 423.757812 765.800781 428.925781 768.371094 434.332031 C 770.902344 439.777344 772.683594 445.285156 773.710938 451.140625 C 774.257812 454.046875 774.601562 456.992188 774.839844 459.902344 C 774.941406 461.371094 775.011719 462.84375 775.046875 464.28125 L 775.046875 464.660156 C 773.984375 465.753906 772.992188 466.816406 772 467.875 C 771.484375 465.652344 770.9375 463.460938 770.148438 461.339844 C 769.328125 458.804688 768.164062 456.445312 767.070312 454.082031 C 765.941406 451.722656 764.5 449.53125 763.234375 447.269531 C 757.65625 438.507812 750.226562 431.289062 742.214844 425.230469 C 738.3125 422.011719 733.929688 419.546875 729.6875 416.878906 L 728.109375 415.921875 L 726.433594 415.0625 L 723.113281 413.386719 C 720.886719 412.257812 718.664062 411.09375 716.4375 410.03125 C 711.816406 408.183594 707.261719 406.199219 702.640625 404.488281 L 688.535156 399.902344 L 702.265625 405.445312 C 706.75 407.5 711.097656 409.757812 715.511719 411.914062 C 717.667969 413.113281 719.757812 414.414062 721.847656 415.644531 L 724.996094 417.527344 L 726.570312 418.488281 L 728.042969 419.546875 C 732.011719 422.421875 736.085938 425.125 739.613281 428.480469 C 746.90625 434.847656 753.410156 442.171875 757.929688 450.523438 C 758.957031 452.644531 760.121094 454.734375 760.976562 456.890625 C 761.796875 459.113281 762.722656 461.269531 763.234375 463.527344 C 763.917969 465.753906 764.296875 468.082031 764.640625 470.304688 C 764.742188 471.433594 764.945312 472.566406 764.945312 473.695312 L 764.945312 475.714844 L 764.945312 475.679688 C 764.226562 473.796875 763.40625 471.984375 762.550781 470.238281 C 759.777344 464.554688 756.285156 459.351562 752.382812 454.597656 C 744.578125 445.011719 734.992188 437.34375 724.652344 431.492188 C 714.347656 425.605469 703.257812 421.5 692.0625 418.453125 C 680.832031 415.40625 669.433594 413.625 657.964844 412.601562 C 669.226562 414.859375 680.355469 417.835938 690.96875 421.910156 C 701.546875 426.050781 711.746094 431.152344 720.785156 437.6875 C 729.855469 444.15625 737.765625 452.097656 743.6875 461.097656 C 746.632812 465.617188 749.164062 470.410156 750.945312 475.371094 C 751.871094 477.835938 752.65625 480.367188 753.203125 482.902344 C 753.511719 484.132812 753.71875 485.398438 753.921875 486.632812 L 754.164062 488.445312 L 754.199219 488.960938 L 753.582031 489.78125 C 735.675781 471.402344 714.039062 457.367188 690.933594 449.121094 C 712.570312 461.851562 730.574219 479.546875 743.757812 499.773438 C 742.316406 499.636719 740.8125 499.433594 739.375 499.226562 C 736.941406 498.851562 734.546875 498.507812 732.117188 498.027344 C 727.289062 497.105469 722.460938 495.941406 717.667969 494.640625 C 708.117188 492.039062 698.667969 488.789062 689.359375 485.089844 C 684.734375 483.140625 680.082031 481.292969 675.5625 479.101562 C 673.300781 478.007812 671.007812 477.015625 668.75 475.851562 L 662.039062 472.429688 C 659.78125 471.296875 657.589844 470.101562 655.398438 468.835938 L 648.789062 465.136719 C 644.441406 462.570312 640.199219 459.867188 635.882812 457.195312 C 639.957031 460.207031 643.996094 463.289062 648.105469 466.234375 L 654.40625 470.511719 C 656.492188 471.949219 658.582031 473.351562 660.773438 474.6875 L 667.207031 478.726562 C 669.363281 480.09375 671.625 481.292969 673.816406 482.558594 C 678.199219 485.195312 682.714844 487.488281 687.234375 489.847656 C 696.375 494.433594 705.722656 498.578125 715.375 502.101562 C 720.203125 503.882812 725.0625 505.523438 730.0625 506.894531 C 732.527344 507.613281 735.058594 508.230469 737.59375 508.84375 L 739.714844 509.324219 L 739.683594 509.324219 C 736.121094 510.351562 732.390625 511.273438 728.691406 512.0625 C 723.625 513.125 718.492188 513.945312 713.289062 514.5625 C 708.117188 515.175781 702.878906 515.484375 697.640625 515.554688 C 692.40625 515.65625 687.132812 515.246094 681.859375 514.765625 C 687.03125 515.964844 692.234375 517.023438 697.503906 517.605469 C 702.8125 518.257812 708.152344 518.632812 713.457031 518.703125 C 718.832031 518.804688 724.207031 518.667969 729.582031 518.257812 C 731.191406 518.121094 732.765625 517.984375 734.375 517.8125 L 733.621094 519.042969 C 727.015625 521.335938 720.203125 523.1875 713.320312 524.519531 C 709.386719 525.308594 705.449219 525.890625 701.476562 526.367188 C 697.472656 526.882812 693.464844 527.328125 689.460938 527.667969 C 681.484375 528.355469 673.472656 528.523438 665.460938 527.667969 C 661.492188 527.222656 657.554688 526.503906 653.652344 525.480469 C 649.785156 524.417969 645.984375 522.980469 642.320312 521.304688 C 645.878906 523.21875 649.578125 524.898438 653.445312 526.230469 C 657.28125 527.5 661.25 528.492188 665.257812 529.210938 C 673.300781 530.613281 681.484375 530.988281 689.632812 530.785156 C 693.707031 530.679688 697.78125 530.511719 701.820312 530.269531 C 705.859375 530.03125 709.964844 529.6875 714.039062 529.140625 C 719.175781 528.492188 724.3125 527.566406 729.34375 526.367188 C 726.671875 531.160156 725.234375 534.136719 725.03125 534.515625 L 732.734375 525.511719 L 734.101562 523.9375 L 735.675781 523.871094 C 736.804688 523.9375 738.003906 524.210938 739.132812 524.691406 C 740.265625 525.171875 741.359375 525.820312 742.386719 526.675781 L 743.859375 527.976562 L 745.195312 529.484375 L 744.269531 527.667969 L 743.140625 525.921875 C 742.285156 524.828125 741.324219 523.765625 740.195312 522.878906 C 739.132812 522.089844 737.9375 521.441406 736.636719 520.960938 L 737.011719 520.515625 L 739.921875 517.128906 L 741.839844 514.902344 L 742.523438 515.074219 L 744.335938 515.691406 C 745.570312 516.203125 746.769531 516.785156 747.933594 517.503906 C 750.261719 518.90625 752.417969 520.722656 754.199219 522.980469 C 755.941406 525.238281 757.550781 527.804688 758.578125 530.648438 C 759.230469 532.085938 759.46875 533.589844 759.984375 535.0625 C 760.324219 536.566406 760.53125 538.144531 760.839844 539.71875 C 760.976562 538.144531 761.179688 536.535156 761.25 534.960938 C 761.179688 533.351562 761.351562 531.707031 761.078125 530.066406 C 760.839844 526.78125 759.949219 523.492188 758.648438 520.3125 C 757.3125 517.128906 755.328125 514.148438 752.929688 511.515625 C 751.734375 510.179688 750.363281 508.980469 748.925781 507.851562 L 748.273438 507.371094 L 754.882812 499.636719 L 755.121094 499.636719 C 756.25 499.742188 757.449219 500.015625 758.546875 500.460938 C 759.640625 500.972656 760.769531 501.554688 761.730469 502.375 C 762.722656 503.128906 763.613281 504.085938 764.46875 505.078125 C 763.917969 503.917969 763.304688 502.683594 762.480469 501.621094 C 761.695312 500.492188 760.667969 499.535156 759.570312 498.679688 C 758.820312 498.0625 757.929688 497.585938 757.039062 497.140625 L 762.3125 490.945312 L 764.226562 491.867188 C 765.699219 492.65625 767.136719 493.546875 768.542969 494.574219 C 771.3125 496.589844 773.847656 499.023438 775.9375 501.863281 C 778.023438 504.703125 779.90625 507.851562 781.105469 511.34375 C 781.859375 513.054688 782.199219 514.867188 782.714844 516.683594 C 783.125 518.53125 783.332031 520.414062 783.636719 522.296875 C 783.777344 520.414062 784.015625 518.496094 783.980469 516.546875 C 783.914062 514.628906 783.980469 512.644531 783.605469 510.726562 C 783.195312 506.792969 782.03125 502.957031 780.421875 499.226562 C 778.8125 495.496094 776.519531 492.003906 773.8125 488.855469 C 772.445312 487.28125 770.972656 485.777344 769.398438 484.371094 L 768.542969 483.6875 L 776.277344 474.617188 C 777.167969 474.859375 778.09375 475.164062 778.984375 475.542969 C 780.386719 476.160156 781.753906 476.945312 783.023438 477.871094 C 784.324219 478.792969 785.488281 479.890625 786.515625 481.15625 C 787.574219 482.351562 788.398438 483.789062 789.183594 485.261719 C 788.738281 483.652344 788.191406 482.046875 787.371094 480.574219 C 786.582031 479.035156 785.589844 477.628906 784.425781 476.328125 C 783.261719 475.027344 781.925781 473.832031 780.488281 472.839844 L 778.777344 471.710938 L 781.859375 468.117188 L 785.144531 464.246094 C 786.652344 464.554688 788.328125 465.035156 789.59375 465.617188 C 791.203125 466.265625 792.847656 467.398438 794.21875 469.003906 C 797.023438 472.152344 798.769531 476.84375 799.660156 481.632812 C 800.105469 479.203125 800.378906 476.707031 800.34375 474.140625 C 800.277344 471.605469 799.96875 468.9375 799.007812 466.300781 C 798.085938 463.664062 796.613281 461.03125 794.320312 458.910156 C 793.429688 458.085938 792.503906 457.402344 791.582031 456.753906 L 796.238281 451.308594 L 803.699219 442.582031 "/>
<path style=" stroke:none;fill-rule:nonzero;fill:rgb(90.19928%,65.489197%,51.759338%);fill-opacity:1;" d="M 815.75 1339.863281 L 781.617188 1406.332031 C 781.550781 1404.757812 781.925781 1403.59375 781.925781 1403.59375 L 783.742188 1399.726562 L 813.867188 1339.453125 C 813.867188 1339.453125 814.824219 1337.878906 814.347656 1336.78125 C 814.347656 1336.78125 816.160156 1338.015625 815.75 1339.863281 "/>
<path style=" stroke:none;fill-rule:nonzero;fill:rgb(90.19928%,65.489197%,51.759338%);fill-opacity:1;" d="M 824.960938 1340.546875 L 790.039062 1413.585938 C 789.492188 1412.765625 789.183594 1412.183594 789.183594 1412.183594 L 823.554688 1340.445312 L 823.519531 1337.261719 L 824.960938 1340.546875 "/>
<path style=" stroke:none;fill-rule:nonzero;fill:rgb(90.19928%,65.489197%,51.759338%);fill-opacity:1;" d="M 837.316406 1342.226562 L 809.246094 1404.3125 C 808.355469 1402.496094 808.5625 1400.957031 808.5625 1400.957031 L 835.433594 1342.019531 L 835.605469 1336.714844 L 837.316406 1342.226562 "/>
<path style=" stroke:none;fill-rule:nonzero;fill:rgb(90.19928%,65.489197%,51.759338%);fill-opacity:1;" d="M 901.335938 1278.390625 L 892.878906 1287.53125 L 892.777344 1287.566406 L 891.203125 1289.3125 L 890.960938 1289.585938 L 890.175781 1290.75 L 889.96875 1290.988281 L 886.992188 1295.0625 C 886.167969 1297.765625 884.835938 1300.949219 883.191406 1304.371094 C 876.140625 1319.226562 863.847656 1338.390625 863.847656 1338.390625 L 822.390625 1402.839844 L 820.679688 1405.371094 C 819.3125 1407.1875 817.152344 1408.109375 815.066406 1408.042969 C 816.402344 1407.152344 818.660156 1403.421875 820.269531 1400.476562 C 822.015625 1397.191406 823.828125 1394.042969 825.679688 1390.792969 L 855.804688 1339.625 L 865.867188 1315.972656 C 865.046875 1311.285156 862.101562 1314.023438 862.101562 1314.023438 C 855.566406 1322.820312 847.621094 1317.71875 847.621094 1317.71875 C 836.667969 1311.148438 849.746094 1289.722656 849.746094 1289.722656 L 847.828125 1285.785156 L 854.503906 1286.710938 C 854.503906 1286.710938 843.101562 1306.117188 846.867188 1312.480469 C 850.667969 1318.78125 857.414062 1314.363281 857.414062 1314.363281 L 868.675781 1300.535156 L 881.652344 1293.316406 L 885.144531 1288.25 L 885.554688 1287.703125 L 897.398438 1273.054688 L 899.042969 1275.039062 C 899.863281 1276.132812 900.617188 1277.230469 901.335938 1278.390625 "/>
<g clip-path="url(#clip1)" clip-rule="nonzero">
<path style=" stroke:none;fill-rule:nonzero;fill:rgb(98.039246%,71.369934%,56.469727%);fill-opacity:1;" d="M 897.398438 1273.054688 L 885.554688 1287.703125 L 885.144531 1288.25 L 881.652344 1293.316406 L 868.675781 1300.535156 L 857.414062 1314.363281 C 857.414062 1314.363281 850.667969 1318.78125 846.867188 1312.480469 C 843.101562 1306.117188 854.503906 1286.710938 854.503906 1286.710938 L 847.828125 1285.785156 L 849.746094 1289.722656 C 849.746094 1289.722656 836.667969 1311.148438 847.621094 1317.71875 C 847.621094 1317.71875 855.566406 1322.820312 862.101562 1314.023438 C 862.101562 1314.023438 865.046875 1311.285156 865.867188 1315.972656 L 855.804688 1339.625 L 825.679688 1390.792969 C 823.828125 1394.042969 822.015625 1397.191406 820.269531 1400.476562 C 818.660156 1403.421875 816.402344 1407.152344 815.066406 1408.042969 C 813.355469 1408.007812 811.609375 1407.324219 810.339844 1405.953125 L 809.210938 1404.3125 L 837.316406 1342.257812 L 835.605469 1336.75 L 835.402344 1342.054688 L 808.59375 1400.921875 L 801.269531 1415.230469 C 800.617188 1416.429688 798.871094 1418.515625 795.347656 1417.933594 C 793.019531 1417.558594 791.066406 1415.195312 790.074219 1413.585938 L 824.960938 1340.582031 L 823.554688 1337.261719 L 823.554688 1340.445312 L 789.21875 1412.183594 C 787.265625 1413.003906 785.417969 1412.285156 785.417969 1412.285156 C 782.507812 1410.574219 781.753906 1408.144531 781.617188 1406.332031 L 815.714844 1339.863281 C 816.160156 1338.152344 814.550781 1336.917969 814.382812 1336.816406 C 814.824219 1337.980469 813.867188 1339.488281 813.867188 1339.488281 L 783.742188 1399.691406 C 779.496094 1397.738281 781.3125 1392.742188 781.3125 1392.742188 L 808.046875 1337.980469 L 813.183594 1324.804688 C 822.425781 1302.144531 834.921875 1285.476562 844.097656 1275.242188 C 848.820312 1269.9375 852.621094 1266.414062 854.675781 1264.566406 L 855.496094 1263.878906 L 856.421875 1263.160156 L 856.421875 1263.128906 L 857.308594 1261.691406 L 859.296875 1258.679688 L 864.875 1250.738281 C 869.703125 1251.933594 876.035156 1254.605469 883.738281 1260.148438 C 888.773438 1263.8125 893.460938 1268.054688 897.363281 1272.984375 L 897.398438 1273.054688 "/>
</g>
<path style=" stroke:none;fill-rule:nonzero;fill:rgb(0%,9.408569%,10.978699%);fill-opacity:1;" d="M 867.066406 1233.554688 L 857.859375 1244.882812 C 856.558594 1243.550781 852.210938 1238.691406 854.640625 1234.617188 L 854.640625 1234.582031 L 855.769531 1233.214844 C 857.960938 1231.261719 862.101562 1231.671875 867.066406 1233.554688 "/>
<path style=" stroke:none;fill-rule:nonzero;fill:rgb(0%,9.408569%,10.978699%);fill-opacity:1;" d="M 915.75 1286.777344 L 915.542969 1287.1875 L 915.371094 1287.460938 L 914.753906 1288.113281 L 914.722656 1288.113281 C 914.070312 1288.695312 913.25 1289.003906 912.394531 1289.003906 L 912.359375 1289.035156 L 910.957031 1288.832031 C 909.6875 1288.351562 908.183594 1287.597656 906.539062 1286.195312 L 912.839844 1276.269531 C 914.445312 1279.144531 915.609375 1281.847656 916.089844 1284.109375 C 916.328125 1285.101562 916.160156 1286.023438 915.75 1286.777344 "/>
<path style=" stroke:none;fill-rule:nonzero;fill:rgb(0%,17.248535%,19.999695%);fill-opacity:1;" d="M 1013.519531 1013.992188 L 1007.597656 998.558594 L 915.644531 759.621094 C 910.304688 745.761719 901.816406 733.371094 890.859375 723.410156 L 812.941406 652.734375 L 812.976562 653.519531 L 812.976562 653.589844 C 813.046875 654.476562 813.046875 655.847656 812.839844 657.765625 L 812.738281 658.6875 L 812.601562 659.851562 L 812.601562 659.886719 C 812.394531 661.289062 812.085938 662.898438 811.640625 664.746094 C 811.4375 665.808594 811.128906 666.9375 810.753906 668.132812 C 810.445312 669.332031 810.03125 670.667969 809.589844 672.003906 C 809.144531 673.441406 808.628906 674.910156 808.046875 676.453125 L 807.15625 678.777344 C 806.847656 679.601562 806.472656 680.421875 806.128906 681.3125 C 805.789062 682.167969 805.410156 683.023438 805.035156 683.949219 C 803.664062 687.097656 802.054688 690.554688 800.171875 694.285156 C 799.660156 695.34375 799.113281 696.40625 798.566406 697.5 C 797.402344 699.726562 796.167969 702.054688 794.832031 704.484375 C 794.285156 705.441406 793.738281 706.433594 793.15625 707.460938 C 792.300781 708.96875 791.410156 710.472656 790.484375 712.046875 C 789.730469 713.382812 788.945312 714.683594 788.125 716.050781 C 787.507812 717.078125 786.890625 718.105469 786.207031 719.167969 C 785.589844 720.191406 784.941406 721.289062 784.253906 722.347656 C 783.5 723.511719 782.78125 724.710938 781.996094 725.910156 C 780.695312 727.960938 779.289062 730.085938 777.851562 732.273438 C 777.03125 733.507812 776.210938 734.808594 775.320312 736.074219 C 773.949219 738.160156 772.617188 740.148438 771.347656 742.03125 C 770.699219 742.988281 770.082031 743.945312 769.5 744.835938 C 768.300781 746.683594 767.171875 748.429688 766.109375 750.105469 L 766.078125 750.140625 C 765.527344 750.960938 765.050781 751.785156 764.5 752.570312 C 763.886719 753.597656 763.269531 754.554688 762.652344 755.515625 L 761.59375 757.191406 L 760.257812 759.347656 C 759.402344 760.75 758.578125 762.085938 757.824219 763.320312 C 756.832031 764.960938 755.910156 766.5 755.085938 767.90625 C 754.027344 769.753906 753.066406 771.394531 752.246094 772.832031 L 751.5625 774.101562 L 750.363281 776.289062 C 749.609375 777.625 749.027344 778.71875 748.582031 779.609375 L 748.273438 780.191406 C 747.625 781.527344 747.351562 782.144531 747.351562 782.144531 L 747.316406 782.144531 L 725.476562 788.0625 L 743.652344 797.132812 L 743.6875 797.167969 C 743.6875 797.167969 742.730469 797.921875 740.984375 799.324219 C 737.046875 802.644531 729.105469 809.523438 719.3125 819.449219 C 717.464844 821.332031 715.546875 823.285156 713.59375 825.335938 C 712.328125 826.738281 710.992188 828.144531 709.625 829.613281 L 707.605469 831.875 C 705.550781 834.132812 703.496094 836.496094 701.410156 838.957031 C 699.25 841.527344 697.058594 844.160156 694.871094 846.898438 C 688.296875 855.148438 681.65625 864.21875 675.355469 874.074219 C 673.988281 876.265625 672.582031 878.492188 671.246094 880.75 C 670.5625 881.878906 669.878906 883.007812 669.226562 884.171875 C 668.578125 885.300781 667.894531 886.5 667.242188 887.628906 C 666.625 888.792969 665.941406 889.992188 665.292969 891.15625 C 664.675781 892.351562 664.058594 893.515625 663.410156 894.75 C 662.210938 897.074219 661.046875 899.402344 659.882812 901.796875 C 659.335938 902.996094 658.753906 904.195312 658.238281 905.390625 C 657.65625 906.589844 657.144531 907.824219 656.597656 909.019531 C 655.910156 910.527344 655.261719 912.066406 654.644531 913.605469 C 654.164062 914.804688 653.6875 916.003906 653.207031 917.199219 C 652.796875 918.261719 652.386719 919.289062 652.007812 920.347656 C 651.425781 921.890625 650.84375 923.5 650.296875 925.039062 C 649.851562 926.375 649.40625 927.742188 648.960938 929.042969 L 648.960938 929.144531 L 648.925781 929.214844 C 646.359375 937.1875 644.273438 945.367188 642.765625 953.824219 L 642.285156 958.304688 C 641.910156 961.867188 641.601562 965.425781 641.257812 968.949219 L 712.601562 1010.570312 L 809.417969 876.128906 L 815.578125 867.574219 L 817.359375 865.140625 L 817.359375 865.074219 L 817.394531 865.039062 L 824.582031 838.925781 L 846.355469 883.554688 L 846.355469 883.589844 L 908.695312 1011.460938 L 921.910156 1038.566406 L 897.261719 1118.210938 L 854.640625 1234.582031 L 855.769531 1233.179688 C 857.960938 1231.261719 862.136719 1231.707031 867.101562 1233.554688 C 874.5625 1236.292969 883.671875 1242.285156 890.039062 1248.066406 C 892.707031 1250.566406 896.097656 1253.988281 899.488281 1257.890625 C 904.519531 1263.675781 909.621094 1270.347656 912.871094 1276.234375 C 914.445312 1279.144531 915.609375 1281.882812 916.054688 1284.109375 C 916.296875 1285.101562 916.160156 1286.023438 915.75 1286.777344 L 978.535156 1165.617188 L 1009.753906 1094.972656 C 1012.769531 1088.023438 1014.957031 1081.28125 1016.464844 1074.882812 C 1024.988281 1039.390625 1013.519531 1013.992188 1013.519531 1013.992188 "/>
<path style=" stroke:none;fill-rule:nonzero;fill:rgb(0%,9.408569%,10.978699%);fill-opacity:1;" d="M 333.800781 686.582031 L 323.738281 678.230469 C 328.839844 676.382812 332.46875 679.839844 332.46875 679.839844 L 332.535156 679.875 C 332.808594 680.148438 334.351562 681.894531 333.800781 686.582031 "/>
<path style=" stroke:none;fill-rule:nonzero;fill:rgb(0%,9.408569%,10.978699%);fill-opacity:1;" d="M 290.839844 739.804688 C 289.195312 740.011719 287.621094 739.703125 286.285156 738.878906 L 286.113281 738.777344 C 284.058594 737.546875 282.65625 735.285156 282.554688 732.6875 L 282.554688 730.835938 L 292.890625 739.359375 L 290.839844 739.804688 "/>
<path style=" stroke:none;fill-rule:nonzero;fill:rgb(0%,15.289307%,18.03894%);fill-opacity:1;" d="M 425.070312 757.636719 C 425.070312 757.636719 458.757812 783.308594 468.101562 798.160156 C 468.101562 798.160156 457.933594 774.75 444.617188 763.320312 L 430.308594 750.242188 L 425.070312 757.636719 "/>
<path style=" stroke:none;fill-rule:nonzero;fill:rgb(98.039246%,71.369934%,56.469727%);fill-opacity:1;" d="M 269.542969 662.933594 C 269.542969 662.933594 259.960938 656.738281 258.109375 636.339844 L 258.417969 636.542969 L 259.824219 636.714844 C 260.78125 636.679688 261.429688 635.824219 261.636719 635.105469 C 261.363281 637.605469 260.40625 651.464844 269.542969 662.933594 "/>
<path style=" stroke:none;fill-rule:nonzero;fill:rgb(100%,100%,100%);fill-opacity:1;" d="M 333.800781 686.582031 C 333.496094 689.253906 332.535156 692.878906 330.34375 697.742188 C 329.660156 699.28125 328.871094 700.855469 327.949219 702.601562 L 326.75 704.65625 L 325.519531 706.8125 C 324.011719 709.34375 322.332031 711.980469 320.484375 714.578125 C 319.730469 715.574219 319.011719 716.597656 318.261719 717.625 C 316.035156 720.605469 313.605469 723.511719 311.105469 726.21875 L 309.566406 727.824219 L 308.570312 728.816406 C 307.167969 730.253906 305.765625 731.523438 304.328125 732.71875 C 301.28125 735.320312 298.265625 737.273438 295.253906 738.503906 L 294.089844 738.984375 L 292.925781 739.324219 L 282.554688 730.835938 C 283.683594 731.386719 284.949219 731.660156 286.320312 731.488281 L 288.476562 730.972656 C 291.25 730.152344 294.195312 728.476562 297.070312 726.183594 C 299.191406 724.539062 301.3125 722.589844 303.402344 720.433594 C 309.734375 713.859375 315.554688 705.375 319.425781 698.253906 C 320.65625 696.027344 321.613281 694.011719 322.332031 692.230469 C 322.777344 691.136719 323.15625 690.109375 323.464844 689.183594 C 325.3125 683.605469 324.796875 680.59375 324.214844 679.121094 L 323.738281 678.265625 L 324.078125 678.574219 L 333.800781 686.582031 "/>
<path style=" stroke:none;fill-rule:nonzero;fill:rgb(83.918762%,83.918762%,83.918762%);fill-opacity:1;" d="M 323.738281 688.292969 L 323.464844 689.183594 C 323.15625 690.109375 322.777344 691.136719 322.332031 692.230469 C 321.613281 694.011719 320.65625 696.027344 319.425781 698.253906 C 315.554688 705.375 309.734375 713.859375 303.402344 720.433594 C 301.3125 722.589844 299.191406 724.539062 297.070312 726.183594 C 295.972656 727.003906 294.945312 727.757812 293.851562 728.476562 C 292.003906 729.605469 290.1875 730.496094 288.476562 730.972656 L 286.320312 731.488281 C 284.949219 731.660156 283.683594 731.386719 282.554688 730.835938 C 282.554688 730.835938 282.554688 728.816406 283.785156 724.949219 C 285.121094 720.636719 288.203125 713.792969 294.945312 705.066406 C 303.058594 694.589844 310.933594 685.726562 316.652344 681.210938 C 319.730469 678.847656 322.195312 677.71875 323.738281 678.265625 L 324.214844 679.121094 C 324.765625 680.492188 325.277344 683.261719 323.738281 688.292969 "/>
<path style=" stroke:none;fill-rule:nonzero;fill:rgb(100%,79.60968%,65.098572%);fill-opacity:1;" d="M 323.738281 688.292969 L 323.464844 689.183594 C 323.15625 690.109375 322.777344 691.136719 322.332031 692.230469 C 321.613281 694.011719 320.65625 696.027344 319.425781 698.253906 C 315.554688 705.375 309.734375 713.859375 303.402344 720.433594 C 301.3125 722.589844 299.191406 724.539062 297.070312 726.183594 C 295.972656 727.003906 294.945312 727.757812 293.851562 728.476562 L 293.234375 727.859375 L 292.105469 726.902344 L 291.832031 726.765625 C 291.113281 726.25 290.324219 725.875 289.503906 725.566406 C 288.613281 725.222656 287.722656 725.019531 286.730469 724.949219 L 286.320312 724.949219 L 285.085938 724.917969 L 284.949219 724.949219 L 283.785156 724.949219 C 281.011719 724.984375 278.207031 724.78125 275.296875 724.367188 C 257.152344 721.972656 237.398438 712.902344 235.3125 711.875 L 235.140625 711.84375 C 226.683594 707.117188 218.535156 701.917969 210.695312 697.089844 C 197.757812 688.875 176.769531 676.007812 167.117188 670.121094 C 162.253906 666.046875 164.925781 662.214844 164.925781 662.214844 C 166.875 659.40625 171.019531 660.878906 172.523438 661.527344 L 173.074219 661.804688 L 217.953125 683.367188 C 217.953125 683.367188 219.800781 684.050781 219.800781 682.40625 L 163.554688 646.433594 C 163.007812 645.988281 158.660156 641.882812 160.988281 637.808594 C 162.460938 635.105469 164.925781 635.039062 168.039062 635.789062 C 168.519531 635.894531 218.640625 662.109375 224.183594 665.089844 C 224.183594 665.089844 225.417969 665.257812 224.730469 664.300781 C 216.996094 658.960938 168.246094 625.933594 166.226562 624.015625 C 164.789062 622.613281 163.660156 621.175781 163.28125 619.976562 C 162.90625 618.710938 162.699219 616.898438 164.273438 614.605469 C 164.273438 614.605469 166.328125 611.796875 170.710938 612.34375 C 172.148438 612.550781 173.859375 613.097656 175.847656 614.226562 L 240.683594 648.898438 C 241.710938 648.285156 240.824219 646.8125 240.824219 646.8125 C 240.824219 646.8125 217.441406 628.945312 199.878906 615.460938 L 199.945312 615.425781 C 199.945312 615.425781 189.78125 608.511719 193.546875 603.277344 C 193.546875 603.277344 196.285156 596.738281 208.882812 603.824219 L 251.09375 632.128906 L 258.109375 636.339844 C 259.824219 655.4375 268.382812 662.078125 269.476562 662.796875 C 260.4375 651.398438 261.328125 637.570312 261.636719 635.105469 L 261.636719 634.730469 C 261.707031 634.660156 259.890625 632.058594 257.359375 628.433594 C 251.503906 619.976562 241.882812 606.152344 241.882812 606.152344 L 241.644531 605.808594 C 235.003906 597.628906 236.167969 589.105469 236.167969 589.105469 L 236.304688 588.867188 C 237.808594 585.683594 242.019531 585.03125 244.417969 587.566406 C 250.375 593.933594 259.582031 602.078125 265.710938 607.453125 C 269.167969 610.429688 272.695312 613.132812 276.496094 615.597656 C 278.445312 616.898438 280.261719 618.199219 282.007812 619.671875 C 284.09375 621.277344 285.976562 622.957031 287.792969 624.734375 C 293.40625 630.175781 298.746094 635.515625 303.265625 641.917969 C 307.304688 647.496094 309.257812 654.273438 310.796875 660.707031 C 311.378906 663.171875 311.960938 665.671875 312.472656 668.203125 L 312.472656 668.339844 C 312.816406 670.222656 313.160156 672.070312 313.363281 673.953125 C 313.980469 676.109375 315.007812 678.640625 316.652344 681.210938 C 318.292969 683.742188 320.554688 686.207031 323.738281 688.292969 "/>
<path style=" stroke:none;fill-rule:nonzero;fill:rgb(0%,17.248535%,19.999695%);fill-opacity:1;" d="M 642.25 958.304688 L 642.25 958.238281 L 642.21875 958.238281 L 642.21875 958.203125 C 637.765625 951.5625 633.417969 942.664062 629.585938 933.390625 C 621.539062 913.984375 615.515625 893.171875 614.523438 889.613281 L 614.417969 889.410156 L 614.386719 889.203125 L 614.386719 889.066406 C 613.085938 884.273438 611.816406 879.277344 610.484375 874.179688 C 609.96875 872.089844 609.421875 869.898438 608.804688 867.742188 C 607.058594 860.796875 605.3125 853.675781 603.53125 846.386719 C 603.15625 844.984375 602.847656 843.546875 602.507812 842.109375 C 599.046875 827.835938 595.660156 813.082031 592.578125 798.539062 C 592.03125 796.039062 591.550781 793.472656 591.003906 790.972656 C 588.640625 779.542969 586.519531 768.316406 584.703125 757.636719 C 584.566406 756.644531 584.429688 755.6875 584.257812 754.726562 C 583.472656 749.902344 582.753906 745.144531 582.136719 740.523438 L 599.835938 738.230469 L 582.136719 727.347656 C 582.136719 727.347656 582.101562 726.902344 581.929688 726.082031 L 581.898438 725.703125 C 580.5625 713.621094 573.613281 638.527344 609.695312 610.667969 L 615.34375 605.980469 L 618.082031 618.199219 L 620 616.691406 C 619.691406 615.496094 619.382812 614.363281 619.007812 613.167969 L 615.273438 600.707031 L 612.433594 591.058594 C 605.792969 589.105469 595.933594 588.730469 594.699219 588.695312 L 594.667969 588.660156 L 594.5625 588.695312 C 594.5625 588.695312 587.957031 588.214844 578.78125 589.207031 L 578.746094 589.207031 C 575.835938 589.515625 572.996094 589.996094 570.222656 590.886719 C 562.484375 593.351562 554.578125 597.695312 547.285156 602.417969 C 532.566406 612.140625 519.695312 624.324219 508.738281 638.222656 L 425.378906 757.261719 L 425.070312 757.636719 L 332.636719 680.046875 C 333.152344 680.59375 334.316406 682.339844 333.800781 686.582031 C 333.460938 690.039062 331.917969 695.207031 327.949219 702.601562 C 323.875 710.234375 317.746094 719.0625 311.140625 726.21875 C 307.269531 730.425781 303.128906 734.089844 299.15625 736.554688 C 297.035156 737.886719 294.914062 738.847656 292.859375 739.394531 L 290.839844 739.804688 C 289.195312 740.011719 287.621094 739.667969 286.320312 738.914062 L 408.328125 860.796875 L 409.460938 861.890625 L 410.109375 862.472656 C 410.828125 863.121094 411.820312 863.910156 412.953125 864.765625 C 418.15625 868.597656 427.398438 873.664062 439.003906 872.636719 C 446.535156 871.953125 455.023438 868.703125 464.0625 860.933594 L 464.199219 860.796875 L 558.242188 760.683594 C 558.242188 760.683594 564.027344 857.371094 565.703125 924.902344 L 620.582031 956.9375 L 641.257812 968.949219 C 641.566406 965.425781 641.945312 961.867188 642.320312 958.304688 L 642.25 958.304688 "/>
<path style=" stroke:none;fill-rule:nonzero;fill:rgb(100%,79.60968%,65.098572%);fill-opacity:1;" d="M 788.636719 572.507812 L 788.636719 572.539062 L 777.578125 596.292969 L 777.648438 596.394531 L 777.683594 596.5 L 777.511719 596.429688 L 775.421875 600.230469 C 766.691406 621.929688 749.953125 635.277344 735.882812 643.082031 C 723.011719 650.234375 666.558594 669.949219 662.347656 670.1875 C 659.539062 670.359375 656.699219 670.222656 653.890625 669.777344 C 652.488281 669.570312 651.085938 669.332031 649.679688 669.058594 C 639.308594 666.9375 629.207031 663.035156 627.292969 658.824219 L 626.605469 656.804688 L 626.605469 656.773438 L 626.402344 655.949219 C 626.128906 654.71875 625.886719 653.28125 625.714844 651.773438 L 615.34375 605.980469 L 610.484375 584.519531 C 610.484375 584.519531 606.238281 560.765625 612.46875 549.847656 C 612.46875 549.847656 607.742188 528.9375 610.824219 508.535156 C 633.078125 556.898438 725.03125 534.550781 725.03125 534.550781 C 725.03125 534.550781 726.914062 555.835938 746.222656 569.355469 L 746.800781 593.179688 C 746.800781 593.179688 750.773438 598.3125 755.601562 583.390625 C 755.601562 583.390625 762.105469 555.015625 777.578125 556.179688 C 777.578125 556.179688 792.195312 556.726562 788.636719 572.507812 "/>
</g>
</svg>
