<?xml version="1.0" encoding="UTF-8"?>
<svg xmlns="http://www.w3.org/2000/svg" xmlns:xlink="http://www.w3.org/1999/xlink" width="1417.5pt" height="1417.499962pt" viewBox="0 0 1417.5 1417.499962" version="1.2">
<defs>
<clipPath id="clip1">
  <path d="M 1009 560 L 1075.382812 560 L 1075.382812 629 L 1009 629 Z M 1009 560 "/>
</clipPath>
<clipPath id="clip2">
  <path d="M 943 232 L 1075.382812 232 L 1075.382812 583 L 943 583 Z M 943 232 "/>
</clipPath>
<clipPath id="clip3">
  <path d="M 341.929688 1096 L 856 1096 L 856 1394 L 341.929688 1394 Z M 341.929688 1096 "/>
</clipPath>
<clipPath id="clip4">
  <path d="M 341.929688 1222 L 856 1222 L 856 1414 L 341.929688 1414 Z M 341.929688 1222 "/>
</clipPath>
</defs>
<g id="surface1">
<path style=" stroke:none;fill-rule:nonzero;fill:rgb(19.219971%,25.099182%,28.62854%);fill-opacity:1;" d="M 834.5 1061.878906 C 831.851562 1081.058594 849.707031 1098.914062 843.09375 1131.976562 C 836.488281 1165.042969 800.785156 1139.917969 794.835938 1161.074219 C 788.878906 1182.230469 732.019531 1186.199219 721.4375 1170.988281 C 710.863281 1155.78125 733.34375 1142.5625 753.839844 1126.03125 C 774.339844 1109.5 781.65625 1080.402344 781.65625 1080.402344 L 834.5 1061.878906 "/>
<path style=" stroke:none;fill-rule:nonzero;fill:rgb(32.159424%,41.178894%,47.44873%);fill-opacity:1;" d="M 988.121094 1123.300781 C 993.109375 1132.574219 989.128906 1159.761719 988.121094 1181.539062 C 987.101562 1203.3125 950.644531 1185.082031 948.617188 1202.292969 C 946.589844 1219.519531 907.097656 1230.660156 884.320312 1220.527344 C 861.539062 1210.402344 881.152344 1194.199219 902.234375 1179 C 923.300781 1163.816406 932.355469 1125.835938 932.355469 1125.835938 L 988.121094 1123.300781 "/>
<path style=" stroke:none;fill-rule:nonzero;fill:rgb(19.219971%,12.548828%,12.548828%);fill-opacity:1;" d="M 785.769531 468.046875 C 784.230469 486.242188 754.375 755.964844 757.042969 801.433594 C 759.703125 846.890625 757.03125 1074.40625 767.589844 1088.683594 C 778.148438 1102.96875 833.078125 1101.585938 843.929688 1071.957031 C 854.085938 1044.230469 872.523438 873.097656 847.058594 800.570312 C 843.734375 791.078125 843.832031 780.90625 847.523438 771.550781 C 865.882812 725.011719 916.6875 585.703125 898.265625 511.734375 L 785.769531 468.046875 "/>
<path style=" stroke:none;fill-rule:nonzero;fill:rgb(29.40979%,19.999695%,18.429565%);fill-opacity:1;" d="M 992.878906 506.246094 C 992.878906 506.246094 1031.050781 707.835938 986.726562 825.636719 C 984.167969 832.445312 983.351562 839.59375 984.808594 846.71875 C 992.371094 883.621094 1014.664062 1010.5 993.109375 1132.574219 C 993.109375 1132.574219 964.128906 1169.289062 929.671875 1138.449219 C 895.230469 1107.59375 893.992188 897.347656 890.351562 812.089844 C 886.710938 726.820312 832.410156 567.203125 856.296875 519.101562 C 880.179688 470.996094 986.070312 471.363281 992.878906 506.246094 "/>
<g clip-path="url(#clip1)" clip-rule="nonzero">
<path style=" stroke:none;fill-rule:nonzero;fill:rgb(91.369629%,59.21936%,51.759338%);fill-opacity:1;" d="M 1023.949219 566.234375 C 1025.382812 576.527344 1003.476562 596.796875 1010.429688 600.679688 C 1017.394531 604.578125 1022.3125 587.171875 1026.195312 592.707031 C 1030.089844 598.230469 1020.527344 633.988281 1030.089844 627.917969 C 1038.148438 622.785156 1041.148438 630.371094 1047.289062 623.003906 C 1053.429688 615.636719 1059.765625 627.507812 1062.835938 616.859375 C 1065.90625 606.214844 1075.601562 619.105469 1075.359375 605.597656 C 1075.117188 592.085938 1066.113281 560.359375 1066.113281 560.359375 L 1023.949219 566.234375 "/>
</g>
<path style=" stroke:none;fill-rule:nonzero;fill:rgb(32.159424%,41.178894%,47.44873%);fill-opacity:1;" d="M 986.921875 429.617188 C 991.761719 471.179688 1010.234375 507.898438 996.617188 547.382812 C 988.074219 572.789062 901.261719 573.019531 840.3125 545.078125 C 835.457031 543 830.847656 540.453125 826.222656 537.914062 C 799.667969 522.449219 780.746094 500.734375 780.746094 472.101562 C 780.746094 419.921875 788.585938 339.335938 786.511719 292.917969 C 784.667969 246.503906 781.4375 208.632812 783.515625 184.160156 C 785.820312 154.375 821.148438 140.523438 857.15625 139.820312 C 870.324219 139.820312 883.710938 141.449219 895.484375 144.675781 C 910.496094 148.828125 929.429688 159.21875 948.132812 172.386719 C 949.976562 173.769531 951.824219 175.15625 953.667969 176.539062 C 987.152344 201.253906 1017.625 234.269531 1018.777344 256.664062 C 1020.625 292.6875 982.066406 388.289062 986.921875 429.617188 "/>
<path style=" stroke:none;fill-rule:nonzero;fill:rgb(19.219971%,25.099182%,28.62854%);fill-opacity:1;" d="M 853.46875 313.46875 C 853.46875 313.46875 841.003906 455.484375 840.3125 545.078125 C 835.457031 543 830.847656 540.453125 826.222656 537.914062 C 826.683594 448.554688 839.390625 303.539062 839.390625 303.539062 L 853.46875 313.46875 "/>
<path style=" stroke:none;fill-rule:nonzero;fill:rgb(19.219971%,25.099182%,28.62854%);fill-opacity:1;" d="M 948.132812 172.386719 L 945.425781 244.195312 L 924.84375 248.808594 L 931.554688 272.722656 C 931.554688 272.722656 867.972656 350.597656 842.15625 357.808594 C 842.15625 357.808594 806.269531 266.578125 813.539062 236.925781 L 826.402344 224.058594 L 812.570312 202.84375 L 839.269531 160.296875 L 948.132812 172.386719 "/>
<path style=" stroke:none;fill-rule:nonzero;fill:rgb(81.568909%,81.17981%,92.549133%);fill-opacity:1;" d="M 948.132812 172.386719 C 920.65625 232.652344 842.15625 357.808594 842.15625 357.808594 C 842.15625 357.808594 813.527344 207.019531 857.15625 139.820312 C 861.550781 139.820312 866.164062 140.050781 870.558594 140.292969 C 879.332031 141.21875 887.644531 142.601562 895.484375 144.675781 C 908.652344 148.367188 924.804688 156.910156 941.433594 167.53125 C 943.507812 169.148438 945.816406 170.773438 948.132812 172.386719 "/>
<path style=" stroke:none;fill-rule:nonzero;fill:rgb(64.309692%,63.529968%,85.099792%);fill-opacity:1;" d="M 942.015625 167.53125 C 942.015625 167.53125 908.933594 235.53125 895.886719 243.273438 C 882.839844 251.03125 860.289062 239.585938 860.289062 239.585938 C 860.289062 239.585938 843.84375 239.121094 839.667969 226.667969 C 835.496094 214.226562 853.699219 173.90625 853.699219 173.90625 L 942.015625 167.53125 "/>
<path style=" stroke:none;fill-rule:nonzero;fill:rgb(90.979004%,47.839355%,39.219666%);fill-opacity:1;" d="M 941.433594 167.53125 C 927.125 188.3125 892.027344 234.035156 859.707031 239.585938 C 859.707031 239.585938 829.921875 174 870.558594 140.292969 C 879.332031 141.21875 887.644531 142.601562 895.484375 144.675781 C 908.652344 148.367188 924.804688 156.910156 941.433594 167.53125 "/>
<path style=" stroke:none;fill-rule:nonzero;fill:rgb(90.979004%,47.839355%,39.219666%);fill-opacity:1;" d="M 927.160156 127.660156 L 930.839844 168.175781 L 913.410156 169.023438 L 906.3125 138.605469 L 927.160156 127.660156 "/>
<path style=" stroke:none;fill-rule:nonzero;fill:rgb(91.369629%,59.21936%,51.759338%);fill-opacity:1;" d="M 817.945312 79.992188 C 816.804688 99.097656 829.246094 168.140625 849.996094 180.582031 C 870.738281 193.023438 915.863281 173.175781 932.101562 136.167969 C 948.339844 99.171875 954.648438 50.449219 922.171875 31.5 C 889.695312 12.554688 821.574219 19.410156 817.945312 79.992188 "/>
<g clip-path="url(#clip2)" clip-rule="nonzero">
<path style=" stroke:none;fill-rule:nonzero;fill:rgb(19.219971%,25.099182%,28.62854%);fill-opacity:1;" d="M 997.382812 233.003906 C 1007.820312 234.535156 1015.953125 242.074219 1018.367188 251.941406 C 1027.410156 288.863281 1061.257812 369.898438 1064.847656 398.945312 C 1069.046875 432.882812 1078.867188 546.957031 1074.074219 563.769531 C 1069.277344 580.566406 1038.683594 587.789062 1024.398438 578.664062 C 1010.113281 569.546875 1007.976562 443.382812 1002.710938 410.609375 C 997.429688 377.835938 934.140625 309.863281 944.105469 262.292969 C 950.476562 231.839844 978.230469 230.226562 997.382812 233.003906 "/>
</g>
<path style=" stroke:none;fill-rule:nonzero;fill:rgb(29.40979%,19.999695%,18.429565%);fill-opacity:1;" d="M 823.964844 36.597656 C 811.695312 44.160156 805.347656 23.1875 806.222656 43.53125 C 807.082031 63.871094 817.035156 84.214844 845.167969 77.722656 C 873.300781 71.226562 870.121094 54.78125 890.535156 60.839844 C 910.945312 66.894531 873.929688 83.34375 899.792969 90.699219 C 925.65625 98.066406 907.671875 147.1875 928.570312 143.183594 C 949.457031 139.175781 969.105469 75.988281 945.425781 44.828125 C 921.761719 13.65625 881.515625 1.105469 823.964844 36.597656 "/>
<g clip-path="url(#clip3)" clip-rule="nonzero">
<path style=" stroke:none;fill-rule:nonzero;fill:rgb(74.899292%,52.938843%,34.509277%);fill-opacity:1;" d="M 855.300781 1267.269531 C 855.300781 1274.613281 850.082031 1282.503906 839.789062 1288.511719 C 839.523438 1288.777344 839.269531 1288.910156 839 1289.046875 L 674.820312 1383.769531 C 655.183594 1395.265625 625.265625 1396.46875 608.167969 1386.574219 L 357.5625 1241.753906 L 353.554688 1239.484375 C 345.800781 1234.945312 341.929688 1229.058594 341.929688 1222.785156 C 341.929688 1215.160156 347.535156 1207.148438 358.226562 1201.007812 L 522.398438 1106.28125 C 542.167969 1094.789062 571.964844 1093.585938 589.0625 1103.476562 L 843.808594 1250.566406 C 851.550781 1255.105469 855.300781 1260.996094 855.300781 1267.269531 "/>
</g>
<g clip-path="url(#clip4)" clip-rule="nonzero">
<path style=" stroke:none;fill-rule:nonzero;fill:rgb(54.119873%,36.079407%,21.179199%);fill-opacity:1;" d="M 855.300781 1267.269531 L 855.300781 1287.441406 C 855.300781 1295.066406 849.816406 1303.078125 839 1309.21875 L 674.820312 1403.945312 C 655.183594 1415.441406 625.265625 1416.640625 608.167969 1406.75 L 353.554688 1259.660156 C 345.800781 1255.105469 341.929688 1249.234375 341.929688 1242.957031 L 341.929688 1222.785156 C 341.929688 1229.058594 345.800781 1234.945312 353.554688 1239.484375 L 357.5625 1241.753906 L 608.167969 1386.574219 C 625.265625 1396.46875 655.183594 1395.265625 674.820312 1383.769531 L 839 1289.046875 C 839.269531 1288.910156 839.523438 1288.777344 839.789062 1288.511719 C 850.082031 1282.503906 855.300781 1274.613281 855.300781 1267.269531 "/>
</g>
<path style=" stroke:none;fill-rule:nonzero;fill:rgb(74.899292%,52.938843%,34.509277%);fill-opacity:1;" d="M 839.28125 1219.929688 C 839.28125 1226.8125 834.390625 1234.207031 824.753906 1239.851562 C 824.5 1240.09375 824.242188 1240.226562 824 1240.347656 L 670.0625 1329.160156 C 651.652344 1339.941406 623.605469 1341.058594 607.570312 1331.796875 L 372.597656 1196.007812 L 368.847656 1193.871094 C 361.578125 1189.609375 357.949219 1184.097656 357.949219 1178.210938 C 357.949219 1171.074219 363.203125 1163.5625 373.230469 1157.796875 L 527.15625 1068.980469 C 545.699219 1058.214844 573.625 1057.085938 589.660156 1066.347656 L 828.503906 1204.273438 C 835.773438 1208.535156 839.28125 1214.042969 839.28125 1219.929688 "/>
<path style=" stroke:none;fill-rule:nonzero;fill:rgb(54.119873%,36.079407%,21.179199%);fill-opacity:1;" d="M 839.28125 1219.929688 L 839.28125 1257.753906 C 839.28125 1264.902344 834.148438 1272.417969 824 1278.183594 L 670.0625 1366.996094 C 651.652344 1377.761719 623.605469 1378.890625 607.570312 1369.617188 L 368.847656 1231.707031 C 361.578125 1227.445312 357.949219 1221.933594 357.949219 1216.046875 L 357.949219 1178.210938 C 357.949219 1184.097656 361.578125 1189.609375 368.847656 1193.871094 L 372.597656 1196.007812 L 607.570312 1331.796875 C 623.605469 1341.058594 651.652344 1339.941406 670.0625 1329.160156 L 824 1240.347656 C 824.242188 1240.226562 824.5 1240.09375 824.753906 1239.851562 C 834.390625 1234.207031 839.28125 1226.8125 839.28125 1219.929688 "/>
<path style=" stroke:none;fill-rule:nonzero;fill:rgb(54.119873%,36.079407%,21.179199%);fill-opacity:1;" d="M 614.914062 1313.808594 L 404.503906 1191.515625 L 402.878906 547.46875 L 613.300781 669.769531 L 614.914062 1313.808594 "/>
<path style=" stroke:none;fill-rule:nonzero;fill:rgb(54.119873%,36.079407%,21.179199%);fill-opacity:1;" d="M 597.949219 673.714844 L 387.527344 551.425781 L 391.652344 531.796875 L 602.0625 654.101562 L 597.949219 673.714844 "/>
<path style=" stroke:none;fill-rule:nonzero;fill:rgb(43.919373%,24.708557%,17.248535%);fill-opacity:1;" d="M 592.609375 619.75 L 838.988281 556.160156 L 830.917969 594.988281 L 813.296875 599.625 L 809.253906 618.984375 L 794.085938 622.941406 L 795.554688 1209.503906 L 614.914062 1313.808594 L 613.300781 669.769531 L 597.949219 673.714844 L 602.0625 654.101562 L 584.441406 658.738281 L 592.609375 619.75 "/>
<path style=" stroke:none;fill-rule:nonzero;fill:rgb(74.899292%,52.938843%,34.509277%);fill-opacity:1;" d="M 592.609375 619.75 L 382.1875 497.457031 L 628.578125 433.867188 L 838.988281 556.160156 L 592.609375 619.75 "/>
<path style=" stroke:none;fill-rule:nonzero;fill:rgb(81.568909%,81.17981%,92.549133%);fill-opacity:1;" d="M 597.121094 596.421875 L 439.53125 504.828125 L 624.066406 457.195312 L 781.65625 548.789062 L 597.121094 596.421875 "/>
<path style=" stroke:none;fill-rule:nonzero;fill:rgb(19.219971%,25.099182%,28.62854%);fill-opacity:1;" d="M 624.355469 568.246094 L 613.15625 571.171875 L 509.546875 511.003906 L 520.746094 508.078125 L 624.355469 568.246094 "/>
<path style=" stroke:none;fill-rule:nonzero;fill:rgb(19.219971%,25.099182%,28.62854%);fill-opacity:1;" d="M 640.730469 563.113281 L 629.527344 566.050781 L 525.917969 505.882812 L 537.121094 502.945312 L 640.730469 563.113281 "/>
<path style=" stroke:none;fill-rule:nonzero;fill:rgb(19.219971%,25.099182%,28.62854%);fill-opacity:1;" d="M 657.101562 557.992188 L 645.898438 560.917969 L 542.289062 500.746094 L 553.492188 497.824219 L 657.101562 557.992188 "/>
<path style=" stroke:none;fill-rule:nonzero;fill:rgb(19.219971%,25.099182%,28.62854%);fill-opacity:1;" d="M 673.472656 552.867188 L 662.269531 555.792969 L 558.660156 495.625 L 569.863281 492.6875 L 673.472656 552.867188 "/>
<path style=" stroke:none;fill-rule:nonzero;fill:rgb(19.219971%,25.099182%,28.62854%);fill-opacity:1;" d="M 689.84375 547.734375 L 678.644531 550.671875 L 575.035156 490.503906 L 586.234375 487.566406 L 689.84375 547.734375 "/>
<path style=" stroke:none;fill-rule:nonzero;fill:rgb(19.219971%,25.099182%,28.62854%);fill-opacity:1;" d="M 706.21875 542.613281 L 695.015625 545.539062 L 591.40625 485.367188 L 602.609375 482.445312 L 706.21875 542.613281 "/>
<path style=" stroke:none;fill-rule:nonzero;fill:rgb(19.219971%,25.099182%,28.62854%);fill-opacity:1;" d="M 722.613281 537.550781 L 711.410156 540.488281 L 645.898438 502.386719 L 654.007812 497.726562 L 722.613281 537.550781 "/>
<path style=" stroke:none;fill-rule:nonzero;fill:rgb(54.119873%,36.079407%,21.179199%);fill-opacity:1;" d="M 584.441406 658.738281 L 374.03125 536.445312 L 382.1875 497.457031 L 592.609375 619.75 L 584.441406 658.738281 "/>
<path style=" stroke:none;fill-rule:nonzero;fill:rgb(90.979004%,47.839355%,39.219666%);fill-opacity:1;" d="M 556.148438 455.300781 C 556.148438 455.300781 554.898438 472.925781 560.289062 475.222656 C 565.675781 477.503906 562.21875 482.710938 570.09375 482.335938 C 577.972656 481.945312 571.273438 490.101562 581.015625 488.792969 C 590.75 487.480469 600.351562 468.859375 600.351562 468.859375 L 572.703125 452.8125 L 556.148438 455.300781 "/>
<path style=" stroke:none;fill-rule:nonzero;fill:rgb(19.219971%,25.099182%,28.62854%);fill-opacity:1;" d="M 785.613281 347.503906 C 770.128906 364.292969 748.875 387.65625 736.277344 403.132812 C 714.507812 430.164062 644.976562 476.871094 620.835938 470.574219 C 596.699219 464.273438 591.453125 446.429688 597.753906 431.207031 C 604.050781 416 697.453125 356.949219 711.882812 334.117188 C 723.949219 314.960938 765.40625 220.757812 784.035156 179.828125 C 783.769531 181.394531 783.515625 182.703125 783.515625 184.28125 C 781.414062 208.679688 784.558594 246.480469 786.402344 292.917969 C 787.179688 308.140625 786.65625 327.039062 785.613281 347.503906 "/>
<path style=" stroke:none;fill-rule:nonzero;fill:rgb(91.369629%,59.21936%,51.759338%);fill-opacity:1;" d="M 631.761719 454.804688 C 627.996094 472.078125 567.945312 516.792969 561.839844 512.363281 C 555.75 507.945312 587.402344 485.285156 589.0625 480.113281 C 590.738281 474.941406 574.355469 477.902344 576.441406 470.21875 C 577.617188 465.921875 563.492188 469.40625 565.324219 462.476562 C 567.15625 455.546875 554.351562 462.632812 556.441406 453.058594 C 558.515625 443.480469 594.585938 428.222656 605.289062 427.738281 C 615.996094 427.261719 635.304688 438.527344 631.761719 454.804688 "/>
<path style=" stroke:none;fill-rule:nonzero;fill:rgb(91.369629%,59.21936%,51.759338%);fill-opacity:1;" d="M 626.308594 464.589844 C 624.257812 468.339844 626.40625 492.46875 620.859375 496.9375 C 615.316406 501.402344 617.609375 481.605469 611.492188 480.078125 C 605.363281 478.535156 605.847656 464.199219 605.847656 464.199219 L 626.308594 464.589844 "/>
<path style=" stroke:none;fill-rule:nonzero;fill:rgb(32.159424%,41.178894%,47.44873%);fill-opacity:1;" d="M 791.898438 163.816406 C 790.066406 166.960938 787.445312 172.472656 784.304688 179.5625 C 785.347656 173.527344 787.96875 168.273438 791.898438 163.816406 "/>
</g>
</svg>
