<?xml version="1.0" encoding="UTF-8"?>
<svg xmlns="http://www.w3.org/2000/svg" xmlns:xlink="http://www.w3.org/1999/xlink" width="1417.5pt" height="1417.499962pt" viewBox="0 0 1417.5 1417.499962" version="1.2">
<defs>
<clipPath id="clip1">
  <path d="M 401 253 L 1394.394531 253 L 1394.394531 1417 L 401 1417 Z M 401 253 "/>
</clipPath>
</defs>
<g id="surface1">
<path style=" stroke:none;fill-rule:nonzero;fill:rgb(80.778503%,94.898987%,100%);fill-opacity:1;" d="M 343.953125 1362.816406 C 342.261719 1362.816406 340.566406 1362.734375 338.875 1362.574219 C 331.417969 1361.96875 324.488281 1359.875 318.402344 1356.367188 L 316.867188 1355.480469 C 301.875 1346.089844 293.574219 1328.800781 293.574219 1306.832031 L 293.574219 1236.90625 L 320.496094 1221.386719 L 320.496094 1306.832031 C 320.496094 1315.539062 322.308594 1326.984375 330.933594 1332.589844 L 331.742188 1333.03125 C 334.441406 1334.605469 337.585938 1335.492188 341.171875 1335.8125 C 342.058594 1335.894531 342.984375 1335.933594 343.953125 1335.933594 C 352.660156 1335.933594 363.179688 1332.546875 373.980469 1326.300781 L 401.347656 1310.542969 L 401.347656 1341.578125 L 387.441406 1349.597656 C 372.367188 1358.304688 357.453125 1362.816406 343.953125 1362.816406 M 293.574219 1205.871094 L 293.574219 1064.484375 L 320.496094 1048.964844 L 320.496094 1190.355469 L 293.574219 1205.871094 M 293.574219 1033.449219 L 293.574219 801.253906 C 293.574219 755.546875 328.917969 699.40625 373.980469 673.367188 L 996.714844 313.8125 L 996.714844 344.886719 L 387.441406 696.664062 C 351.128906 717.582031 320.496094 765.503906 320.496094 801.253906 L 320.496094 1017.929688 L 293.574219 1033.449219 M 1023.597656 329.367188 L 1023.597656 298.292969 L 1146.042969 227.601562 L 1146.042969 258.632812 L 1023.597656 329.367188 M 1286.625 284.226562 L 1286.625 227.921875 C 1286.625 219.78125 1284.972656 212.886719 1281.867188 207.972656 C 1280.496094 205.792969 1278.804688 204.023438 1276.828125 202.609375 L 1276.144531 202.167969 L 1274.574219 201.242188 L 1274.167969 201.039062 L 1273.765625 200.878906 C 1270.664062 199.46875 1267.074219 198.742188 1263.085938 198.742188 C 1254.5 198.742188 1244.101562 202.046875 1233.101562 208.375 L 1172.925781 243.117188 L 1172.925781 212.082031 L 1219.679688 185.117188 C 1234.832031 176.332031 1249.703125 171.859375 1263.125 171.859375 C 1270.90625 171.859375 1278.199219 173.351562 1284.808594 176.371094 L 1287.269531 177.542969 L 1290.332031 179.316406 L 1292.386719 180.726562 C 1297.144531 184.070312 1301.292969 188.382812 1304.558594 193.542969 C 1310.484375 202.851562 1313.507812 214.460938 1313.507812 227.921875 L 1313.507812 268.710938 L 1286.625 284.226562 "/>
<path style=" stroke:none;fill-rule:nonzero;fill:rgb(92.549133%,98.039246%,100%);fill-opacity:1;" d="M 203.371094 1277.089844 C 201.679688 1277.089844 199.988281 1277.050781 198.292969 1276.886719 C 190.839844 1276.28125 183.90625 1274.1875 177.820312 1270.640625 L 176.289062 1269.792969 C 161.296875 1260.363281 152.992188 1243.113281 152.992188 1221.144531 L 152.992188 1145.617188 L 179.914062 1130.097656 L 179.914062 1221.144531 C 179.914062 1229.8125 181.730469 1241.296875 190.355469 1246.902344 L 191.160156 1247.34375 C 193.859375 1248.875 197.003906 1249.804688 200.59375 1250.085938 C 201.480469 1250.164062 202.40625 1250.207031 203.332031 1250.207031 C 212.039062 1250.207031 222.597656 1246.859375 233.398438 1240.613281 L 293.574219 1205.871094 L 293.574219 1236.90625 L 246.859375 1263.910156 C 231.789062 1272.617188 216.914062 1277.089844 203.371094 1277.089844 M 320.496094 1221.386719 L 320.496094 1190.355469 L 401.347656 1143.679688 L 401.347656 1174.714844 L 320.496094 1221.386719 M 152.992188 1114.582031 L 152.992188 715.527344 C 152.992188 669.859375 188.339844 613.675781 233.398438 587.679688 L 996.714844 146.949219 L 996.714844 178.023438 L 246.859375 610.976562 C 210.546875 631.894531 179.914062 679.816406 179.914062 715.527344 L 179.914062 1099.0625 L 152.992188 1114.582031 M 1146.042969 365.402344 L 1146.042969 258.632812 L 1172.925781 243.117188 L 1172.925781 349.882812 L 1146.042969 365.402344 M 1146.042969 227.601562 L 1146.042969 142.195312 C 1146.042969 134.054688 1144.390625 127.160156 1141.289062 122.285156 C 1139.917969 120.109375 1138.222656 118.292969 1136.25 116.921875 L 1135.5625 116.441406 L 1133.992188 115.554688 L 1133.546875 115.351562 L 1133.1875 115.148438 C 1130.082031 113.738281 1126.496094 113.054688 1122.546875 113.054688 C 1113.921875 113.054688 1103.523438 116.359375 1092.519531 122.6875 L 1023.597656 162.46875 L 1023.597656 131.433594 L 1079.097656 99.429688 C 1094.253906 90.644531 1109.125 86.171875 1122.546875 86.171875 C 1130.324219 86.171875 1137.621094 87.664062 1144.269531 90.683594 L 1146.6875 91.855469 L 1149.792969 93.628906 L 1151.765625 94.957031 C 1156.5625 98.34375 1160.714844 102.695312 1163.976562 107.855469 C 1169.902344 117.164062 1172.925781 128.734375 1172.925781 142.195312 L 1172.925781 212.082031 L 1146.042969 227.601562 "/>
<path style=" stroke:none;fill-rule:nonzero;fill:rgb(74.899292%,93.728638%,100%);fill-opacity:1;" d="M 293.574219 1236.90625 L 293.574219 1205.871094 L 320.496094 1190.355469 L 320.496094 1221.386719 L 293.574219 1236.90625 M 1146.042969 258.632812 L 1146.042969 227.601562 L 1172.925781 212.082031 L 1172.925781 243.117188 L 1146.042969 258.632812 "/>
<path style=" stroke:none;fill-rule:nonzero;fill:rgb(92.549133%,98.039246%,100%);fill-opacity:1;" d="M 54.046875 1190.878906 C 52.355469 1190.878906 50.621094 1190.796875 48.96875 1190.675781 C 41.511719 1190.070312 34.578125 1187.976562 28.453125 1184.429688 L 26.960938 1183.582031 C 11.929688 1174.152344 3.667969 1156.859375 3.667969 1134.894531 L 3.667969 629.316406 C 3.667969 583.648438 38.972656 527.464844 84.074219 501.429688 L 929.730469 13.179688 C 944.925781 4.394531 959.757812 -0.0390625 973.21875 -0.0390625 C 980.957031 -0.0390625 988.292969 1.449219 994.902344 4.433594 L 997.363281 5.644531 L 1000.425781 7.417969 L 1002.441406 8.785156 C 1007.234375 12.132812 1011.347656 16.484375 1014.613281 21.644531 C 1020.578125 30.953125 1023.597656 42.519531 1023.597656 55.984375 L 1023.597656 131.433594 L 996.714844 146.949219 L 996.714844 55.984375 C 996.714844 47.839844 995.0625 40.949219 991.921875 36.074219 C 990.550781 33.894531 988.855469 32.082031 986.882812 30.710938 L 986.199219 30.226562 L 984.625 29.300781 L 984.222656 29.140625 L 983.859375 28.9375 C 980.757812 27.527344 977.167969 26.84375 973.179688 26.84375 C 964.554688 26.84375 954.15625 30.109375 943.191406 36.476562 L 907.847656 56.871094 L 97.496094 524.722656 C 61.21875 545.683594 30.550781 593.566406 30.550781 629.316406 L 30.550781 1134.894531 C 30.550781 1143.601562 32.363281 1155.085938 41.027344 1160.648438 L 41.835938 1161.132812 C 44.535156 1162.664062 47.679688 1163.589844 51.226562 1163.875 C 52.113281 1163.953125 53.039062 1163.996094 53.964844 1163.996094 C 62.710938 1163.996094 73.230469 1160.648438 84.074219 1154.402344 L 152.992188 1114.582031 L 152.992188 1145.617188 L 97.496094 1177.699219 C 82.460938 1186.363281 67.546875 1190.878906 54.046875 1190.878906 M 179.914062 1130.097656 L 179.914062 1099.0625 L 293.574219 1033.449219 L 293.574219 1064.484375 L 179.914062 1130.097656 M 320.496094 1048.964844 L 320.496094 1017.929688 L 401.347656 971.21875 L 401.347656 1002.253906 L 320.496094 1048.964844 M 996.714844 451.613281 L 996.714844 344.886719 L 1023.597656 329.367188 L 1023.597656 436.09375 L 996.714844 451.613281 M 996.714844 313.8125 L 996.714844 178.023438 L 1023.597656 162.46875 L 1023.597656 298.292969 L 996.714844 313.8125 "/>
<path style=" stroke:none;fill-rule:nonzero;fill:rgb(74.899292%,93.728638%,100%);fill-opacity:1;" d="M 293.574219 1064.484375 L 293.574219 1033.449219 L 320.496094 1017.929688 L 320.496094 1048.964844 L 293.574219 1064.484375 M 996.714844 344.886719 L 996.714844 313.8125 L 1023.597656 298.292969 L 1023.597656 329.367188 L 996.714844 344.886719 "/>
<path style=" stroke:none;fill-rule:nonzero;fill:rgb(85.879517%,96.469116%,100%);fill-opacity:1;" d="M 152.992188 1145.617188 L 152.992188 1114.582031 L 179.914062 1099.0625 L 179.914062 1130.097656 L 152.992188 1145.617188 M 996.714844 178.023438 L 996.714844 146.949219 L 1023.597656 131.433594 L 1023.597656 162.46875 L 996.714844 178.023438 "/>
<g clip-path="url(#clip1)" clip-rule="nonzero">
<path style=" stroke:none;fill-rule:nonzero;fill:rgb(50.19989%,87.059021%,100%);fill-opacity:1;" d="M 438.34375 1417.1875 C 437.015625 1417.1875 435.683594 1417.105469 434.394531 1416.984375 C 428.792969 1416.542969 423.796875 1415.011719 419.402344 1412.511719 L 418.355469 1411.90625 C 407.714844 1405.257812 401.347656 1392.519531 401.347656 1374.625 L 401.347656 1341.578125 L 1233.101562 861.347656 C 1278.199219 835.351562 1313.507812 779.167969 1313.507812 733.503906 L 1313.507812 268.710938 L 1320.679688 264.558594 C 1334.101562 256.820312 1346.636719 253.152344 1357.476562 253.152344 C 1363.441406 253.152344 1368.925781 254.28125 1373.71875 256.457031 L 1375.371094 257.265625 L 1377.46875 258.511719 L 1378.878906 259.441406 C 1382.265625 261.816406 1385.167969 264.882812 1387.503906 268.550781 C 1391.9375 275.480469 1394.394531 284.589844 1394.394531 295.714844 L 1394.394531 801.292969 C 1394.394531 842 1361.425781 894.035156 1320.679688 917.53125 L 1185.378906 995.722656 L 1172.925781 1196.722656 L 926.910156 1144.972656 L 760.574219 1240.894531 L 475.023438 1405.78125 C 461.679688 1413.480469 449.148438 1417.1875 438.34375 1417.1875 M 401.347656 1310.542969 L 401.347656 1174.714844 L 1092.519531 775.660156 C 1137.621094 749.625 1172.925781 693.480469 1172.925781 647.816406 L 1172.925781 349.882812 L 1285.375 284.953125 L 1286.625 284.226562 L 1286.625 733.503906 C 1286.625 769.210938 1255.953125 817.132812 1219.679688 838.09375 L 401.347656 1310.542969 M 401.347656 1143.679688 L 401.347656 1002.253906 L 943.191406 689.449219 C 988.253906 663.414062 1023.597656 607.226562 1023.597656 561.5625 L 1023.597656 436.09375 L 1146.042969 365.402344 L 1146.042969 647.816406 C 1146.042969 683.523438 1115.371094 731.445312 1079.097656 752.40625 L 401.347656 1143.679688 "/>
</g>
<path style=" stroke:none;fill-rule:nonzero;fill:rgb(42.749023%,85.099792%,100%);fill-opacity:1;" d="M 401.347656 1341.578125 L 401.347656 1310.542969 L 1219.679688 838.09375 C 1255.953125 817.132812 1286.625 769.210938 1286.625 733.503906 L 1286.625 284.226562 L 1313.507812 268.710938 L 1313.507812 733.503906 C 1313.507812 779.167969 1278.199219 835.351562 1233.101562 861.347656 L 401.347656 1341.578125 "/>
<path style=" stroke:none;fill-rule:nonzero;fill:rgb(47.059631%,86.268616%,100%);fill-opacity:1;" d="M 401.347656 1174.714844 L 401.347656 1143.679688 L 1079.097656 752.40625 C 1115.371094 731.445312 1146.042969 683.523438 1146.042969 647.816406 L 1146.042969 365.402344 L 1172.925781 349.882812 L 1172.925781 647.816406 C 1172.925781 693.480469 1137.621094 749.625 1092.519531 775.660156 L 401.347656 1174.714844 "/>
<path style=" stroke:none;fill-rule:nonzero;fill:rgb(50.19989%,87.059021%,100%);fill-opacity:1;" d="M 401.347656 971.21875 L 401.347656 869.046875 C 401.347656 828.339844 434.355469 776.304688 475.023438 752.808594 L 996.714844 451.613281 L 996.714844 561.5625 C 996.714844 597.3125 966.046875 645.195312 929.730469 666.152344 L 401.347656 971.21875 "/>
<path style=" stroke:none;fill-rule:nonzero;fill:rgb(47.059631%,86.268616%,100%);fill-opacity:1;" d="M 401.347656 1002.253906 L 401.347656 971.21875 L 929.730469 666.152344 C 966.046875 645.195312 996.714844 597.3125 996.714844 561.5625 L 996.714844 451.613281 L 1023.597656 436.09375 L 1023.597656 561.5625 C 1023.597656 607.226562 988.253906 663.414062 943.191406 689.449219 L 401.347656 1002.253906 "/>
<path style=" stroke:none;fill-rule:nonzero;fill:rgb(97.648621%,97.648621%,97.648621%);fill-opacity:1;" d="M 816.679688 887.265625 C 816.679688 903.425781 829.816406 908.988281 845.980469 899.636719 C 862.140625 890.285156 875.242188 869.609375 875.242188 853.449219 C 875.242188 837.285156 862.140625 831.722656 845.980469 841.074219 C 829.816406 850.425781 816.679688 871.101562 816.679688 887.265625 "/>
<path style=" stroke:none;fill-rule:nonzero;fill:rgb(97.648621%,97.648621%,97.648621%);fill-opacity:1;" d="M 957.300781 807.339844 C 957.300781 823.542969 970.398438 829.0625 986.558594 819.753906 C 1002.761719 810.402344 1015.859375 789.726562 1015.859375 773.566406 C 1015.859375 757.363281 1002.761719 751.839844 986.558594 761.191406 C 970.398438 770.5 957.300781 791.179688 957.300781 807.339844 "/>
<path style=" stroke:none;fill-rule:nonzero;fill:rgb(97.648621%,97.648621%,97.648621%);fill-opacity:1;" d="M 1071.441406 734.75 C 1071.441406 750.914062 1084.578125 756.476562 1100.742188 747.125 C 1116.902344 737.773438 1130.003906 717.097656 1130.003906 700.9375 C 1130.003906 684.773438 1116.902344 679.210938 1100.742188 688.5625 C 1084.578125 697.914062 1071.441406 718.589844 1071.441406 734.75 "/>
<path style=" stroke:none;fill-rule:nonzero;fill:rgb(97.648621%,97.648621%,97.648621%);fill-opacity:1;" d="M 679.683594 969.363281 C 679.683594 985.566406 692.785156 991.089844 708.945312 981.738281 C 725.109375 972.425781 738.246094 951.75 738.246094 935.546875 C 738.246094 919.386719 725.109375 913.863281 708.945312 923.175781 C 692.785156 932.527344 679.683594 953.203125 679.683594 969.363281 "/>
</g>
</svg>
