<?xml version="1.0" encoding="UTF-8"?><svg id="a" xmlns="http://www.w3.org/2000/svg" xmlns:xlink="http://www.w3.org/1999/xlink" viewBox="0 0 248.53 329.57"><defs><style>.c{fill:#e3d292;}.d{fill:url(#b);}.d,.e{fill-rule:evenodd;}.e{fill:none;}.f{fill:#f8d297;}.g{fill:#f4d496;}</style><linearGradient id="b" x1="124.26" y1="1974.14" x2="124.26" y2="1644.57" gradientTransform="translate(0 1974.14) scale(1 -1)" gradientUnits="userSpaceOnUse"><stop offset="0" stop-color="#fff"/><stop offset="1" stop-color="#e2f0f5"/></linearGradient></defs><path class="d" d="M174.55,237.93c43.58-19.31,73.98-62.94,73.98-113.67C248.53,55.64,192.89,0,124.26,0S0,55.64,0,124.26c0,49.8,29.29,92.75,71.58,112.58l5.67,69.76c1.06,12.98,11.9,22.97,24.92,22.97h39.87c12.74,0,23.45-9.59,24.85-22.26l7.66-69.38Z"/><path class="g" d="M73.6,236.9s29.53,2.54,48.49,2.56c19.36,.02,49.51-2.56,49.51-2.56l-4.54,45H77.23l-3.63-45Z"/><polygon class="c" points="168.98 288.39 75.77 288.39 76.02 291.39 168.65 291.39 168.98 288.39"/><polygon class="c" points="167.6 300.89 76.79 300.89 77.03 303.89 167.27 303.89 167.6 300.89"/><path class="c" d="M165.42,313.39H78.78c.39,1.04,.85,2.04,1.37,3h83.92c.52-.96,.96-1.97,1.35-3Z"/><path class="f" d="M134.12,212.77c-3.35-3.22-6.46-6.57-9.3-9.99,13.28-13.35,23.21-28.51,23.21-43.97,0-19.37-11.81-28.19-22.78-28.19s-22.91,9.68-22.91,28.19c0,13.4,6.74,29.07,18.51,43.82-14.97,14.47-33.82,26.48-47.25,34.26h0l.27,3.29c13.58-7.82,33.18-20.18,48.82-35.3,2.88,3.43,6.03,6.8,9.42,10.07,12.27,11.81,25.98,20.45,39.18,25.02l.31-3.06c-12.59-4.48-25.69-12.81-37.48-24.15Zm-28.85-53.96c0-17.31,10.36-25.19,19.98-25.19s19.85,7.88,19.85,25.19c0,14.54-9.42,28.92-22.11,41.71-11.15-14.12-17.72-29.26-17.72-41.71Z"/><path class="e" d="M174.55,237.93c43.58-19.31,73.98-62.94,73.98-113.67C248.53,55.64,192.89,0,124.26,0S0,55.64,0,124.26c0,49.8,29.29,92.75,71.58,112.58l5.67,69.76c1.06,12.98,11.9,22.97,24.92,22.97h39.87c12.74,0,23.45-9.59,24.85-22.26l7.66-69.38Z"/></svg>