<svg width="468" height="809" viewBox="0 0 468 809" fill="none" xmlns="http://www.w3.org/2000/svg">
<path d="M222.711 728.058L206.981 720.529L222.082 713" stroke="#2B2B2B" stroke-opacity="0.52" stroke-width="3"/>
<path d="M209.498 728.058L193.767 720.529L208.869 713" stroke="#2B2B2B" stroke-opacity="0.52" stroke-width="3"/>
<path d="M195.655 728.058L179.924 720.529L195.026 713" stroke="#2B2B2B" stroke-opacity="0.52" stroke-width="3"/>
<path d="M175.75 568.058L160.019 560.529L175.12 553" stroke="#2B2B2B" stroke-opacity="0.52" stroke-width="3"/>
<path d="M162.536 568.058L146.806 560.529L161.907 553" stroke="#2B2B2B" stroke-opacity="0.52" stroke-width="3"/>
<path d="M148.693 568.058L132.963 560.529L148.064 553" stroke="#2B2B2B" stroke-opacity="0.52" stroke-width="3"/>
<path d="M46.906 714.058L31.1755 706.529L46.2768 699" stroke="#2B2B2B" stroke-opacity="0.52" stroke-width="3"/>
<path d="M33.6925 714.058L17.962 706.529L33.0632 699" stroke="#2B2B2B" stroke-opacity="0.52" stroke-width="3"/>
<path d="M19.8496 714.058L4.11914 706.529L19.2204 699" stroke="#2B2B2B" stroke-opacity="0.52" stroke-width="3"/>
<path d="M61.3343 513.489L72.2165 505L83.0986 513.149" stroke="#2B2B2B" stroke-opacity="0.52" stroke-width="3"/>
<path d="M83.9045 535.56L73.0223 544.048L62.1401 535.899" stroke="#2B2B2B" stroke-opacity="0.52" stroke-width="3"/>
<path d="M87.1288 515.187L97.2049 524.354L87.5319 533.522" stroke="#2B2B2B" stroke-opacity="0.52" stroke-width="3"/>
<path d="M58.0761 534.163L48 524.995L57.673 515.828" stroke="#2B2B2B" stroke-opacity="0.52" stroke-width="3"/>
<ellipse cx="72.9518" cy="525.677" rx="8.42902" ry="7.68009" fill="#2B2B2B" fill-opacity="0.52"/>
<path d="M124.881 716.304L132.338 710L139.795 716.052" stroke="#2B2B2B" stroke-opacity="0.52" stroke-width="3"/>
<path d="M140.347 732.696L132.89 739L125.434 732.948" stroke="#2B2B2B" stroke-opacity="0.52" stroke-width="3"/>
<path d="M142.556 717.565L149.461 724.374L142.832 731.183" stroke="#2B2B2B" stroke-opacity="0.52" stroke-width="3"/>
<path d="M122.649 731.659L115.745 724.85L122.373 718.041" stroke="#2B2B2B" stroke-opacity="0.52" stroke-width="3"/>
<ellipse cx="132.842" cy="725.356" rx="5.77572" ry="5.70377" fill="#2B2B2B" fill-opacity="0.52"/>
<path d="M203.943 622.48L213.44 620.021L217.473 628.67" stroke="#2B2B2B" stroke-opacity="0.52" stroke-width="3"/>
<path d="M210.612 643.868L201.115 646.326L197.082 637.678" stroke="#2B2B2B" stroke-opacity="0.52" stroke-width="3"/>
<path d="M219.289 631.218L222.491 640.309L213.517 643.577" stroke="#2B2B2B" stroke-opacity="0.52" stroke-width="3"/>
<path d="M195.146 635.321L191.944 626.23L200.918 622.962" stroke="#2B2B2B" stroke-opacity="0.52" stroke-width="3"/>
<ellipse rx="5.76042" ry="5.71367" transform="matrix(0.902154 0.431414 -0.44137 0.897325 207.104 634.041)" fill="#2B2B2B" fill-opacity="0.52"/>
<rect x="468" y="9" width="364" height="9" transform="rotate(-180 468 9)" fill="#ED6A5E"/>
<rect x="468" y="18" width="364" height="9" transform="rotate(-180 468 18)" fill="#FCDB39"/>
<rect x="101" y="809" width="809" height="9" transform="rotate(-90 101 809)" fill="#ED6A5E"/>
<rect x="92" y="809" width="809" height="9" transform="rotate(-90 92 809)" fill="#FCDB39"/>
<path d="M92 7V0H101L92 7Z" fill="#ECFFFC"/>
<path d="M173.685 699.902L173.904 608L159.454 614.911L159.673 707L173.685 699.902Z" fill="#C6C6C6" stroke="black"/>
<path d="M58.3057 658.782L159.454 707V661.016V615.032L58.3057 567V658.782Z" fill="#F5F5F5" stroke="black"/>
<rect width="8.10205" height="7.33333" transform="matrix(0.891734 0.45256 0 1 117.309 625)" fill="#09BC8A"/>
<rect width="8.10205" height="7.33333" transform="matrix(0.891734 0.45256 0 1 117.309 636)" fill="#09BC8A"/>
<rect width="8.10205" height="7.33333" transform="matrix(0.891734 0.45256 0 1 117.309 646)" fill="#09BC8A"/>
<rect width="8.10205" height="7.33333" transform="matrix(0.891734 0.45256 0 1 117.309 657)" fill="#09BC8A"/>
<rect width="8.10205" height="7.33333" transform="matrix(0.891734 0.45256 0 1 117.309 668)" fill="#09BC8A"/>
<rect width="9.192" height="7.33333" transform="matrix(0.916996 0.398898 0 1 79.9803 618)" fill="#09BC8A"/>
<rect width="9.192" height="7.33333" transform="matrix(0.916996 0.398898 0 1 79.9803 629)" fill="#09BC8A"/>
<rect width="9.192" height="7.33333" transform="matrix(0.916996 0.398898 0 1 79.9803 640)" fill="#09BC8A"/>
<rect width="9.192" height="7.33333" transform="matrix(0.916996 0.398898 0 1 79.9803 651)" fill="#09BC8A"/>
<rect width="8.10205" height="7.33333" transform="matrix(0.891734 0.45256 0 1 129.35 631)" fill="#09BC8A"/>
<rect width="8.10205" height="7.33333" transform="matrix(0.891734 0.45256 0 1 129.35 642)" fill="#09BC8A"/>
<rect width="8.10205" height="7.33333" transform="matrix(0.891734 0.45256 0 1 129.35 652)" fill="#09BC8A"/>
<rect width="8.10205" height="7.33333" transform="matrix(0.891734 0.45256 0 1 129.35 663)" fill="#09BC8A"/>
<rect width="8.10205" height="7.33333" transform="matrix(0.891734 0.45256 0 1 129.35 674)" fill="#09BC8A"/>
<rect width="9.192" height="7.33333" transform="matrix(0.916996 0.398898 0 1 92.0217 624)" fill="#09BC8A"/>
<rect width="9.192" height="7.33333" transform="matrix(0.916996 0.398898 0 1 92.0217 635)" fill="#09BC8A"/>
<rect width="9.192" height="7.33333" transform="matrix(0.916996 0.398898 0 1 92.0217 646)" fill="#09BC8A"/>
<rect width="9.192" height="7.33333" transform="matrix(0.916996 0.398898 0 1 92.0217 657)" fill="#09BC8A"/>
<rect width="9.192" height="7.33333" transform="matrix(0.916996 0.398898 0 1 141.392 637)" fill="#09BC8A"/>
<rect width="9.192" height="7.33333" transform="matrix(0.916996 0.398898 0 1 141.392 648)" fill="#09BC8A"/>
<rect width="9.192" height="7.33333" transform="matrix(0.916996 0.398898 0 1 141.392 658)" fill="#09BC8A"/>
<rect width="9.192" height="7.33333" transform="matrix(0.916996 0.398898 0 1 141.392 669)" fill="#09BC8A"/>
<rect width="9.192" height="7.33333" transform="matrix(0.916996 0.398898 0 1 141.392 680)" fill="#09BC8A"/>
<rect width="8.10205" height="7.33333" transform="matrix(0.891734 0.45256 0 1 105.267 619)" fill="#09BC8A"/>
<rect width="8.10205" height="7.33333" transform="matrix(0.891734 0.45256 0 1 105.267 630)" fill="#09BC8A"/>
<rect width="8.10205" height="7.33333" transform="matrix(0.891734 0.45256 0 1 105.267 641)" fill="#09BC8A"/>
<rect width="8.10205" height="7.33333" transform="matrix(0.891734 0.45256 0 1 105.267 652)" fill="#09BC8A"/>
<rect width="8.10205" height="7.33333" transform="matrix(0.891734 0.45256 0 1 105.267 663)" fill="#09BC8A"/>
<rect width="9.192" height="7.33333" transform="matrix(0.916996 0.398898 0 1 67.9388 613)" fill="#09BC8A"/>
<rect width="9.192" height="7.33333" transform="matrix(0.916996 0.398898 0 1 67.9388 623)" fill="#09BC8A"/>
<rect width="9.192" height="7.33333" transform="matrix(0.916996 0.398898 0 1 67.9388 634)" fill="#09BC8A"/>
<rect width="9.192" height="7.33333" transform="matrix(0.916996 0.398898 0 1 67.9388 645)" fill="#09BC8A"/>
<path d="M159.454 634L58.3057 585.067L58.5314 567L159.454 615.368V634Z" fill="#09BC8A" fill-opacity="0.85" stroke="black"/>
<path d="M173.904 626.015L159.454 633V614.801L173.904 608V626.015Z" fill="#08A377"/>
<path d="M159.257 615L58.3057 567.222L72.9526 560L173.904 607.963L159.257 615Z" fill="#76DCBF" stroke="black"/>
</svg>
