<svg width="105" height="82" viewBox="0 0 105 82" fill="none" xmlns="http://www.w3.org/2000/svg">
<g clip-path="url(#clip0)">
<path d="M92.1951 15.9326H3.84143V59.057H92.1951V15.9326Z" fill="#F9F9F9"/>
<path d="M9.1768 31.8654L0.533501 75.5208C0.248949 77.6097 0.960331 81.7876 6.08229 81.7876H88.1402C90.0609 81.7876 94.6493 81.7876 95.7164 77.9638L104.573 33.5648C105.178 31.2988 104.723 26.7669 98.064 26.7669H15.7927C13.9431 26.6252 10.0305 27.4467 9.1768 31.8654Z" fill="#FCDB39" stroke="black" stroke-width="2"/>
<path d="M34.8932 11.5777H86.9664C89.1716 11.3298 93.5823 12.1725 93.5823 17.5259V26.7668H91.2347V22.1994C91.1636 20.6062 90.4664 17.5259 86.9664 17.5259H8.64318C7.25605 17.5259 4.4816 17.4621 4.4816 22.3056V55.3393L0.32003 76.5828V6.58544C0.213322 4.60272 1.42983 0.318604 6.29569 0.318604H19.4206C20.1676 0.318585 21.5 0.31857 23.4756 1.91189L31.7987 9.9844C31.7987 9.9844 33.0792 11.4714 34.8932 11.5777Z" fill="#FCDB39" stroke="black" stroke-width="2"/>
<path d="M7.97559 12.746V0.424805H17.1524V12.746L12.3554 9.55166L7.97559 12.746Z" fill="#09BC8A" stroke="black"/>
</g>
<defs>
<clipPath id="clip0">
<rect width="105" height="82" fill="white"/>
</clipPath>
</defs>
</svg>
