<svg width="105" height="88" viewBox="0 0 105 88" fill="none" xmlns="http://www.w3.org/2000/svg">
<g clip-path="url(#clip0)">
<path d="M92.1951 17.0984H3.84143V63.3782H92.1951V17.0984Z" fill="#F9F9F9"/>
<path d="M9.1768 34.197L0.533501 81.0468C0.248949 83.2885 0.960331 87.7721 6.08229 87.7721H88.1402C90.0609 87.7721 94.6493 87.7721 95.7164 83.6685L104.573 36.0208C105.178 33.589 104.723 28.7255 98.064 28.7255H15.7927C13.9431 28.5734 10.0305 29.455 9.1768 34.197Z" fill="#FCDB39" stroke="black" stroke-width="2"/>
<path d="M34.8932 12.425H86.9664C89.1716 12.159 93.5823 13.0633 93.5823 18.8084V28.7255H91.2347V23.8239C91.1636 22.1141 90.4664 18.8084 86.9664 18.8084H8.64318C7.25605 18.8084 4.4816 18.74 4.4816 23.9379V59.3887L0.32003 82.1866V7.06743C0.213322 4.93963 1.42983 0.342041 6.29569 0.342041H19.4206C20.1676 0.342021 21.5 0.342005 23.4756 2.0519L31.7987 10.7151C31.7987 10.7151 33.0792 12.3109 34.8932 12.425Z" fill="#FCDB39" stroke="black" stroke-width="2"/>
<path d="M7.97559 13.6786V0.455811H17.1524V13.6786L12.3554 10.2505L7.97559 13.6786Z" fill="#09BC8A" stroke="black"/>
</g>
<defs>
<clipPath id="clip0">
<rect width="105" height="88" fill="white"/>
</clipPath>
</defs>
</svg>
