<svg width="478" height="361" viewBox="0 0 478 361" fill="none" xmlns="http://www.w3.org/2000/svg">
<path d="M382.458 187.005V196.189L339.378 249.151L325.624 232.004L66.5357 323.416L64.6595 309.813L243.706 236.243C243.706 236.243 307.89 208.978 305.739 208.978C303.588 208.978 283.631 192.142 283.631 192.142L285.603 183.76L354.507 194.285L382.458 187.005Z" fill="#D1D3D4"/>
<path d="M66.5357 324.015C66.4262 324.017 66.3184 323.988 66.225 323.931C66.1496 323.885 66.0858 323.822 66.0382 323.747C65.9906 323.673 65.9605 323.588 65.9501 323.5L64.062 309.885C64.0466 309.754 64.0744 309.62 64.1412 309.506C64.2081 309.391 64.3103 309.302 64.4325 309.251L243.515 235.692C265.814 226.221 298.664 212.079 304.532 209.097C300.146 206.702 287.455 196.117 283.285 192.597C283.199 192.526 283.134 192.432 283.098 192.326C283.062 192.22 283.056 192.107 283.082 191.998L285.053 183.616C285.088 183.47 285.176 183.342 285.299 183.258C285.423 183.173 285.574 183.139 285.723 183.161L354.519 193.674L382.302 186.49C382.392 186.468 382.484 186.467 382.574 186.486C382.664 186.505 382.748 186.545 382.82 186.601C382.892 186.658 382.951 186.73 382.992 186.812C383.033 186.894 383.054 186.985 383.055 187.076V196.261C383.054 196.398 383.003 196.53 382.912 196.632L339.832 249.594C339.78 249.665 339.711 249.723 339.632 249.763C339.553 249.802 339.466 249.822 339.378 249.822C339.287 249.835 339.194 249.82 339.111 249.779C339.028 249.739 338.958 249.674 338.912 249.594L325.42 232.83L66.7388 323.991C66.673 324.011 66.6042 324.019 66.5357 324.015ZM65.3407 310.185L67.0495 322.614L325.444 231.477C325.562 231.435 325.69 231.431 325.81 231.465C325.93 231.5 326.036 231.571 326.114 231.669L339.402 248.229L381.884 196.009V187.807L354.722 194.86C354.643 194.878 354.562 194.878 354.483 194.86L286.117 184.418L284.336 191.914C293.729 199.829 304.365 208.235 305.787 208.379C305.931 208.381 306.071 208.43 306.185 208.519C306.299 208.607 306.381 208.73 306.42 208.87C306.551 209.564 306.611 209.852 275.087 223.478C259.719 230.112 244.137 236.734 244.017 236.794L65.3407 310.185Z" fill="#231F20"/>
<path d="M56.7487 243.523L301.975 197.434L285.639 183.76L382.458 187.04L338.649 235.788L325.504 221.682L64.6596 309.813L56.7487 243.523Z" fill="white"/>
<path d="M64.6595 310.412C64.5453 310.41 64.4338 310.377 64.3368 310.317C64.2632 310.268 64.2006 310.205 64.1532 310.131C64.1058 310.056 64.0747 309.973 64.062 309.885L56.1511 243.595C56.1302 243.445 56.1684 243.292 56.2575 243.17C56.3466 243.047 56.4798 242.963 56.6291 242.937L300.612 197.075L285.256 184.215C285.161 184.135 285.092 184.028 285.06 183.908C285.028 183.788 285.034 183.661 285.077 183.544C285.117 183.423 285.197 183.32 285.303 183.25C285.41 183.18 285.536 183.149 285.663 183.161L382.458 186.442C382.573 186.442 382.685 186.477 382.781 186.54C382.876 186.604 382.951 186.695 382.996 186.801C383.038 186.906 383.051 187.022 383.032 187.134C383.013 187.246 382.963 187.351 382.888 187.436L339.079 236.183C339.025 236.248 338.957 236.299 338.881 236.334C338.804 236.37 338.721 236.388 338.637 236.387C338.554 236.388 338.472 236.372 338.396 236.339C338.319 236.306 338.251 236.257 338.195 236.195L325.325 222.377L64.8507 310.34C64.7921 310.376 64.7272 310.401 64.6595 310.412ZM57.4058 244.003L65.1614 309.011L325.313 221.12C325.423 221.084 325.54 221.08 325.652 221.107C325.763 221.135 325.865 221.193 325.946 221.275L338.637 234.902L381.131 187.591L287.336 184.418L302.333 196.967C302.419 197.041 302.483 197.137 302.517 197.245C302.551 197.353 302.553 197.469 302.524 197.578C302.495 197.688 302.437 197.788 302.354 197.866C302.272 197.944 302.169 197.998 302.058 198.021L57.4058 244.003Z" fill="#231F20"/>
<path d="M151.089 267.876C177.517 263.326 198.19 255.262 197.265 249.865C196.339 244.469 174.165 243.783 147.738 248.333C121.31 252.883 100.636 260.947 101.562 266.344C102.487 271.74 124.661 272.426 151.089 267.876Z" fill="#E6E7E8"/>
<path d="M144.897 199.539C137.962 198.555 133.596 194.775 133.092 187.755C132.178 175.256 127.087 164.504 121.728 153.434C101.917 112.443 125.353 62.7163 176.308 66.7821C210.856 69.5455 233.835 94.4643 231.03 128.309C229.7 144.675 222.014 159.851 209.642 170.539C201.163 178.115 193.708 186.103 189.074 196.697C186.08 203.51 180.627 206.321 173.093 204.638C168.554 203.573 163.936 202.954 159.349 202.144C154.574 201.271 149.735 200.222 144.897 199.539Z" fill="#FCDB39"/>
<path d="M177.254 205.114C175.786 205.104 174.323 204.924 172.896 204.576C169.738 203.865 166.58 203.327 163.422 202.822C162.001 202.584 160.595 202.363 159.19 202.11L154.642 201.272C151.389 200.672 148.042 200.039 144.741 199.581C137.194 198.522 132.741 194.111 132.235 187.124C131.319 174.573 126.045 163.744 120.945 153.263C110.46 131.749 111.597 107.151 123.914 89.0668C135.299 72.326 153.916 64.09 176.386 65.8763C194.134 67.2833 209.436 74.5866 219.463 86.4268C228.937 97.6031 233.264 111.973 231.937 127.97C230.526 144.444 222.727 159.708 210.209 170.494C202.867 177.007 194.703 185.18 189.808 196.261C187.234 202.11 182.939 205.114 177.254 205.114ZM144.931 198.016C148.263 198.49 151.642 199.107 154.895 199.723L159.427 200.545C160.832 200.798 162.237 201.019 163.643 201.257C166.801 201.778 170.07 202.3 173.243 203.043C180.381 204.624 185.465 202.205 188.355 195.661C193.376 184.295 201.698 175.979 209.167 169.34C215.25 164.154 220.249 157.815 223.878 150.688C227.506 143.562 229.692 135.787 230.311 127.812C231.606 112.241 227.437 98.2671 218.215 87.4069C208.456 75.8987 193.534 68.8008 176.212 67.4255C154.358 65.7025 136.23 73.7488 125.161 89.9204C113.176 107.531 112.086 131.527 122.303 152.536C127.482 163.143 132.82 174.13 133.767 186.982C134.225 193.305 138.078 197.036 144.915 198.048L144.931 198.016Z" fill="#231F20"/>
<path d="M138.441 212.447L175.663 219.058C178.996 219.65 182.177 217.422 182.768 214.082L183.11 212.145C183.701 208.805 181.478 205.618 178.145 205.026L140.922 198.416C137.59 197.824 134.409 200.051 133.818 203.391L133.475 205.329C132.885 208.668 135.108 211.855 138.441 212.447Z" fill="white"/>
<path d="M176.729 219.7C176.324 219.699 175.919 219.668 175.519 219.607L138.594 213.143C137.705 212.992 136.855 212.668 136.094 212.189C135.334 211.71 134.678 211.086 134.165 210.354C133.125 208.883 132.718 207.066 133.034 205.301L133.379 203.41C133.697 201.643 134.713 200.073 136.203 199.044C137.693 198.015 139.536 197.612 141.327 197.923L178.252 204.371C180.043 204.685 181.634 205.687 182.676 207.157C183.719 208.628 184.127 210.446 183.812 212.214L183.482 214.12C183.193 215.681 182.359 217.094 181.126 218.113C179.893 219.132 178.337 219.693 176.729 219.7ZM140.117 199.365C138.877 199.371 137.678 199.805 136.729 200.592C135.779 201.379 135.139 202.469 134.919 203.673L134.589 205.564C134.464 206.24 134.477 206.934 134.626 207.605C134.774 208.276 135.056 208.912 135.454 209.475C135.853 210.039 136.36 210.518 136.948 210.887C137.535 211.256 138.191 211.507 138.877 211.625L175.723 218.15C176.407 218.27 177.109 218.256 177.787 218.108C178.465 217.961 179.107 217.682 179.677 217.289C180.246 216.896 180.731 216.396 181.103 215.818C181.476 215.239 181.729 214.594 181.849 213.918L182.194 212.028C182.437 210.663 182.122 209.26 181.318 208.124C180.515 206.988 179.288 206.213 177.907 205.967L140.981 199.551C140.672 199.478 140.356 199.437 140.039 199.427L140.117 199.365Z" fill="#231F20"/>
<path d="M135.968 226.491L173.191 233.101C176.523 233.693 179.704 231.465 180.295 228.126L180.638 226.188C181.228 222.848 179.005 219.661 175.672 219.069L138.45 212.459C135.117 211.867 131.936 214.095 131.345 217.434L131.003 219.372C130.412 222.712 132.635 225.899 135.968 226.491Z" fill="white"/>
<path d="M173.982 234.285C173.582 234.288 173.182 234.25 172.789 234.173L135.868 227.462C134.078 227.131 132.486 226.087 131.44 224.558C130.919 223.8 130.551 222.944 130.357 222.038C130.163 221.132 130.146 220.195 130.309 219.283L130.639 217.315C130.796 216.403 131.127 215.531 131.612 214.751C132.098 213.97 132.728 213.295 133.468 212.765C134.207 212.234 135.041 211.859 135.922 211.66C136.803 211.461 137.713 211.442 138.601 211.605L175.521 218.331C177.313 218.662 178.904 219.708 179.946 221.241C180.988 222.774 181.396 224.669 181.081 226.51L180.735 228.478C180.449 230.105 179.616 231.576 178.382 232.637C177.148 233.698 175.591 234.282 173.982 234.285ZM137.392 213.105C136.152 213.111 134.953 213.563 134.004 214.382C133.054 215.201 132.414 216.336 132.194 217.589L131.848 219.574C131.61 220.991 131.928 222.448 132.731 223.626C133.534 224.804 134.757 225.609 136.135 225.865L173.056 232.592C174.438 232.836 175.858 232.511 177.007 231.686C178.157 230.862 178.944 229.604 179.196 228.188L179.526 226.204C179.648 225.501 179.634 224.781 179.484 224.084C179.334 223.387 179.052 222.728 178.654 222.143C178.256 221.559 177.749 221.061 177.163 220.678C176.577 220.295 175.923 220.035 175.239 219.912L138.318 213.185C138.012 213.135 137.702 213.108 137.392 213.105Z" fill="#231F20"/>
<path d="M135.737 226.081C134.804 231.416 142.582 237.295 153.127 239.17C163.672 241.044 172.968 238.273 173.901 232.922L135.737 226.081Z" fill="white"/>
<path d="M159.736 240.667C157.48 240.656 155.229 240.457 153.009 240.071C148.192 239.351 143.608 237.59 139.601 234.923C136.038 232.387 134.353 229.469 134.83 226.704C134.868 226.506 134.987 226.33 135.16 226.216C135.333 226.101 135.546 226.057 135.752 226.093L174.162 232.616C174.367 232.66 174.548 232.774 174.671 232.937C174.73 233.018 174.772 233.11 174.794 233.207C174.816 233.304 174.817 233.404 174.798 233.502C174.051 237.932 167.864 240.667 159.736 240.667ZM136.372 227.743C136.372 229.683 137.852 231.776 140.539 233.701C144.347 236.22 148.696 237.885 153.263 238.574C162.695 240.178 171.379 238.085 173.017 233.991L136.372 227.743Z" fill="#231F20"/>
<path d="M169.338 195.998C170.744 180.901 172.007 165.313 178.417 151.342C181.198 145.284 185.482 137.387 190.821 133.168C195.488 129.489 203.976 131.361 206.629 136.721C207.421 138.564 207.73 140.575 207.529 142.568C207.328 144.561 206.622 146.472 205.478 148.123C203.13 151.403 199.948 154.008 196.255 155.671C188.549 159.369 179.928 160.773 171.435 159.712C162.941 158.65 154.94 155.17 148.399 149.692C144.086 146.175 140.885 141.501 139.176 136.229C138.355 133.593 138.176 130.801 138.654 128.083C139.132 125.365 140.253 122.798 141.925 120.593C145.825 115.836 150.716 120.197 153.114 124.034C158.373 132.28 157.414 144.126 156.854 153.419C155.926 166.59 153.239 179.58 148.862 192.049" fill="#FCDB39"/>
<path d="M169.36 196.909C169.153 196.889 168.963 196.788 168.828 196.628C168.694 196.467 168.626 196.26 168.639 196.05L168.78 194.618C169.798 183.339 170.832 171.741 174.043 160.78C168.412 160.402 162.901 158.951 157.799 156.5C156.695 168.74 154.128 180.797 150.155 192.407C150.087 192.604 149.946 192.767 149.761 192.859C149.577 192.951 149.364 192.966 149.168 192.9C148.973 192.831 148.812 192.688 148.719 192.501C148.626 192.315 148.607 192.098 148.667 191.898C152.676 180.212 155.239 168.065 156.296 155.736C153.487 154.217 150.859 152.376 148.463 150.248C144.121 146.627 140.901 141.81 139.19 136.375C138.351 133.608 138.171 130.679 138.664 127.827C139.157 124.976 140.309 122.284 142.025 119.973C142.552 119.211 143.258 118.596 144.079 118.182C144.899 117.768 145.809 117.568 146.725 117.602C150.531 117.841 153.507 122.168 154.337 123.489C159.397 131.65 158.723 143.089 158.175 152.268V153.446C158.175 153.891 158.175 154.352 158.175 154.798C163.35 157.39 168.987 158.894 174.748 159.221C175.625 156.411 176.671 153.659 177.881 150.98C181.844 142.118 186.011 135.882 190.256 132.461C191.556 131.503 193.049 130.847 194.627 130.539C196.205 130.231 197.83 130.279 199.388 130.68C200.903 131.048 202.323 131.737 203.557 132.702C204.791 133.667 205.81 134.886 206.547 136.28C207.397 138.251 207.736 140.41 207.53 142.552C207.324 144.694 206.581 146.747 205.372 148.514C202.991 151.94 199.744 154.649 195.973 156.357C189.616 159.574 182.566 161.122 175.469 160.859C172.21 171.789 171.161 183.434 170.143 194.762L170.017 196.193C170.005 196.371 169.933 196.539 169.813 196.669C169.693 196.8 169.533 196.884 169.36 196.909ZM176.064 159.284C182.76 159.462 189.396 157.971 195.394 154.941C198.89 153.346 201.902 150.83 204.119 147.655C205.167 146.114 205.815 144.329 206.004 142.466C206.193 140.603 205.916 138.721 205.199 136.996C204.494 135.8 203.558 134.762 202.447 133.945C201.335 133.127 200.072 132.547 198.734 132.239C197.396 131.932 196.01 131.903 194.661 132.154C193.311 132.405 192.026 132.932 190.882 133.702C186.841 136.884 182.831 143.009 178.962 151.648C177.852 154.134 176.884 156.684 176.064 159.284ZM146.302 119.177C145.679 119.212 145.072 119.392 144.528 119.704C143.985 120.016 143.52 120.451 143.169 120.975C141.614 123.091 140.574 125.55 140.133 128.151C139.692 130.753 139.863 133.424 140.631 135.946C142.272 141.08 145.327 145.629 149.435 149.055C151.579 150.957 153.922 152.616 156.421 154.002C156.421 153.78 156.421 153.573 156.421 153.35L156.499 152.173C157.032 143.216 157.69 132.064 152.881 124.348C151.393 121.946 148.933 119.336 146.505 119.193L146.302 119.177Z" fill="#2B2B2B"/>
<path d="M223.501 24.89C223.501 24.89 202.588 22.0042 196.972 9.71851L182.716 28.3865C182.716 28.3865 193.1 47.6652 211.396 45.1506L223.501 24.89Z" fill="white"/>
<path d="M208.181 45.9768C191.726 45.9768 182.285 28.8535 182.19 28.6619C182.128 28.5655 182.095 28.4532 182.095 28.3386C182.095 28.224 182.128 28.1118 182.19 28.0153L196.494 9.34731C196.559 9.26636 196.644 9.20312 196.74 9.16337C196.836 9.12363 196.94 9.10864 197.044 9.11979C197.146 9.13341 197.243 9.17228 197.326 9.2329C197.41 9.29352 197.477 9.37399 197.522 9.46705C202.923 21.3097 223.37 24.2673 223.573 24.3033C223.67 24.3129 223.763 24.3478 223.843 24.4045C223.922 24.4612 223.986 24.5378 224.027 24.6266C224.074 24.715 224.098 24.8137 224.098 24.914C224.098 25.0142 224.074 25.1129 224.027 25.2013L211.909 45.4979C211.864 45.575 211.801 45.6409 211.727 45.6906C211.653 45.7403 211.568 45.7727 211.479 45.7852C210.385 45.9183 209.283 45.9823 208.181 45.9768ZM183.433 28.4224C184.902 30.9371 194.845 46.6115 211.037 44.6118L222.521 25.345C218.518 24.6505 202.409 21.2857 196.864 10.8441L183.433 28.4224Z" fill="#D1D3D4"/>
<path d="M84.1141 129.324C84.1141 129.324 64.2652 118.392 45.205 131.085L52.9366 157.189C52.9366 157.189 70.4911 144.017 84.1141 147.501V129.324Z" fill="white"/>
<path d="M52.9366 157.787C52.8734 157.799 52.8086 157.799 52.7454 157.787C52.6548 157.757 52.5727 157.705 52.5062 157.636C52.4397 157.567 52.3906 157.484 52.363 157.392L44.6433 131.288C44.6021 131.166 44.6033 131.033 44.6467 130.911C44.6901 130.789 44.7731 130.686 44.8823 130.617C64.0023 117.877 84.1978 128.725 84.401 128.845C84.4952 128.894 84.5741 128.968 84.6289 129.059C84.6838 129.15 84.7124 129.254 84.7117 129.36V147.489C84.7098 147.58 84.6874 147.669 84.6459 147.75C84.6045 147.831 84.5453 147.902 84.4727 147.956C84.4017 148.014 84.3181 148.054 84.2288 148.072C84.1394 148.091 84.0468 148.088 83.9588 148.064C70.8138 144.687 53.4624 157.524 53.2951 157.643C53.1919 157.725 53.0674 157.775 52.9366 157.787ZM45.91 131.336L53.2712 156.207C56.6411 153.812 71.2918 144.136 83.5167 146.747V129.695C80.9474 128.414 63.0463 120.212 45.91 131.336Z" fill="#D1D3D4"/>
<path d="M80.792 71.7876C80.792 71.7876 80.6725 69.6442 86.767 69.2011C90.4058 68.9464 94.008 70.0656 96.8647 72.3384L80.792 93.1378C80.792 93.1378 77.3145 76.3857 80.792 71.7876Z" fill="white"/>
<path d="M80.7921 93.7364H80.6607C80.549 93.7131 80.4465 93.6577 80.3658 93.5768C80.2851 93.496 80.2298 93.3933 80.2066 93.2814C80.0632 92.5869 76.7769 76.5173 80.2066 71.5838C80.3261 70.8774 81.1745 69.0333 86.6835 68.6262C90.4825 68.3465 94.2457 69.5235 97.2114 71.9191C97.3259 72.0189 97.3983 72.1585 97.4138 72.3097C97.4293 72.4609 97.3869 72.6124 97.2951 72.7334L81.2582 93.4969C81.2057 93.5718 81.1359 93.6327 81.0547 93.6744C80.9735 93.7161 80.8834 93.7374 80.7921 93.7364ZM87.7709 69.7877C87.4405 69.7701 87.1094 69.7701 86.7791 69.7877C82.4532 70.099 81.4255 71.3324 81.3896 71.7754C81.3924 71.9054 81.3502 72.0323 81.2701 72.1347C78.5336 75.727 80.4097 87.7013 81.1267 91.7008L95.9925 72.434C93.5926 70.7136 90.7216 69.777 87.7709 69.7518V69.7877Z" fill="#D1D3D4"/>
<path d="M80.7921 71.7876L71.0289 91.7848C73.8732 96.5126 77.9568 100.368 82.8355 102.933L92.3955 84.9714C92.3955 84.9714 82.1305 80.5169 80.7921 71.7876Z" fill="white"/>
<path d="M82.8354 103.532C82.7355 103.531 82.6373 103.506 82.5487 103.46C77.5617 100.85 73.3927 96.909 70.5031 92.0721C70.4618 91.9861 70.4403 91.892 70.4403 91.7966C70.4403 91.7013 70.4618 91.6071 70.5031 91.5212L80.2662 71.5241C80.3208 71.4093 80.4105 71.315 80.5222 71.2547C80.6339 71.1944 80.7619 71.1713 80.8876 71.1888C81.0147 71.206 81.1326 71.2645 81.2233 71.3554C81.3139 71.4462 81.3723 71.5644 81.3895 71.6917C82.6681 79.9899 92.5388 84.3965 92.6464 84.4444C92.7206 84.4778 92.7873 84.5257 92.8428 84.5853C92.8982 84.645 92.9411 84.7151 92.969 84.7916C93.029 84.9456 93.029 85.1166 92.969 85.2706L83.4091 103.232C83.3522 103.332 83.2679 103.413 83.1662 103.466C83.0645 103.519 82.9496 103.542 82.8354 103.532ZM71.71 91.7607C74.4051 96.077 78.146 99.6401 82.5845 102.119L91.5709 85.2227C89.4797 84.1929 82.5606 80.3132 80.5769 73.5477L71.71 91.7607Z" fill="#D1D3D4"/>
<path d="M253.362 166.289C253.362 166.289 251.916 169.881 246.67 172.875C241.424 175.869 233.609 172.875 233.609 172.875L235.556 189.962C235.556 189.962 242.392 193.1 251.964 188.765C261.536 184.43 261.918 179.964 261.918 179.964L253.362 166.289Z" fill="white"/>
<path d="M241.89 191.675C239.642 191.715 237.408 191.308 235.317 190.477C235.224 190.433 235.143 190.366 235.082 190.283C235.022 190.199 234.983 190.101 234.971 189.998L233.011 172.899C233.002 172.797 233.018 172.695 233.058 172.601C233.097 172.507 233.159 172.424 233.238 172.36C233.321 172.297 233.418 172.257 233.52 172.242C233.623 172.228 233.727 172.239 233.824 172.276C233.895 172.276 241.436 175.15 246.371 172.276C251.307 169.402 252.788 166.026 252.8 165.99C252.845 165.89 252.914 165.805 253.003 165.742C253.091 165.679 253.194 165.64 253.302 165.63C253.412 165.617 253.524 165.636 253.624 165.685C253.724 165.734 253.807 165.81 253.864 165.906L262.432 179.605C262.495 179.713 262.524 179.838 262.516 179.964C262.516 180.167 261.978 184.873 252.203 189.268C248.975 190.796 245.459 191.617 241.89 191.675ZM236.118 189.543C237.516 190.058 243.647 191.878 251.653 188.25C259.66 184.622 261.022 180.946 261.213 180.107L253.326 167.486C251.709 169.962 249.499 171.991 246.897 173.39C242.476 175.916 236.501 174.456 234.242 173.737L236.118 189.543Z" fill="#D1D3D4"/>
<path d="M320.856 118.248C316.516 121.501 313.427 126.152 312.108 131.42L337.442 131.671C337.442 131.671 324.488 118.308 320.856 118.248Z" fill="white"/>
<path d="M337.442 132.246L312.108 131.994C312.018 131.996 311.929 131.976 311.848 131.936C311.767 131.897 311.697 131.839 311.642 131.767C311.585 131.698 311.545 131.616 311.526 131.529C311.507 131.441 311.51 131.35 311.535 131.264C312.861 125.847 316.041 121.067 320.521 117.757C320.621 117.693 320.737 117.656 320.856 117.649C324.632 117.721 336.534 129.851 337.872 131.228C337.955 131.312 338.011 131.42 338.033 131.536C338.055 131.652 338.042 131.772 337.996 131.881C337.95 131.99 337.873 132.082 337.774 132.147C337.676 132.212 337.56 132.247 337.442 132.246ZM312.885 130.809L336.008 131.036C330.941 125.935 323.544 119.23 321.023 118.859C317.114 121.876 314.264 126.061 312.885 130.809Z" fill="#D1D3D4"/>
<path d="M351.794 134.904C351.794 134.904 357.709 123.672 342.019 114.548L320.856 118.248C320.856 118.248 340.693 124.055 328.755 142.963L351.794 134.904Z" fill="white"/>
<path d="M328.755 143.562C328.665 143.56 328.577 143.539 328.496 143.5C328.416 143.461 328.345 143.404 328.288 143.334C328.218 143.232 328.18 143.111 328.18 142.987C328.18 142.863 328.218 142.742 328.288 142.64C331.873 136.988 332.877 131.994 331.3 127.815C328.838 121.277 320.796 118.847 320.724 118.823C320.646 118.819 320.569 118.799 320.498 118.766C320.427 118.732 320.363 118.684 320.31 118.626C320.204 118.508 320.149 118.353 320.157 118.194C320.16 118.115 320.18 118.038 320.213 117.967C320.247 117.896 320.294 117.832 320.353 117.779C320.411 117.727 320.479 117.686 320.553 117.659C320.627 117.633 320.705 117.621 320.784 117.625L341.959 113.913C342.099 113.89 342.242 113.915 342.366 113.985C350.731 118.775 352.965 124.295 353.419 128.043C353.749 130.463 353.38 132.927 352.356 135.144C352.324 135.211 352.279 135.271 352.224 135.32C352.168 135.37 352.103 135.407 352.033 135.431L328.994 143.49C328.92 143.53 328.838 143.554 328.755 143.562ZM323.09 118.415C325.827 119.613 330.499 122.355 332.375 127.336C333.953 131.527 333.2 136.389 330.129 141.801L351.364 134.377C352.081 132.809 355.702 123.253 341.911 115.123L323.09 118.415Z" fill="#D1D3D4"/>
<path d="M116.685 189.521C113.236 187.145 109.091 185.998 104.914 186.264C98.1863 186.827 96.0472 183.235 96.0472 183.235L92.8685 195.88C92.8685 195.88 96.4535 200.322 99.6442 200.43C102.835 200.538 105.356 198.514 110.519 200.43L116.685 189.521Z" fill="white"/>
<path d="M99.5402 200.738H99.2653C95.8954 200.619 92.2148 196.164 92.0953 195.949C92.0356 195.876 91.9936 195.791 91.9729 195.7C91.9521 195.608 91.9531 195.513 91.9758 195.422L95.1545 182.777C95.1807 182.661 95.2418 182.557 95.3295 182.478C95.4172 182.398 95.5272 182.348 95.6444 182.334C95.7603 182.311 95.8804 182.325 95.9876 182.375C96.0949 182.424 96.1839 182.506 96.242 182.609C96.3256 182.741 98.3213 185.878 104.535 185.363C108.861 185.067 113.16 186.254 116.724 188.728C116.84 188.816 116.921 188.943 116.952 189.086C116.983 189.229 116.961 189.378 116.892 189.506L110.713 200.415C110.643 200.536 110.533 200.628 110.402 200.677C110.271 200.725 110.128 200.725 109.996 200.679C107.608 199.765 104.992 199.64 102.528 200.319C101.549 200.563 100.548 200.703 99.5402 200.738ZM93.1708 195.434C93.9356 196.308 96.8514 199.457 99.3012 199.541C100.296 199.533 101.287 199.409 102.253 199.17C104.766 198.496 107.422 198.579 109.889 199.409L115.541 189.423C112.288 187.34 108.461 186.342 104.607 186.573C99.8269 186.98 97.1741 185.375 95.991 184.178L93.1708 195.434Z" fill="#D1D3D4"/>
</svg>
