<svg width="338" height="314" viewBox="0 0 338 314" fill="none" xmlns="http://www.w3.org/2000/svg">
<g clip-path="url(#clip0)">
<path d="M337.458 177.005V186.189L294.378 239.151L280.624 222.004L21.5356 313.416L19.6594 299.813L198.706 226.243C198.706 226.243 262.89 198.978 260.739 198.978C258.588 198.978 238.631 182.142 238.631 182.142L240.603 173.76L309.507 184.285L337.458 177.005Z" fill="#D1D3D4"/>
<path d="M21.5357 314.015C21.4262 314.017 21.3184 313.988 21.225 313.931C21.1496 313.885 21.0858 313.822 21.0382 313.747C20.9906 313.673 20.9605 313.588 20.9501 313.5L19.062 299.885C19.0466 299.754 19.0744 299.62 19.1412 299.506C19.2081 299.391 19.3103 299.302 19.4325 299.251L198.515 225.692C220.814 216.221 253.664 202.079 259.532 199.097C255.146 196.702 242.455 186.117 238.285 182.597C238.199 182.526 238.134 182.432 238.098 182.326C238.062 182.22 238.056 182.107 238.082 181.998L240.053 173.616C240.088 173.47 240.176 173.342 240.299 173.258C240.423 173.173 240.574 173.139 240.723 173.161L309.519 183.674L337.302 176.49C337.392 176.468 337.484 176.467 337.574 176.486C337.664 176.505 337.748 176.545 337.82 176.601C337.892 176.658 337.951 176.73 337.992 176.812C338.033 176.894 338.054 176.985 338.055 177.076V186.261C338.054 186.398 338.003 186.53 337.912 186.632L294.832 239.594C294.78 239.665 294.711 239.723 294.632 239.763C294.553 239.802 294.466 239.822 294.378 239.822C294.287 239.835 294.194 239.82 294.111 239.779C294.028 239.739 293.958 239.674 293.912 239.594L280.42 222.83L21.7388 313.991C21.673 314.011 21.6042 314.019 21.5357 314.015ZM20.3407 300.185L22.0495 312.614L280.444 221.477C280.562 221.435 280.69 221.431 280.81 221.465C280.93 221.5 281.036 221.571 281.114 221.669L294.402 238.229L336.884 186.009V177.807L309.722 184.86C309.643 184.878 309.562 184.878 309.483 184.86L241.117 174.418L239.336 181.914C248.729 189.829 259.365 198.235 260.787 198.379C260.931 198.381 261.071 198.43 261.185 198.519C261.299 198.607 261.381 198.73 261.42 198.87C261.551 199.564 261.611 199.852 230.087 213.478C214.719 220.112 199.137 226.734 199.017 226.794L20.3407 300.185Z" fill="#231F20"/>
<path d="M11.7488 233.523L256.975 187.434L240.639 173.76L337.458 177.04L293.649 225.788L280.504 211.682L19.6597 299.813L11.7488 233.523Z" fill="white"/>
<path d="M19.6595 300.412C19.5453 300.41 19.4338 300.377 19.3368 300.317C19.2632 300.268 19.2006 300.205 19.1532 300.131C19.1058 300.056 19.0747 299.973 19.062 299.885L11.1511 233.595C11.1302 233.445 11.1684 233.292 11.2575 233.17C11.3466 233.047 11.4798 232.963 11.6291 232.937L255.612 187.075L240.256 174.215C240.161 174.135 240.092 174.028 240.06 173.908C240.028 173.788 240.034 173.661 240.077 173.544C240.117 173.423 240.197 173.32 240.303 173.25C240.41 173.18 240.536 173.149 240.663 173.161L337.458 176.442C337.573 176.442 337.685 176.477 337.781 176.54C337.876 176.604 337.951 176.695 337.996 176.801C338.038 176.906 338.051 177.022 338.032 177.134C338.013 177.246 337.963 177.351 337.888 177.436L294.079 226.183C294.025 226.248 293.957 226.299 293.881 226.334C293.804 226.37 293.721 226.388 293.637 226.387C293.554 226.388 293.472 226.372 293.396 226.339C293.319 226.306 293.251 226.257 293.195 226.195L280.325 212.377L19.8507 300.34C19.7921 300.376 19.7272 300.401 19.6595 300.412ZM12.4058 234.003L20.1614 299.011L280.313 211.12C280.423 211.084 280.54 211.08 280.652 211.107C280.763 211.135 280.865 211.193 280.946 211.275L293.637 224.902L336.131 177.591L242.336 174.418L257.333 186.967C257.419 187.041 257.483 187.137 257.517 187.245C257.551 187.353 257.553 187.469 257.524 187.578C257.495 187.688 257.437 187.788 257.354 187.866C257.272 187.944 257.169 187.998 257.058 188.021L12.4058 234.003Z" fill="#231F20"/>
<path d="M106.089 257.876C132.517 253.326 153.19 245.262 152.265 239.865C151.339 234.469 129.165 233.783 102.738 238.333C76.3099 242.883 55.6359 250.947 56.5619 256.344C57.4869 261.74 79.6609 262.426 106.089 257.876Z" fill="#E6E7E8"/>
<path d="M99.897 189.539C92.962 188.555 88.596 184.775 88.092 177.755C87.178 165.256 82.087 154.504 76.728 143.434C56.917 102.443 80.353 52.7165 131.308 56.7823C165.856 59.5457 188.835 84.4645 186.03 118.309C184.7 134.675 177.014 149.851 164.642 160.539C156.163 168.115 148.708 176.103 144.074 186.697C141.08 193.51 135.627 196.321 128.093 194.638C123.554 193.573 118.936 192.954 114.349 192.144C109.574 191.271 104.735 190.222 99.897 189.539Z" fill="#FCDB39"/>
<path d="M132.254 195.114C130.786 195.104 129.323 194.924 127.896 194.576C124.738 193.865 121.58 193.327 118.422 192.822C117.001 192.584 115.595 192.363 114.19 192.11L109.642 191.272C106.389 190.672 103.042 190.039 99.7411 189.581C92.1941 188.522 87.7411 184.111 87.2351 177.124C86.3191 164.573 81.0451 153.744 75.9451 143.263C65.4601 121.749 66.5971 97.1508 78.9141 79.0666C90.2991 62.3258 108.916 54.0898 131.386 55.8761C149.134 57.2831 164.436 64.5864 174.463 76.4266C183.937 87.6029 188.264 101.973 186.937 117.97C185.526 134.444 177.727 149.708 165.209 160.494C157.867 167.007 149.703 175.18 144.808 186.261C142.234 192.11 137.939 195.114 132.254 195.114ZM99.9311 188.016C103.263 188.49 106.642 189.107 109.895 189.723L114.427 190.545C115.832 190.798 117.237 191.019 118.643 191.257C121.801 191.778 125.07 192.3 128.243 193.043C135.381 194.624 140.465 192.205 143.355 185.661C148.376 174.295 156.698 165.979 164.167 159.34C170.25 154.154 175.249 147.815 178.878 140.688C182.506 133.562 184.692 125.787 185.311 117.812C186.606 102.241 182.437 88.2669 173.215 77.4067C163.456 65.8985 148.534 58.8006 131.212 57.4253C109.358 55.7023 91.2301 63.7486 80.1611 79.9202C68.1761 97.5308 67.0861 121.527 77.3031 142.536C82.4821 153.143 87.8201 164.13 88.7671 176.982C89.2251 183.305 93.0781 187.036 99.9151 188.048L99.9311 188.016Z" fill="#231F20"/>
<path d="M93.441 202.447L130.663 209.058C133.996 209.65 137.177 207.422 137.768 204.082L138.11 202.145C138.701 198.805 136.478 195.618 133.145 195.026L95.922 188.416C92.59 187.824 89.409 190.051 88.818 193.391L88.475 195.329C87.885 198.668 90.108 201.855 93.441 202.447Z" fill="white"/>
<path d="M131.729 209.7C131.324 209.699 130.919 209.668 130.519 209.607L93.594 203.143C92.705 202.992 91.855 202.668 91.094 202.189C90.334 201.71 89.678 201.086 89.165 200.354C88.125 198.883 87.718 197.066 88.034 195.301L88.379 193.41C88.697 191.643 89.713 190.073 91.203 189.044C92.693 188.015 94.536 187.612 96.327 187.923L133.252 194.371C135.043 194.685 136.634 195.687 137.676 197.157C138.719 198.628 139.127 200.446 138.812 202.214L138.482 204.12C138.193 205.681 137.359 207.094 136.126 208.113C134.893 209.132 133.337 209.693 131.729 209.7ZM95.117 189.365C93.877 189.371 92.678 189.805 91.729 190.592C90.779 191.379 90.139 192.469 89.919 193.673L89.589 195.564C89.464 196.24 89.477 196.934 89.626 197.605C89.774 198.276 90.056 198.912 90.454 199.475C90.853 200.039 91.36 200.518 91.948 200.887C92.535 201.256 93.191 201.507 93.877 201.625L130.723 208.15C131.407 208.27 132.109 208.256 132.787 208.108C133.465 207.961 134.107 207.682 134.677 207.289C135.246 206.896 135.731 206.396 136.103 205.818C136.476 205.239 136.729 204.594 136.849 203.918L137.194 202.028C137.437 200.663 137.122 199.26 136.318 198.124C135.515 196.988 134.288 196.213 132.907 195.967L95.981 189.551C95.672 189.478 95.356 189.437 95.039 189.427L95.117 189.365Z" fill="#231F20"/>
<path d="M90.9679 216.491L128.191 223.101C131.523 223.693 134.704 221.465 135.295 218.126L135.638 216.188C136.228 212.848 134.005 209.661 130.672 209.069L93.4499 202.459C90.1169 201.867 86.9359 204.095 86.3449 207.434L86.0029 209.372C85.4119 212.712 87.6349 215.899 90.9679 216.491Z" fill="white"/>
<path d="M128.982 224.285C128.582 224.288 128.182 224.25 127.789 224.173L90.868 217.462C89.078 217.131 87.486 216.087 86.44 214.558C85.919 213.8 85.551 212.944 85.357 212.038C85.163 211.132 85.146 210.195 85.309 209.283L85.639 207.315C85.796 206.403 86.127 205.531 86.612 204.751C87.098 203.97 87.728 203.295 88.468 202.765C89.207 202.234 90.041 201.859 90.922 201.66C91.803 201.461 92.713 201.442 93.601 201.605L130.521 208.331C132.313 208.662 133.904 209.708 134.946 211.241C135.988 212.774 136.396 214.669 136.081 216.51L135.735 218.478C135.449 220.105 134.616 221.576 133.382 222.637C132.148 223.698 130.591 224.282 128.982 224.285ZM92.392 203.105C91.152 203.111 89.953 203.563 89.004 204.382C88.054 205.201 87.414 206.336 87.194 207.589L86.848 209.574C86.61 210.991 86.928 212.448 87.731 213.626C88.534 214.804 89.757 215.609 91.135 215.865L128.056 222.592C129.438 222.836 130.858 222.511 132.007 221.686C133.157 220.862 133.944 219.604 134.196 218.188L134.526 216.204C134.648 215.501 134.634 214.781 134.484 214.084C134.334 213.387 134.052 212.728 133.654 212.143C133.256 211.559 132.749 211.061 132.163 210.678C131.577 210.295 130.923 210.035 130.239 209.912L93.318 203.185C93.012 203.135 92.702 203.108 92.392 203.105Z" fill="#231F20"/>
<path d="M90.737 216.081C89.804 221.416 97.582 227.295 108.127 229.17C118.672 231.044 127.968 228.273 128.901 222.922L90.737 216.081Z" fill="white"/>
<path d="M114.736 230.667C112.48 230.656 110.229 230.457 108.009 230.071C103.192 229.351 98.608 227.59 94.601 224.923C91.038 222.387 89.353 219.469 89.83 216.704C89.868 216.506 89.987 216.33 90.16 216.216C90.333 216.101 90.546 216.057 90.752 216.093L129.162 222.616C129.367 222.66 129.548 222.774 129.671 222.937C129.73 223.018 129.772 223.11 129.794 223.207C129.816 223.304 129.817 223.404 129.798 223.502C129.051 227.932 122.864 230.667 114.736 230.667ZM91.372 217.743C91.372 219.683 92.852 221.776 95.539 223.701C99.347 226.22 103.696 227.885 108.263 228.574C117.695 230.178 126.379 228.085 128.017 223.991L91.372 217.743Z" fill="#231F20"/>
<path d="M124.338 185.998C125.744 170.901 127.007 155.313 133.417 141.342C136.198 135.284 140.482 127.387 145.821 123.168C150.488 119.489 158.976 121.361 161.629 126.721C162.421 128.564 162.73 130.575 162.529 132.568C162.328 134.561 161.622 136.472 160.478 138.123C158.13 141.403 154.948 144.008 151.255 145.671C143.549 149.369 134.928 150.773 126.435 149.712C117.941 148.65 109.94 145.17 103.399 139.692C99.0861 136.175 95.8851 131.501 94.1761 126.229C93.3551 123.593 93.1761 120.801 93.6541 118.083C94.1321 115.365 95.2531 112.798 96.9251 110.593C100.825 105.836 105.716 110.197 108.114 114.034C113.373 122.28 112.414 134.126 111.854 143.419C110.926 156.59 108.239 169.58 103.862 182.049" fill="#FCDB39"/>
<path d="M124.36 186.909C124.153 186.889 123.963 186.788 123.828 186.628C123.694 186.467 123.626 186.26 123.639 186.05L123.78 184.618C124.798 173.339 125.832 161.741 129.043 150.78C123.412 150.402 117.901 148.951 112.799 146.5C111.695 158.74 109.128 170.797 105.155 182.407C105.087 182.604 104.946 182.767 104.761 182.859C104.577 182.951 104.364 182.966 104.168 182.9C103.973 182.831 103.812 182.688 103.719 182.501C103.626 182.315 103.607 182.098 103.667 181.898C107.676 170.212 110.239 158.065 111.296 145.736C108.487 144.217 105.859 142.376 103.463 140.248C99.1211 136.627 95.9011 131.81 94.1901 126.375C93.3511 123.608 93.1711 120.679 93.6641 117.827C94.1571 114.976 95.3091 112.284 97.0251 109.973C97.5521 109.211 98.2581 108.596 99.0791 108.182C99.8991 107.768 100.809 107.568 101.725 107.602C105.531 107.841 108.507 112.168 109.337 113.489C114.397 121.65 113.723 133.089 113.175 142.268V143.446C113.175 143.891 113.175 144.352 113.175 144.798C118.35 147.39 123.987 148.894 129.748 149.221C130.625 146.411 131.671 143.659 132.881 140.98C136.844 132.118 141.011 125.882 145.256 122.461C146.556 121.503 148.049 120.847 149.627 120.539C151.205 120.231 152.83 120.279 154.388 120.68C155.903 121.048 157.323 121.737 158.557 122.702C159.791 123.667 160.81 124.886 161.547 126.28C162.397 128.251 162.736 130.41 162.53 132.552C162.324 134.694 161.581 136.747 160.372 138.514C157.991 141.94 154.744 144.649 150.973 146.357C144.616 149.574 137.566 151.122 130.469 150.859C127.21 161.789 126.161 173.434 125.143 184.762L125.017 186.193C125.005 186.371 124.933 186.539 124.813 186.669C124.693 186.8 124.533 186.884 124.36 186.909ZM131.064 149.284C137.76 149.462 144.396 147.971 150.394 144.941C153.89 143.346 156.902 140.83 159.119 137.655C160.167 136.114 160.815 134.329 161.004 132.466C161.193 130.603 160.916 128.721 160.199 126.996C159.494 125.8 158.558 124.762 157.447 123.945C156.335 123.127 155.072 122.547 153.734 122.239C152.396 121.932 151.01 121.903 149.661 122.154C148.311 122.405 147.026 122.932 145.882 123.702C141.841 126.884 137.831 133.009 133.962 141.648C132.852 144.134 131.884 146.684 131.064 149.284ZM101.302 109.177C100.679 109.212 100.072 109.392 99.5281 109.704C98.9851 110.016 98.5201 110.451 98.1691 110.975C96.6141 113.091 95.5741 115.55 95.1331 118.151C94.6921 120.753 94.8631 123.424 95.6311 125.946C97.2721 131.08 100.327 135.629 104.435 139.055C106.579 140.957 108.922 142.616 111.421 144.002C111.421 143.78 111.421 143.573 111.421 143.35L111.499 142.173C112.032 133.216 112.69 122.064 107.881 114.348C106.393 111.946 103.933 109.336 101.505 109.193L101.302 109.177Z" fill="#2B2B2B"/>
<path d="M178.501 14.8902C178.501 14.8902 157.588 12.0044 151.972 -0.28125L137.716 18.3867C137.716 18.3867 148.1 37.6654 166.396 35.1508L178.501 14.8902Z" fill="white"/>
<path d="M163.181 35.9768C146.726 35.9768 137.285 18.8535 137.19 18.6619C137.128 18.5655 137.095 18.4532 137.095 18.3386C137.095 18.224 137.128 18.1118 137.19 18.0153L151.494 -0.652688C151.559 -0.733638 151.644 -0.796878 151.74 -0.836628C151.836 -0.876368 151.94 -0.891358 152.044 -0.880208C152.146 -0.866588 152.243 -0.827719 152.326 -0.767099C152.41 -0.706479 152.477 -0.626009 152.522 -0.532949C157.923 11.3097 178.37 14.2673 178.573 14.3033C178.67 14.3129 178.763 14.3478 178.843 14.4045C178.922 14.4612 178.986 14.5378 179.027 14.6266C179.074 14.715 179.098 14.8137 179.098 14.914C179.098 15.0142 179.074 15.1129 179.027 15.2013L166.909 35.4979C166.864 35.575 166.801 35.6409 166.727 35.6906C166.653 35.7403 166.568 35.7727 166.479 35.7852C165.385 35.9183 164.283 35.9823 163.181 35.9768ZM138.433 18.4224C139.902 20.9371 149.845 36.6115 166.037 34.6118L177.521 15.345C173.518 14.6505 157.409 11.2857 151.864 0.844101L138.433 18.4224Z" fill="#D1D3D4"/>
<path d="M39.1142 119.324C39.1142 119.324 19.2653 108.392 0.205078 121.085L7.93668 147.189C7.93668 147.189 25.4912 134.017 39.1142 137.501V119.324Z" fill="white"/>
<path d="M7.93663 147.787C7.87343 147.799 7.80863 147.799 7.74543 147.787C7.65483 147.757 7.57273 147.705 7.50623 147.636C7.43973 147.567 7.39063 147.484 7.36303 147.392L-0.356672 121.288C-0.397872 121.166 -0.396669 121.033 -0.353269 120.911C-0.309869 120.789 -0.226869 120.686 -0.117669 120.617C19.0023 107.877 39.1978 118.725 39.401 118.845C39.4952 118.894 39.5741 118.968 39.6289 119.059C39.6838 119.15 39.7124 119.254 39.7117 119.36V137.489C39.7098 137.58 39.6874 137.669 39.6459 137.75C39.6045 137.831 39.5453 137.902 39.4727 137.956C39.4017 138.014 39.3181 138.054 39.2288 138.072C39.1394 138.091 39.0468 138.088 38.9588 138.064C25.8138 134.687 8.46243 147.524 8.29513 147.643C8.19193 147.725 8.06743 147.775 7.93663 147.787ZM0.910029 121.336L8.27123 146.207C11.6411 143.812 26.2918 134.136 38.5167 136.747V119.695C35.9474 118.414 18.0463 110.212 0.910029 121.336Z" fill="#D1D3D4"/>
<path d="M35.7919 61.7876C35.7919 61.7876 35.6724 59.6442 41.7669 59.2011C45.4057 58.9464 49.0079 60.0656 51.8646 62.3384L35.7919 83.1378C35.7919 83.1378 32.3144 66.3857 35.7919 61.7876Z" fill="white"/>
<path d="M35.7921 83.7366H35.6607C35.549 83.7133 35.4465 83.6579 35.3658 83.577C35.2851 83.4962 35.2298 83.3935 35.2066 83.2816C35.0632 82.5871 31.7769 66.5175 35.2066 61.584C35.3261 60.8776 36.1745 59.0335 41.6835 58.6264C45.4825 58.3467 49.2457 59.5237 52.2114 61.9193C52.3259 62.0191 52.3983 62.1587 52.4138 62.3099C52.4293 62.4611 52.3869 62.6126 52.2951 62.7336L36.2582 83.4971C36.2057 83.572 36.1359 83.6329 36.0547 83.6746C35.9735 83.7163 35.8834 83.7376 35.7921 83.7366ZM42.7709 59.7879C42.4405 59.7703 42.1094 59.7703 41.7791 59.7879C37.4532 60.0992 36.4255 61.3326 36.3896 61.7756C36.3924 61.9056 36.3502 62.0325 36.2701 62.1349C33.5336 65.7272 35.4097 77.7015 36.1267 81.701L50.9925 62.4342C48.5926 60.7138 45.7216 59.7772 42.7709 59.752V59.7879Z" fill="#D1D3D4"/>
<path d="M35.792 61.7876L26.0288 81.7848C28.8731 86.5126 32.9567 90.368 37.8354 92.933L47.3954 74.9714C47.3954 74.9714 37.1304 70.5169 35.792 61.7876Z" fill="white"/>
<path d="M37.8353 93.532C37.7354 93.531 37.6372 93.506 37.5486 93.46C32.5616 90.85 28.3926 86.909 25.503 82.0721C25.4617 81.9861 25.4402 81.892 25.4402 81.7966C25.4402 81.7013 25.4617 81.6071 25.503 81.5212L35.2661 61.5241C35.3207 61.4093 35.4104 61.315 35.5221 61.2547C35.6338 61.1944 35.7618 61.1713 35.8875 61.1888C36.0146 61.206 36.1325 61.2645 36.2232 61.3554C36.3138 61.4462 36.3722 61.5644 36.3894 61.6917C37.668 69.9899 47.5387 74.3965 47.6463 74.4444C47.7205 74.4778 47.7872 74.5257 47.8427 74.5853C47.8981 74.645 47.941 74.7151 47.9689 74.7916C48.0289 74.9456 48.0289 75.1166 47.9689 75.2706L38.409 93.232C38.3521 93.332 38.2678 93.413 38.1661 93.466C38.0644 93.519 37.9495 93.542 37.8353 93.532ZM26.7099 81.7607C29.405 86.077 33.1459 89.6401 37.5844 92.119L46.5708 75.2227C44.4796 74.1929 37.5605 70.3132 35.5768 63.5477L26.7099 81.7607Z" fill="#D1D3D4"/>
<path d="M208.362 156.289C208.362 156.289 206.916 159.881 201.67 162.875C196.424 165.869 188.609 162.875 188.609 162.875L190.556 179.962C190.556 179.962 197.392 183.1 206.964 178.765C216.536 174.43 216.918 169.964 216.918 169.964L208.362 156.289Z" fill="white"/>
<path d="M196.89 181.675C194.642 181.715 192.408 181.308 190.317 180.477C190.224 180.433 190.143 180.366 190.082 180.283C190.022 180.199 189.983 180.101 189.971 179.998L188.011 162.899C188.002 162.797 188.018 162.695 188.058 162.601C188.097 162.507 188.159 162.424 188.238 162.36C188.321 162.297 188.418 162.257 188.52 162.242C188.623 162.228 188.727 162.239 188.824 162.276C188.895 162.276 196.436 165.15 201.371 162.276C206.307 159.402 207.788 156.026 207.8 155.99C207.845 155.89 207.914 155.805 208.003 155.742C208.091 155.679 208.194 155.64 208.302 155.63C208.412 155.617 208.524 155.636 208.624 155.685C208.724 155.734 208.807 155.81 208.864 155.906L217.432 169.605C217.495 169.713 217.524 169.838 217.516 169.964C217.516 170.167 216.978 174.873 207.203 179.268C203.975 180.796 200.459 181.617 196.89 181.675ZM191.118 179.543C192.516 180.058 198.647 181.878 206.653 178.25C214.66 174.622 216.022 170.946 216.213 170.107L208.326 157.486C206.709 159.962 204.499 161.991 201.897 163.39C197.476 165.916 191.501 164.456 189.242 163.737L191.118 179.543Z" fill="#D1D3D4"/>
<path d="M275.856 108.248C271.516 111.501 268.427 116.152 267.108 121.42L292.442 121.671C292.442 121.671 279.488 108.308 275.856 108.248Z" fill="white"/>
<path d="M292.442 122.246L267.108 121.994C267.018 121.996 266.929 121.976 266.848 121.936C266.767 121.897 266.697 121.839 266.642 121.767C266.585 121.698 266.545 121.616 266.526 121.529C266.507 121.441 266.51 121.35 266.535 121.264C267.861 115.847 271.041 111.067 275.521 107.757C275.621 107.693 275.737 107.656 275.856 107.649C279.632 107.721 291.534 119.851 292.872 121.228C292.955 121.312 293.011 121.42 293.033 121.536C293.055 121.652 293.042 121.772 292.996 121.881C292.95 121.99 292.873 122.082 292.774 122.147C292.676 122.212 292.56 122.247 292.442 122.246ZM267.885 120.809L291.008 121.036C285.941 115.935 278.544 109.23 276.023 108.859C272.114 111.876 269.264 116.061 267.885 120.809Z" fill="#D1D3D4"/>
<path d="M306.794 124.904C306.794 124.904 312.709 113.672 297.019 104.548L275.856 108.248C275.856 108.248 295.693 114.055 283.755 132.963L306.794 124.904Z" fill="white"/>
<path d="M283.755 133.562C283.665 133.56 283.577 133.539 283.496 133.5C283.416 133.461 283.345 133.404 283.288 133.334C283.218 133.232 283.18 133.111 283.18 132.987C283.18 132.863 283.218 132.742 283.288 132.64C286.873 126.988 287.877 121.994 286.3 117.815C283.838 111.277 275.796 108.847 275.724 108.823C275.646 108.819 275.569 108.799 275.498 108.766C275.427 108.732 275.363 108.684 275.31 108.626C275.204 108.508 275.149 108.353 275.157 108.194C275.16 108.115 275.18 108.038 275.213 107.967C275.247 107.896 275.294 107.832 275.353 107.779C275.411 107.727 275.479 107.686 275.553 107.659C275.627 107.633 275.705 107.621 275.784 107.625L296.959 103.913C297.099 103.89 297.242 103.915 297.366 103.985C305.731 108.775 307.965 114.295 308.419 118.043C308.749 120.463 308.38 122.927 307.356 125.144C307.324 125.211 307.279 125.271 307.224 125.32C307.168 125.37 307.103 125.407 307.033 125.431L283.994 133.49C283.92 133.53 283.838 133.554 283.755 133.562ZM278.09 108.415C280.827 109.613 285.499 112.355 287.375 117.336C288.953 121.527 288.2 126.389 285.129 131.801L306.364 124.377C307.081 122.809 310.702 113.253 296.911 105.123L278.09 108.415Z" fill="#D1D3D4"/>
<path d="M71.6849 179.521C68.2359 177.145 64.0909 175.998 59.9139 176.264C53.1862 176.827 51.0471 173.235 51.0471 173.235L47.8684 185.88C47.8684 185.88 51.4534 190.322 54.6441 190.43C57.8349 190.538 60.3559 188.514 65.5189 190.43L71.6849 179.521Z" fill="white"/>
<path d="M54.5402 190.738H54.2653C50.8954 190.619 47.2148 186.164 47.0953 185.949C47.0356 185.876 46.9936 185.791 46.9729 185.7C46.9521 185.608 46.9531 185.513 46.9758 185.422L50.1545 172.777C50.1807 172.661 50.2418 172.557 50.3295 172.478C50.4172 172.398 50.5272 172.348 50.6444 172.334C50.7603 172.311 50.8804 172.325 50.9876 172.375C51.0949 172.424 51.1839 172.506 51.242 172.609C51.3256 172.741 53.3213 175.878 59.535 175.363C63.861 175.067 68.16 176.254 71.724 178.728C71.84 178.816 71.921 178.943 71.952 179.086C71.983 179.229 71.961 179.378 71.892 179.506L65.713 190.415C65.643 190.536 65.533 190.628 65.402 190.677C65.271 190.725 65.128 190.725 64.996 190.679C62.608 189.765 59.992 189.64 57.528 190.319C56.549 190.563 55.548 190.703 54.5402 190.738ZM48.1708 185.434C48.9356 186.308 51.8514 189.457 54.3012 189.541C55.296 189.533 56.287 189.409 57.253 189.17C59.766 188.496 62.422 188.579 64.889 189.409L70.541 179.423C67.288 177.34 63.461 176.342 59.607 176.573C54.8269 176.98 52.1741 175.375 50.991 174.178L48.1708 185.434Z" fill="#D1D3D4"/>
</g>
<defs>
<clipPath id="clip0">
<rect width="338" height="314" fill="white"/>
</clipPath>
</defs>
</svg>
