<svg width="1632" height="1145" viewBox="0 0 1632 1145" fill="none" xmlns="http://www.w3.org/2000/svg">
<rect x="1019" y="1116.72" width="876.716" height="9" transform="rotate(-90 1019 1116.72)" fill="#09BC8A"/>
<rect x="1010" y="1120.19" width="880.188" height="9" transform="rotate(-90 1010 1120.19)" fill="#ED6A5E"/>
<path d="M1632 1120.19L1019 1120.19V1112.38L1632 1112.38V1120.19Z" fill="#ED6A5E"/>
<path d="M1632 1128L1010 1128V1120.19L1632 1120.19V1128Z" fill="#09BC8A"/>
<path d="M1061.3 904.602L1068.45 901.266L1072.7 907.346" stroke="#2B2B2B" stroke-opacity="0.52" stroke-width="3"/>
<path d="M1069.2 920.137L1062.04 923.473L1057.8 917.394" stroke="#2B2B2B" stroke-opacity="0.52" stroke-width="3"/>
<path d="M1074.44 909.042L1078.09 915.59L1071.44 919.473" stroke="#2B2B2B" stroke-opacity="0.52" stroke-width="3"/>
<path d="M1055.98 915.863L1052.33 909.316L1058.98 905.432" stroke="#2B2B2B" stroke-opacity="0.52" stroke-width="3"/>
<ellipse rx="4.70901" ry="4.3654" transform="matrix(0.968101 0.250561 -0.295447 0.955359 1065.39 912.861)" fill="#2B2B2B" fill-opacity="0.52"/>
<path d="M924.677 1058.82L935.7 1059.69L936.679 1070.03" stroke="#2B2B2B" stroke-opacity="0.52" stroke-width="3"/>
<path d="M923.586 1083.2L912.563 1082.32L911.584 1071.99" stroke="#2B2B2B" stroke-opacity="0.52" stroke-width="3"/>
<path d="M937.634 1073.3L937.561 1083.79L926.783 1083.94" stroke="#2B2B2B" stroke-opacity="0.52" stroke-width="3"/>
<path d="M910.429 1068.87L910.502 1058.38L921.28 1058.23" stroke="#2B2B2B" stroke-opacity="0.52" stroke-width="3"/>
<ellipse rx="6.59445" ry="6.11325" transform="matrix(0.719019 0.69499 -0.727774 0.685817 923.971 1071.71)" fill="#2B2B2B" fill-opacity="0.52"/>
<path d="M943.615 1101.37L987.13 1077.96L1055.19 1114.6C1056.49 1115.62 1058.54 1117.96 1056.31 1119.18L1014.47 1141.07C1013.16 1141.92 1009.78 1143.1 1006.66 1141.07L942.405 1106.24C941.29 1105.39 940.044 1103.41 943.615 1101.37Z" fill="#2B2B2B" stroke="#2A2A2A"/>
<path d="M979.155 1109.58L971.422 1114.22C970.317 1114.73 970.096 1115.46 971.422 1116.28L989.649 1126.07C990.754 1126.58 991.859 1127.62 993.516 1126.58L1002.35 1120.92C1002.91 1120.4 1005 1119.58 1002.35 1118.34L984.126 1108.55C983.573 1108.21 981.806 1107.93 979.155 1109.58Z" fill="#F3FFFF" stroke="#2B2B2B"/>
<path d="M981.845 1085.17L965.081 1094.41C964.709 1094.58 963.964 1095.43 966.199 1096.46L1024.31 1127.74C1025.99 1128.76 1026.55 1129.28 1029.34 1128.25L1043.87 1120.05C1045.17 1119.36 1047 1117.58 1043.87 1115.94L986.874 1085.17C985.197 1084.15 984.638 1083.64 981.845 1085.17Z" fill="#FCDB39" stroke="#2B2B2B"/>
<path d="M986.111 1072.11V1029.63C986.111 1029.07 986.6 1028.29 988.557 1029.63L1055.83 1065.4C1056.44 1065.96 1058.27 1066.07 1058.27 1068.75V1110.67C1058.27 1111.79 1058.27 1116.31 1056.02 1115.28L1020.5 1097.28L987.239 1077.74C986.627 1077.18 986.111 1076.13 986.111 1072.11Z" fill="#2B2B2B" stroke="black"/>
<path d="M989.037 1072.65V1034.03C989.037 1033.52 989.486 1032.81 991.285 1034.03L1053.1 1066.55C1053.66 1067.06 1055.35 1067.16 1055.35 1069.6V1107.71C1055.35 1108.73 1055.35 1111.78 1053.66 1110.76L991.285 1077.22C990.723 1076.71 989.037 1076.31 989.037 1072.65Z" fill="#F7B4A7" stroke="black"/>
<path d="M990.674 1028.11C990.113 1027.94 989.33 1027.81 987.086 1029.03L1055.74 1065.37C1056.5 1065.9 1057.98 1066.29 1057.98 1067.92V1113.11L1057.61 1114.12L1056.94 1115.13L1056.96 1115.14C1058.09 1115.48 1060.23 1116.13 1060.23 1112.84V1067.41C1060.23 1066.59 1060.23 1064.55 1057.98 1063.33L990.674 1028.11Z" fill="#2B2B2B" stroke="black"/>
<path d="M1001.7 1089.09C1000.56 1088.59 998.395 1087.09 998.851 1085.1L1038.77 1106.07C1038.01 1106.4 1036.15 1106.86 1034.78 1106.07L1001.7 1089.09Z" fill="#C4C4C4" stroke="black"/>
<path d="M1006.94 1143.51L940.87 1106.95C939.704 1106.23 940.493 1104.41 941.239 1103.42C941.316 1103.27 941.42 1103.16 941.531 1103.07C941.438 1103.17 941.339 1103.28 941.239 1103.42C940.958 1103.94 941.03 1104.85 942.412 1106.13L1007.38 1141.87C1008.34 1142.28 1010.86 1142.81 1013.33 1141.67L1056.5 1118.59C1056.86 1118.25 1057.11 1117.08 1055.17 1115.12C1055.47 1115.19 1056.19 1115.28 1056.72 1115.12L1057.16 1115.32C1057.89 1116.34 1059.14 1118.63 1057.38 1119.61L1014.43 1142.69C1012.89 1143.44 1009.23 1144.65 1006.94 1143.51Z" fill="#2A2A2A"/>
<path d="M942.412 1102.05C942.039 1102.45 941.78 1102.7 941.531 1103.07M941.531 1103.07C940.739 1103.91 939.549 1106.13 940.87 1106.95L1006.94 1143.51C1009.23 1144.65 1012.89 1143.44 1014.43 1142.69L1057.38 1119.61C1059.14 1118.63 1057.89 1116.34 1057.16 1115.32L1056.72 1115.12C1056.19 1115.28 1055.47 1115.19 1055.17 1115.12C1057.11 1117.08 1056.86 1118.25 1056.5 1118.59L1013.33 1141.67C1010.86 1142.81 1008.34 1142.28 1007.38 1141.87L942.412 1106.13C940.65 1104.5 941.017 1103.48 941.531 1103.07Z" stroke="black"/>
<path d="M1098.44 1046.89L1085.27 1033.88L1097.92 1020.86" stroke="#2B2B2B" stroke-opacity="0.52" stroke-width="3"/>
<path d="M1087.38 1046.89L1074.21 1033.88L1086.85 1020.86" stroke="#2B2B2B" stroke-opacity="0.52" stroke-width="3"/>
<path d="M1075.79 1046.89L1062.61 1033.88L1075.26 1020.86" stroke="#2B2B2B" stroke-opacity="0.52" stroke-width="3"/>
<path d="M945.829 929.029L932.657 916.015L945.302 903" stroke="#2B2B2B" stroke-opacity="0.52" stroke-width="3"/>
<path d="M934.765 929.029L921.592 916.015L934.238 903" stroke="#2B2B2B" stroke-opacity="0.52" stroke-width="3"/>
<path d="M923.173 929.029L910 916.015L922.646 903" stroke="#2B2B2B" stroke-opacity="0.52" stroke-width="3"/>
<path fill-rule="evenodd" clip-rule="evenodd" d="M992.821 958.809C992.487 960.498 992.52 964.246 995.327 965.72L1043.94 991.982L1050.17 1007.25L1056.97 998.432C1061.48 1000.27 1069 1001.66 1069 995.207V981.846V967.102C1068.83 962.802 1067 952.727 1058.98 948.673L1001.92 918.399C1000.44 917.759 998.036 917.898 996.073 918.748L996.712 918.308L990.324 921.232L993.518 920.508L993.851 920.279C993.215 920.986 992.821 921.853 992.821 922.872V958.809ZM1044.65 1009.5L1049.89 1007.5L1048.46 1004L1044.65 1009.5Z" fill="#2B2B2B"/>
<path d="M995.327 965.72L995.446 965.5L995.443 965.499L995.327 965.72ZM992.821 958.809L993.066 958.857L993.071 958.833V958.809H992.821ZM1043.94 991.982L1044.17 991.887L1044.14 991.804L1044.06 991.762L1043.94 991.982ZM1050.17 1007.25L1049.94 1007.34L1050.1 1007.74L1050.37 1007.4L1050.17 1007.25ZM1056.97 998.432L1057.07 998.201L1056.89 998.129L1056.77 998.279L1056.97 998.432ZM1069 967.102H1069.25L1069.25 967.093L1069 967.102ZM1058.98 948.673L1058.86 948.894L1058.86 948.896L1058.98 948.673ZM1001.92 918.399L1002.04 918.179L1002.03 918.174L1002.02 918.17L1001.92 918.399ZM996.073 918.748L995.931 918.543L996.172 918.978L996.073 918.748ZM996.712 918.308L996.854 918.514L996.608 918.081L996.712 918.308ZM990.324 921.232L990.22 921.004L990.379 921.475L990.324 921.232ZM993.518 920.508L993.573 920.752L993.62 920.742L993.66 920.714L993.518 920.508ZM993.851 920.279L994.037 920.446L993.709 920.073L993.851 920.279ZM1049.89 1007.5L1049.98 1007.73L1050.22 1007.64L1050.12 1007.41L1049.89 1007.5ZM1044.65 1009.5L1044.44 1009.36L1043.98 1010.02L1044.74 1009.73L1044.65 1009.5ZM1048.46 1004L1048.69 1003.91L1048.52 1003.48L1048.25 1003.86L1048.46 1004ZM995.443 965.499C994.125 964.806 993.447 963.576 993.14 962.287C992.832 960.996 992.905 959.674 993.066 958.857L992.576 958.76C992.403 959.634 992.326 961.03 992.653 962.403C992.981 963.779 993.723 965.16 995.211 965.941L995.443 965.499ZM1044.06 991.762L995.446 965.5L995.208 965.94L1043.82 992.202L1044.06 991.762ZM1050.4 1007.15L1044.17 991.887L1043.71 992.076L1049.94 1007.34L1050.4 1007.15ZM1056.77 998.279L1049.97 1007.1L1050.37 1007.4L1057.17 998.585L1056.77 998.279ZM1068.75 995.207C1068.75 996.769 1068.3 997.82 1067.58 998.511C1066.86 999.207 1065.84 999.568 1064.65 999.68C1062.27 999.905 1059.31 999.116 1057.07 998.201L1056.88 998.663C1059.15 999.591 1062.2 1000.41 1064.7 1000.18C1065.96 1000.06 1067.1 999.673 1067.93 998.871C1068.76 998.064 1069.25 996.87 1069.25 995.207H1068.75ZM1068.75 981.846V995.207H1069.25V981.846H1068.75ZM1068.75 967.102V981.846H1069.25V967.102H1068.75ZM1058.86 948.896C1062.8 950.888 1065.23 954.362 1066.7 957.891C1068.17 961.421 1068.67 964.984 1068.75 967.112L1069.25 967.093C1069.17 964.92 1068.66 961.296 1067.16 957.699C1065.67 954.102 1063.17 950.513 1059.09 948.45L1058.86 948.896ZM1001.81 918.62L1058.86 948.894L1059.09 948.452L1002.04 918.179L1001.81 918.62ZM996.172 918.978C998.092 918.146 1000.42 918.024 1001.82 918.629L1002.02 918.17C1000.45 917.495 997.979 917.65 995.973 918.519L996.172 918.978ZM996.57 918.102L995.931 918.543L996.214 918.954L996.854 918.514L996.57 918.102ZM990.428 921.459L996.816 918.535L996.608 918.081L990.22 921.004L990.428 921.459ZM993.463 920.265L990.268 920.988L990.379 921.475L993.573 920.752L993.463 920.265ZM993.709 920.073L993.376 920.302L993.66 920.714L993.993 920.485L993.709 920.073ZM993.071 922.872C993.071 921.923 993.437 921.114 994.037 920.446L993.665 920.112C992.994 920.858 992.571 921.783 992.571 922.872H993.071ZM993.071 958.809V922.872H992.571V958.809H993.071ZM1049.8 1007.27L1044.56 1009.27L1044.74 1009.73L1049.98 1007.73L1049.8 1007.27ZM1048.23 1004.09L1049.66 1007.59L1050.12 1007.41L1048.69 1003.91L1048.23 1004.09ZM1044.85 1009.64L1048.66 1004.14L1048.25 1003.86L1044.44 1009.36L1044.85 1009.64Z" fill="black"/>
<path d="M987.096 960.718C986.761 962.396 986.795 966.119 989.605 967.584L1038.29 993.676L1044.31 1008.78L1051.33 1000.08C1055.85 1001.92 1063.38 1003.29 1063.38 996.88V983.605V968.957C1063.21 964.685 1061.37 954.676 1053.34 950.647L996.21 920.57C993.348 919.347 987.096 920.985 987.096 925.013V960.718Z" fill="#F7B4A7" stroke="black"/>
<path d="M1000.54 940.382L995.443 938.827L997.58 939.826L1000.54 940.382Z" fill="#00145B" stroke="black" stroke-width="0.1"/>
<path fill-rule="evenodd" clip-rule="evenodd" d="M936.019 979.208V1002.64C936.019 1007.05 939.039 1007.23 940.549 1007.23C944.173 1007.23 946.066 1005.53 946.066 1005.53L950.544 1011.35L953.155 1015L955.538 1014.5L952.315 1010.21L954.641 1001.72L994.401 980.587C999.233 977.646 999.77 973.542 999.434 971.858V944.293C999.434 937.677 993.395 937.555 990.375 938.32L941.555 964.048C936.724 966.62 935.851 975.227 936.019 979.208Z" fill="#2B2B2B"/>
<path d="M936.019 979.208H936.269L936.269 979.198L936.019 979.208ZM946.066 1005.53L946.264 1005.38L946.1 1005.17L945.899 1005.35L946.066 1005.53ZM950.544 1011.35L950.747 1011.2L950.742 1011.19L950.544 1011.35ZM953.155 1015L952.952 1015.15L953.047 1015.28L953.206 1015.24L953.155 1015ZM955.538 1014.5L955.589 1014.74L955.974 1014.66L955.737 1014.35L955.538 1014.5ZM952.315 1010.21L952.074 1010.15L952.042 1010.26L952.116 1010.36L952.315 1010.21ZM954.641 1001.72L954.524 1001.5L954.429 1001.55L954.4 1001.65L954.641 1001.72ZM994.401 980.587L994.518 980.807L994.525 980.804L994.531 980.8L994.401 980.587ZM999.434 971.858H999.184V971.882L999.189 971.907L999.434 971.858ZM990.375 938.32L990.313 938.078L990.285 938.085L990.258 938.099L990.375 938.32ZM941.555 964.048L941.439 963.827L941.438 963.827L941.555 964.048ZM936.269 1002.64V979.208H935.769V1002.64H936.269ZM940.549 1006.98C939.796 1006.98 938.729 1006.93 937.852 1006.38C936.997 1005.84 936.269 1004.78 936.269 1002.64H935.769C935.769 1004.91 936.551 1006.15 937.584 1006.8C938.594 1007.44 939.792 1007.48 940.549 1007.48V1006.98ZM946.066 1005.53C945.899 1005.35 945.899 1005.35 945.899 1005.35C945.899 1005.35 945.899 1005.35 945.899 1005.35C945.899 1005.35 945.899 1005.35 945.899 1005.35C945.899 1005.35 945.899 1005.35 945.899 1005.35C945.899 1005.35 945.898 1005.35 945.896 1005.35C945.894 1005.35 945.889 1005.36 945.883 1005.36C945.87 1005.37 945.85 1005.39 945.823 1005.41C945.768 1005.45 945.685 1005.52 945.573 1005.59C945.349 1005.75 945.011 1005.95 944.562 1006.16C943.664 1006.57 942.32 1006.98 940.549 1006.98V1007.48C942.401 1007.48 943.816 1007.05 944.771 1006.61C945.248 1006.39 945.61 1006.17 945.854 1006.01C945.976 1005.92 946.069 1005.85 946.133 1005.8C946.164 1005.78 946.188 1005.76 946.205 1005.74C946.213 1005.74 946.22 1005.73 946.225 1005.73C946.227 1005.73 946.229 1005.72 946.23 1005.72C946.231 1005.72 946.232 1005.72 946.232 1005.72C946.232 1005.72 946.232 1005.72 946.233 1005.72C946.233 1005.72 946.233 1005.72 946.233 1005.72C946.233 1005.72 946.233 1005.72 946.066 1005.53ZM950.742 1011.19L946.264 1005.38L945.868 1005.69L950.346 1011.5L950.742 1011.19ZM953.358 1014.85L950.747 1011.2L950.34 1011.49L952.952 1015.15L953.358 1014.85ZM955.486 1014.26L953.104 1014.76L953.206 1015.24L955.589 1014.74L955.486 1014.26ZM952.116 1010.36L955.338 1014.65L955.737 1014.35L952.515 1010.06L952.116 1010.36ZM954.4 1001.65L952.074 1010.15L952.557 1010.28L954.882 1001.79L954.4 1001.65ZM994.284 980.366L954.524 1001.5L954.759 1001.94L994.518 980.807L994.284 980.366ZM999.189 971.907C999.504 973.49 999.012 977.488 994.271 980.373L994.531 980.8C999.454 977.805 1000.03 973.595 999.679 971.809L999.189 971.907ZM999.184 944.293V971.858H999.684V944.293H999.184ZM990.436 938.563C991.917 938.187 994.123 938.036 995.943 938.77C996.848 939.136 997.654 939.718 998.235 940.599C998.816 941.48 999.184 942.678 999.184 944.293H999.684C999.684 942.6 999.297 941.302 998.652 940.323C998.006 939.344 997.113 938.703 996.13 938.307C994.176 937.518 991.852 937.688 990.313 938.078L990.436 938.563ZM941.672 964.269L990.491 938.542L990.258 938.099L941.439 963.827L941.672 964.269ZM936.269 979.198C936.186 977.227 936.361 974.106 937.154 971.165C937.95 968.213 939.351 965.505 941.673 964.268L941.438 963.827C938.928 965.164 937.477 968.045 936.671 971.035C935.862 974.035 935.685 977.208 935.769 979.219L936.269 979.198Z" fill="black"/>
<path d="M939.416 1003.57V980.663C939.246 976.771 940.132 968.358 945.042 965.843L994.648 940.695C997.716 939.947 1003.85 940.066 1003.85 946.533V973.478C1004.19 975.124 1003.65 979.136 998.739 982.01L958.338 1002.67L955.538 1013.5L949.625 1006.4C949.625 1006.4 947.701 1008.06 944.019 1008.06C942.485 1008.06 939.416 1007.88 939.416 1003.57Z" fill="#FCDB39" stroke="black"/>
<path d="M1050.84 1000.5L1044.65 1009L1049.89 1007.5L1054.18 1001.5L1050.84 1000.5Z" fill="#2A2A2A" stroke="black" stroke-width="0.5"/>
<rect x="1" width="1027" height="9" fill="#FCDB39"/>
<rect x="1" y="26" width="1008.93" height="9" fill="#ED6A5E"/>
<rect x="1010" y="240" width="214" height="9" transform="rotate(-90 1010 240)" fill="#1B6AE3"/>
<rect y="17" width="1019" height="9" fill="#1B6AE3"/>
<path d="M1019 240H1028V26L1019 17V240Z" fill="#ED6A5E"/>
</svg>
