<svg width="1632" height="1144" viewBox="0 0 1632 1144" fill="none" xmlns="http://www.w3.org/2000/svg">
<rect x="1019" y="914.789" width="605.789" height="9" transform="rotate(-90 1019 914.789)" fill="#09BC8A"/>
<rect x="1010" y="917.188" width="608.188" height="9" transform="rotate(-90 1010 917.188)" fill="#ED6A5E"/>
<path d="M1632 917.188L1019 917.188V909.376L1632 909.376V917.188Z" fill="#ED6A5E"/>
<path d="M1632 925L1010 925V917.188L1632 917.188V925Z" fill="#09BC8A"/>
<path d="M1061.3 701.602L1068.45 698.266L1072.7 704.346" stroke="#2B2B2B" stroke-opacity="0.52" stroke-width="3"/>
<path d="M1069.2 717.137L1062.04 720.473L1057.8 714.394" stroke="#2B2B2B" stroke-opacity="0.52" stroke-width="3"/>
<path d="M1074.44 706.042L1078.09 712.59L1071.44 716.473" stroke="#2B2B2B" stroke-opacity="0.52" stroke-width="3"/>
<path d="M1055.98 712.863L1052.33 706.316L1058.98 702.432" stroke="#2B2B2B" stroke-opacity="0.52" stroke-width="3"/>
<ellipse rx="4.70901" ry="4.3654" transform="matrix(0.968101 0.250561 -0.295447 0.955359 1065.39 709.861)" fill="#2B2B2B" fill-opacity="0.52"/>
<path d="M924.677 855.816L935.7 856.688L936.679 867.025" stroke="#2B2B2B" stroke-opacity="0.52" stroke-width="3"/>
<path d="M923.586 880.197L912.563 879.325L911.584 868.987" stroke="#2B2B2B" stroke-opacity="0.52" stroke-width="3"/>
<path d="M937.634 870.296L937.561 880.79L926.783 880.938" stroke="#2B2B2B" stroke-opacity="0.52" stroke-width="3"/>
<path d="M910.429 865.87L910.502 855.376L921.28 855.228" stroke="#2B2B2B" stroke-opacity="0.52" stroke-width="3"/>
<ellipse rx="6.59445" ry="6.11325" transform="matrix(0.719019 0.69499 -0.727774 0.685817 923.971 868.706)" fill="#2B2B2B" fill-opacity="0.52"/>
<path d="M943.615 898.37L987.13 874.959L1055.19 911.603C1056.49 912.621 1058.54 914.962 1056.31 916.183L1014.47 938.068C1013.16 938.916 1009.78 940.104 1006.66 938.068L942.405 903.238C941.29 902.389 940.044 900.406 943.615 898.37Z" fill="#2B2B2B" stroke="#2A2A2A"/>
<path d="M979.155 906.582L971.422 911.219C970.317 911.734 970.096 912.456 971.422 913.28L989.649 923.07C990.754 923.585 991.859 924.615 993.516 923.585L1002.35 917.917C1002.91 917.402 1005 916.578 1002.35 915.341L984.126 905.552C983.573 905.208 981.806 904.933 979.155 906.582Z" fill="#F3FFFF" stroke="#2B2B2B"/>
<path d="M981.845 882.175L965.081 891.406C964.709 891.577 963.964 892.431 966.199 893.457L1024.31 924.739C1025.99 925.764 1026.55 926.277 1029.34 925.251L1043.87 917.046C1045.17 916.362 1047 914.585 1043.87 912.944L986.874 882.175C985.197 881.149 984.638 880.637 981.845 882.175Z" fill="#FCDB39" stroke="#2B2B2B"/>
<path d="M986.111 869.108V826.633C986.111 826.074 986.6 825.291 988.557 826.633L1055.83 862.401C1056.44 862.96 1058.27 863.072 1058.27 865.754V907.67C1058.27 908.788 1058.27 913.306 1056.02 912.277L1020.5 894.28L987.239 874.741C986.627 874.182 986.111 873.132 986.111 869.108Z" fill="#2B2B2B" stroke="black"/>
<path d="M989.037 869.649V831.026C989.037 830.518 989.486 829.806 991.285 831.026L1053.1 863.55C1053.66 864.058 1055.35 864.16 1055.35 866.599V904.714C1055.35 905.73 1055.35 908.779 1053.66 907.763L991.285 874.222C990.723 873.714 989.037 873.307 989.037 869.649Z" fill="#F7B4A7" stroke="black"/>
<path d="M990.674 825.108C990.113 824.937 989.33 824.809 987.086 826.034L1055.74 862.369C1056.5 862.905 1057.98 863.288 1057.98 864.921V910.107L1057.61 911.12L1056.94 912.132L1056.96 912.138C1058.09 912.48 1060.23 913.128 1060.23 909.839V864.411C1060.23 863.592 1060.23 861.552 1057.98 860.327L990.674 825.108Z" fill="#2B2B2B" stroke="black"/>
<path d="M1001.7 886.09C1000.56 885.591 998.395 884.093 998.851 882.096L1038.77 903.066C1038.01 903.399 1036.15 903.865 1034.78 903.066L1001.7 886.09Z" fill="#C4C4C4" stroke="black"/>
<path d="M1006.94 940.507L940.87 903.948C939.704 903.227 940.493 901.41 941.239 900.417C941.316 900.272 941.42 900.156 941.531 900.068C941.438 900.166 941.339 900.284 941.239 900.417C940.958 900.945 941.03 901.849 942.412 903.131L1007.38 938.873C1008.34 939.281 1010.86 939.812 1013.33 938.669L1056.5 915.59C1056.86 915.249 1057.11 914.078 1055.17 912.118C1055.47 912.186 1056.19 912.281 1056.72 912.118L1057.16 912.322C1057.89 913.343 1059.14 915.631 1057.38 916.611L1014.43 939.69C1012.89 940.439 1009.23 941.65 1006.94 940.507Z" fill="#2A2A2A"/>
<path d="M942.412 899.046C942.039 899.455 941.78 899.702 941.531 900.068M941.531 900.068C940.739 900.905 939.549 903.131 940.87 903.948L1006.94 940.507C1009.23 941.65 1012.89 940.439 1014.43 939.69L1057.38 916.611C1059.14 915.631 1057.89 913.343 1057.16 912.322L1056.72 912.118C1056.19 912.281 1055.47 912.186 1055.17 912.118C1057.11 914.078 1056.86 915.249 1056.5 915.59L1013.33 938.669C1010.86 939.812 1008.34 939.281 1007.38 938.873L942.412 903.131C940.65 901.497 941.017 900.476 941.531 900.068Z" stroke="black"/>
<path d="M1098.44 843.891L1085.27 830.877L1097.92 817.862" stroke="#2B2B2B" stroke-opacity="0.52" stroke-width="3"/>
<path d="M1087.38 843.891L1074.21 830.877L1086.85 817.862" stroke="#2B2B2B" stroke-opacity="0.52" stroke-width="3"/>
<path d="M1075.79 843.891L1062.61 830.877L1075.26 817.862" stroke="#2B2B2B" stroke-opacity="0.52" stroke-width="3"/>
<path d="M945.829 726.029L932.657 713.015L945.302 700" stroke="#2B2B2B" stroke-opacity="0.52" stroke-width="3"/>
<path d="M934.765 726.029L921.592 713.015L934.238 700" stroke="#2B2B2B" stroke-opacity="0.52" stroke-width="3"/>
<path d="M923.173 726.029L910 713.015L922.646 700" stroke="#2B2B2B" stroke-opacity="0.52" stroke-width="3"/>
<path fill-rule="evenodd" clip-rule="evenodd" d="M992.821 755.809C992.487 757.498 992.52 761.246 995.327 762.72L1043.94 788.982L1050.17 804.248L1056.97 795.432C1061.48 797.275 1069 798.657 1069 792.207V778.846V764.102C1068.83 759.802 1067 749.727 1058.98 745.673L1001.92 715.399C1000.44 714.759 998.036 714.898 996.073 715.748L996.712 715.308L990.324 718.232L993.518 717.508L993.851 717.279C993.215 717.986 992.821 718.853 992.821 719.872V755.809ZM1044.65 806.5L1049.89 804.5L1048.46 801L1044.65 806.5Z" fill="#2B2B2B"/>
<path d="M995.327 762.72L995.446 762.5L995.443 762.499L995.327 762.72ZM992.821 755.809L993.066 755.857L993.071 755.833V755.809H992.821ZM1043.94 788.982L1044.17 788.887L1044.14 788.804L1044.06 788.762L1043.94 788.982ZM1050.17 804.248L1049.94 804.343L1050.1 804.745L1050.37 804.401L1050.17 804.248ZM1056.97 795.432L1057.07 795.201L1056.89 795.129L1056.77 795.279L1056.97 795.432ZM1069 764.102H1069.25L1069.25 764.093L1069 764.102ZM1058.98 745.673L1058.86 745.894L1058.86 745.896L1058.98 745.673ZM1001.92 715.399L1002.04 715.179L1002.03 715.174L1002.02 715.17L1001.92 715.399ZM996.073 715.748L995.931 715.543L996.172 715.978L996.073 715.748ZM996.712 715.308L996.854 715.514L996.608 715.081L996.712 715.308ZM990.324 718.232L990.22 718.004L990.379 718.475L990.324 718.232ZM993.518 717.508L993.573 717.752L993.62 717.742L993.66 717.714L993.518 717.508ZM993.851 717.279L994.037 717.446L993.709 717.073L993.851 717.279ZM1049.89 804.5L1049.98 804.734L1050.22 804.642L1050.12 804.405L1049.89 804.5ZM1044.65 806.5L1044.44 806.358L1043.98 807.022L1044.74 806.734L1044.65 806.5ZM1048.46 801L1048.69 800.905L1048.52 800.479L1048.25 800.858L1048.46 801ZM995.443 762.499C994.125 761.806 993.447 760.576 993.14 759.287C992.832 757.996 992.905 756.674 993.066 755.857L992.576 755.76C992.403 756.634 992.326 758.03 992.653 759.403C992.981 760.779 993.723 762.16 995.211 762.941L995.443 762.499ZM1044.06 788.762L995.446 762.5L995.208 762.94L1043.82 789.202L1044.06 788.762ZM1050.4 804.154L1044.17 788.887L1043.71 789.076L1049.94 804.343L1050.4 804.154ZM1056.77 795.279L1049.97 804.095L1050.37 804.401L1057.17 795.585L1056.77 795.279ZM1068.75 792.207C1068.75 793.769 1068.3 794.82 1067.58 795.511C1066.86 796.207 1065.84 796.568 1064.65 796.68C1062.27 796.905 1059.31 796.116 1057.07 795.201L1056.88 795.663C1059.15 796.591 1062.2 797.414 1064.7 797.178C1065.96 797.06 1067.1 796.673 1067.93 795.871C1068.76 795.064 1069.25 793.87 1069.25 792.207H1068.75ZM1068.75 778.846V792.207H1069.25V778.846H1068.75ZM1068.75 764.102V778.846H1069.25V764.102H1068.75ZM1058.86 745.896C1062.8 747.888 1065.23 751.362 1066.7 754.891C1068.17 758.421 1068.67 761.984 1068.75 764.112L1069.25 764.093C1069.17 761.92 1068.66 758.296 1067.16 754.699C1065.67 751.102 1063.17 747.513 1059.09 745.45L1058.86 745.896ZM1001.81 715.62L1058.86 745.894L1059.09 745.452L1002.04 715.179L1001.81 715.62ZM996.172 715.978C998.092 715.146 1000.42 715.024 1001.82 715.629L1002.02 715.17C1000.45 714.495 997.979 714.65 995.973 715.519L996.172 715.978ZM996.57 715.102L995.931 715.543L996.214 715.954L996.854 715.514L996.57 715.102ZM990.428 718.459L996.816 715.535L996.608 715.081L990.22 718.004L990.428 718.459ZM993.463 717.265L990.268 717.988L990.379 718.475L993.573 717.752L993.463 717.265ZM993.709 717.073L993.376 717.302L993.66 717.714L993.993 717.485L993.709 717.073ZM993.071 719.872C993.071 718.923 993.437 718.114 994.037 717.446L993.665 717.112C992.994 717.858 992.571 718.783 992.571 719.872H993.071ZM993.071 755.809V719.872H992.571V755.809H993.071ZM1049.8 804.266L1044.56 806.266L1044.74 806.734L1049.98 804.734L1049.8 804.266ZM1048.23 801.095L1049.66 804.595L1050.12 804.405L1048.69 800.905L1048.23 801.095ZM1044.85 806.642L1048.66 801.142L1048.25 800.858L1044.44 806.358L1044.85 806.642Z" fill="black"/>
<path d="M987.096 757.718C986.761 759.396 986.795 763.119 989.605 764.584L1038.29 790.676L1044.31 805.782L1051.33 797.085C1055.85 798.916 1063.38 800.289 1063.38 793.88V780.605V765.957C1063.21 761.685 1061.37 751.676 1053.34 747.647L996.21 717.57C993.348 716.347 987.096 717.985 987.096 722.013V757.718Z" fill="#F7B4A7" stroke="black"/>
<path d="M1000.54 737.382L995.443 735.827L997.58 736.826L1000.54 737.382Z" fill="#00145B" stroke="black" stroke-width="0.1"/>
<path fill-rule="evenodd" clip-rule="evenodd" d="M936.019 776.208V799.639C936.019 804.049 939.039 804.233 940.549 804.233C944.173 804.233 946.066 802.534 946.066 802.534L950.544 808.347L953.155 812L955.538 811.5L952.315 807.212L954.641 798.72L994.401 777.587C999.233 774.646 999.77 770.542 999.434 768.858V741.293C999.434 734.677 993.395 734.555 990.375 735.32L941.555 761.048C936.724 763.62 935.851 772.227 936.019 776.208Z" fill="#2B2B2B"/>
<path d="M936.019 776.208H936.269L936.269 776.198L936.019 776.208ZM946.066 802.534L946.264 802.382L946.1 802.168L945.899 802.348L946.066 802.534ZM950.544 808.347L950.747 808.201L950.742 808.194L950.544 808.347ZM953.155 812L952.952 812.145L953.047 812.278L953.206 812.245L953.155 812ZM955.538 811.5L955.589 811.745L955.974 811.664L955.737 811.35L955.538 811.5ZM952.315 807.212L952.074 807.146L952.042 807.264L952.116 807.362L952.315 807.212ZM954.641 798.72L954.524 798.499L954.429 798.55L954.4 798.654L954.641 798.72ZM994.401 777.587L994.518 777.807L994.525 777.804L994.531 777.8L994.401 777.587ZM999.434 768.858H999.184V768.882L999.189 768.907L999.434 768.858ZM990.375 735.32L990.313 735.078L990.285 735.085L990.258 735.099L990.375 735.32ZM941.555 761.048L941.439 760.827L941.438 760.827L941.555 761.048ZM936.269 799.639V776.208H935.769V799.639H936.269ZM940.549 803.983C939.796 803.983 938.729 803.934 937.852 803.378C936.997 802.838 936.269 801.78 936.269 799.639H935.769C935.769 801.908 936.551 803.147 937.584 803.801C938.594 804.44 939.792 804.483 940.549 804.483V803.983ZM946.066 802.534C945.899 802.348 945.899 802.348 945.899 802.348C945.899 802.348 945.899 802.348 945.899 802.348C945.899 802.348 945.899 802.348 945.899 802.348C945.899 802.348 945.899 802.348 945.899 802.348C945.899 802.348 945.898 802.349 945.896 802.35C945.894 802.353 945.889 802.357 945.883 802.362C945.87 802.373 945.85 802.389 945.823 802.411C945.768 802.454 945.685 802.517 945.573 802.593C945.349 802.745 945.011 802.95 944.562 803.156C943.664 803.568 942.32 803.983 940.549 803.983V804.483C942.401 804.483 943.816 804.049 944.771 803.611C945.248 803.392 945.61 803.173 945.854 803.006C945.976 802.923 946.069 802.853 946.133 802.803C946.164 802.778 946.188 802.758 946.205 802.744C946.213 802.737 946.22 802.732 946.225 802.728C946.227 802.726 946.229 802.724 946.23 802.723C946.231 802.722 946.232 802.722 946.232 802.721C946.232 802.721 946.232 802.721 946.233 802.721C946.233 802.721 946.233 802.72 946.233 802.72C946.233 802.72 946.233 802.72 946.066 802.534ZM950.742 808.194L946.264 802.382L945.868 802.687L950.346 808.499L950.742 808.194ZM953.358 811.855L950.747 808.201L950.34 808.492L952.952 812.145L953.358 811.855ZM955.486 811.255L953.104 811.755L953.206 812.245L955.589 811.745L955.486 811.255ZM952.116 807.362L955.338 811.65L955.737 811.35L952.515 807.062L952.116 807.362ZM954.4 798.654L952.074 807.146L952.557 807.278L954.882 798.786L954.4 798.654ZM994.284 777.366L954.524 798.499L954.759 798.941L994.518 777.807L994.284 777.366ZM999.189 768.907C999.504 770.49 999.012 774.488 994.271 777.373L994.531 777.8C999.454 774.805 1000.03 770.595 999.679 768.809L999.189 768.907ZM999.184 741.293V768.858H999.684V741.293H999.184ZM990.436 735.563C991.917 735.187 994.123 735.036 995.943 735.77C996.848 736.136 997.654 736.718 998.235 737.599C998.816 738.48 999.184 739.678 999.184 741.293H999.684C999.684 739.6 999.297 738.302 998.652 737.323C998.006 736.344 997.113 735.703 996.13 735.307C994.176 734.518 991.852 734.688 990.313 735.078L990.436 735.563ZM941.672 761.269L990.491 735.542L990.258 735.099L941.439 760.827L941.672 761.269ZM936.269 776.198C936.186 774.227 936.361 771.106 937.154 768.165C937.95 765.213 939.351 762.505 941.673 761.268L941.438 760.827C938.928 762.164 937.477 765.045 936.671 768.035C935.862 771.035 935.685 774.208 935.769 776.219L936.269 776.198Z" fill="black"/>
<path d="M939.416 800.566V777.663C939.246 773.771 940.132 765.358 945.042 762.843L994.648 737.695C997.716 736.947 1003.85 737.066 1003.85 743.533V770.478C1004.19 772.124 1003.65 776.136 998.739 779.01L958.338 799.668L955.538 810.5L949.625 803.396C949.625 803.396 947.701 805.056 944.019 805.056C942.485 805.056 939.416 804.877 939.416 800.566Z" fill="#FCDB39" stroke="black"/>
<path d="M1050.84 797.5L1044.65 806L1049.89 804.5L1054.18 798.5L1050.84 797.5Z" fill="#2A2A2A" stroke="black" stroke-width="0.5"/>
<rect x="1" width="1027" height="9" fill="#FCDB39"/>
<rect x="1" y="26" width="1008.93" height="9" fill="#ED6A5E"/>
<rect x="1010" y="240" width="214" height="9" transform="rotate(-90 1010 240)" fill="#1B6AE3"/>
<rect y="17" width="1019" height="9" fill="#1B6AE3"/>
<path d="M1019 240H1028V26L1019 17V240Z" fill="#ED6A5E"/>
</svg>
