<svg width="50" height="61" viewBox="0 0 50 61" fill="none" xmlns="http://www.w3.org/2000/svg">
<path d="M46.7186 1.4145L43.0303 0.185059L44.577 0.975411L46.7186 1.4145Z" fill="#00145B" stroke="black" stroke-width="0.1"/>
<path fill-rule="evenodd" clip-rule="evenodd" d="M0.0137367 32.5904V51.1206C0.0137367 54.6086 2.19985 54.754 3.2927 54.754C5.91587 54.754 7.28659 53.4105 7.28659 53.4105L11.2458 59.0256L11.166 59.3766L14.4501 60.4276L11.9274 56.6435L13.4941 50.3939L42.276 33.6804C45.7735 31.3551 46.1621 28.1092 45.9193 26.777V4.9768C45.9193 -0.255256 41.5473 -0.352146 39.3613 0.253415L4.02136 20.6003C0.523798 22.635 -0.107706 29.4415 0.0137367 32.5904Z" fill="#2B2B2B"/>
<path d="M2.47282 51.3847V33.2716C2.34942 30.1935 2.9911 23.5402 6.54504 21.5513L42.4546 1.66238C44.6758 1.07045 49.1182 1.16516 49.1182 6.27946V27.589C49.365 28.8913 48.9701 32.064 45.4162 34.337L16.1704 50.6744L13.9492 59.1982L9.86289 53.6231C9.86289 53.6231 8.47009 54.9363 5.80463 54.9363C4.69417 54.9363 2.47282 54.7942 2.47282 51.3847Z" fill="#F7B4A7" stroke="black"/>
</svg>
