<svg width="960" height="247" viewBox="0 0 960 247" fill="none" xmlns="http://www.w3.org/2000/svg">
<g clip-path="url(#clip0_1201_367)">
<path d="M0 104.678L13.3 102.739C26.7 100.853 53.3 96.9748 80 96.9748C106.7 96.9748 133.3 100.853 160 103.787C186.7 106.774 213.3 108.871 240 107.298C266.7 105.726 293.3 100.486 320 99.2806C346.7 98.0229 373.3 100.853 400 104.521C426.7 108.189 453.3 112.696 480 113.744C506.7 114.792 533.3 112.382 560 110.81C586.7 109.237 613.3 108.504 640 106.774C666.7 105.045 693.3 102.215 720 100.486C746.7 98.7565 773.3 98.0229 800 100.329C826.7 102.582 853.3 107.823 880 110.076C906.7 112.382 933.3 111.648 946.7 111.334L960 110.967V79H946.7C933.3 79 906.7 79 880 79C853.3 79 826.7 79 800 79C773.3 79 746.7 79 720 79C693.3 79 666.7 79 640 79C613.3 79 586.7 79 560 79C533.3 79 506.7 79 480 79C453.3 79 426.7 79 400 79C373.3 79 346.7 79 320 79C293.3 79 266.7 79 240 79C213.3 79 186.7 79 160 79C133.3 79 106.7 79 80 79C53.3 79 26.7 79 13.3 79H0V104.678Z" fill="#A3D98A"/>
<path d="M0 202L13.3 191.3C26.7 180.7 53.3 159.3 80 156.3C106.7 153.3 133.3 168.7 160 180.7C186.7 192.7 213.3 201.3 240 201C266.7 200.7 293.3 191.3 320 190.7C346.7 190 373.3 198 400 202.7C426.7 207.3 453.3 208.7 480 206C506.7 203.3 533.3 196.7 560 193.7C586.7 190.7 613.3 191.3 640 182.3C666.7 173.3 693.3 154.7 720 146.3C746.7 138 773.3 140 800 148C826.7 156 853.3 170 880 170.7C906.7 171.3 933.3 158.7 946.7 152.3L960 146V106L946.7 106.7C933.3 107.3 906.7 108.7 880 104.3C853.3 100 826.7 90.0001 800 85.7001C773.3 81.3001 746.7 82.7 720 86C693.3 89.3 666.7 94.7 640 98C613.3 101.3 586.7 102.7 560 105.7C533.3 108.7 506.7 113.3 480 111.3C453.3 109.3 426.7 100.7 400 93.7001C373.3 86.7001 346.7 81.3001 320 83.7001C293.3 86.0001 266.7 96 240 99C213.3 102 186.7 98 160 92.3C133.3 86.7 106.7 79.3 80 79.3C53.3 79.3 26.7 86.7 13.3 90.3L0 94V202Z" fill="#85BE74"/>
<path d="M136.24 126.696L136.24 149.785L136.24 172.874" stroke="#69AE5E" stroke-width="3"/>
<circle cx="136" cy="100" r="19" fill="#69AE5E"/>
<circle cx="136" cy="128.38" r="19" fill="#69AE5E"/>
<path d="M0 248H13.3C26.7 248 53.3 248 80 248C106.7 248 133.3 248 160 248C186.7 248 213.3 248 240 248C266.7 248 293.3 248 320 248C346.7 248 373.3 248 400 248C426.7 248 453.3 248 480 248C506.7 248 533.3 248 560 248C586.7 248 613.3 248 640 248C666.7 248 693.3 248 720 248C746.7 248 773.3 248 800 248C826.7 248 853.3 248 880 248C906.7 248 933.3 248 946.7 248H960V144L946.7 150.3C933.3 156.7 906.7 169.3 880 168.7C853.3 168 826.7 154 800 146C773.3 138 746.7 136 720 144.3C693.3 152.7 666.7 171.3 640 180.3C613.3 189.3 586.7 188.7 560 191.7C533.3 194.7 506.7 201.3 480 204C453.3 206.7 426.7 205.3 400 200.7C373.3 196 346.7 188 320 188.7C293.3 189.3 266.7 198.7 240 199C213.3 199.3 186.7 190.7 160 178.7C133.3 166.7 106.7 151.3 80 154.3C53.3 157.3 26.7 178.7 13.3 189.3L0 200V248Z" fill="#68A35E"/>
<path d="M0 13.2187V81L960 79.6353V13.2187C960 13.2187 839.687 -7.25238 703.332 2.75577C495.723 17.9938 359.5 43.9158 202.527 42.3328C45.5548 40.7497 0 13.2187 0 13.2187Z" fill="#A3D98A"/>
<path d="M785.586 53.2668L785.586 69.5701L785.586 85.8734" stroke="#69AE5E" stroke-width="2.11835"/>
<circle cx="785.416" cy="34.4162" r="13.4162" fill="#69AE5E"/>
<circle cx="785.416" cy="54.4555" r="13.4162" fill="#69AE5E"/>
<path d="M495.916 168.801L495.916 187.901L495.916 207" stroke="#9AD99F" stroke-width="1.19372"/>
<circle cx="495.717" cy="146.717" r="15.7173" fill="#4F8545"/>
<circle cx="495.717" cy="170.194" r="15.7173" fill="#4F8545"/>
</g>
<defs>
<clipPath id="clip0_1201_367">
<rect width="960" height="247" fill="white"/>
</clipPath>
</defs>
</svg>
