<svg width="79" height="95" viewBox="0 0 79 95" fill="none" xmlns="http://www.w3.org/2000/svg">
<path d="M43.5256 5.49323L32.7948 36.3718L25.641 32L36.4362 1L43.5256 5.49323Z" fill="#FCC539" stroke="black" stroke-width="0.2"/>
<path d="M50.6794 18.2062L54.3137 24.8462L78.5 14.3004L70.8556 9.74359L50.6794 18.2062Z" fill="#FCC539" stroke="black" stroke-width="0.2"/>
<path d="M8.55128 54.6538L1 50.2821L25.6457 32L33.1923 36.7692L8.55128 54.6538Z" fill="#FCC539" stroke="black" stroke-width="0.2"/>
<path d="M26.0385 64.031L18.6587 59.8205L14.9103 89.4179L22.29 94L26.0385 64.031Z" fill="#FCC539" stroke="black" stroke-width="0.2"/>
<path d="M32.6544 36.9095L8.55127 54.7039L26.0695 64.219L22.0937 94L43.712 68.6676L65.3302 69.1619L61.106 44.2003L78.5 14.4193L54.5211 24.4287L43.4635 5.76923L32.6544 36.9095Z" fill="#FCDB39" stroke="black" stroke-width="0.2"/>
</svg>
