<svg width="141" height="99" viewBox="0 0 141 99" fill="none" xmlns="http://www.w3.org/2000/svg">
<path fill-rule="evenodd" clip-rule="evenodd" d="M60.6206 41.809C60.27 43.4983 60.3051 47.2456 63.25 48.72L114.26 74.9817L120.797 90.2481L127.932 81.432C132.665 83.2749 140.553 84.6571 140.553 78.2069V64.8456V50.1022C140.378 45.802 138.45 35.7274 130.036 31.6729L70.1712 1.3994C68.612 0.759291 66.0921 0.897884 64.0321 1.74842L64.703 1.30792L58 4.23157L61.3515 3.50835L61.7014 3.27866C61.0343 3.98617 60.6206 4.8531 60.6206 5.8719V41.809ZM115 92.5L120.5 90.5L119 87L115 92.5Z" fill="#2B2B2B"/>
<path d="M63.25 48.72L63.3644 48.4977L63.3619 48.4964L63.25 48.72ZM60.6206 41.809L60.8654 41.8598L60.8706 41.8347V41.809H60.6206ZM114.26 74.9817L114.49 74.8833L114.454 74.8006L114.374 74.7594L114.26 74.9817ZM120.797 90.2481L120.567 90.3465L120.73 90.7278L120.991 90.4054L120.797 90.2481ZM127.932 81.432L128.023 81.199L127.853 81.1328L127.738 81.2747L127.932 81.432ZM140.553 50.1022H140.803L140.803 50.092L140.553 50.1022ZM130.036 31.6729L129.923 31.8961L129.927 31.8982L130.036 31.6729ZM70.1712 1.3994L70.284 1.1763L70.2752 1.17186L70.2661 1.16812L70.1712 1.3994ZM64.0321 1.74842L63.8949 1.53944L64.1275 1.9795L64.0321 1.74842ZM64.703 1.30792L64.8403 1.51691L64.6031 1.07877L64.703 1.30792ZM58 4.23157L57.9001 4.00242L58.0527 4.47594L58 4.23157ZM61.3515 3.50835L61.4043 3.75273L61.4498 3.7429L61.4887 3.71733L61.3515 3.50835ZM61.7014 3.27866L61.8833 3.45016L61.5642 3.06968L61.7014 3.27866ZM120.5 90.5L120.585 90.7349L120.834 90.6446L120.73 90.4015L120.5 90.5ZM115 92.5L114.798 92.353L114.317 93.0145L115.085 92.7349L115 92.5ZM119 87L119.23 86.9015L119.057 86.4972L118.798 86.853L119 87ZM63.3619 48.4964C61.9737 47.8014 61.2633 46.5697 60.942 45.2845C60.6197 43.9951 60.6963 42.6747 60.8654 41.8598L60.3758 41.7582C60.1944 42.6327 60.1132 44.0306 60.457 45.4057C60.8018 46.7851 61.5814 48.1642 63.1381 48.9435L63.3619 48.4964ZM114.374 74.7594L63.3644 48.4977L63.1355 48.9422L114.145 75.204L114.374 74.7594ZM121.027 90.1497L114.49 74.8833L114.03 75.0801L120.567 90.3465L121.027 90.1497ZM127.738 81.2747L120.603 90.0909L120.991 90.4054L128.127 81.5893L127.738 81.2747ZM140.303 78.2069C140.303 79.7652 139.829 80.8155 139.077 81.5072C138.319 82.2051 137.246 82.5679 135.995 82.6804C133.488 82.9056 130.376 82.1151 128.023 81.199L127.842 81.6649C130.222 82.5918 133.42 83.4138 136.04 83.1784C137.353 83.0604 138.547 82.6746 139.416 81.8751C140.291 81.0694 140.803 79.8737 140.803 78.2069H140.303ZM140.303 64.8456V78.2069H140.803V64.8456H140.303ZM140.303 50.1022V64.8456H140.803V50.1022H140.303ZM129.927 31.8982C134.064 33.8917 136.615 37.3684 138.155 40.8955C139.696 44.4241 140.217 47.9861 140.303 50.1124L140.803 50.092C140.714 47.9182 140.184 44.2928 138.613 40.6954C137.042 37.0965 134.421 33.5087 130.144 31.4477L129.927 31.8982ZM70.0584 1.62249L129.923 31.896L130.149 31.4499L70.284 1.1763L70.0584 1.62249ZM64.1275 1.9795C66.1462 1.14602 68.5952 1.02265 70.0763 1.63067L70.2661 1.16812C68.6287 0.49593 66.038 0.649749 63.9367 1.51734L64.1275 1.9795ZM64.5658 1.09894L63.8949 1.53944L64.1693 1.9574L64.8403 1.51691L64.5658 1.09894ZM58.0999 4.46072L64.803 1.53707L64.6031 1.07877L57.9001 4.00242L58.0999 4.46072ZM61.2988 3.26398L57.9473 3.98719L58.0527 4.47594L61.4043 3.75273L61.2988 3.26398ZM61.5642 3.06968L61.2143 3.29937L61.4887 3.71733L61.8386 3.48764L61.5642 3.06968ZM60.8706 5.8719C60.8706 4.92711 61.2524 4.11933 61.8833 3.45016L61.5195 3.10716C60.8163 3.85302 60.3706 4.77908 60.3706 5.8719H60.8706ZM60.8706 41.809V5.8719H60.3706V41.809H60.8706ZM120.415 90.2651L114.915 92.2651L115.085 92.7349L120.585 90.7349L120.415 90.2651ZM118.77 87.0985L120.27 90.5985L120.73 90.4015L119.23 86.9015L118.77 87.0985ZM115.202 92.647L119.202 87.147L118.798 86.853L114.798 92.353L115.202 92.647Z" fill="black"/>
<path d="M54.613 43.7179C54.2619 45.3963 54.2971 49.1193 57.2459 50.5841L108.325 76.676L114.644 91.7818L122.016 83.0845C126.755 84.9156 134.654 86.2888 134.654 79.8803V66.6055V51.9574C134.478 47.6851 132.548 37.6756 124.122 33.6474L64.1765 3.56966C61.1737 2.34658 54.613 3.98502 54.613 8.01324V43.7179Z" fill="#09BC8A" stroke="black"/>
<path d="M68.7181 23.3817L63.3719 21.8271L65.6139 22.8265L68.7181 23.3817Z" fill="#00145B" stroke="black" stroke-width="0.1"/>
<path fill-rule="evenodd" clip-rule="evenodd" d="M1.01991 62.2085V85.6387C1.01991 90.0491 4.18866 90.2328 5.77273 90.2328C9.57498 90.2328 11.5618 88.5342 11.5618 88.5342L16.2601 94.3468L19 98L21.5 97.5L18.1191 93.2119L20.5595 84.7199L62.2784 63.5867C67.3481 60.6464 67.9114 56.5423 67.5593 54.8578V27.2928C67.5593 20.6772 61.2223 20.5547 58.0537 21.3204L6.82891 47.0477C1.75924 49.6205 0.843881 58.2269 1.01991 62.2085Z" fill="#2B2B2B"/>
<path d="M1.01991 62.2085H1.27016L1.26967 62.1974L1.01991 62.2085ZM11.5618 88.5342L11.7562 88.377L11.5947 88.1771L11.3994 88.3441L11.5618 88.5342ZM16.2601 94.3468L16.4602 94.1967L16.4545 94.1897L16.2601 94.3468ZM19 98L18.8 98.15L18.8945 98.276L19.049 98.2451L19 98ZM21.5 97.5L21.549 97.7451L21.9486 97.6652L21.6963 97.3452L21.5 97.5ZM18.1191 93.2119L17.8788 93.1428L17.8434 93.266L17.9228 93.3667L18.1191 93.2119ZM20.5595 84.7199L20.4465 84.4968L20.3493 84.5461L20.3192 84.6508L20.5595 84.7199ZM62.2784 63.5867L62.3914 63.8097L62.3977 63.8065L62.4039 63.803L62.2784 63.5867ZM67.5593 54.8578H67.3093V54.8836L67.3146 54.9089L67.5593 54.8578ZM58.0537 21.3204L57.995 21.0774L57.9671 21.0842L57.9415 21.097L58.0537 21.3204ZM6.82891 47.0477L6.7167 46.8243L6.71578 46.8248L6.82891 47.0477ZM1.26991 85.6387V62.2085H0.769911V85.6387H1.26991ZM5.77273 89.9828C4.98207 89.9828 3.85706 89.9339 2.93141 89.3756C2.03085 88.8324 1.26991 87.7748 1.26991 85.6387H0.769911C0.769911 87.9129 1.59335 89.1524 2.67317 89.8037C3.72791 90.4399 4.97932 90.4828 5.77273 90.4828V89.9828ZM11.5618 88.5342C11.3994 88.3441 11.3994 88.3441 11.3995 88.344C11.3995 88.344 11.3996 88.3439 11.3996 88.3439C11.3997 88.3439 11.3997 88.3438 11.3997 88.3438C11.3997 88.3438 11.3996 88.344 11.3993 88.3442C11.3988 88.3446 11.3979 88.3454 11.3964 88.3466C11.3935 88.349 11.3887 88.353 11.382 88.3584C11.3685 88.3692 11.3474 88.3858 11.3187 88.4074C11.2614 88.4505 11.1737 88.5135 11.056 88.5898C10.8206 88.7424 10.4653 88.9481 9.99303 89.1544C9.04893 89.5669 7.63562 89.9828 5.77273 89.9828V90.4828C7.71209 90.4828 9.19332 90.0494 10.1932 89.6126C10.6929 89.3943 11.072 89.1753 11.3279 89.0094C11.4559 88.9264 11.5531 88.8567 11.6193 88.8069C11.6524 88.7821 11.6777 88.7622 11.6952 88.7481C11.7039 88.7411 11.7107 88.7355 11.7156 88.7315C11.718 88.7294 11.72 88.7278 11.7214 88.7266C11.7221 88.726 11.7227 88.7255 11.7232 88.7251C11.7234 88.7249 11.7237 88.7247 11.7238 88.7246C11.7239 88.7245 11.724 88.7244 11.7241 88.7243C11.7242 88.7243 11.7243 88.7242 11.5618 88.5342ZM16.4545 94.1897L11.7562 88.377L11.3674 88.6913L16.0657 94.504L16.4545 94.1897ZM19.2 97.85L16.4601 94.1968L16.0601 94.4968L18.8 98.15L19.2 97.85ZM21.451 97.2549L18.951 97.7549L19.049 98.2451L21.549 97.7451L21.451 97.2549ZM17.9228 93.3667L21.3037 97.6548L21.6963 97.3452L18.3154 93.0571L17.9228 93.3667ZM20.3192 84.6508L17.8788 93.1428L18.3594 93.2809L20.7997 84.7889L20.3192 84.6508ZM62.1655 63.3637L20.4465 84.4968L20.6724 84.9429L62.3914 63.8097L62.1655 63.3637ZM67.3146 54.9089C67.644 56.4848 67.1322 60.4827 62.153 63.3704L62.4039 63.803C67.564 60.8102 68.1788 56.5998 67.8041 54.8067L67.3146 54.9089ZM67.3093 27.2928V54.8578H67.8093V27.2928H67.3093ZM58.1124 21.5634C59.669 21.1873 61.9892 21.0349 63.905 21.772C64.8578 22.1386 65.7044 22.7224 66.3141 23.6033C66.9236 24.4838 67.3093 25.6798 67.3093 27.2928H67.8093C67.8093 25.598 67.403 24.2979 66.7252 23.3187C66.0477 22.3399 65.112 21.7006 64.0845 21.3053C62.0396 20.5186 59.607 20.6879 57.995 21.0774L58.1124 21.5634ZM6.94111 47.2712L58.1659 21.5438L57.9415 21.097L6.71671 46.8243L6.94111 47.2712ZM1.26967 62.1974C1.18258 60.2275 1.36599 57.108 2.19783 54.1678C3.03216 51.2189 4.50164 48.5091 6.94204 47.2707L6.71578 46.8248C4.08651 48.1591 2.56347 51.0389 1.71672 54.0317C0.867467 57.0334 0.681217 60.2078 0.770155 62.2195L1.26967 62.1974Z" fill="black"/>
<path d="M4.58426 86.5657V63.6628C4.40539 59.7708 5.3355 51.3582 10.4869 48.8433L62.5373 23.6951C65.7569 22.9466 72.1961 23.0663 72.1961 29.533V56.4776C72.5539 58.1242 71.9815 62.136 66.8301 65.01L24.4387 85.6676L21.5001 96.5L15.2961 89.396C15.2961 89.396 13.2772 91.0564 9.41368 91.0564C7.80408 91.0564 4.58426 90.8768 4.58426 86.5657Z" fill="#FCDB39" stroke="black"/>
<path d="M121.5 83.5L115 92L120.5 90.5L125 84.5L121.5 83.5Z" fill="#2A2A2A" stroke="black" stroke-width="0.5"/>
</svg>
