<svg width="119" height="149" viewBox="0 0 119 149" fill="none" xmlns="http://www.w3.org/2000/svg">
<path d="M116.685 140.902L116.904 49L102.454 55.9113L102.673 148L116.685 140.902Z" fill="#C6C6C6" stroke="black"/>
<path d="M1.30566 99.7819L102.454 148V102.016V56.0319L1.30566 8V99.7819Z" fill="#F5F5F5" stroke="black"/>
<rect width="8.10205" height="7.33333" transform="matrix(0.891734 0.45256 0 1 60.3088 66)" fill="#09BC8A"/>
<rect width="8.10205" height="7.33333" transform="matrix(0.891734 0.45256 0 1 60.3088 77)" fill="#09BC8A"/>
<rect width="8.10205" height="7.33333" transform="matrix(0.891734 0.45256 0 1 60.3088 87)" fill="#09BC8A"/>
<rect width="8.10205" height="7.33333" transform="matrix(0.891734 0.45256 0 1 60.3088 98)" fill="#09BC8A"/>
<rect width="8.10205" height="7.33333" transform="matrix(0.891734 0.45256 0 1 60.3088 109)" fill="#09BC8A"/>
<rect width="9.192" height="7.33333" transform="matrix(0.916996 0.398898 0 1 22.9803 59)" fill="#09BC8A"/>
<rect width="9.192" height="7.33333" transform="matrix(0.916996 0.398898 0 1 22.9803 70)" fill="#09BC8A"/>
<rect width="9.192" height="7.33333" transform="matrix(0.916996 0.398898 0 1 22.9803 81)" fill="#09BC8A"/>
<rect width="9.192" height="7.33333" transform="matrix(0.916996 0.398898 0 1 22.9803 92)" fill="#09BC8A"/>
<rect width="8.10205" height="7.33333" transform="matrix(0.891734 0.45256 0 1 72.3503 72)" fill="#09BC8A"/>
<rect width="8.10205" height="7.33333" transform="matrix(0.891734 0.45256 0 1 72.3503 83)" fill="#09BC8A"/>
<rect width="8.10205" height="7.33333" transform="matrix(0.891734 0.45256 0 1 72.3503 93)" fill="#09BC8A"/>
<rect width="8.10205" height="7.33333" transform="matrix(0.891734 0.45256 0 1 72.3503 104)" fill="#09BC8A"/>
<rect width="8.10205" height="7.33333" transform="matrix(0.891734 0.45256 0 1 72.3503 115)" fill="#09BC8A"/>
<rect width="9.192" height="7.33333" transform="matrix(0.916996 0.398898 0 1 35.0217 65)" fill="#09BC8A"/>
<rect width="9.192" height="7.33333" transform="matrix(0.916996 0.398898 0 1 35.0217 76)" fill="#09BC8A"/>
<rect width="9.192" height="7.33333" transform="matrix(0.916996 0.398898 0 1 35.0217 87)" fill="#09BC8A"/>
<rect width="9.192" height="7.33333" transform="matrix(0.916996 0.398898 0 1 35.0217 98)" fill="#09BC8A"/>
<rect width="9.192" height="7.33333" transform="matrix(0.916996 0.398898 0 1 84.3918 78)" fill="#09BC8A"/>
<rect width="9.192" height="7.33333" transform="matrix(0.916996 0.398898 0 1 84.3918 89)" fill="#09BC8A"/>
<rect width="9.192" height="7.33333" transform="matrix(0.916996 0.398898 0 1 84.3918 99)" fill="#09BC8A"/>
<rect width="9.192" height="7.33333" transform="matrix(0.916996 0.398898 0 1 84.3918 110)" fill="#09BC8A"/>
<rect width="9.192" height="7.33333" transform="matrix(0.916996 0.398898 0 1 84.3918 121)" fill="#09BC8A"/>
<rect width="8.10205" height="7.33333" transform="matrix(0.891734 0.45256 0 1 48.2673 60)" fill="#09BC8A"/>
<rect width="8.10205" height="7.33333" transform="matrix(0.891734 0.45256 0 1 48.2673 71)" fill="#09BC8A"/>
<rect width="8.10205" height="7.33333" transform="matrix(0.891734 0.45256 0 1 48.2673 82)" fill="#09BC8A"/>
<rect width="8.10205" height="7.33333" transform="matrix(0.891734 0.45256 0 1 48.2673 93)" fill="#09BC8A"/>
<rect width="8.10205" height="7.33333" transform="matrix(0.891734 0.45256 0 1 48.2673 104)" fill="#09BC8A"/>
<rect width="9.192" height="7.33333" transform="matrix(0.916996 0.398898 0 1 10.9388 54)" fill="#09BC8A"/>
<rect width="9.192" height="7.33333" transform="matrix(0.916996 0.398898 0 1 10.9388 64)" fill="#09BC8A"/>
<rect width="9.192" height="7.33333" transform="matrix(0.916996 0.398898 0 1 10.9388 75)" fill="#09BC8A"/>
<rect width="9.192" height="7.33333" transform="matrix(0.916996 0.398898 0 1 10.9388 86)" fill="#09BC8A"/>
<path d="M102.454 75L1.30566 26.0674L1.53144 8L102.454 56.368V75Z" fill="#09BC8A" fill-opacity="0.85" stroke="black"/>
<path d="M116.904 67.0147L102.454 74V55.8015L116.904 49V67.0147Z" fill="#08A377"/>
<path d="M102.257 56L1.30566 8.22222L15.9526 1L116.904 48.963L102.257 56Z" fill="#76DCBF" stroke="black"/>
</svg>
