<?xml version="1.0" encoding="UTF-8"?>
<svg xmlns="http://www.w3.org/2000/svg" xmlns:xlink="http://www.w3.org/1999/xlink" width="1417.5pt" height="1417.499962pt" viewBox="0 0 1417.5 1417.499962" version="1.2">
<defs>
<clipPath id="clip1">
  <path d="M 301 0 L 1324.785156 0 L 1324.785156 591 L 301 591 Z M 301 0 "/>
</clipPath>
<clipPath id="clip2">
  <path d="M 1307 580.375 L 1324.785156 580.375 L 1324.785156 1240 L 1307 1240 Z M 1307 580.375 "/>
</clipPath>
</defs>
<g id="surface1">
<g clip-path="url(#clip1)" clip-rule="nonzero">
<path style=" stroke:none;fill-rule:nonzero;fill:rgb(75.689697%,58.81958%,34.509277%);fill-opacity:1;" d="M 1324.773438 580.929688 L 318.941406 0 L 301.78125 9.914062 L 1307.609375 590.84375 L 1324.773438 580.929688 "/>
</g>
<g clip-path="url(#clip2)" clip-rule="nonzero">
<path style=" stroke:none;fill-rule:nonzero;fill:rgb(50.588989%,27.839661%,13.328552%);fill-opacity:1;" d="M 1324.773438 1229.820312 L 1324.773438 580.878906 L 1307.609375 590.792969 L 1307.609375 1239.734375 L 1324.773438 1229.820312 "/>
</g>
<path style=" stroke:none;fill-rule:nonzero;fill:rgb(59.609985%,40.779114%,16.468811%);fill-opacity:1;" d="M 1307.609375 1239.734375 L 301.78125 658.804688 L 301.78125 9.863281 L 1307.609375 590.792969 L 1307.609375 1239.734375 "/>
<path style=" stroke:none;fill-rule:nonzero;fill:rgb(58.428955%,78.819275%,45.878601%);fill-opacity:1;" d="M 1284.617188 1206.007812 L 324.785156 651.636719 L 324.785156 43.589844 L 1284.617188 597.960938 L 1284.617188 1206.007812 "/>
<path style=" stroke:none;fill-rule:nonzero;fill:rgb(75.689697%,58.81958%,34.509277%);fill-opacity:1;" d="M 1307.609375 1218.351562 L 301.78125 637.410156 L 272.945312 654.0625 L 1278.773438 1235.003906 L 1307.609375 1218.351562 "/>
<path style=" stroke:none;fill-rule:nonzero;fill:rgb(59.609985%,40.779114%,16.468811%);fill-opacity:1;" d="M 1278.773438 1235.136719 L 272.945312 654.210938 L 272.945312 675.226562 L 1278.773438 1256.15625 L 1278.773438 1235.136719 "/>
<path style=" stroke:none;fill-rule:nonzero;fill:rgb(50.588989%,27.839661%,13.328552%);fill-opacity:1;" d="M 1307.609375 1218.484375 L 1278.773438 1235.136719 L 1278.773438 1256.15625 L 1307.609375 1239.5 L 1307.609375 1218.484375 "/>
<path style=" stroke:none;fill-rule:nonzero;fill:rgb(75.689697%,58.81958%,34.509277%);fill-opacity:1;" d="M 1307.609375 1218.890625 L 301.78125 637.949219 L 272.945312 654.601562 L 1278.773438 1235.542969 L 1307.609375 1218.890625 "/>
<path style=" stroke:none;fill-rule:nonzero;fill:rgb(59.609985%,40.779114%,16.468811%);fill-opacity:1;" d="M 1278.773438 1235.675781 L 272.945312 654.75 L 272.945312 675.765625 L 1278.773438 1256.707031 L 1278.773438 1235.675781 "/>
<path style=" stroke:none;fill-rule:nonzero;fill:rgb(50.588989%,27.839661%,13.328552%);fill-opacity:1;" d="M 1307.609375 1219.023438 L 1278.773438 1235.675781 L 1278.773438 1256.707031 L 1307.609375 1240.039062 L 1307.609375 1219.023438 "/>
<path style=" stroke:none;fill-rule:nonzero;fill:rgb(87.059021%,86.669922%,94.898987%);fill-opacity:1;" d="M 767.09375 603.257812 L 597.921875 505.550781 L 597.921875 310.8125 L 767.09375 408.53125 Z M 590.363281 297.0625 L 590.363281 510.597656 L 774.652344 617.03125 L 774.652344 403.492188 L 590.363281 297.0625 "/>
<path style=" stroke:none;fill-rule:nonzero;fill:rgb(87.059021%,86.669922%,94.898987%);fill-opacity:1;" d="M 846.105469 502.558594 L 840.078125 506.039062 L 813.289062 459.621094 L 819.316406 456.128906 L 846.105469 502.558594 "/>
<path style=" stroke:none;fill-rule:nonzero;fill:rgb(87.059021%,86.669922%,94.898987%);fill-opacity:1;" d="M 813.289062 483.601562 L 819.316406 494.042969 L 846.105469 478.578125 L 840.078125 468.125 L 813.289062 483.601562 "/>
<path style=" stroke:none;fill-rule:nonzero;fill:rgb(87.059021%,86.669922%,94.898987%);fill-opacity:1;" d="M 881.765625 508.6875 L 881.765625 513.613281 L 862.816406 502.671875 L 862.816406 497.742188 L 881.765625 508.6875 "/>
<path style=" stroke:none;fill-rule:nonzero;fill:rgb(87.059021%,86.669922%,94.898987%);fill-opacity:1;" d="M 870.152344 515.390625 L 874.414062 517.855469 L 874.414062 495.96875 L 870.152344 493.515625 L 870.152344 515.390625 "/>
<path style=" stroke:none;fill-rule:nonzero;fill:rgb(87.059021%,86.669922%,94.898987%);fill-opacity:1;" d="M 964.796875 562.066406 L 964.796875 566.996094 L 945.855469 556.050781 L 945.855469 551.125 L 964.796875 562.066406 "/>
<path style=" stroke:none;fill-rule:nonzero;fill:rgb(87.059021%,86.669922%,94.898987%);fill-opacity:1;" d="M 964.796875 550.964844 L 964.796875 555.890625 L 945.855469 544.949219 L 945.855469 540.035156 L 964.796875 550.964844 "/>
<path style=" stroke:none;fill-rule:nonzero;fill:rgb(87.059021%,86.669922%,94.898987%);fill-opacity:1;" d="M 912.894531 542.425781 C 905.910156 538.390625 901.253906 529.65625 901.253906 522.277344 C 901.253906 514.902344 905.910156 511.542969 912.894531 515.574219 C 919.285156 519.261719 924.519531 528.332031 924.519531 535.707031 C 924.519531 543.085938 919.285156 546.113281 912.894531 542.425781 Z M 912.894531 508.171875 C 902.417969 502.132812 894.285156 506.835938 894.285156 518.246094 C 894.285156 529.667969 902.417969 543.773438 912.894531 549.8125 C 922.765625 555.523438 930.914062 550.820312 930.914062 539.410156 C 930.914062 528 922.765625 513.882812 912.894531 508.171875 "/>
<path style=" stroke:none;fill-rule:nonzero;fill:rgb(87.059021%,86.669922%,94.898987%);fill-opacity:1;" d="M 1001.007812 593.316406 C 994.035156 589.296875 989.382812 580.558594 989.382812 573.183594 C 989.382812 565.804688 994.035156 562.4375 1001.007812 566.46875 C 1007.414062 570.15625 1012.644531 579.238281 1012.644531 586.613281 C 1012.644531 593.992188 1007.414062 597.019531 1001.007812 593.316406 Z M 1001.007812 559.078125 C 990.546875 553.023438 982.410156 557.742188 982.410156 569.152344 C 982.410156 580.558594 990.546875 594.675781 1001.007812 600.71875 C 1010.902344 606.429688 1019.039062 601.710938 1019.039062 590.304688 C 1019.039062 578.894531 1010.902344 564.777344 1001.007812 559.078125 "/>
<path style=" stroke:none;fill-rule:nonzero;fill:rgb(87.059021%,86.669922%,94.898987%);fill-opacity:1;" d="M 930.914062 600.511719 L 810.925781 531.210938 L 810.925781 512.472656 L 930.914062 581.761719 L 930.914062 600.511719 "/>
<path style=" stroke:none;fill-rule:nonzero;fill:rgb(87.059021%,86.669922%,94.898987%);fill-opacity:1;" d="M 1019.039062 651.402344 L 945.855469 609.136719 L 945.855469 590.402344 L 1019.039062 632.667969 L 1019.039062 651.402344 "/>
<path style=" stroke:none;fill-rule:nonzero;fill:rgb(87.059021%,86.669922%,94.898987%);fill-opacity:1;" d="M 958.121094 649.480469 L 810.925781 564.46875 L 810.925781 545.71875 L 958.121094 630.742188 L 958.121094 649.480469 "/>
<path style=" stroke:none;fill-rule:nonzero;fill:rgb(87.059021%,86.669922%,94.898987%);fill-opacity:1;" d="M 930.914062 667.015625 L 810.925781 597.71875 L 810.925781 578.980469 L 930.914062 648.277344 L 930.914062 667.015625 "/>
<path style=" stroke:none;fill-rule:nonzero;fill:rgb(87.059021%,86.669922%,94.898987%);fill-opacity:1;" d="M 610.136719 620.71875 L 718.839844 809.097656 L 610.136719 746.304688 Z M 597.921875 576.738281 L 597.921875 753.351562 L 751.402344 842 L 597.921875 576.738281 "/>
<path style=" stroke:none;fill-rule:nonzero;fill:rgb(87.059021%,86.669922%,94.898987%);fill-opacity:1;" d="M 818.027344 808.765625 L 899.578125 761.671875 L 899.578125 855.871094 Z M 794.03125 805.492188 L 908.738281 871.742188 L 908.738281 738.742188 L 794.03125 805.492188 "/>
<path style=" stroke:none;fill-rule:nonzero;fill:rgb(87.059021%,86.669922%,94.898987%);fill-opacity:1;" d="M 472.898438 356.867188 L 371.507812 298.300781 L 371.507812 286.609375 L 472.898438 345.175781 L 472.898438 356.867188 "/>
<path style=" stroke:none;fill-rule:nonzero;fill:rgb(87.059021%,86.669922%,94.898987%);fill-opacity:1;" d="M 518.457031 415.222656 L 371.507812 330.347656 L 371.507812 323.582031 L 518.457031 408.445312 L 518.457031 415.222656 "/>
<path style=" stroke:none;fill-rule:nonzero;fill:rgb(87.059021%,86.669922%,94.898987%);fill-opacity:1;" d="M 518.457031 429.988281 L 371.507812 345.113281 L 371.507812 338.335938 L 518.457031 423.210938 L 518.457031 429.988281 "/>
<path style=" stroke:none;fill-rule:nonzero;fill:rgb(87.059021%,86.669922%,94.898987%);fill-opacity:1;" d="M 518.457031 444.742188 L 371.507812 359.867188 L 371.507812 353.089844 L 518.457031 437.964844 L 518.457031 444.742188 "/>
<path style=" stroke:none;fill-rule:nonzero;fill:rgb(87.059021%,86.669922%,94.898987%);fill-opacity:1;" d="M 512.625 456.128906 L 371.507812 374.632812 L 371.507812 367.859375 L 512.625 449.363281 L 512.625 456.128906 "/>
<path style=" stroke:none;fill-rule:nonzero;fill:rgb(87.059021%,86.669922%,94.898987%);fill-opacity:1;" d="M 472.898438 447.941406 L 371.507812 389.390625 L 371.507812 382.613281 L 472.898438 441.175781 L 472.898438 447.941406 "/>
<path style=" stroke:none;fill-rule:nonzero;fill:rgb(87.059021%,86.669922%,94.898987%);fill-opacity:1;" d="M 1200.289062 937.929688 L 989.382812 816.117188 L 989.382812 808.777344 L 1200.289062 930.585938 L 1200.289062 937.929688 "/>
<path style=" stroke:none;fill-rule:nonzero;fill:rgb(87.059021%,86.669922%,94.898987%);fill-opacity:1;" d="M 1099.691406 942.207031 L 989.382812 878.492188 L 989.382812 871.152344 L 1099.691406 934.851562 L 1099.691406 942.207031 "/>
<path style=" stroke:none;fill-rule:nonzero;fill:rgb(87.059021%,86.669922%,94.898987%);fill-opacity:1;" d="M 1182.941406 1052.667969 L 989.382812 940.871094 L 989.382812 933.527344 L 1182.941406 1045.316406 L 1182.941406 1052.667969 "/>
<path style=" stroke:none;fill-rule:nonzero;fill:rgb(52.549744%,41.178894%,34.899902%);fill-opacity:1;" d="M 227.042969 1264.046875 C 227.042969 1264.046875 234.269531 1308.921875 231.488281 1319.546875 C 228.710938 1330.171875 182.601562 1320.722656 177.601562 1324.621094 C 172.605469 1328.507812 118.730469 1334.4375 105.390625 1324.804688 C 92.0625 1315.171875 120.394531 1300.566406 137.605469 1297.035156 C 154.828125 1293.496094 182.601562 1264.046875 182.601562 1264.046875 L 227.042969 1264.046875 "/>
<path style=" stroke:none;fill-rule:nonzero;fill:rgb(52.549744%,41.178894%,34.899902%);fill-opacity:1;" d="M 403.332031 1319.546875 C 404.410156 1327.28125 404.730469 1361.117188 403.332031 1370.453125 C 401.921875 1379.792969 372.988281 1380.722656 369.253906 1387.730469 C 365.515625 1394.730469 321.136719 1417.71875 308.0625 1410.257812 C 294.992188 1402.78125 319.578125 1375.121094 327.617188 1371.386719 C 335.640625 1367.648438 361.78125 1324.21875 361.78125 1324.21875 L 403.332031 1319.546875 "/>
<path style=" stroke:none;fill-rule:nonzero;fill:rgb(22.749329%,28.239441%,31.759644%);fill-opacity:1;" d="M 201.050781 412.15625 C 200.753906 416.914062 198.980469 557.363281 197.191406 568.722656 C 195.402344 580.070312 165.523438 717.53125 172.691406 737.257812 C 179.867188 756.976562 214.953125 767.199219 214.953125 767.199219 C 214.953125 767.199219 276.644531 642.824219 277.539062 639.835938 C 278.433594 636.84375 201.050781 412.15625 201.050781 412.15625 "/>
<path style=" stroke:none;fill-rule:nonzero;fill:rgb(87.838745%,67.059326%,57.249451%);fill-opacity:1;" d="M 174.480469 734.84375 C 174.480469 734.84375 149.242188 766.558594 153.128906 769.953125 C 157.011719 773.347656 164.335938 759.269531 167.703125 762.183594 C 171.074219 765.101562 156.128906 809.964844 161.457031 811.902344 C 166.796875 813.839844 176.90625 775.777344 179.328125 777.722656 C 181.753906 779.660156 170.59375 814.253906 175.445312 816.621094 C 180.296875 818.984375 184.242188 780.640625 189.070312 781.117188 C 193.882812 781.609375 183.691406 817.871094 191.949219 816.730469 C 200.191406 815.589844 207.46875 744.234375 197.765625 737.921875 C 188.0625 731.609375 180.789062 726.609375 174.480469 734.84375 "/>
<path style=" stroke:none;fill-rule:nonzero;fill:rgb(70.588684%,69.799805%,87.838745%);fill-opacity:1;" d="M 198.328125 717.640625 C 197.042969 724.929688 180.910156 939.914062 176.832031 961.945312 C 172.75 983.980469 164.285156 1261.277344 176.832031 1273.433594 C 189.375 1285.601562 217.746094 1288.027344 229.136719 1273.433594 C 239.550781 1260.101562 276.59375 1058.550781 262.75 1002.570312 C 260.484375 993.390625 260.730469 984.3125 264.796875 975.722656 C 283.171875 936.863281 328.828125 833.359375 318.550781 784.527344 C 305.761719 723.71875 198.328125 717.640625 198.328125 717.640625 "/>
<path style=" stroke:none;fill-rule:nonzero;fill:rgb(87.059021%,86.669922%,94.898987%);fill-opacity:1;" d="M 393.203125 774.355469 C 394.070312 789.316406 440.03125 865.539062 395.359375 1027.792969 C 393.828125 1033.304688 393.753906 1039.015625 395.601562 1044.46875 C 405.390625 1073.355469 440.117188 1181.367188 403.75 1330.835938 C 403.75 1330.835938 366.886719 1341.742188 353.058594 1330.011719 C 339.226562 1318.273438 318.84375 1050.277344 313.257812 1032.398438 C 307.671875 1014.519531 247.242188 800.296875 297.160156 758.351562 C 347.066406 716.414062 393.203125 774.355469 393.203125 774.355469 "/>
<path style=" stroke:none;fill-rule:nonzero;fill:rgb(83.529663%,15.289307%,25.489807%);fill-opacity:1;" d="M 398.359375 681.648438 C 403.578125 706 412.703125 776.855469 407.484375 807.269531 C 402.707031 837.710938 233.671875 844.230469 194.996094 729.90625 C 185 699.464844 207.160156 619.050781 209.328125 561.664062 C 210.210938 537.328125 195.535156 421.816406 202.496094 403.984375 C 209.441406 386.167969 240.1875 380.40625 273.65625 387.355469 C 279.300781 388.652344 284.078125 389.964844 288.855469 391.265625 C 300.164062 395.171875 317.105469 403.875 334.917969 414.742188 C 369.679688 435.613281 407.484375 464.730469 414.441406 479.507812 C 425.308594 502.105469 393.582031 657.738281 398.359375 681.648438 "/>
<path style=" stroke:none;fill-rule:nonzero;fill:rgb(33.329773%,42.749023%,49.409485%);fill-opacity:1;" d="M 245.835938 464.730469 C 247.574219 498.636719 246.277344 788.152344 237.148438 795.984375 C 235.410156 797.28125 232.371094 796.398438 228.453125 793.800781 C 214.121094 783.816406 189.351562 747.726562 187.183594 729.90625 C 184.132812 708.167969 201.957031 607.753906 202.382812 585.585938 C 202.8125 563.84375 188.039062 424.300781 198.476562 399.09375 C 205.863281 379.523438 232.371094 372.5625 250.613281 372.5625 C 256.273438 372.5625 261.476562 373.433594 264.957031 374.746094 C 276.691406 379.09375 244.535156 430.820312 245.835938 464.730469 "/>
<path style=" stroke:none;fill-rule:nonzero;fill:rgb(22.749329%,28.239441%,31.759644%);fill-opacity:1;" d="M 245.835938 464.730469 C 247.574219 498.636719 246.277344 788.152344 237.148438 795.984375 C 235.410156 797.28125 232.371094 796.398438 228.453125 793.800781 C 231.0625 753.375 236.707031 614.703125 237.148438 600.792969 C 237.578125 585.585938 232.800781 556.445312 221.933594 522.117188 C 210.640625 488.210938 224.117188 463.859375 232.371094 455.601562 C 240.1875 447.339844 239.316406 435.613281 231.503906 415.613281 C 224.117188 397.785156 241.058594 381.707031 250.613281 372.5625 C 256.273438 372.5625 261.476562 373.433594 264.957031 374.746094 C 276.691406 379.09375 244.535156 430.820312 245.835938 464.730469 "/>
<path style=" stroke:none;fill-rule:nonzero;fill:rgb(33.329773%,42.749023%,49.409485%);fill-opacity:1;" d="M 406.613281 661.21875 C 411.832031 683.386719 437.902344 800.320312 416.609375 816.851562 C 399.226562 830.332031 324.921875 838.152344 297.554688 831.621094 C 292.335938 830.332031 288.855469 828.582031 287.558594 826.410156 C 280.171875 812.0625 287.988281 517.328125 308.417969 501.675781 C 323.621094 490.378906 331.4375 442.5625 339.265625 417.78125 C 342.304688 408.210938 345.351562 402.5625 348.820312 403.875 C 358.386719 408.210938 413.132812 455.601562 424.867188 473.417969 C 436.601562 491.238281 417.480469 566.457031 416.609375 589.492188 C 415.742188 612.972656 400.96875 639.480469 406.613281 661.21875 "/>
<path style=" stroke:none;fill-rule:nonzero;fill:rgb(22.749329%,28.239441%,31.759644%);fill-opacity:1;" d="M 364.035156 468.652344 C 349.261719 484.730469 324.0625 487.339844 331.878906 510.378906 C 339.707031 533.859375 313.625 575.585938 301.890625 593.832031 C 291.90625 609.492188 296.242188 785.113281 297.554688 831.621094 C 292.335938 830.332031 288.855469 828.582031 287.558594 826.410156 C 280.171875 812.0625 287.988281 517.328125 308.417969 501.675781 C 323.621094 490.378906 331.4375 442.5625 339.265625 417.78125 L 357.957031 415.613281 C 363.605469 426.898438 378.808594 452.5625 364.035156 468.652344 "/>
<path style=" stroke:none;fill-rule:nonzero;fill:rgb(85.099792%,54.508972%,40.779114%);fill-opacity:1;" d="M 334.917969 414.742188 C 327.96875 439.09375 309.277344 495.597656 278.859375 480.820312 C 245.835938 464.289062 267.125 404.304688 273.65625 387.355469 C 279.300781 388.652344 284.078125 389.964844 288.855469 391.265625 C 300.164062 395.171875 317.105469 403.875 334.917969 414.742188 "/>
<path style=" stroke:none;fill-rule:nonzero;fill:rgb(85.099792%,54.508972%,40.779114%);fill-opacity:1;" d="M 278.726562 380.027344 L 278.726562 399.988281 L 320.398438 403.984375 L 317.742188 369.378906 L 278.726562 380.027344 "/>
<path style=" stroke:none;fill-rule:nonzero;fill:rgb(37.649536%,25.489807%,21.179199%);fill-opacity:1;" d="M 246.03125 262.089844 C 246.03125 262.089844 233.914062 283.667969 231.832031 304.550781 C 229.75 325.433594 217.917969 400.613281 226.957031 413.136719 C 236.011719 425.675781 252.632812 382.183594 272.125 382.882812 C 291.601562 383.582031 256.0625 264.171875 246.03125 262.089844 "/>
<path style=" stroke:none;fill-rule:nonzero;fill:rgb(87.838745%,67.059326%,57.249451%);fill-opacity:1;" d="M 246.789062 285.3125 C 244.390625 295.496094 246.828125 384.746094 267.101562 388.199219 C 287.386719 391.65625 326.585938 376.363281 343.992188 348.996094 C 361.402344 321.621094 364.304688 269.234375 343.992188 253.277344 C 323.683594 237.320312 255.550781 248.214844 246.789062 285.3125 "/>
<path style=" stroke:none;fill-rule:nonzero;fill:rgb(52.549744%,41.178894%,34.899902%);fill-opacity:1;" d="M 264.871094 295.054688 C 250.292969 292.628906 231.441406 288.375 238.742188 265.863281 C 246.03125 243.363281 306.214844 225.730469 339.644531 237.886719 C 373.074219 250.054688 377.324219 302.957031 370.636719 326.671875 C 363.960938 350.394531 367 415.453125 377.9375 428.835938 C 388.878906 442.207031 353.023438 462.277344 328.09375 464.707031 C 303.164062 467.144531 287.972656 380.796875 294.664062 353.433594 C 301.351562 326.070312 264.871094 295.054688 264.871094 295.054688 "/>
<path style=" stroke:none;fill-rule:nonzero;fill:rgb(22.749329%,28.239441%,31.759644%);fill-opacity:1;" d="M 414.566406 468.945312 C 427.378906 463.445312 487.84375 596.710938 496.234375 611.097656 C 504.625 625.496094 594.554688 692.675781 600.542969 707.0625 C 606.535156 721.453125 594.210938 748.496094 584.617188 750.886719 C 575.027344 753.289062 482.933594 668.511719 466.148438 658.917969 C 449.367188 649.320312 376.492188 573.992188 380.09375 532.007812 C 383.683594 490.023438 396.460938 476.714844 414.566406 468.945312 "/>
<path style=" stroke:none;fill-rule:nonzero;fill:rgb(87.838745%,67.059326%,57.249451%);fill-opacity:1;" d="M 642.574219 731.207031 C 643.882812 736.855469 627.800781 741.648438 626.5 749.894531 C 626.5 750.765625 625.632812 751.648438 623.890625 752.503906 L 623.464844 752.503906 C 614.765625 755.542969 590.4375 746.855469 586.519531 741.195312 C 581.300781 733.816406 581.300781 712.945312 589.554688 707.738281 C 589.554688 707.738281 633.019531 704.6875 633.886719 711.648438 C 634.316406 714.6875 614.765625 714.6875 615.636719 719.035156 C 616.066406 720.335938 618.671875 721.207031 622.152344 722.503906 C 624.320312 722.945312 626.929688 723.816406 629.109375 724.6875 C 634.757812 725.984375 640.40625 727.726562 641.703125 729.90625 C 642.144531 730.335938 642.574219 730.777344 642.574219 731.207031 "/>
<path style=" stroke:none;fill-rule:nonzero;fill:rgb(52.549744%,41.178894%,34.899902%);fill-opacity:1;" d="M 589.519531 759.871094 C 590.191406 759.183594 703.039062 665.496094 703.039062 665.496094 L 596.183594 764.90625 L 589.519531 759.871094 "/>
<path style=" stroke:none;fill-rule:nonzero;fill:rgb(85.099792%,54.508972%,40.779114%);fill-opacity:1;" d="M 642.574219 731.207031 C 643.882812 736.855469 627.800781 741.648438 626.5 749.894531 C 626.5 750.765625 625.632812 751.648438 623.890625 752.503906 L 623.464844 752.503906 C 622.152344 752.0625 620.414062 752.0625 619.542969 752.0625 C 616.503906 752.503906 604.339844 745.542969 603.898438 741.195312 C 603.03125 736.855469 621.722656 748.152344 622.582031 745.984375 C 623.464844 743.816406 608.679688 738.167969 609.546875 735.113281 C 610.417969 732.074219 626.5 742.0625 627.800781 739.035156 C 629.539062 736.425781 613.894531 734.246094 614.335938 730.335938 C 614.335938 726.855469 632.589844 735.113281 633.445312 732.945312 C 633.886719 730.777344 617.375 727.296875 618.246094 722.945312 C 618.671875 721.648438 619.984375 721.648438 622.152344 722.503906 C 624.320312 722.945312 626.929688 723.816406 629.109375 724.6875 C 634.757812 726.855469 640.847656 729.90625 641.703125 729.90625 C 642.144531 730.335938 642.574219 730.777344 642.574219 731.207031 "/>
</g>
</svg>
