<?xml version="1.0" encoding="UTF-8"?>
<svg xmlns="http://www.w3.org/2000/svg" xmlns:xlink="http://www.w3.org/1999/xlink" width="1417.5pt" height="1417.499962pt" viewBox="0 0 1417.5 1417.499962" version="1.2">
<defs>
<clipPath id="clip1">
  <path d="M 835 1380 L 936 1380 L 936 1417 L 835 1417 Z M 835 1380 "/>
</clipPath>
</defs>
<g id="surface1">
<path style=" stroke:none;fill-rule:nonzero;fill:rgb(96.469116%,54.119873%,54.508972%);fill-opacity:1;" d="M 1058.773438 1287.492188 L 1067.878906 1240.71875 C 1053.113281 1247.140625 1037.699219 1252.042969 1021.804688 1254.570312 C 1019.175781 1254.988281 1016.699219 1254.117188 1014.742188 1252.574219 C 1014.777344 1258.886719 1014.808594 1265.199219 1014.804688 1271.519531 C 1014.804688 1291.988281 1014.78125 1312.472656 1014.761719 1332.941406 L 1014.761719 1339.621094 C 1016.601562 1337.890625 1017.632812 1335.453125 1017.496094 1332.898438 L 1015.859375 1300.628906 L 1055.070312 1299.722656 L 1055.65625 1328.511719 Z M 1058.773438 1287.492188 "/>
<path style=" stroke:none;fill-rule:nonzero;fill:rgb(96.469116%,54.119873%,54.508972%);fill-opacity:1;" d="M 1001.140625 1367.113281 L 1022.414062 1369.835938 Z M 1001.140625 1367.113281 "/>
<path style=" stroke:none;fill-rule:nonzero;fill:rgb(96.469116%,54.119873%,54.508972%);fill-opacity:1;" d="M 1015.867188 1300.632812 L 1017.5 1332.90625 C 1017.636719 1335.457031 1016.605469 1337.894531 1014.765625 1339.625 C 1014.164062 1340.210938 1013.445312 1340.707031 1012.660156 1341.117188 C 1006.292969 1344.402344 995.105469 1349.871094 986.160156 1352.921875 C 985.621094 1353.113281 985.039062 1353.289062 984.5 1353.414062 C 992.484375 1354.582031 1001.648438 1355.707031 1011.132812 1356.398438 C 1025.59375 1357.457031 1040.765625 1357.542969 1053.613281 1355.359375 C 1054.625 1355.183594 1055.632812 1354.992188 1056.617188 1354.796875 L 1056.015625 1345.78125 L 1055.65625 1328.511719 L 1055.070312 1299.722656 Z M 1015.867188 1300.632812 "/>
<path style=" stroke:none;fill-rule:nonzero;fill:rgb(22.749329%,9.01947%,17.649841%);fill-opacity:1;" d="M 1053.621094 1355.359375 C 1040.773438 1357.542969 1025.597656 1357.457031 1011.136719 1356.398438 C 1001.652344 1355.703125 992.484375 1354.582031 984.503906 1353.414062 C 982.691406 1353.847656 980.875 1354.085938 978.988281 1354.085938 L 968.382812 1354.085938 C 965.671875 1354.085938 963.566406 1356.378906 963.859375 1358.96875 C 964.082031 1360.957031 965.71875 1362.558594 967.78125 1362.835938 L 1001.140625 1367.113281 L 1043.6875 1372.558594 L 1047.097656 1372.992188 C 1052.722656 1373.703125 1057.613281 1369.273438 1057.230469 1363.875 L 1056.628906 1354.796875 C 1055.636719 1354.992188 1054.628906 1355.183594 1053.621094 1355.359375 Z M 1053.621094 1355.359375 "/>
<path style=" stroke:none;fill-rule:nonzero;fill:rgb(98.039246%,62.748718%,62.748718%);fill-opacity:1;" d="M 932.1875 1281.8125 L 875.886719 1262.65625 L 890.90625 1374.789062 L 837.949219 1405.753906 C 891.007812 1402.261719 920.488281 1389.710938 935.199219 1380.738281 Z M 932.1875 1281.8125 "/>
<g clip-path="url(#clip1)" clip-rule="nonzero">
<path style=" stroke:none;fill-rule:nonzero;fill:rgb(22.749329%,9.01947%,17.649841%);fill-opacity:1;" d="M 837.949219 1405.753906 C 836.234375 1406.828125 835.375 1408.371094 835.375 1410.003906 C 835.375 1411.75 836.351562 1413.609375 838.25 1415.109375 C 840.710938 1417.03125 844.238281 1417.949219 847.417969 1417.503906 L 920.109375 1407.054688 C 928.910156 1405.800781 934.777344 1400.457031 934.777344 1393.738281 L 935.199219 1380.738281 C 920.484375 1389.710938 891.003906 1402.261719 837.949219 1405.753906 Z M 837.949219 1405.753906 "/>
</g>
<path style=" stroke:none;fill-rule:nonzero;fill:rgb(35.688782%,42.349243%,70.979309%);fill-opacity:1;" d="M 1066.882812 1013.734375 L 1088.605469 767.75 L 973.449219 826.285156 L 992.167969 1009.515625 C 999.308594 1083.464844 1013.675781 1243.195312 1006.773438 1283.90625 C 1010.734375 1303.203125 1029.917969 1303.582031 1045.957031 1303.996094 C 1063.589844 1304.449219 1074.582031 1295.851562 1073.695312 1279.179688 C 1069.3125 1196.878906 1101.398438 1116.953125 1066.882812 1013.734375 Z M 1066.882812 1013.734375 "/>
<path style=" stroke:none;fill-rule:nonzero;fill:rgb(47.059631%,53.729248%,78.819275%);fill-opacity:1;" d="M 1072.507812 765.691406 C 1069.414062 760.0625 1067.859375 754.042969 1067.742188 747.660156 L 924.296875 764.308594 C 918.972656 774.96875 918.527344 757.507812 913.636719 770.480469 C 893.464844 823.683594 866.84375 931.664062 850.878906 1008.855469 C 856.027344 1144.585938 864.101562 1203.039062 867.617188 1242.121094 C 870.0625 1268.839844 870.984375 1276.253906 875.25 1315.320312 C 870.984375 1325.597656 927.753906 1340.550781 938.777344 1316.164062 C 939.246094 1315.125 939.832031 1314.246094 940.507812 1313.515625 C 938.597656 1265.804688 950.78125 1124.550781 935.335938 1023.394531 L 1022.65625 841.972656 C 1038.296875 837.261719 1061.113281 821.84375 1078.273438 804.039062 C 1084.933594 797.128906 1085.8125 786.160156 1080.019531 778.511719 C 1076.976562 774.503906 1074.410156 770.21875 1072.507812 765.691406 Z M 1072.507812 765.691406 "/>
<path style=" stroke:none;fill-rule:nonzero;fill:rgb(96.469116%,54.119873%,54.508972%);fill-opacity:1;" d="M 951.671875 330.742188 L 953.378906 353.679688 L 958.867188 426.863281 L 959.839844 439.878906 L 961.707031 464.804688 C 961.820312 464.804688 961.890625 464.804688 961.890625 464.804688 L 963.503906 486.5 C 963.503906 486.5 966.039062 487.539062 970.886719 488.277344 C 975.292969 488.925781 981.589844 489.363281 989.664062 488.535156 C 1006.523438 486.800781 1025.910156 472.164062 1026.070312 468.75 C 1026.277344 465.285156 1021.429688 452.691406 1021.429688 452.691406 L 989.675781 338.488281 C 975.007812 335.550781 967.59375 326.953125 951.671875 330.742188 Z M 951.671875 330.742188 "/>
<path style=" stroke:none;fill-rule:nonzero;fill:rgb(69.40918%,74.899292%,86.669922%);fill-opacity:1;" d="M 1081.519531 627.261719 C 1063.652344 588.53125 1047.273438 547.679688 1036.984375 506.203125 C 1034.597656 496.585938 1032.503906 486.5625 1034.351562 476.828125 C 1037.308594 461.292969 1053.730469 451.535156 1069.132812 457.503906 C 1083.703125 463.148438 1091.582031 489.230469 1095.003906 503.425781 C 1109.535156 563.667969 1118.261719 578.898438 1123.71875 618.355469 C 1126.035156 635.113281 1122.488281 656.582031 1100.65625 652.464844 C 1090.722656 650.589844 1085.242188 635.34375 1081.519531 627.261719 Z M 1081.519531 627.261719 "/>
<path style=" stroke:none;fill-rule:nonzero;fill:rgb(69.40918%,74.899292%,86.669922%);fill-opacity:1;" d="M 976.945312 753.992188 C 977.253906 753.375 977.597656 752.769531 977.980469 752.1875 C 983.75 743.363281 989.089844 734.339844 995.203125 725.726562 C 1016.386719 695.886719 1040.300781 668.074219 1064.484375 640.65625 C 1077.285156 626.144531 1101.480469 593.191406 1121.296875 617.476562 C 1141.539062 642.277344 1095.480469 677.835938 1080.257812 692.601562 C 1074.84375 697.855469 1069.429688 703.113281 1064.011719 708.367188 C 1043.421875 728.339844 1023.234375 747.519531 1001.140625 765.855469 C 998.078125 768.398438 994.890625 771.003906 991.0625 772.074219 C 979.875 775.195312 972.046875 763.832031 976.945312 753.992188 Z M 976.945312 753.992188 "/>
<path style=" stroke:none;fill-rule:nonzero;fill:rgb(85.488892%,87.059021%,94.119263%);fill-opacity:1;" d="M 1089.851562 783.367188 C 1089.082031 784.773438 1087.699219 785.824219 1086.324219 786.796875 C 1046.339844 814.832031 991.117188 816.722656 942.492188 803.753906 C 941.46875 803.5 940.476562 803.21875 939.453125 802.9375 C 923.195312 798.410156 907.753906 792.222656 893.945312 784.804688 C 892.054688 783.78125 890.085938 782.632812 889.066406 780.84375 C 887.890625 778.691406 888.402344 776.113281 888.910156 773.757812 C 890.0625 768.539062 891.210938 763.324219 892.332031 758.105469 C 897.316406 735.496094 901.613281 712.601562 907.289062 690.203125 C 911.6875 672.859375 918.796875 659.585938 913.222656 641.140625 C 909.875 630.042969 904.144531 619.863281 899.570312 609.25 C 891.496094 590.5 886.863281 569.527344 891.238281 549.578125 C 891.777344 547.148438 892.441406 544.566406 893.257812 541.90625 C 893.460938 541.1875 893.691406 540.46875 893.921875 539.78125 C 894.253906 538.707031 894.640625 537.660156 895.019531 536.613281 C 897.859375 528.835938 901.59375 521.542969 906.0625 514.816406 C 908.773438 510.699219 911.789062 506.789062 915.035156 503.078125 C 936.769531 478.164062 969.3125 462.433594 1001.503906 457.5 C 1015.488281 455.347656 1064.035156 447.625 1073.289062 459.875 C 1089.089844 480.847656 1080.089844 516.171875 1074.335938 539.5 C 1065.59375 575.023438 1053.476562 608.636719 1055.390625 645.695312 C 1053.546875 660.65625 1056.160156 674.699219 1062.011719 692.398438 C 1071.164062 720.175781 1080.316406 747.953125 1089.46875 775.707031 C 1090.308594 778.195312 1091.101562 781.011719 1089.851562 783.367188 Z M 1089.851562 783.367188 "/>
<path style=" stroke:none;fill-rule:nonzero;fill:rgb(69.40918%,74.899292%,86.669922%);fill-opacity:1;" d="M 888.902344 773.75 C 890.050781 768.53125 891.203125 763.3125 892.324219 758.097656 C 897.308594 735.488281 901.605469 712.59375 907.28125 690.191406 C 911.679688 672.851562 918.785156 659.578125 913.210938 641.132812 C 909.863281 630.03125 904.136719 619.851562 899.5625 609.238281 C 891.484375 590.492188 886.855469 569.519531 891.230469 549.570312 C 891.769531 547.140625 892.433594 544.554688 893.25 541.894531 C 893.449219 541.179688 893.683594 540.460938 893.914062 539.773438 C 894.242188 538.695312 894.628906 537.648438 895.011719 536.601562 C 897.695312 529.058594 901.402344 521.230469 906.054688 514.808594 C 915.164062 502.167969 918.210938 510.132812 933.972656 520.355469 C 952.71875 505.011719 947.066406 583.949219 954.425781 649.949219 C 954.035156 653.945312 948.628906 710.917969 948.234375 714.882812 C 946.980469 727.386719 951.101562 779.511719 942.488281 803.761719 C 941.464844 803.503906 940.46875 803.222656 939.445312 802.945312 C 923.191406 798.414062 907.746094 792.226562 893.941406 784.8125 C 892.050781 783.785156 890.078125 782.636719 889.0625 780.847656 C 887.882812 778.683594 888.390625 776.101562 888.902344 773.75 Z M 888.902344 773.75 "/>
<path style=" stroke:none;fill-rule:nonzero;fill:rgb(96.469116%,54.119873%,54.508972%);fill-opacity:1;" d="M 946.289062 331.71875 L 951.226562 363.820312 C 951.226562 363.820312 951.382812 363.71875 951.664062 363.554688 C 951.730469 364.578125 951.890625 365.640625 952.285156 366.777344 C 953.097656 369.101562 954.117188 371.273438 955.28125 373.328125 C 956.816406 376.800781 958.320312 380.28125 959.972656 383.703125 C 960.894531 385.617188 962.3125 387.050781 963.945312 388.070312 C 960.449219 390.726562 957.394531 392.222656 957.394531 392.222656 L 964.796875 404.566406 C 974.511719 412.34375 986.277344 417 998.550781 418.070312 C 986.152344 423.796875 973.703125 429.410156 961.140625 434.777344 L 959.859375 429.261719 C 937.644531 432.964844 929.007812 424.320312 929.007812 424.320312 C 906.800781 378.628906 946.289062 331.71875 946.289062 331.71875 Z M 946.289062 331.71875 "/>
<path style=" stroke:none;fill-rule:nonzero;fill:rgb(96.469116%,54.119873%,54.508972%);fill-opacity:1;" d="M 966.695312 406.863281 C 972.789062 403.015625 975.28125 395.519531 972.273438 390.125 C 969.261719 384.730469 961.882812 383.480469 955.789062 387.328125 C 949.699219 391.179688 947.203125 398.675781 950.210938 404.066406 C 953.226562 409.460938 960.609375 410.710938 966.695312 406.863281 Z M 966.695312 406.863281 "/>
<path style=" stroke:none;fill-rule:nonzero;fill:rgb(69.40918%,74.899292%,86.669922%);fill-opacity:1;" d="M 962.5 943.921875 C 962.496094 942.003906 961.816406 940.65625 960.707031 940.027344 C 960.734375 940.035156 797.8125 836.382812 797.8125 836.382812 C 796.6875 835.730469 795.113281 835.832031 793.34375 836.851562 C 789.976562 838.792969 787.257812 843.511719 787.265625 847.378906 L 787.640625 987.429688 C 787.644531 989.332031 788.308594 990.671875 789.398438 991.304688 L 952.320312 1086.027344 C 952.171875 1085.941406 952.054688 1085.808594 951.921875 1085.695312 C 953.054688 1086.660156 954.796875 1086.710938 956.800781 1085.554688 C 960.164062 1083.609375 962.886719 1078.914062 962.875 1075.042969 Z M 962.5 943.921875 "/>
<path style=" stroke:none;fill-rule:nonzero;fill:rgb(36.468506%,36.859131%,57.249451%);fill-opacity:1;" d="M 797.808594 836.378906 C 796.683594 835.722656 795.109375 835.828125 793.339844 836.847656 C 789.972656 838.789062 787.253906 843.507812 787.265625 847.375 L 787.640625 987.425781 C 787.644531 989.328125 788.308594 990.667969 789.398438 991.300781 L 952.320312 1086.023438 C 951.230469 1085.390625 950.570312 1084.050781 950.5625 1082.148438 L 950.1875 951.03125 C 950.179688 947.164062 952.898438 942.445312 956.261719 940.503906 C 958.03125 939.484375 959.605469 939.382812 960.730469 940.035156 Z M 797.808594 836.378906 "/>
<path style=" stroke:none;fill-rule:nonzero;fill:rgb(21.179199%,22.349548%,38.819885%);fill-opacity:1;" d="M 962.867188 1075.035156 C 962.890625 1078.085938 961.203125 1081.625 958.84375 1083.9375 C 958.199219 1084.582031 957.507812 1085.140625 956.789062 1085.554688 C 956.441406 1085.761719 956.097656 1085.921875 955.769531 1086.039062 C 952.789062 1087.242188 950.570312 1085.625 950.570312 1082.152344 L 950.203125 951.023438 C 950.179688 947.347656 952.652344 942.90625 955.769531 940.800781 C 955.929688 940.6875 956.097656 940.59375 956.257812 940.5 C 957.179688 939.964844 958.0625 939.691406 958.84375 939.644531 C 961.019531 939.484375 962.5 941.078125 962.5 943.921875 Z M 962.867188 1075.035156 "/>
<path style=" stroke:none;fill-rule:nonzero;fill:rgb(94.509888%,94.898987%,94.898987%);fill-opacity:1;" d="M 873.03125 973.101562 C 873.03125 976.941406 870.335938 978.492188 867.011719 976.578125 C 863.695312 974.65625 860.996094 969.992188 860.996094 966.15625 C 860.996094 962.320312 863.6875 960.765625 867.011719 962.679688 C 870.335938 964.597656 873.03125 969.265625 873.03125 973.101562 Z M 873.03125 973.101562 "/>
<path style=" stroke:none;fill-rule:nonzero;fill:rgb(98.039246%,62.748718%,62.748718%);fill-opacity:1;" d="M 947.664062 533.011719 C 956.382812 562.039062 946.410156 611.945312 942.824219 632.0625 C 937.652344 661.066406 930.707031 688.503906 923.738281 717.050781 C 914.277344 755.8125 911.015625 796.777344 895.703125 833.503906 C 888.953125 849.691406 882.320312 861.503906 881.851562 879.945312 C 881.757812 883.65625 881.351562 924.886719 881.195312 940.601562 C 881.179688 942.632812 878.578125 943.441406 877.417969 941.78125 C 867.59375 927.753906 842.984375 883.96875 862.476562 818.644531 C 862.488281 818.613281 868.984375 796.632812 868.984375 796.632812 L 876.980469 745.523438 L 883.792969 722.449219 L 886.410156 690.257812 L 891.363281 629.339844 L 899.476562 529.277344 C 900.324219 518.511719 910.796875 510.648438 923.535156 511.15625 C 936.507812 511.671875 943.867188 520.355469 947.664062 533.011719 Z M 947.664062 533.011719 "/>
<path style=" stroke:none;fill-rule:nonzero;fill:rgb(85.488892%,87.059021%,94.119263%);fill-opacity:1;" d="M 904.773438 818.765625 L 903.871094 818.457031 C 902.683594 818.058594 901.476562 817.628906 900.21875 817.171875 C 887.457031 812.75 873.496094 807.625 866.796875 803.136719 L 865.976562 802.589844 L 877.089844 740.933594 C 879.714844 732.042969 881.433594 722.800781 882.191406 713.460938 L 883.652344 695.492188 C 886.570312 677.671875 888.136719 658.382812 888.597656 634.667969 C 888.90625 618.320312 888.640625 601.761719 888.339844 586.203125 L 888.273438 583.132812 C 888.019531 571.15625 887.75 558.773438 890.089844 546.867188 C 894.535156 524.230469 913.929688 485.070312 937.503906 509.089844 C 958.21875 530.207031 955.507812 568.082031 953.910156 596.175781 C 951.390625 640.359375 939.527344 682.691406 930.152344 725.421875 C 923.59375 755.324219 918.824219 790.839844 905.234375 817.835938 Z M 904.773438 818.765625 "/>
<path style=" stroke:none;fill-rule:nonzero;fill:rgb(39.219666%,21.569824%,31.369019%);fill-opacity:1;" d="M 947.722656 307.382812 C 947.722656 307.382812 901.773438 330.984375 931.578125 370.746094 C 961.382812 410.511719 947.722656 453.992188 947.722656 453.992188 C 947.722656 453.992188 950.207031 498.722656 984.980469 518.601562 C 984.980469 518.601562 1006.742188 534.683594 997.402344 560.84375 C 984.980469 595.632812 984.980469 666.039062 1061.980469 662.722656 C 1138.425781 659.433594 1121.714844 613.34375 1113.082031 580.070312 C 1108.871094 563.855469 1099.140625 549.773438 1086.195312 539.136719 C 1076.929688 531.523438 1066.949219 518.679688 1066.949219 498.71875 C 1066.949219 461.441406 1076.882812 453.988281 1039.628906 406.777344 L 1034.996094 361.941406 C 1032.863281 341.335938 1027.300781 319.960938 1008.585938 311.109375 C 1000.230469 307.15625 987.738281 301.167969 978.78125 301.167969 C 951.445312 301.167969 947.722656 307.382812 947.722656 307.382812 Z M 947.722656 307.382812 "/>
<path style=" stroke:none;fill-rule:nonzero;fill:rgb(96.078491%,54.508972%,54.899597%);fill-opacity:1;" d="M 692.746094 215.871094 L 695.183594 205.117188 L 710.789062 136.34375 L 738.925781 135.425781 L 743.449219 214.457031 L 743.296875 227.074219 C 727.546875 221.53125 709.089844 219.398438 692.746094 215.871094 Z M 692.746094 215.871094 "/>
<path style=" stroke:none;fill-rule:nonzero;fill:rgb(38.038635%,43.528748%,64.309692%);fill-opacity:1;" d="M 533.929688 155.464844 C 536.792969 153.460938 540.308594 152.320312 544.558594 152.339844 C 563.34375 152.429688 580.191406 156.617188 591.054688 171.847656 C 599.738281 184.019531 609.996094 195.3125 619.242188 207.074219 C 639.25 232.527344 659.351562 258.1875 676.984375 285.375 L 695.191406 205.117188 C 706.441406 221.53125 735.769531 218.355469 744.488281 208.050781 L 741.921875 345.3125 C 741.660156 361.59375 735.859375 393.222656 713.238281 399.203125 C 705.109375 401.355469 696.449219 399.0625 689.683594 394.066406 C 678.304688 385.660156 659.015625 373.0625 653.679688 366.730469 C 637.621094 347.660156 602.25 313.886719 588.222656 292.53125 C 562.804688 253.835938 542.925781 248.914062 528.082031 215.917969 C 521.636719 201.597656 518.585938 166.183594 533.929688 155.464844 Z M 533.929688 155.464844 "/>
<path style=" stroke:none;fill-rule:nonzero;fill:rgb(40.388489%,41.958618%,64.309692%);fill-opacity:1;" d="M 451.605469 157.027344 C 454.695312 156.5 457.773438 155.941406 460.847656 155.347656 C 457.703125 159.210938 454.542969 163.0625 451.398438 166.925781 C 451.355469 163.636719 451.441406 160.335938 451.605469 157.027344 Z M 451.605469 157.027344 "/>
<path style=" stroke:none;fill-rule:nonzero;fill:rgb(40.388489%,41.958618%,64.309692%);fill-opacity:1;" d="M 411.710938 161.949219 C 412.625 161.878906 413.542969 161.789062 414.460938 161.710938 C 413.542969 164.429688 412.664062 167.15625 411.828125 169.910156 L 410.265625 165.289062 C 410.742188 164.167969 411.21875 163.050781 411.710938 161.949219 Z M 411.710938 161.949219 "/>
<path style=" stroke:none;fill-rule:nonzero;fill:rgb(22.749329%,9.01947%,17.649841%);fill-opacity:1;" d="M 517.777344 1081.820312 L 517.777344 1126.230469 C 517.777344 1137.144531 524.648438 1146.871094 534.933594 1150.511719 L 619.96875 1180.644531 C 623.691406 1181.960938 627.835938 1181.097656 630.714844 1178.40625 C 635.046875 1174.351562 635.199219 1167.527344 631.054688 1163.285156 L 576.648438 1107.632812 L 576.292969 1065.054688 Z M 517.777344 1081.820312 "/>
<path style=" stroke:none;fill-rule:nonzero;fill:rgb(36.468506%,36.859131%,57.249451%);fill-opacity:1;" d="M 611.5 458.351562 L 611.5 526.265625 L 580.449219 1103.835938 C 580.449219 1103.835938 554.941406 1132.332031 506.925781 1103.835938 L 506.925781 826.25 L 505.859375 526.265625 Z M 611.5 458.351562 "/>
<path style=" stroke:none;fill-rule:nonzero;fill:rgb(39.219666%,21.569824%,31.369019%);fill-opacity:1;" d="M 349.910156 1152.382812 L 339.34375 1215.496094 C 338.128906 1222.769531 337.976562 1230.117188 338.90625 1237.242188 L 344.027344 1276.519531 C 344.441406 1278.402344 345.925781 1279.675781 347.714844 1279.675781 L 360.96875 1279.675781 C 362.5625 1279.675781 364.09375 1278.65625 364.894531 1277.050781 L 379.933594 1247.066406 C 386.203125 1234.550781 389.125 1198.628906 389.167969 1184.824219 L 389.839844 1122.308594 L 357.847656 1104.886719 Z M 349.910156 1152.382812 "/>
<path style=" stroke:none;fill-rule:nonzero;fill:rgb(38.038635%,43.528748%,64.309692%);fill-opacity:1;" d="M 388.949219 542.621094 L 368.007812 849.25 L 335.5 1169.023438 C 335.5 1169.023438 361.351562 1200.011719 404.898438 1169.023438 L 474.257812 794.152344 L 506.765625 616.105469 L 526.089844 526.265625 Z M 388.949219 542.621094 "/>
<path style=" stroke:none;fill-rule:nonzero;fill:rgb(38.038635%,43.528748%,64.309692%);fill-opacity:1;" d="M 498.566406 616.105469 L 504.828125 612.890625 C 542.894531 593.335938 574.566406 563.273438 596.082031 526.265625 L 547.324219 444.570312 L 422.605469 491.863281 L 390.320312 537.664062 L 390.320312 612.671875 Z M 498.566406 616.105469 "/>
<path style=" stroke:none;fill-rule:nonzero;fill:rgb(85.879517%,86.669922%,94.119263%);fill-opacity:1;" d="M 394.582031 172.953125 C 404.734375 167.527344 415.371094 163.4375 423.109375 160.40625 C 429.582031 157.886719 436.574219 155.234375 443.925781 152.714844 L 444 152.691406 C 487.097656 137.886719 542.324219 126.722656 575.0625 161.074219 C 577.222656 163.363281 579.382812 166.015625 581.386719 168.890625 C 587.246094 177.402344 591.691406 188.042969 590.894531 197.484375 C 590.046875 207.484375 588.222656 216.84375 588.222656 227.101562 L 588.222656 464.667969 C 588.222656 469.171875 586.855469 482.929688 584.320312 494.675781 C 584.308594 508.238281 574.347656 521.792969 554.425781 532.140625 C 514.566406 552.839844 449.941406 552.839844 410.085938 532.140625 C 385.859375 519.558594 376.453125 502.230469 381.671875 485.925781 C 381.511719 485.535156 381.351562 485.140625 381.191406 484.746094 C 382.910156 473.925781 386.355469 469.140625 386.71875 452.375 C 387.796875 397.867188 386.5625 283.199219 365.363281 218.617188 C 358.527344 197.738281 375.667969 183.027344 394.582031 172.953125 Z M 394.582031 172.953125 "/>
<path style=" stroke:none;fill-rule:nonzero;fill:rgb(43.919373%,55.288696%,78.819275%);fill-opacity:1;" d="M 346.332031 227.414062 C 348.679688 254.695312 363.007812 279.496094 368.144531 306.332031 C 369.539062 313.691406 370.300781 321.050781 370.613281 328.539062 C 370.996094 336.59375 370.996094 344.714844 370.929688 352.769531 C 370.675781 409.042969 370.359375 465.308594 370.105469 521.644531 C 369.976562 544.035156 369.851562 566.429688 369.789062 588.828125 C 369.789062 588.953125 369.851562 589.082031 369.917969 589.144531 C 370.171875 589.714844 370.425781 590.222656 370.613281 590.792969 C 370.871094 590.984375 371.058594 591.238281 371.25 591.492188 C 371.3125 591.554688 371.378906 591.621094 371.441406 591.679688 C 373.46875 593.265625 375.433594 595.421875 377.210938 596.566406 C 378.417969 597.394531 379.683594 598.152344 380.949219 598.917969 C 388.875 602.027344 396.488281 605.578125 404.601562 608.175781 C 404.917969 608.304688 405.171875 608.367188 405.488281 608.492188 C 405.996094 608.683594 406.5 608.808594 407.011719 608.9375 C 408.28125 609.378906 409.546875 609.695312 410.816406 610.078125 C 411.703125 610.332031 412.65625 610.589844 413.542969 610.839844 C 413.796875 610.898438 414.238281 611.027344 414.75 611.152344 C 416.078125 611.46875 417.667969 611.785156 418.300781 611.914062 C 420.707031 612.421875 423.054688 612.867188 425.398438 613.308594 C 433.898438 614.765625 442.460938 615.910156 451.015625 616.671875 C 461.035156 615.847656 471.054688 614.644531 480.945312 612.933594 C 487.21875 611.851562 493.753906 610.460938 498.636719 606.332031 C 506.878906 599.289062 507.515625 586.984375 507.515625 576.136719 C 507.574219 544.101562 507.574219 512.0625 507.640625 480.027344 C 507.703125 412.972656 504.472656 340.402344 483.164062 275.121094 C 476.253906 253.996094 467.441406 233.632812 456.28125 214.472656 C 445.308594 195.695312 436.75 172.605469 445.308594 152.621094 C 418.167969 160.492188 392.046875 172.035156 367.886719 186.691406 C 362.878906 189.796875 357.804688 193.097656 353.933594 197.472656 C 352.980469 198.554688 352.09375 199.695312 351.335938 200.898438 C 346.269531 208.574219 345.574219 218.277344 346.332031 227.414062 Z M 346.332031 227.414062 "/>
<path style=" stroke:none;fill-rule:nonzero;fill:rgb(38.038635%,43.528748%,64.309692%);fill-opacity:1;" d="M 346.332031 227.414062 C 348.679688 254.695312 363.007812 279.496094 368.144531 306.332031 C 369.539062 313.691406 370.300781 321.050781 370.613281 328.539062 C 370.996094 336.59375 370.996094 344.714844 370.929688 352.769531 C 370.675781 409.042969 370.359375 465.308594 370.105469 521.644531 C 369.976562 544.035156 369.851562 566.429688 369.789062 588.828125 C 369.789062 588.953125 369.851562 589.082031 369.917969 589.144531 C 370.171875 589.714844 370.425781 590.222656 370.613281 590.792969 C 370.871094 590.984375 371.058594 591.238281 371.25 591.492188 C 371.3125 591.554688 371.378906 591.621094 371.441406 591.679688 C 373.46875 593.265625 375.433594 595.421875 377.210938 596.566406 C 378.417969 597.394531 379.683594 598.152344 380.949219 598.917969 C 388.875 602.027344 396.488281 605.578125 404.601562 608.175781 C 404.917969 608.304688 405.171875 608.367188 405.488281 608.492188 C 405.996094 608.683594 406.5 608.808594 407.011719 608.9375 C 408.59375 590.855469 409.863281 572.96875 410.433594 569.796875 L 410.433594 533.125 C 408.535156 514.726562 404.980469 496.648438 404.472656 487.386719 C 399.78125 407.074219 419.695312 318.453125 382.597656 243.527344 C 378.917969 235.980469 377.964844 228.554688 379.105469 221.707031 C 375.300781 215.488281 371.308594 209.335938 365.917969 204.515625 C 362.496094 201.347656 358.375 198.808594 353.933594 197.472656 C 352.980469 198.554688 352.09375 199.695312 351.335938 200.898438 C 346.269531 208.574219 345.574219 218.277344 346.332031 227.414062 Z M 346.332031 227.414062 "/>
<path style=" stroke:none;fill-rule:nonzero;fill:rgb(43.919373%,55.288696%,78.819275%);fill-opacity:1;" d="M 620.355469 539.875 C 621.460938 532.6875 620.777344 524.265625 619.957031 513.859375 C 618.234375 491.980469 616.511719 470.125 614.792969 448.246094 C 612.527344 419.761719 610.269531 391.25 608.035156 362.761719 C 605.773438 334.171875 603.515625 305.582031 601.25 276.992188 C 599.5 254.832031 597.757812 232.640625 595.984375 210.480469 C 595.210938 200.679688 595.261719 191.8125 592.921875 182.96875 C 592.023438 179.570312 590.792969 176.203125 589.019531 172.789062 C 588.042969 170.910156 583.910156 164.355469 585.292969 166.257812 C 583.960938 164.328125 582.621094 162.429688 581.183594 160.578125 C 574.21875 151.609375 563.730469 144.691406 552.527344 142.480469 C 545.546875 141.601562 540.527344 140.96875 536.707031 140.523438 C 553.925781 152.835938 552.820312 170.113281 554.097656 191.871094 C 554.894531 205.367188 555.152344 224.492188 555.359375 236.835938 C 555.484375 244.007812 555.589844 248.226562 555.796875 254.367188 L 562.738281 513.324219 C 562.738281 513.324219 562.738281 556.242188 562.738281 556.527344 C 562.742188 578.160156 585.894531 572.660156 598.738281 565.933594 C 613.269531 558.304688 618.738281 550.414062 620.355469 539.875 Z M 620.355469 539.875 "/>
<path style=" stroke:none;fill-rule:nonzero;fill:rgb(100%,100%,100%);fill-opacity:1;" d="M 458.320312 143.851562 C 463.34375 136.101562 472.496094 130.304688 472.519531 130.289062 C 474.417969 129.53125 476.277344 128.867188 478.113281 128.257812 C 481.808594 125.230469 486.160156 123.390625 491.132812 123.390625 C 519.5 123.390625 535.796875 153.34375 542.539062 177.863281 C 544.660156 185.578125 538.613281 193.085938 530.847656 192.445312 L 514.359375 191.082031 L 495.6875 205.738281 C 486.828125 212.691406 474.121094 211.023438 467.386719 201.890625 C 462.023438 194.613281 456.8125 184.722656 455.054688 172.414062 C 453.367188 160.597656 454.65625 149.507812 458.320312 143.851562 Z M 458.320312 143.851562 "/>
<path style=" stroke:none;fill-rule:nonzero;fill:rgb(96.469116%,54.119873%,54.508972%);fill-opacity:1;" d="M 466.101562 136.578125 C 466.210938 135.804688 479.476562 82.113281 479.789062 81.394531 L 483.21875 79.683594 L 488.835938 84.871094 C 493.027344 81.179688 501.640625 81.476562 506.117188 85.320312 C 512.871094 91.121094 518.976562 98.761719 524.039062 106.773438 C 525.476562 127.253906 523.511719 108.320312 524.609375 153.449219 C 522.480469 157.070312 522.648438 173.792969 521.183594 175.730469 C 515.183594 183.667969 510.933594 185.070312 505.882812 186.058594 C 490.136719 189.128906 461.691406 167.402344 466.101562 136.578125 Z M 466.101562 136.578125 "/>
<path style=" stroke:none;fill-rule:nonzero;fill:rgb(96.078491%,54.508972%,54.899597%);fill-opacity:1;" d="M 695.539062 119.8125 C 696.046875 102.925781 700.363281 86.5625 703.421875 68.808594 C 703.824219 66.480469 705.792969 64.742188 708.160156 64.636719 C 711.113281 64.503906 713.546875 66.933594 713.417969 69.890625 L 712.214844 98.117188 C 715.832031 99.753906 719.625 101.183594 723.359375 102.632812 C 730.136719 105.261719 742.8125 110.417969 746.089844 116.90625 C 750.855469 126.351562 744.730469 151.691406 742.167969 166.085938 C 738.699219 185.523438 725.808594 183.917969 709.066406 171.839844 C 704.238281 169.425781 703.117188 161.054688 701.605469 156.609375 C 700.800781 154.230469 699.996094 151.847656 699.273438 149.445312 C 696.1875 139.164062 695.25 129.402344 695.539062 119.8125 Z M 695.539062 119.8125 "/>
<path style=" stroke:none;fill-rule:nonzero;fill:rgb(82.749939%,39.99939%,42.349243%);fill-opacity:1;" d="M 713.363281 162.675781 C 713.613281 162.617188 719.503906 161.109375 722.78125 155.121094 C 725.527344 150.101562 725.582031 143.582031 722.957031 135.738281 L 722.957031 129.246094 L 730.238281 111.179688 L 727.761719 111.304688 C 727.597656 111.308594 710.742188 112.316406 706.5 126.714844 L 709.546875 127.605469 C 712.25 118.40625 720.957031 115.628906 725.355469 114.808594 L 719.785156 128.941406 L 719.867188 136.507812 C 722.28125 143.59375 722.324219 149.339844 720 153.597656 C 717.386719 158.375 712.65625 159.585938 712.609375 159.59375 Z M 713.363281 162.675781 "/>
<path style=" stroke:none;fill-rule:nonzero;fill:rgb(82.749939%,39.99939%,42.349243%);fill-opacity:1;" d="M 727.894531 137.945312 C 731.578125 137.945312 735.28125 136.835938 738.289062 134.730469 C 742.730469 131.609375 745.644531 126.308594 745.902344 120.882812 L 742.730469 120.734375 C 742.53125 125.199219 740.128906 129.5625 736.46875 132.128906 C 732.8125 134.695312 727.890625 135.460938 723.625 134.136719 L 722.683594 137.164062 C 724.367188 137.6875 726.128906 137.945312 727.894531 137.945312 Z M 727.894531 137.945312 "/>
<path style=" stroke:none;fill-rule:nonzero;fill:rgb(39.219666%,21.569824%,31.369019%);fill-opacity:1;" d="M 461.511719 29.417969 C 475.796875 12.394531 497.59375 11.527344 517.011719 5.429688 C 531.03125 1.023438 548.578125 0.304688 558.125 11.480469 C 562.761719 16.910156 564.59375 24.546875 563.191406 31.546875 C 561.179688 41.554688 553.339844 49.253906 545.519531 55.804688 C 536.210938 63.613281 526.359375 70.777344 516.070312 77.234375 C 505.027344 84.164062 473.785156 102.277344 462.140625 89.050781 C 451.761719 77.261719 452.925781 39.667969 461.511719 29.417969 Z M 461.511719 29.417969 "/>
<path style=" stroke:none;fill-rule:nonzero;fill:rgb(100%,65.098572%,59.21936%);fill-opacity:1;" d="M 547.824219 40.894531 L 534.207031 41.8125 C 523.410156 53.890625 505.742188 60.347656 488.289062 60.578125 L 488.289062 86.023438 C 488.289062 88.695312 485.945312 90.882812 483.078125 90.882812 C 481.933594 90.882812 480.878906 90.519531 480.015625 89.929688 L 477.871094 108.070312 C 477.871094 108.070312 514.089844 151.679688 532.953125 141.207031 C 552.476562 130.359375 558.238281 108.316406 547.824219 40.894531 Z M 547.824219 40.894531 "/>
<path style=" stroke:none;fill-rule:nonzero;fill:rgb(100%,65.098572%,59.21936%);fill-opacity:1;" d="M 480.410156 86.015625 C 481.300781 86.683594 482.136719 87.410156 482.914062 88.195312 C 483.691406 88.980469 484.398438 89.808594 485.03125 90.683594 C 485.664062 91.554688 486.214844 92.453125 486.679688 93.378906 C 487.144531 94.304688 487.515625 95.238281 487.792969 96.179688 C 488.070312 97.125 488.25 98.058594 488.332031 98.980469 C 488.414062 99.90625 488.394531 100.804688 488.273438 101.675781 C 488.15625 102.546875 487.941406 103.371094 487.625 104.15625 C 487.308594 104.9375 486.902344 105.664062 486.40625 106.328125 C 485.90625 106.992188 485.328125 107.585938 484.664062 108.109375 C 484.003906 108.632812 483.269531 109.070312 482.46875 109.429688 C 481.667969 109.789062 480.8125 110.058594 479.902344 110.242188 C 478.992188 110.425781 478.046875 110.515625 477.0625 110.511719 C 476.082031 110.511719 475.078125 110.414062 474.0625 110.230469 C 473.042969 110.042969 472.027344 109.769531 471.011719 109.40625 C 469.996094 109.042969 469.003906 108.601562 468.03125 108.074219 C 467.058594 107.546875 466.128906 106.953125 465.238281 106.285156 C 464.34375 105.613281 463.511719 104.886719 462.734375 104.101562 C 461.957031 103.316406 461.25 102.488281 460.617188 101.617188 C 459.984375 100.746094 459.433594 99.847656 458.96875 98.921875 C 458.503906 97.996094 458.132812 97.0625 457.855469 96.117188 C 457.578125 95.175781 457.398438 94.242188 457.316406 93.316406 C 457.234375 92.390625 457.253906 91.496094 457.371094 90.625 C 457.492188 89.753906 457.707031 88.925781 458.023438 88.144531 C 458.335938 87.359375 458.742188 86.636719 459.242188 85.972656 C 459.738281 85.304688 460.320312 84.710938 460.984375 84.191406 C 461.644531 83.667969 462.378906 83.226562 463.179688 82.867188 C 463.980469 82.507812 464.835938 82.238281 465.746094 82.058594 C 466.65625 81.875 467.601562 81.785156 468.585938 81.785156 C 469.566406 81.789062 470.566406 81.882812 471.585938 82.070312 C 472.605469 82.253906 473.621094 82.53125 474.636719 82.890625 C 475.648438 83.253906 476.644531 83.699219 477.613281 84.226562 C 478.585938 84.75 479.519531 85.347656 480.410156 86.015625 Z M 480.410156 86.015625 "/>
<path style=" stroke:none;fill-rule:nonzero;fill:rgb(43.919373%,55.288696%,78.819275%);fill-opacity:1;" d="M 280.390625 368.382812 C 287.761719 344.617188 298.765625 309.667969 306.023438 288.960938 L 323.632812 248.050781 C 329.964844 229.984375 353.226562 193.074219 367.914062 186.714844 L 390.789062 176.746094 C 410.890625 175.976562 427.21875 202.835938 430.699219 226.601562 L 429.316406 224.785156 L 355.757812 376.414062 L 456.949219 464.101562 C 456.15625 472.023438 450.945312 478.542969 445.519531 487.585938 C 441.574219 494.15625 438.09375 500.699219 435.222656 507.398438 C 408.433594 493.742188 335.933594 449.410156 328.886719 445.414062 C 316.738281 438.527344 302.457031 425.316406 291.320312 413.960938 C 279.550781 401.960938 275.410156 384.441406 280.390625 368.382812 Z M 280.390625 368.382812 "/>
<path style=" stroke:none;fill-rule:nonzero;fill:rgb(100%,65.098572%,59.21936%);fill-opacity:1;" d="M 445.339844 489.15625 C 450.628906 476.660156 460.335938 472.140625 471.273438 471.953125 C 474.945312 471.519531 483.597656 472.792969 484.1875 473.414062 C 493.8125 475.660156 510.253906 478.050781 520.804688 481.753906 C 523.332031 482.640625 523.234375 486.289062 520.671875 487.082031 C 511.996094 489.769531 502.855469 491.546875 494.277344 493.875 C 505.25 506.515625 522.25 515.507812 534.285156 528.171875 C 535.28125 529.21875 536.324219 530.394531 536.449219 531.832031 C 536.59375 533.398438 535.609375 534.839844 534.554688 536.003906 C 529.347656 541.753906 521.347656 544.40625 513.597656 544.445312 C 493.453125 544.566406 434.019531 515.902344 445.339844 489.15625 Z M 445.339844 489.15625 "/>
<path style=" stroke:none;fill-rule:nonzero;fill:rgb(100%,65.098572%,59.21936%);fill-opacity:1;" d="M 444.601562 454.011719 L 482.6875 482.542969 L 460.175781 515.355469 L 418.128906 497.511719 C 430.8125 485.894531 439.734375 470.785156 444.601562 454.011719 Z M 444.601562 454.011719 "/>
</g>
</svg>
