<svg width="383" height="448" viewBox="0 0 383 448" fill="none" xmlns="http://www.w3.org/2000/svg">
<path d="M146.678 69.9431L146.687 69.9524C164.211 87.2995 188.904 96.7845 226.5 104.251V111.676C188.904 119.125 164.206 128.613 146.697 146.055L146.692 146.061L146.687 146.066C131.393 161.431 122.108 182.24 115.013 212.5H101.892C94.7914 182.256 85.6239 161.322 70.1808 146.047C54.7573 130.791 33.8698 121.56 3.5 114.476V101.435C33.8491 94.3848 54.8636 85.3231 70.1986 69.9357C85.5126 54.5693 94.7804 33.7405 101.891 3.5H114.996C122.084 33.6493 131.301 54.6057 146.678 69.9431Z" stroke="#FBDAA8" stroke-width="7"/>
<path d="M337.653 207.105C329.161 198.575 324.051 186.723 320.059 169H309.586C305.584 186.774 300.444 198.555 291.982 207.105C283.52 215.656 271.726 220.711 254 224.716V235.233C271.726 239.249 283.459 244.405 291.982 252.895C300.505 261.384 305.584 273.216 309.586 291H320.069C324.062 273.216 329.212 261.445 337.664 252.895C347.294 243.233 361.099 237.944 383 233.705V226.255C361.099 222.005 347.294 216.716 337.653 207.105Z" fill="white"/>
<path d="M199.265 326.972C186.954 314.666 179.548 297.567 173.76 272H158.578C152.776 297.641 145.325 314.636 133.059 326.972C120.793 339.307 103.696 346.599 78 352.377V367.55C103.696 373.342 120.704 380.782 133.059 393.028C145.414 405.275 152.776 422.345 158.578 448H173.775C179.562 422.345 187.028 405.364 199.28 393.028C213.24 379.091 233.252 371.46 265 365.344V354.597C233.252 348.466 213.24 340.836 199.265 326.972Z" fill="#FEE7C4"/>
</svg>
