<svg width="42" height="32" viewBox="0 0 42 32" fill="none" xmlns="http://www.w3.org/2000/svg">
<path d="M35.2458 2.89531C32.5921 1.67769 29.7465 0.780604 26.7712 0.266804C26.717 0.256888 26.6628 0.281669 26.6349 0.331232C26.269 0.982152 25.8636 1.83133 25.5797 2.49878C22.3795 2.01969 19.1958 2.01969 16.0613 2.49878C15.7773 1.8165 15.3572 0.982152 14.9896 0.331232C14.9617 0.283322 14.9076 0.258541 14.8534 0.266804C11.8797 0.778962 9.03404 1.67605 6.37872 2.89531C6.35574 2.90522 6.33603 2.92176 6.32296 2.94322C0.925325 11.0072 -0.553313 18.8729 0.172057 26.6411C0.175339 26.6791 0.196673 26.7155 0.226214 26.7386C3.78742 29.3539 7.23705 30.9416 10.6226 31.9939C10.6768 32.0105 10.7342 31.9906 10.7687 31.946C11.5696 30.8524 12.2835 29.6992 12.8955 28.4865C12.9317 28.4155 12.8972 28.3312 12.8234 28.3031C11.691 27.8736 10.6128 27.3499 9.57559 26.7551C9.49355 26.7072 9.48699 26.5899 9.56246 26.5337C9.78072 26.3701 9.99904 26.2 10.2074 26.0282C10.2452 25.9968 10.2977 25.9902 10.342 26.01C17.1559 29.1209 24.5327 29.1209 31.2661 26.01C31.3104 25.9885 31.363 25.9951 31.4023 26.0265C31.6108 26.1983 31.8291 26.3701 32.049 26.5337C32.1244 26.5899 32.1195 26.7072 32.0375 26.7551C31.0003 27.3614 29.9221 27.8736 28.7881 28.3015C28.7142 28.3296 28.6814 28.4155 28.7175 28.4865C29.3427 29.6975 30.0566 30.8507 30.8427 31.9444C30.8756 31.9906 30.9346 32.0105 30.9888 31.9939C34.3908 30.9416 37.8404 29.3539 41.4016 26.7386C41.4328 26.7155 41.4525 26.6808 41.4558 26.6428C42.3239 17.6619 40.0017 9.86062 35.3 2.94486C35.2885 2.92176 35.2688 2.90522 35.2458 2.89531ZM13.9131 21.9111C11.8616 21.9111 10.1713 20.0277 10.1713 17.7147C10.1713 15.4018 11.8289 13.5184 13.9131 13.5184C16.0137 13.5184 17.6876 15.4183 17.6548 17.7147C17.6548 20.0277 15.9972 21.9111 13.9131 21.9111ZM27.7476 21.9111C25.6962 21.9111 24.0059 20.0277 24.0059 17.7147C24.0059 15.4018 25.6634 13.5184 27.7476 13.5184C29.8482 13.5184 31.5221 15.4183 31.4893 17.7147C31.4893 20.0277 29.8482 21.9111 27.7476 21.9111Z" fill="white"/>
</svg>
