<?xml version="1.0" encoding="UTF-8"?>
<svg xmlns="http://www.w3.org/2000/svg" xmlns:xlink="http://www.w3.org/1999/xlink" width="1417.5pt" height="1417.499962pt" viewBox="0 0 1417.5 1417.499962" version="1.2">
<defs>
<clipPath id="clip1">
  <path d="M 0 0 L 1417 0 L 1417 1417 L 0 1417 Z M 0 0 "/>
</clipPath>
</defs>
<g id="surface1">
<g clip-path="url(#clip1)" clip-rule="nonzero">
<path style=" stroke:none;fill-rule:nonzero;fill:rgb(44.709778%,53.729248%,85.488892%);fill-opacity:1;" d="M 212.652344 0 L 1205.035156 0 C 1208.515625 0 1211.992188 0.0859375 1215.46875 0.253906 C 1218.945312 0.425781 1222.414062 0.683594 1225.878906 1.023438 C 1229.339844 1.363281 1232.792969 1.789062 1236.238281 2.300781 C 1239.679688 2.8125 1243.109375 3.40625 1246.519531 4.085938 C 1249.933594 4.765625 1253.328125 5.527344 1256.703125 6.371094 C 1260.082031 7.21875 1263.433594 8.144531 1266.765625 9.15625 C 1270.09375 10.167969 1273.398438 11.257812 1276.675781 12.429688 C 1279.953125 13.601562 1283.199219 14.855469 1286.414062 16.1875 C 1289.628906 17.519531 1292.808594 18.929688 1295.957031 20.417969 C 1299.101562 21.902344 1302.207031 23.46875 1305.277344 25.109375 C 1308.347656 26.75 1311.375 28.464844 1314.359375 30.253906 C 1317.34375 32.042969 1320.285156 33.902344 1323.179688 35.835938 C 1326.070312 37.769531 1328.917969 39.773438 1331.710938 41.847656 C 1334.507812 43.921875 1337.25 46.0625 1339.941406 48.269531 C 1342.628906 50.476562 1345.265625 52.75 1347.84375 55.085938 C 1350.421875 57.421875 1352.941406 59.824219 1355.402344 62.285156 C 1357.863281 64.746094 1360.261719 67.265625 1362.601562 69.84375 C 1364.9375 72.421875 1367.210938 75.054688 1369.417969 77.746094 C 1371.625 80.4375 1373.765625 83.179688 1375.839844 85.976562 C 1377.910156 88.769531 1379.914062 91.613281 1381.847656 94.507812 C 1383.78125 97.402344 1385.644531 100.339844 1387.433594 103.328125 C 1389.222656 106.3125 1390.9375 109.339844 1392.578125 112.40625 C 1394.21875 115.476562 1395.78125 118.585938 1397.269531 121.730469 C 1398.757812 124.878906 1400.167969 128.058594 1401.5 131.273438 C 1402.832031 134.488281 1404.082031 137.734375 1405.257812 141.011719 C 1406.429688 144.289062 1407.519531 147.59375 1408.53125 150.921875 C 1409.539062 154.253906 1410.46875 157.605469 1411.3125 160.980469 C 1412.160156 164.359375 1412.921875 167.753906 1413.601562 171.164062 C 1414.28125 174.578125 1414.875 178.007812 1415.386719 181.449219 C 1415.894531 184.890625 1416.320312 188.34375 1416.664062 191.808594 C 1417.003906 195.273438 1417.261719 198.742188 1417.429688 202.21875 C 1417.601562 205.695312 1417.6875 209.171875 1417.6875 212.652344 L 1417.6875 1205.035156 C 1417.6875 1208.511719 1417.601562 1211.992188 1417.429688 1215.46875 C 1417.261719 1218.945312 1417.003906 1222.414062 1416.664062 1225.878906 C 1416.320312 1229.339844 1415.894531 1232.792969 1415.386719 1236.234375 C 1414.875 1239.679688 1414.28125 1243.105469 1413.601562 1246.519531 C 1412.921875 1249.933594 1412.160156 1253.328125 1411.3125 1256.703125 C 1410.46875 1260.078125 1409.539062 1263.433594 1408.53125 1266.761719 C 1407.519531 1270.09375 1406.429688 1273.398438 1405.257812 1276.675781 C 1404.082031 1279.949219 1402.832031 1283.195312 1401.5 1286.410156 C 1400.167969 1289.628906 1398.757812 1292.808594 1397.269531 1295.953125 C 1395.78125 1299.101562 1394.21875 1302.207031 1392.578125 1305.277344 C 1390.9375 1308.347656 1389.222656 1311.375 1387.433594 1314.359375 C 1385.644531 1317.34375 1383.78125 1320.28125 1381.847656 1323.175781 C 1379.914062 1326.070312 1377.910156 1328.914062 1375.839844 1331.710938 C 1373.765625 1334.503906 1371.625 1337.25 1369.417969 1339.9375 C 1367.210938 1342.628906 1364.9375 1345.261719 1362.601562 1347.84375 C 1360.261719 1350.421875 1357.863281 1352.941406 1355.402344 1355.402344 C 1352.941406 1357.863281 1350.421875 1360.261719 1347.84375 1362.597656 C 1345.265625 1364.9375 1342.628906 1367.207031 1339.941406 1369.417969 C 1337.25 1371.625 1334.507812 1373.765625 1331.710938 1375.835938 C 1328.914062 1377.910156 1326.070312 1379.914062 1323.179688 1381.847656 C 1320.285156 1383.78125 1317.34375 1385.644531 1314.359375 1387.433594 C 1311.375 1389.222656 1308.347656 1390.9375 1305.277344 1392.578125 C 1302.207031 1394.21875 1299.101562 1395.78125 1295.957031 1397.269531 C 1292.808594 1398.757812 1289.628906 1400.167969 1286.414062 1401.5 C 1283.199219 1402.832031 1279.953125 1404.082031 1276.675781 1405.253906 C 1273.398438 1406.429688 1270.09375 1407.519531 1266.765625 1408.53125 C 1263.433594 1409.539062 1260.082031 1410.46875 1256.703125 1411.3125 C 1253.328125 1412.160156 1249.933594 1412.921875 1246.519531 1413.601562 C 1243.109375 1414.277344 1239.679688 1414.875 1236.238281 1415.382812 C 1232.792969 1415.894531 1229.339844 1416.320312 1225.878906 1416.664062 C 1222.414062 1417.003906 1218.945312 1417.257812 1215.46875 1417.429688 C 1211.992188 1417.601562 1208.515625 1417.6875 1205.035156 1417.6875 L 212.652344 1417.6875 C 209.171875 1417.6875 205.695312 1417.601562 202.21875 1417.429688 C 198.742188 1417.257812 195.273438 1417.003906 191.808594 1416.664062 C 188.347656 1416.320312 184.894531 1415.894531 181.449219 1415.382812 C 178.007812 1414.875 174.578125 1414.277344 171.167969 1413.601562 C 167.753906 1412.921875 164.359375 1412.160156 160.984375 1411.3125 C 157.605469 1410.46875 154.253906 1409.539062 150.921875 1408.53125 C 147.59375 1407.519531 144.289062 1406.429688 141.011719 1405.253906 C 137.734375 1404.082031 134.488281 1402.832031 131.273438 1401.5 C 128.058594 1400.167969 124.878906 1398.757812 121.730469 1397.269531 C 118.585938 1395.78125 115.476562 1394.21875 112.410156 1392.578125 C 109.339844 1390.9375 106.3125 1389.222656 103.328125 1387.433594 C 100.34375 1385.640625 97.402344 1383.78125 94.507812 1381.847656 C 91.617188 1379.914062 88.769531 1377.910156 85.976562 1375.835938 C 83.179688 1373.765625 80.4375 1371.625 77.746094 1369.417969 C 75.058594 1367.207031 72.421875 1364.9375 69.84375 1362.597656 C 67.265625 1360.261719 64.746094 1357.863281 62.285156 1355.402344 C 59.824219 1352.941406 57.425781 1350.421875 55.085938 1347.84375 C 52.75 1345.261719 50.476562 1342.628906 48.269531 1339.9375 C 46.0625 1337.25 43.921875 1334.503906 41.847656 1331.710938 C 39.773438 1328.914062 37.773438 1326.070312 35.839844 1323.175781 C 33.90625 1320.28125 32.042969 1317.34375 30.253906 1314.359375 C 28.464844 1311.375 26.75 1308.347656 25.109375 1305.277344 C 23.46875 1302.207031 21.90625 1299.101562 20.417969 1295.953125 C 18.929688 1292.808594 17.519531 1289.628906 16.1875 1286.410156 C 14.855469 1283.195312 13.601562 1279.949219 12.429688 1276.675781 C 11.257812 1273.398438 10.167969 1270.09375 9.15625 1266.761719 C 8.148438 1263.433594 7.21875 1260.078125 6.371094 1256.703125 C 5.527344 1253.328125 4.765625 1249.933594 4.085938 1246.519531 C 3.40625 1243.105469 2.8125 1239.679688 2.300781 1236.234375 C 1.789062 1232.792969 1.363281 1229.339844 1.023438 1225.878906 C 0.683594 1222.414062 0.425781 1218.945312 0.257812 1215.46875 C 0.0859375 1211.992188 0 1208.511719 0 1205.035156 L 0 212.652344 C 0 209.171875 0.0859375 205.695312 0.257812 202.21875 C 0.425781 198.742188 0.683594 195.273438 1.023438 191.808594 C 1.363281 188.34375 1.789062 184.890625 2.300781 181.449219 C 2.8125 178.007812 3.40625 174.578125 4.085938 171.164062 C 4.765625 167.753906 5.527344 164.359375 6.371094 160.980469 C 7.21875 157.605469 8.148438 154.253906 9.15625 150.921875 C 10.167969 147.59375 11.257812 144.289062 12.429688 141.011719 C 13.601562 137.734375 14.855469 134.488281 16.1875 131.273438 C 17.519531 128.058594 18.929688 124.878906 20.417969 121.730469 C 21.90625 118.585938 23.46875 115.476562 25.109375 112.40625 C 26.75 109.339844 28.464844 106.3125 30.253906 103.328125 C 32.042969 100.339844 33.90625 97.402344 35.839844 94.507812 C 37.773438 91.613281 39.773438 88.769531 41.847656 85.976562 C 43.921875 83.179688 46.0625 80.4375 48.269531 77.746094 C 50.476562 75.054688 52.75 72.421875 55.085938 69.84375 C 57.425781 67.265625 59.824219 64.746094 62.285156 62.285156 C 64.746094 59.824219 67.265625 57.421875 69.84375 55.085938 C 72.421875 52.75 75.058594 50.476562 77.746094 48.269531 C 80.4375 46.0625 83.179688 43.921875 85.976562 41.847656 C 88.769531 39.773438 91.617188 37.769531 94.507812 35.835938 C 97.402344 33.902344 100.34375 32.042969 103.328125 30.253906 C 106.3125 28.464844 109.339844 26.75 112.410156 25.109375 C 115.476562 23.46875 118.585938 21.902344 121.730469 20.417969 C 124.878906 18.929688 128.058594 17.519531 131.273438 16.1875 C 134.488281 14.855469 137.734375 13.601562 141.011719 12.429688 C 144.289062 11.257812 147.59375 10.167969 150.921875 9.15625 C 154.253906 8.144531 157.605469 7.21875 160.984375 6.371094 C 164.359375 5.527344 167.753906 4.765625 171.167969 4.085938 C 174.578125 3.40625 178.007812 2.8125 181.449219 2.300781 C 184.894531 1.789062 188.347656 1.363281 191.808594 1.023438 C 195.273438 0.683594 198.742188 0.425781 202.21875 0.253906 C 205.695312 0.0859375 209.171875 0 212.652344 0 Z M 212.652344 0 "/>
</g>
<path style=" stroke:none;fill-rule:nonzero;fill:rgb(100%,100%,100%);fill-opacity:1;" d="M 958.046875 1085.414062 L 899.898438 1016.191406 C 1013.425781 985.734375 1057.726562 908.203125 1057.726562 908.203125 C 913.742188 1043.882812 520.558594 1049.421875 368.265625 908.203125 C 368.265625 908.203125 407.03125 980.195312 523.324219 1016.191406 L 459.640625 1085.414062 C 265.816406 1082.648438 191.054688 952.507812 191.054688 952.507812 C 191.054688 664.539062 318.425781 434.71875 318.425781 434.71875 C 448.566406 343.34375 567.628906 343.34375 567.628906 343.34375 L 575.933594 354.421875 C 415.339844 398.722656 346.113281 470.714844 346.113281 470.714844 C 534.402344 343.34375 922.050781 354.421875 1074.339844 470.714844 C 1077.109375 467.945312 982.96875 393.1875 836.214844 354.421875 L 850.058594 343.34375 C 850.058594 343.34375 969.121094 343.34375 1099.261719 434.71875 C 1229.402344 526.09375 1226.632812 664.539062 1226.632812 952.507812 C 1226.632812 952.507812 1151.871094 1082.648438 958.046875 1085.414062 Z M 958.046875 1085.414062 "/>
<path style=" stroke:none;fill-rule:nonzero;fill:rgb(44.709778%,53.729248%,85.488892%);fill-opacity:1;" d="M 634.082031 772.527344 C 634.082031 774.113281 634.046875 775.699219 633.972656 777.285156 C 633.898438 778.867188 633.789062 780.449219 633.644531 782.027344 C 633.496094 783.605469 633.3125 785.179688 633.09375 786.746094 C 632.875 788.316406 632.617188 789.878906 632.328125 791.433594 C 632.035156 792.988281 631.707031 794.539062 631.34375 796.074219 C 630.980469 797.613281 630.582031 799.140625 630.148438 800.660156 C 629.714844 802.175781 629.246094 803.683594 628.742188 805.175781 C 628.238281 806.667969 627.699219 808.148438 627.128906 809.613281 C 626.554688 811.078125 625.949219 812.53125 625.308594 813.964844 C 624.671875 815.398438 624 816.8125 623.292969 818.210938 C 622.589844 819.609375 621.851562 820.988281 621.082031 822.351562 C 620.3125 823.710938 619.515625 825.050781 618.683594 826.371094 C 617.851562 827.6875 616.992188 828.984375 616.101562 830.257812 C 615.210938 831.53125 614.289062 832.78125 613.34375 834.007812 C 612.394531 835.234375 611.417969 836.433594 610.414062 837.609375 C 609.40625 838.785156 608.378906 839.933594 607.320312 841.054688 C 606.261719 842.175781 605.179688 843.269531 604.070312 844.335938 C 602.964844 845.398438 601.832031 846.4375 600.675781 847.441406 C 599.519531 848.449219 598.339844 849.421875 597.140625 850.367188 C 595.9375 851.3125 594.714844 852.226562 593.472656 853.105469 C 592.230469 853.988281 590.96875 854.835938 589.683594 855.652344 C 588.402344 856.46875 587.101562 857.25 585.78125 857.996094 C 584.464844 858.746094 583.128906 859.457031 581.777344 860.136719 C 580.425781 860.8125 579.058594 861.457031 577.675781 862.0625 C 576.292969 862.667969 574.898438 863.242188 573.492188 863.773438 C 572.082031 864.308594 570.664062 864.804688 569.234375 865.265625 C 567.800781 865.726562 566.359375 866.148438 564.910156 866.535156 C 563.460938 866.921875 562 867.269531 560.535156 867.578125 C 559.066406 867.886719 557.59375 868.160156 556.117188 868.390625 C 554.636719 868.625 553.152344 868.816406 551.664062 868.972656 C 550.175781 869.128906 548.6875 869.246094 547.191406 869.324219 C 545.699219 869.402344 544.203125 869.441406 542.707031 869.441406 C 541.214844 869.441406 539.71875 869.402344 538.226562 869.324219 C 536.730469 869.246094 535.242188 869.128906 533.753906 868.972656 C 532.265625 868.816406 530.78125 868.625 529.300781 868.390625 C 527.820312 868.160156 526.347656 867.886719 524.882812 867.578125 C 523.414062 867.269531 521.957031 866.921875 520.507812 866.535156 C 519.054688 866.148438 517.613281 865.726562 516.183594 865.265625 C 514.753906 864.804688 513.332031 864.308594 511.925781 863.773438 C 510.515625 863.242188 509.121094 862.667969 507.742188 862.0625 C 506.359375 861.457031 504.992188 860.8125 503.640625 860.136719 C 502.289062 859.457031 500.953125 858.746094 499.636719 857.996094 C 498.316406 857.25 497.015625 856.46875 495.734375 855.652344 C 494.449219 854.835938 493.1875 853.988281 491.945312 853.105469 C 490.699219 852.226562 489.476562 851.3125 488.277344 850.367188 C 487.074219 849.421875 485.898438 848.449219 484.742188 847.441406 C 483.585938 846.4375 482.453125 845.398438 481.34375 844.335938 C 480.238281 843.269531 479.15625 842.175781 478.097656 841.054688 C 477.039062 839.933594 476.007812 838.785156 475.003906 837.609375 C 474 836.433594 473.023438 835.234375 472.074219 834.007812 C 471.125 832.78125 470.207031 831.53125 469.316406 830.257812 C 468.425781 828.984375 467.5625 827.6875 466.734375 826.371094 C 465.902344 825.050781 465.101562 823.710938 464.335938 822.351562 C 463.566406 820.988281 462.828125 819.609375 462.125 818.210938 C 461.417969 816.8125 460.746094 815.398438 460.105469 813.964844 C 459.46875 812.53125 458.863281 811.078125 458.289062 809.613281 C 457.71875 808.148438 457.179688 806.667969 456.675781 805.175781 C 456.171875 803.683594 455.703125 802.175781 455.269531 800.660156 C 454.835938 799.140625 454.4375 797.613281 454.074219 796.074219 C 453.710938 794.539062 453.382812 792.988281 453.089844 791.433594 C 452.796875 789.878906 452.542969 788.316406 452.324219 786.746094 C 452.105469 785.179688 451.921875 783.605469 451.773438 782.027344 C 451.628906 780.449219 451.515625 778.867188 451.445312 777.285156 C 451.371094 775.699219 451.335938 774.113281 451.335938 772.527344 C 451.335938 770.941406 451.371094 769.355469 451.445312 767.773438 C 451.515625 766.1875 451.628906 764.605469 451.773438 763.027344 C 451.921875 761.449219 452.105469 759.875 452.324219 758.308594 C 452.542969 756.738281 452.796875 755.175781 453.089844 753.621094 C 453.382812 752.066406 453.710938 750.519531 454.074219 748.980469 C 454.4375 747.441406 454.835938 745.914062 455.269531 744.394531 C 455.703125 742.878906 456.171875 741.371094 456.675781 739.878906 C 457.179688 738.386719 457.71875 736.90625 458.289062 735.441406 C 458.863281 733.976562 459.46875 732.527344 460.105469 731.09375 C 460.746094 729.660156 461.417969 728.242188 462.125 726.84375 C 462.828125 725.445312 463.566406 724.066406 464.332031 722.703125 C 465.101562 721.34375 465.902344 720.003906 466.734375 718.6875 C 467.5625 717.367188 468.425781 716.070312 469.316406 714.796875 C 470.207031 713.523438 471.125 712.273438 472.074219 711.046875 C 473.023438 709.820312 474 708.621094 475.003906 707.445312 C 476.007812 706.269531 477.039062 705.121094 478.097656 704 C 479.15625 702.878906 480.238281 701.785156 481.34375 700.71875 C 482.453125 699.65625 483.585938 698.621094 484.742188 697.613281 C 485.898438 696.609375 487.074219 695.632812 488.277344 694.6875 C 489.476562 693.742188 490.699219 692.828125 491.945312 691.949219 C 493.1875 691.066406 494.449219 690.21875 495.734375 689.402344 C 497.015625 688.589844 498.316406 687.804688 499.632812 687.058594 C 500.953125 686.3125 502.289062 685.597656 503.640625 684.921875 C 504.992188 684.242188 506.359375 683.597656 507.742188 682.992188 C 509.121094 682.386719 510.515625 681.816406 511.925781 681.28125 C 513.332031 680.746094 514.753906 680.25 516.183594 679.789062 C 517.613281 679.328125 519.054688 678.90625 520.507812 678.519531 C 521.957031 678.132812 523.414062 677.789062 524.882812 677.476562 C 526.347656 677.167969 527.820312 676.898438 529.300781 676.664062 C 530.78125 676.433594 532.265625 676.238281 533.753906 676.082031 C 535.242188 675.925781 536.730469 675.808594 538.226562 675.734375 C 539.71875 675.65625 541.214844 675.617188 542.707031 675.617188 C 544.203125 675.617188 545.699219 675.65625 547.191406 675.734375 C 548.6875 675.808594 550.175781 675.925781 551.664062 676.082031 C 553.152344 676.238281 554.636719 676.433594 556.117188 676.664062 C 557.59375 676.898438 559.066406 677.167969 560.535156 677.476562 C 562 677.789062 563.460938 678.132812 564.910156 678.519531 C 566.359375 678.90625 567.800781 679.328125 569.234375 679.789062 C 570.664062 680.25 572.082031 680.746094 573.492188 681.28125 C 574.898438 681.816406 576.292969 682.386719 577.675781 682.992188 C 579.058594 683.597656 580.425781 684.242188 581.777344 684.921875 C 583.128906 685.597656 584.464844 686.3125 585.78125 687.058594 C 587.101562 687.804688 588.402344 688.589844 589.683594 689.402344 C 590.96875 690.21875 592.230469 691.066406 593.472656 691.949219 C 594.714844 692.828125 595.9375 693.742188 597.140625 694.6875 C 598.339844 695.632812 599.519531 696.609375 600.675781 697.613281 C 601.832031 698.621094 602.964844 699.65625 604.070312 700.71875 C 605.179688 701.785156 606.261719 702.878906 607.320312 704 C 608.378906 705.121094 609.40625 706.269531 610.414062 707.445312 C 611.417969 708.621094 612.394531 709.820312 613.34375 711.046875 C 614.289062 712.273438 615.210938 713.523438 616.101562 714.796875 C 616.992188 716.070312 617.851562 717.367188 618.683594 718.6875 C 619.515625 720.003906 620.3125 721.34375 621.082031 722.703125 C 621.851562 724.066406 622.589844 725.445312 623.292969 726.84375 C 624 728.242188 624.671875 729.660156 625.308594 731.09375 C 625.949219 732.527344 626.554688 733.976562 627.128906 735.441406 C 627.699219 736.90625 628.238281 738.386719 628.742188 739.878906 C 629.246094 741.371094 629.714844 742.878906 630.148438 744.394531 C 630.582031 745.914062 630.980469 747.441406 631.34375 748.980469 C 631.707031 750.519531 632.035156 752.066406 632.328125 753.621094 C 632.617188 755.175781 632.875 756.738281 633.09375 758.308594 C 633.3125 759.875 633.496094 761.449219 633.644531 763.027344 C 633.789062 764.605469 633.898438 766.1875 633.972656 767.773438 C 634.046875 769.355469 634.082031 770.941406 634.082031 772.527344 Z M 634.082031 772.527344 "/>
<path style=" stroke:none;fill-rule:nonzero;fill:rgb(44.709778%,53.729248%,85.488892%);fill-opacity:1;" d="M 955.277344 772.527344 C 955.277344 774.113281 955.242188 775.699219 955.167969 777.285156 C 955.09375 778.867188 954.984375 780.449219 954.835938 782.027344 C 954.691406 783.605469 954.507812 785.179688 954.289062 786.746094 C 954.070312 788.316406 953.8125 789.878906 953.523438 791.433594 C 953.230469 792.988281 952.902344 794.539062 952.539062 796.074219 C 952.175781 797.613281 951.777344 799.140625 951.34375 800.660156 C 950.910156 802.175781 950.441406 803.683594 949.9375 805.175781 C 949.433594 806.667969 948.894531 808.148438 948.320312 809.613281 C 947.75 811.078125 947.144531 812.53125 946.503906 813.964844 C 945.867188 815.398438 945.191406 816.8125 944.488281 818.210938 C 943.785156 819.609375 943.046875 820.988281 942.277344 822.351562 C 941.507812 823.710938 940.707031 825.050781 939.878906 826.371094 C 939.046875 827.6875 938.1875 828.984375 937.296875 830.257812 C 936.40625 831.53125 935.484375 832.78125 934.535156 834.007812 C 933.589844 835.234375 932.613281 836.433594 931.605469 837.609375 C 930.601562 838.785156 929.570312 839.933594 928.515625 841.054688 C 927.457031 842.175781 926.375 843.269531 925.265625 844.335938 C 924.160156 845.398438 923.027344 846.4375 921.871094 847.441406 C 920.714844 848.449219 919.535156 849.421875 918.335938 850.367188 C 917.132812 851.3125 915.910156 852.226562 914.667969 853.105469 C 913.425781 853.988281 912.160156 854.835938 910.878906 855.652344 C 909.597656 856.46875 908.296875 857.25 906.976562 857.996094 C 905.65625 858.746094 904.324219 859.457031 902.972656 860.136719 C 901.617188 860.8125 900.253906 861.457031 898.871094 862.0625 C 897.488281 862.667969 896.09375 863.242188 894.6875 863.773438 C 893.277344 864.308594 891.859375 864.804688 890.429688 865.265625 C 888.996094 865.726562 887.554688 866.148438 886.105469 866.535156 C 884.65625 866.921875 883.195312 867.269531 881.730469 867.578125 C 880.261719 867.886719 878.789062 868.160156 877.3125 868.390625 C 875.832031 868.625 874.347656 868.816406 872.859375 868.972656 C 871.371094 869.128906 869.878906 869.246094 868.386719 869.324219 C 866.894531 869.402344 865.398438 869.441406 863.902344 869.441406 C 862.40625 869.441406 860.914062 869.402344 859.417969 869.324219 C 857.925781 869.246094 856.433594 869.128906 854.945312 868.972656 C 853.457031 868.816406 851.976562 868.625 850.496094 868.390625 C 849.015625 868.160156 847.542969 867.886719 846.078125 867.578125 C 844.609375 867.269531 843.152344 866.921875 841.699219 866.535156 C 840.25 866.148438 838.808594 865.726562 837.378906 865.265625 C 835.949219 864.804688 834.527344 864.308594 833.121094 863.773438 C 831.710938 863.242188 830.316406 862.667969 828.9375 862.0625 C 827.554688 861.457031 826.1875 860.8125 824.835938 860.136719 C 823.484375 859.457031 822.148438 858.746094 820.828125 857.996094 C 819.511719 857.25 818.210938 856.46875 816.925781 855.652344 C 815.644531 854.835938 814.382812 853.988281 813.136719 853.105469 C 811.894531 852.226562 810.671875 851.3125 809.472656 850.367188 C 808.269531 849.421875 807.09375 848.449219 805.9375 847.441406 C 804.78125 846.4375 803.648438 845.398438 802.539062 844.335938 C 801.433594 843.269531 800.347656 842.175781 799.292969 841.054688 C 798.234375 839.933594 797.203125 838.785156 796.199219 837.609375 C 795.195312 836.433594 794.21875 835.234375 793.269531 834.007812 C 792.320312 832.78125 791.402344 831.53125 790.511719 830.257812 C 789.621094 828.984375 788.757812 827.6875 787.929688 826.371094 C 787.097656 825.050781 786.296875 823.710938 785.527344 822.351562 C 784.761719 820.988281 784.023438 819.609375 783.316406 818.210938 C 782.613281 816.8125 781.941406 815.398438 781.300781 813.964844 C 780.664062 812.53125 780.054688 811.078125 779.484375 809.613281 C 778.910156 808.148438 778.375 806.667969 777.871094 805.175781 C 777.367188 803.683594 776.898438 802.175781 776.464844 800.660156 C 776.027344 799.140625 775.628906 797.613281 775.265625 796.074219 C 774.902344 794.539062 774.578125 792.988281 774.285156 791.433594 C 773.992188 789.878906 773.738281 788.316406 773.519531 786.746094 C 773.296875 785.179688 773.117188 783.605469 772.96875 782.027344 C 772.820312 780.449219 772.710938 778.867188 772.640625 777.285156 C 772.566406 775.699219 772.527344 774.113281 772.527344 772.527344 C 772.527344 770.941406 772.566406 769.355469 772.640625 767.773438 C 772.710938 766.1875 772.820312 764.605469 772.96875 763.027344 C 773.117188 761.449219 773.296875 759.875 773.519531 758.308594 C 773.738281 756.738281 773.992188 755.175781 774.285156 753.621094 C 774.578125 752.066406 774.902344 750.519531 775.265625 748.980469 C 775.628906 747.441406 776.027344 745.914062 776.464844 744.394531 C 776.898438 742.878906 777.367188 741.371094 777.871094 739.878906 C 778.375 738.386719 778.910156 736.90625 779.484375 735.441406 C 780.054688 733.976562 780.664062 732.527344 781.300781 731.09375 C 781.941406 729.660156 782.613281 728.242188 783.316406 726.84375 C 784.023438 725.445312 784.761719 724.066406 785.527344 722.703125 C 786.296875 721.34375 787.097656 720.003906 787.929688 718.6875 C 788.757812 717.367188 789.621094 716.070312 790.511719 714.796875 C 791.402344 713.523438 792.320312 712.273438 793.269531 711.046875 C 794.21875 709.820312 795.195312 708.621094 796.199219 707.445312 C 797.203125 706.269531 798.234375 705.121094 799.292969 704 C 800.347656 702.878906 801.433594 701.785156 802.539062 700.71875 C 803.648438 699.65625 804.78125 698.621094 805.9375 697.613281 C 807.09375 696.609375 808.269531 695.632812 809.472656 694.6875 C 810.671875 693.742188 811.894531 692.828125 813.136719 691.949219 C 814.382812 691.066406 815.644531 690.21875 816.925781 689.402344 C 818.210938 688.589844 819.511719 687.804688 820.828125 687.058594 C 822.148438 686.3125 823.484375 685.597656 824.835938 684.921875 C 826.1875 684.242188 827.554688 683.597656 828.9375 682.992188 C 830.316406 682.386719 831.710938 681.816406 833.121094 681.28125 C 834.527344 680.746094 835.949219 680.25 837.378906 679.789062 C 838.808594 679.328125 840.25 678.90625 841.699219 678.519531 C 843.152344 678.132812 844.609375 677.789062 846.078125 677.476562 C 847.542969 677.167969 849.015625 676.898438 850.496094 676.664062 C 851.976562 676.433594 853.457031 676.238281 854.945312 676.082031 C 856.433594 675.925781 857.925781 675.808594 859.417969 675.734375 C 860.914062 675.65625 862.40625 675.617188 863.902344 675.617188 C 865.398438 675.617188 866.894531 675.65625 868.386719 675.734375 C 869.878906 675.808594 871.371094 675.925781 872.859375 676.082031 C 874.347656 676.238281 875.832031 676.433594 877.3125 676.664062 C 878.789062 676.898438 880.261719 677.167969 881.730469 677.476562 C 883.195312 677.789062 884.65625 678.132812 886.105469 678.519531 C 887.554688 678.90625 888.996094 679.328125 890.429688 679.789062 C 891.859375 680.25 893.277344 680.746094 894.6875 681.28125 C 896.09375 681.816406 897.488281 682.386719 898.871094 682.992188 C 900.253906 683.597656 901.617188 684.242188 902.972656 684.921875 C 904.324219 685.597656 905.65625 686.3125 906.976562 687.058594 C 908.296875 687.804688 909.597656 688.589844 910.878906 689.402344 C 912.160156 690.21875 913.425781 691.066406 914.667969 691.949219 C 915.910156 692.828125 917.132812 693.742188 918.335938 694.6875 C 919.535156 695.632812 920.714844 696.609375 921.871094 697.613281 C 923.027344 698.621094 924.160156 699.65625 925.265625 700.71875 C 926.375 701.785156 927.457031 702.878906 928.515625 704 C 929.570312 705.121094 930.601562 706.269531 931.605469 707.445312 C 932.613281 708.621094 933.589844 709.820312 934.535156 711.046875 C 935.484375 712.273438 936.40625 713.523438 937.296875 714.796875 C 938.1875 716.070312 939.046875 717.367188 939.878906 718.6875 C 940.707031 720.003906 941.507812 721.34375 942.277344 722.703125 C 943.046875 724.066406 943.785156 725.445312 944.488281 726.84375 C 945.191406 728.242188 945.867188 729.660156 946.503906 731.09375 C 947.144531 732.527344 947.75 733.976562 948.320312 735.441406 C 948.894531 736.90625 949.433594 738.386719 949.9375 739.878906 C 950.441406 741.371094 950.910156 742.878906 951.34375 744.394531 C 951.777344 745.914062 952.175781 747.441406 952.539062 748.980469 C 952.902344 750.519531 953.230469 752.066406 953.523438 753.621094 C 953.8125 755.175781 954.070312 756.738281 954.289062 758.308594 C 954.507812 759.875 954.691406 761.449219 954.835938 763.027344 C 954.984375 764.605469 955.09375 766.1875 955.167969 767.773438 C 955.242188 769.355469 955.277344 770.941406 955.277344 772.527344 Z M 955.277344 772.527344 "/>
</g>
</svg>
