<?xml version="1.0" encoding="UTF-8"?>
<svg xmlns="http://www.w3.org/2000/svg" xmlns:xlink="http://www.w3.org/1999/xlink" width="1417.5pt" height="1417.499962pt" viewBox="0 0 1417.5 1417.499962" version="1.2">
<defs>
<clipPath id="clip1">
  <path d="M 318.085938 132 L 792 132 L 792 1123 L 318.085938 1123 Z M 318.085938 132 "/>
</clipPath>
<clipPath id="clip2">
  <path d="M 318.085938 0 L 1014 0 L 1014 416 L 318.085938 416 Z M 318.085938 0 "/>
</clipPath>
<clipPath id="clip3">
  <path d="M 318.085938 111 L 504 111 L 504 243 L 318.085938 243 Z M 318.085938 111 "/>
</clipPath>
<clipPath id="clip4">
  <path d="M 479 627 L 914 627 L 914 1417 L 479 1417 Z M 479 627 "/>
</clipPath>
<clipPath id="clip5">
  <path d="M 955 775 L 1099.300781 775 L 1099.300781 1335 L 955 1335 Z M 955 775 "/>
</clipPath>
<clipPath id="clip6">
  <path d="M 913 801 L 956 801 L 956 1417 L 913 1417 Z M 913 801 "/>
</clipPath>
<clipPath id="clip7">
  <path d="M 479 516 L 1099.300781 516 L 1099.300781 887 L 479 887 Z M 479 516 "/>
</clipPath>
</defs>
<g id="surface1">
<g clip-path="url(#clip1)" clip-rule="nonzero">
<path style=" stroke:none;fill-rule:nonzero;fill:rgb(76.078796%,21.569824%,15.289307%);fill-opacity:1;" d="M 791.320312 415.808594 L 791.320312 1122.238281 L 318.050781 838.75 L 318.050781 132.355469 L 791.320312 415.808594 "/>
</g>
<path style=" stroke:none;fill-rule:nonzero;fill:rgb(95.289612%,40.388489%,16.468811%);fill-opacity:1;" d="M 1013.03125 993.917969 L 842.171875 1022.414062 L 842.171875 314.472656 L 1013.03125 283.484375 L 1013.03125 993.917969 "/>
<path style=" stroke:none;fill-rule:nonzero;fill:rgb(97.648621%,69.799805%,34.509277%);fill-opacity:1;" d="M 791.320312 1122.238281 L 842.171875 1022.414062 L 842.171875 314.472656 L 791.320312 415.808594 L 791.320312 1122.238281 "/>
<g clip-path="url(#clip2)" clip-rule="nonzero">
<path style=" stroke:none;fill-rule:nonzero;fill:rgb(26.269531%,28.62854%,34.509277%);fill-opacity:1;" d="M 539.761719 0.0351562 L 1013.03125 283.484375 L 842.171875 314.472656 L 791.320312 415.808594 L 318.050781 132.355469 L 503.113281 111.394531 L 539.761719 0.0351562 "/>
</g>
<g clip-path="url(#clip3)" clip-rule="nonzero">
<path style=" stroke:none;fill-rule:nonzero;fill:rgb(14.898682%,16.079712%,19.999695%);fill-opacity:1;" d="M 503.113281 111.394531 L 503.113281 242.808594 L 318.050781 132.355469 Z M 503.113281 111.394531 "/>
</g>
<path style=" stroke:none;fill-rule:nonzero;fill:rgb(10.5896%,11.369324%,13.328552%);fill-opacity:1;" d="M 539.761719 0.0351562 L 539.761719 264.644531 L 503.113281 242.808594 L 503.113281 111.394531 L 539.761719 0.0351562 "/>
<path style=" stroke:none;fill-rule:nonzero;fill:rgb(96.078491%,47.839355%,55.688477%);fill-opacity:1;" d="M 602.324219 415.167969 C 612.214844 420.855469 620.191406 416.480469 620.191406 405.378906 C 620.191406 394.308594 612.214844 380.683594 602.355469 375.03125 C 592.460938 369.347656 584.453125 373.71875 584.453125 384.855469 C 584.453125 395.925781 592.460938 409.519531 602.324219 415.167969 "/>
<path style=" stroke:none;fill-rule:nonzero;fill:rgb(56.469727%,55.288696%,30.979919%);fill-opacity:1;" d="M 592.832031 372.675781 C 589.433594 374.359375 587.210938 378.261719 587.210938 384.050781 C 587.210938 395.117188 595.253906 408.710938 605.082031 414.394531 C 608.582031 416.414062 611.847656 417.085938 614.605469 416.71875 C 611.410156 418.296875 607.101562 417.929688 602.324219 415.167969 C 592.460938 409.519531 584.453125 395.925781 584.453125 384.855469 C 584.453125 377.65625 587.816406 373.351562 592.832031 372.675781 "/>
<path style=" stroke:none;fill-rule:nonzero;fill:rgb(94.898987%,34.899902%,43.528748%);fill-opacity:1;" d="M 480.867188 344.347656 C 490.761719 350.066406 498.738281 345.660156 498.738281 334.558594 C 498.738281 323.457031 490.761719 309.863281 480.902344 304.210938 C 471.007812 298.492188 462.996094 302.867188 462.996094 314.035156 C 462.996094 325.105469 471.007812 338.695312 480.867188 344.347656 "/>
<path style=" stroke:none;fill-rule:nonzero;fill:rgb(56.469727%,55.288696%,30.979919%);fill-opacity:1;" d="M 471.410156 301.855469 C 467.976562 303.539062 465.757812 307.40625 465.757812 313.195312 C 465.757812 324.296875 473.800781 337.890625 483.625 343.542969 C 487.160156 345.558594 490.390625 346.234375 493.148438 345.863281 C 489.953125 347.445312 485.644531 347.109375 480.867188 344.347656 C 471.007812 338.695312 462.996094 325.105469 462.996094 314.035156 C 462.996094 306.835938 466.363281 302.527344 471.410156 301.855469 "/>
<path style=" stroke:none;fill-rule:nonzero;fill:rgb(99.609375%,92.939758%,87.838745%);fill-opacity:1;" d="M 798.117188 235.578125 C 808.011719 241.230469 815.988281 236.855469 815.988281 225.753906 C 815.988281 214.648438 808.011719 201.058594 798.117188 195.40625 C 788.257812 189.6875 780.214844 194.058594 780.214844 205.195312 C 780.214844 216.296875 788.257812 229.890625 798.117188 235.578125 "/>
<path style=" stroke:none;fill-rule:nonzero;fill:rgb(56.469727%,55.288696%,30.979919%);fill-opacity:1;" d="M 788.628906 193.050781 C 785.195312 194.734375 782.972656 198.636719 782.972656 204.390625 C 782.972656 215.457031 791.015625 229.082031 800.84375 234.734375 C 804.378906 236.753906 807.609375 237.460938 810.367188 237.058594 C 807.171875 238.636719 802.863281 238.300781 798.117188 235.578125 C 788.257812 229.890625 780.214844 216.296875 780.214844 205.195312 C 780.214844 197.996094 783.578125 193.691406 788.628906 193.050781 "/>
<path style=" stroke:none;fill-rule:nonzero;fill:rgb(99.609375%,92.939758%,87.838745%);fill-opacity:1;" d="M 676.664062 164.722656 C 686.558594 170.40625 694.53125 166.035156 694.53125 154.898438 C 694.53125 143.828125 686.558594 130.238281 676.695312 124.550781 C 666.800781 118.863281 658.792969 123.238281 658.792969 134.375 C 658.792969 145.445312 666.800781 159.035156 676.664062 164.722656 "/>
<path style=" stroke:none;fill-rule:nonzero;fill:rgb(56.469727%,55.288696%,30.979919%);fill-opacity:1;" d="M 667.171875 122.195312 C 663.738281 123.878906 661.550781 127.8125 661.550781 133.535156 C 661.550781 144.671875 669.59375 158.230469 679.421875 163.914062 C 682.957031 165.933594 686.152344 166.605469 688.945312 166.234375 C 685.714844 167.816406 681.441406 167.480469 676.664062 164.722656 C 666.800781 159.035156 658.792969 145.445312 658.792969 134.375 C 658.792969 127.175781 662.125 122.867188 667.171875 122.195312 "/>
<path style=" stroke:none;fill-rule:nonzero;fill:rgb(92.549133%,91.758728%,89.7995%);fill-opacity:1;" d="M 571.328125 497.496094 C 578.867188 497.496094 585.898438 495.714844 592.160156 492.082031 C 606.460938 483.769531 614.335938 467.285156 614.335938 445.550781 L 614.335938 386.304688 C 614.335938 386.304688 611.375 381.15625 606.191406 377.117188 C 601.011719 373.113281 595.960938 372.507812 595.960938 372.507812 L 595.960938 445.550781 C 595.960938 460.421875 591.316406 471.289062 582.972656 476.167969 C 574.253906 481.179688 561.332031 479.597656 547.566406 471.660156 C 515.867188 453.421875 490.089844 409.6875 490.089844 374.125 L 490.089844 312.789062 C 490.089844 312.789062 487.800781 308.179688 481.4375 304.714844 C 475.144531 301.285156 471.679688 302.429688 471.679688 302.429688 L 471.679688 374.125 C 471.679688 416.210938 500.992188 466.039062 538.414062 487.605469 C 549.855469 494.167969 561.0625 497.496094 571.328125 497.496094 "/>
<g clip-path="url(#clip4)" clip-rule="nonzero">
<path style=" stroke:none;fill-rule:nonzero;fill:rgb(18.03894%,19.999695%,25.099182%);fill-opacity:1;" d="M 913.046875 886.894531 L 913.046875 1417.9375 L 479.824219 1158.574219 L 479.824219 627.5 L 913.046875 886.894531 "/>
</g>
<g clip-path="url(#clip5)" clip-rule="nonzero">
<path style=" stroke:none;fill-rule:nonzero;fill:rgb(23.919678%,26.669312%,33.329773%);fill-opacity:1;" d="M 1099.148438 1310.207031 L 955.75 1334.195312 L 955.75 801.777344 L 1099.148438 775.800781 L 1099.148438 1310.207031 "/>
</g>
<g clip-path="url(#clip6)" clip-rule="nonzero">
<path style=" stroke:none;fill-rule:nonzero;fill:rgb(39.608765%,43.919373%,52.159119%);fill-opacity:1;" d="M 913.046875 1417.9375 L 955.75 1334.195312 L 955.75 801.777344 L 913.046875 886.894531 L 913.046875 1417.9375 "/>
</g>
<g clip-path="url(#clip7)" clip-rule="nonzero">
<path style=" stroke:none;fill-rule:nonzero;fill:rgb(96.469116%,51.368713%,29.798889%);fill-opacity:1;" d="M 665.925781 516.40625 L 1099.148438 775.800781 L 955.75 801.777344 L 913.046875 886.894531 L 479.824219 627.5 L 635.167969 609.902344 L 665.925781 516.40625 "/>
</g>
<path style=" stroke:none;fill-rule:nonzero;fill:rgb(95.289612%,40.388489%,16.468811%);fill-opacity:1;" d="M 635.167969 609.902344 L 635.167969 720.1875 L 479.824219 627.5 Z M 635.167969 609.902344 "/>
<path style=" stroke:none;fill-rule:nonzero;fill:rgb(18.03894%,19.999695%,25.099182%);fill-opacity:1;" d="M 665.925781 516.40625 L 665.925781 738.558594 L 635.167969 720.1875 L 635.167969 609.902344 L 665.925781 516.40625 "/>
<path style=" stroke:none;fill-rule:nonzero;fill:rgb(96.078491%,47.839355%,55.688477%);fill-opacity:1;" d="M 735.824219 862.03125 C 744.136719 866.777344 750.835938 863.109375 750.835938 853.757812 C 750.835938 844.46875 744.136719 833.03125 735.859375 828.289062 C 727.511719 823.511719 720.816406 827.210938 720.816406 836.496094 C 720.816406 845.851562 727.511719 857.253906 735.824219 862.03125 "/>
<path style=" stroke:none;fill-rule:nonzero;fill:rgb(56.469727%,55.288696%,30.979919%);fill-opacity:1;" d="M 727.851562 826.300781 C 724.988281 827.75 723.136719 831.011719 723.136719 835.855469 C 723.136719 845.144531 729.867188 856.582031 738.148438 861.324219 C 741.109375 863.007812 743.800781 863.582031 746.125 863.3125 C 743.429688 864.625 739.832031 864.320312 735.824219 862.03125 C 727.511719 857.253906 720.816406 845.851562 720.816406 836.496094 C 720.816406 830.472656 723.644531 826.90625 727.851562 826.300781 "/>
<path style=" stroke:none;fill-rule:nonzero;fill:rgb(94.898987%,34.899902%,43.528748%);fill-opacity:1;" d="M 633.855469 802.550781 C 642.203125 807.328125 648.863281 803.625 648.863281 794.339844 C 648.863281 785.019531 642.203125 773.617188 633.890625 768.839844 C 625.609375 764.0625 618.878906 767.761719 618.878906 777.082031 C 618.878906 786.367188 625.609375 797.773438 633.855469 802.550781 "/>
<path style=" stroke:none;fill-rule:nonzero;fill:rgb(56.469727%,55.288696%,30.979919%);fill-opacity:1;" d="M 625.945312 766.851562 C 623.019531 768.265625 621.203125 771.53125 621.203125 776.40625 C 621.203125 785.695312 627.933594 797.097656 636.210938 801.875 C 639.140625 803.558594 641.863281 804.128906 644.1875 803.828125 C 641.496094 805.140625 637.894531 804.871094 633.855469 802.550781 C 625.609375 797.773438 618.878906 786.367188 618.878906 777.082031 C 618.878906 771.058594 621.707031 767.425781 625.945312 766.851562 "/>
<path style=" stroke:none;fill-rule:nonzero;fill:rgb(99.609375%,92.939758%,87.838745%);fill-opacity:1;" d="M 900.1875 726.648438 C 908.46875 731.390625 915.199219 727.757812 915.199219 718.40625 C 915.199219 709.121094 908.46875 697.714844 900.1875 692.9375 C 891.878906 688.160156 885.144531 691.828125 885.144531 701.179688 C 885.144531 710.464844 891.878906 721.90625 900.1875 726.648438 "/>
<path style=" stroke:none;fill-rule:nonzero;fill:rgb(56.469727%,55.288696%,30.979919%);fill-opacity:1;" d="M 892.179688 690.953125 C 889.320312 692.398438 887.503906 695.660156 887.503906 700.507812 C 887.503906 709.792969 894.234375 721.199219 902.476562 725.976562 C 905.4375 727.65625 908.132812 728.261719 910.453125 727.925781 C 907.761719 729.238281 904.195312 728.96875 900.1875 726.648438 C 891.878906 721.90625 885.144531 710.464844 885.144531 701.179688 C 885.144531 695.15625 887.972656 691.523438 892.179688 690.953125 "/>
<path style=" stroke:none;fill-rule:nonzero;fill:rgb(99.609375%,92.939758%,87.838745%);fill-opacity:1;" d="M 798.21875 667.199219 C 806.53125 671.976562 813.261719 668.277344 813.261719 658.957031 C 813.261719 649.671875 806.53125 638.230469 798.21875 633.488281 C 789.941406 628.710938 783.242188 632.378906 783.242188 641.730469 C 783.242188 651.050781 789.941406 662.421875 798.21875 667.199219 "/>
<path style=" stroke:none;fill-rule:nonzero;fill:rgb(56.469727%,55.288696%,30.979919%);fill-opacity:1;" d="M 790.277344 631.503906 C 787.382812 632.949219 785.566406 636.210938 785.566406 641.023438 C 785.566406 650.34375 792.296875 661.75 800.542969 666.527344 C 803.503906 668.242188 806.195312 668.746094 808.550781 668.476562 C 805.824219 669.789062 802.222656 669.488281 798.21875 667.199219 C 789.941406 662.421875 783.242188 651.050781 783.242188 641.730469 C 783.242188 635.675781 786.035156 632.109375 790.277344 631.503906 "/>
<path style=" stroke:none;fill-rule:nonzero;fill:rgb(92.549133%,91.758728%,89.7995%);fill-opacity:1;" d="M 709.777344 931.105469 C 716.136719 931.105469 722.0625 929.589844 727.3125 926.527344 C 739.292969 919.597656 745.921875 905.738281 745.921875 887.5 L 745.921875 837.773438 C 745.921875 837.773438 743.398438 833.433594 739.054688 830.070312 C 734.714844 826.671875 730.476562 826.167969 730.476562 826.167969 L 730.476562 887.5 C 730.476562 899.984375 726.605469 909.132812 719.570312 913.171875 C 712.269531 917.410156 701.433594 916.066406 689.890625 909.402344 C 663.269531 894.09375 641.628906 857.355469 641.628906 827.511719 L 641.628906 776.039062 C 641.628906 776.039062 639.675781 772.167969 634.394531 769.308594 C 629.078125 766.382812 626.183594 767.359375 626.183594 767.359375 L 626.183594 827.511719 C 626.183594 862.875 650.785156 904.695312 682.183594 922.792969 C 691.808594 928.3125 701.195312 931.105469 709.777344 931.105469 "/>
</g>
</svg>
