<svg width="292" height="397" viewBox="0 0 292 397" fill="none" xmlns="http://www.w3.org/2000/svg">
<g filter="url(#filter0_d)">
<path d="M231 269.604L189 384.865V202.694L231 96.0002V269.604Z" fill="#F3B52A" stroke="black"/>
<path d="M190.429 198.501H1L50.6078 96.0002H231L190.429 198.501Z" fill="#FEE777" stroke="black"/>
<rect x="1.5" y="199.225" width="189" height="187.15" fill="#FCDB39" stroke="black"/>
<path d="M38.62 276.4C39.1533 276.4 39.5733 276.553 39.88 276.86C40.2 277.153 40.36 277.547 40.36 278.04V281H20.52V279.36C20.52 279.027 20.5867 278.68 20.72 278.32C20.8667 277.947 21.0933 277.613 21.4 277.32L30.18 268.52C30.9133 267.773 31.5667 267.06 32.14 266.38C32.7267 265.7 33.2133 265.027 33.6 264.36C33.9867 263.693 34.28 263.02 34.48 262.34C34.6933 261.647 34.8 260.92 34.8 260.16C34.8 259.467 34.7 258.86 34.5 258.34C34.3 257.807 34.0133 257.36 33.64 257C33.28 256.64 32.84 256.373 32.32 256.2C31.8133 256.013 31.24 255.92 30.6 255.92C30.0133 255.92 29.4667 256.007 28.96 256.18C28.4667 256.34 28.0267 256.573 27.64 256.88C27.2533 257.173 26.9267 257.52 26.66 257.92C26.3933 258.32 26.1933 258.76 26.06 259.24C25.8333 259.853 25.54 260.26 25.18 260.46C24.82 260.66 24.3 260.707 23.62 260.6L21.02 260.14C21.22 258.753 21.6067 257.54 22.18 256.5C22.7533 255.447 23.4667 254.573 24.32 253.88C25.1867 253.173 26.1733 252.647 27.28 252.3C28.4 251.94 29.6 251.76 30.88 251.76C32.2133 251.76 33.4333 251.96 34.54 252.36C35.6467 252.747 36.5933 253.3 37.38 254.02C38.1667 254.74 38.78 255.607 39.22 256.62C39.66 257.633 39.88 258.76 39.88 260C39.88 261.067 39.72 262.053 39.4 262.96C39.0933 263.867 38.6733 264.733 38.14 265.56C37.62 266.387 37.0067 267.187 36.3 267.96C35.5933 268.733 34.8533 269.52 34.08 270.32L27.56 276.98C28.1867 276.793 28.8067 276.653 29.42 276.56C30.0467 276.453 30.64 276.4 31.2 276.4H38.62ZM49.2631 263C49.6765 262.587 50.1098 262.207 50.5631 261.86C51.0298 261.5 51.5165 261.2 52.0231 260.96C52.5431 260.707 53.0965 260.513 53.6831 260.38C54.2698 260.233 54.9098 260.16 55.6031 260.16C56.7231 260.16 57.7165 260.353 58.5831 260.74C59.4498 261.113 60.1698 261.647 60.7431 262.34C61.3298 263.02 61.7698 263.84 62.0631 264.8C62.3698 265.747 62.5231 266.793 62.5231 267.94V281H57.5831V267.94C57.5831 266.687 57.2965 265.72 56.7231 265.04C56.1498 264.347 55.2765 264 54.1031 264C53.2498 264 52.4498 264.193 51.7031 264.58C50.9565 264.967 50.2498 265.493 49.5831 266.16V281H44.6431V260.48H47.6631C48.3031 260.48 48.7231 260.78 48.9231 261.38L49.2631 263ZM80.1013 265.72C79.5413 265.04 78.9279 264.56 78.2613 264.28C77.6079 264 76.9013 263.86 76.1413 263.86C75.3946 263.86 74.7213 264 74.1213 264.28C73.5213 264.56 73.0079 264.987 72.5813 265.56C72.1546 266.12 71.8279 266.84 71.6013 267.72C71.3746 268.587 71.2613 269.613 71.2613 270.8C71.2613 272 71.3546 273.02 71.5413 273.86C71.7413 274.687 72.0213 275.367 72.3813 275.9C72.7413 276.42 73.1813 276.8 73.7013 277.04C74.2213 277.267 74.8013 277.38 75.4413 277.38C76.4679 277.38 77.3413 277.167 78.0613 276.74C78.7813 276.313 79.4613 275.707 80.1013 274.92V265.72ZM85.0413 251.28V281H82.0213C81.3679 281 80.9546 280.7 80.7813 280.1L80.3613 278.12C79.5346 279.067 78.5813 279.833 77.5013 280.42C76.4346 281.007 75.1879 281.3 73.7613 281.3C72.6413 281.3 71.6146 281.067 70.6813 280.6C69.7479 280.133 68.9413 279.46 68.2613 278.58C67.5946 277.687 67.0746 276.587 66.7013 275.28C66.3413 273.973 66.1613 272.48 66.1613 270.8C66.1613 269.28 66.3679 267.867 66.7813 266.56C67.1946 265.253 67.7879 264.12 68.5613 263.16C69.3346 262.2 70.2613 261.453 71.3413 260.92C72.4213 260.373 73.6346 260.1 74.9813 260.1C76.1279 260.1 77.1079 260.28 77.9213 260.64C78.7346 261 79.4613 261.487 80.1013 262.1V251.28H85.0413ZM26.38 323.68C26.94 324.36 27.5467 324.84 28.2 325.12C28.8667 325.4 29.5867 325.54 30.36 325.54C31.1067 325.54 31.78 325.4 32.38 325.12C32.98 324.84 33.4867 324.413 33.9 323.84C34.3267 323.267 34.6533 322.547 34.88 321.68C35.1067 320.8 35.22 319.767 35.22 318.58C35.22 317.38 35.12 316.367 34.92 315.54C34.7333 314.7 34.46 314.02 34.1 313.5C33.74 312.98 33.3 312.6 32.78 312.36C32.2733 312.12 31.6933 312 31.04 312C30.0133 312 29.14 312.22 28.42 312.66C27.7 313.087 27.02 313.693 26.38 314.48V323.68ZM26.12 311.28C26.96 310.333 27.9133 309.567 28.98 308.98C30.0467 308.393 31.3 308.1 32.74 308.1C33.86 308.1 34.88 308.333 35.8 308.8C36.7333 309.267 37.5333 309.947 38.2 310.84C38.88 311.72 39.4 312.813 39.76 314.12C40.1333 315.413 40.32 316.9 40.32 318.58C40.32 320.113 40.1133 321.533 39.7 322.84C39.2867 324.147 38.6933 325.28 37.92 326.24C37.16 327.2 36.2333 327.953 35.14 328.5C34.06 329.033 32.8467 329.3 31.5 329.3C30.3533 329.3 29.3733 329.127 28.56 328.78C27.7467 328.42 27.02 327.927 26.38 327.3V335.7H21.44V308.48H24.46C25.1 308.48 25.52 308.78 25.72 309.38L26.12 311.28ZM49.1744 299.28V329H44.2344V299.28H49.1744ZM64.9363 320.24C63.5096 320.307 62.3096 320.433 61.3363 320.62C60.3629 320.793 59.5829 321.02 58.9963 321.3C58.4096 321.58 57.9896 321.907 57.7363 322.28C57.4829 322.653 57.3563 323.06 57.3563 323.5C57.3563 324.367 57.6096 324.987 58.1163 325.36C58.6363 325.733 59.3096 325.92 60.1363 325.92C61.1496 325.92 62.0229 325.74 62.7563 325.38C63.5029 325.007 64.2296 324.447 64.9363 323.7V320.24ZM53.6163 311.34C55.9763 309.18 58.8163 308.1 62.1363 308.1C63.3363 308.1 64.4096 308.3 65.3563 308.7C66.3029 309.087 67.1029 309.633 67.7563 310.34C68.4096 311.033 68.9029 311.867 69.2363 312.84C69.5829 313.813 69.7563 314.88 69.7563 316.04V329H67.5163C67.0496 329 66.6896 328.933 66.4363 328.8C66.1829 328.653 65.9829 328.367 65.8363 327.94L65.3963 326.46C64.8763 326.927 64.3696 327.34 63.8763 327.7C63.3829 328.047 62.8696 328.34 62.3363 328.58C61.8029 328.82 61.2296 329 60.6163 329.12C60.0163 329.253 59.3496 329.32 58.6163 329.32C57.7496 329.32 56.9496 329.207 56.2163 328.98C55.4829 328.74 54.8496 328.387 54.3163 327.92C53.7829 327.453 53.3696 326.873 53.0763 326.18C52.7829 325.487 52.6363 324.68 52.6363 323.76C52.6363 323.24 52.7229 322.727 52.8963 322.22C53.0696 321.7 53.3496 321.207 53.7363 320.74C54.1363 320.273 54.6496 319.833 55.2763 319.42C55.9029 319.007 56.6696 318.647 57.5763 318.34C58.4963 318.033 59.5629 317.787 60.7763 317.6C61.9896 317.4 63.3763 317.28 64.9363 317.24V316.04C64.9363 314.667 64.6429 313.653 64.0563 313C63.4696 312.333 62.6229 312 61.5163 312C60.7163 312 60.0496 312.093 59.5163 312.28C58.9963 312.467 58.5363 312.68 58.1363 312.92C57.7363 313.147 57.3696 313.353 57.0363 313.54C56.7163 313.727 56.3563 313.82 55.9563 313.82C55.6096 313.82 55.3163 313.733 55.0763 313.56C54.8363 313.373 54.6429 313.16 54.4963 312.92L53.6163 311.34ZM89.1088 312.82C88.9621 313.007 88.8154 313.153 88.6688 313.26C88.5354 313.367 88.3354 313.42 88.0688 313.42C87.8154 313.42 87.5688 313.347 87.3288 313.2C87.0888 313.04 86.8021 312.867 86.4688 312.68C86.1354 312.48 85.7354 312.307 85.2688 312.16C84.8154 312 84.2488 311.92 83.5688 311.92C82.7021 311.92 81.9421 312.08 81.2888 312.4C80.6354 312.707 80.0888 313.153 79.6488 313.74C79.2221 314.327 78.9021 315.04 78.6888 315.88C78.4754 316.707 78.3688 317.647 78.3688 318.7C78.3688 319.793 78.4821 320.767 78.7088 321.62C78.9488 322.473 79.2888 323.193 79.7288 323.78C80.1688 324.353 80.7021 324.793 81.3288 325.1C81.9554 325.393 82.6621 325.54 83.4488 325.54C84.2354 325.54 84.8688 325.447 85.3488 325.26C85.8421 325.06 86.2554 324.847 86.5888 324.62C86.9221 324.38 87.2088 324.167 87.4488 323.98C87.7021 323.78 87.9821 323.68 88.2888 323.68C88.6888 323.68 88.9888 323.833 89.1888 324.14L90.6088 325.94C90.0621 326.58 89.4688 327.12 88.8288 327.56C88.1888 327.987 87.5221 328.333 86.8288 328.6C86.1488 328.853 85.4421 329.033 84.7088 329.14C83.9888 329.247 83.2688 329.3 82.5488 329.3C81.2821 329.3 80.0888 329.067 78.9688 328.6C77.8488 328.12 76.8688 327.427 76.0288 326.52C75.1888 325.613 74.5221 324.507 74.0288 323.2C73.5488 321.88 73.3088 320.38 73.3088 318.7C73.3088 317.193 73.5221 315.8 73.9488 314.52C74.3888 313.227 75.0288 312.113 75.8688 311.18C76.7088 310.233 77.7488 309.493 78.9888 308.96C80.2288 308.427 81.6554 308.16 83.2687 308.16C84.8021 308.16 86.1421 308.407 87.2888 308.9C88.4488 309.393 89.4888 310.1 90.4088 311.02L89.1088 312.82ZM106.574 316.38C106.574 315.74 106.481 315.14 106.294 314.58C106.121 314.007 105.854 313.507 105.494 313.08C105.134 312.653 104.674 312.32 104.114 312.08C103.567 311.827 102.927 311.7 102.194 311.7C100.767 311.7 99.6407 312.107 98.8141 312.92C98.0007 313.733 97.4807 314.887 97.2541 316.38H106.574ZM97.1541 319.36C97.2341 320.413 97.4207 321.327 97.7141 322.1C98.0074 322.86 98.3941 323.493 98.8741 324C99.3541 324.493 99.9207 324.867 100.574 325.12C101.241 325.36 101.974 325.48 102.774 325.48C103.574 325.48 104.261 325.387 104.834 325.2C105.421 325.013 105.927 324.807 106.354 324.58C106.794 324.353 107.174 324.147 107.494 323.96C107.827 323.773 108.147 323.68 108.454 323.68C108.867 323.68 109.174 323.833 109.374 324.14L110.794 325.94C110.247 326.58 109.634 327.12 108.954 327.56C108.274 327.987 107.561 328.333 106.814 328.6C106.081 328.853 105.327 329.033 104.554 329.14C103.794 329.247 103.054 329.3 102.334 329.3C100.907 329.3 99.5807 329.067 98.3541 328.6C97.1274 328.12 96.0607 327.42 95.1541 326.5C94.2474 325.567 93.5341 324.42 93.0141 323.06C92.4941 321.687 92.2341 320.1 92.2341 318.3C92.2341 316.9 92.4607 315.587 92.9141 314.36C93.3674 313.12 94.0141 312.047 94.8541 311.14C95.7074 310.22 96.7407 309.493 97.9541 308.96C99.1807 308.427 100.561 308.16 102.094 308.16C103.387 308.16 104.581 308.367 105.674 308.78C106.767 309.193 107.707 309.8 108.494 310.6C109.281 311.387 109.894 312.36 110.334 313.52C110.787 314.667 111.014 315.98 111.014 317.46C111.014 318.207 110.934 318.713 110.774 318.98C110.614 319.233 110.307 319.36 109.854 319.36H97.1541Z" fill="#2B2B2B"/>
<rect x="1" y="367.121" width="190" height="9.23076" fill="#ED6A5E"/>
<rect x="1" y="357.121" width="190" height="9.99999" fill="#09BC8A"/>
<rect x="1" y="347.89" width="190" height="9.99999" fill="#1B6AE3"/>
</g>
<path d="M84.7712 140.714V128.988L144.922 130.725V140.714C142.823 145.419 136.888 153.526 114.087 153.526C110.612 153.526 85.6398 152.658 84.7712 140.714Z" fill="#F3B52A" stroke="black"/>
<path d="M52.1987 27.3459L66.5307 41.2587L74.131 38.8701C67.6165 36.771 55.8267 29.7063 60.784 18.2407L55.9679 19.0932L52.1987 27.3459Z" fill="#F3B52A" stroke="black"/>
<path d="M144.824 127.339C144.824 131.539 141.659 135.878 136.214 139.212C130.801 142.526 123.285 144.741 114.955 144.741C106.626 144.741 99.1092 142.526 93.6964 139.212C88.2512 135.878 85.0869 131.539 85.0869 127.339C85.0869 123.163 88.2215 119.214 93.6621 116.266C99.0733 113.334 106.6 111.497 114.955 111.497C123.31 111.497 130.837 113.334 136.248 116.266C141.689 119.214 144.824 123.163 144.824 127.339Z" fill="#FCDB39" stroke="black" stroke-width="1.5"/>
<path d="M107.355 118.999V98.5864H122.121V118.999C119.009 121.025 113.435 122.69 107.355 118.999Z" fill="#F3B52A" stroke="black"/>
<path d="M115.39 99.021C103.446 99.021 75.6508 99.021 61.3188 27.3612C69.3535 54.5051 152.957 67.317 167.94 24.321C153.825 99.021 126.681 99.021 115.39 99.021Z" fill="#FCDB39" stroke="black"/>
<path d="M167.407 25.4067C167.407 31.9917 161.756 38.7467 152.156 43.9056C142.611 49.0349 129.381 52.452 114.738 52.452C100.095 52.452 86.8649 49.0349 77.32 43.9056C67.7199 38.7467 62.0688 31.9917 62.0688 25.4067C62.0688 18.8478 67.6851 12.6855 77.2871 8.11874C86.8328 3.5787 100.073 0.75 114.738 0.75C129.403 0.75 142.643 3.5787 152.189 8.11874C161.791 12.6855 167.407 18.8478 167.407 25.4067Z" fill="#F3B52A" stroke="black" stroke-width="1.5"/>
<path d="M162.196 24.9725C162.196 30.8378 157.152 36.8871 148.534 41.5203C139.972 46.1237 128.099 49.1949 114.955 49.1949C101.812 49.1949 89.9387 46.1237 81.3761 41.5203C72.7581 36.8871 67.7148 30.8378 67.7148 24.9725C67.7148 19.1539 72.6951 14.018 81.318 10.2985C89.8832 6.60384 101.773 4.44165 114.955 4.44165C128.137 4.44165 140.027 6.60384 148.593 10.2985C157.215 14.018 162.196 19.1539 162.196 24.9725Z" fill="#F8D838" stroke="black" stroke-width="1.5"/>
<path d="M80.4282 41.8406C109.961 28.2904 140.29 35.109 151.654 39.8863C125.379 56.8241 93.8192 49.2962 80.4282 41.8406Z" fill="#1B1B1B"/>
<path d="M72.1764 12.5512C68.9191 9.72825 60.2331 4.77735 54.5872 11.7262C59.1473 11.0748 66.7476 11.4655 68.0505 14.5056L72.1764 12.5512Z" fill="#F3B52A" stroke="black"/>
<path d="M146.956 65.9702V58.8042C152.602 59.528 172.58 72.7019 173.449 78.7821C185.392 107.663 163.59 111.746 152.819 105.492L133.493 94.417V87.6853C143.699 90.5083 165.414 103.754 169.54 96.3714C172.363 90.074 171.798 75.1774 146.956 65.9702Z" fill="#FCDB39" stroke="black"/>
<path d="M151.951 54.0271C187.216 71.5729 182.786 95.9373 175.62 100.497C167.803 111.789 159.334 108.749 150.214 104.189L142.396 99.6288L133.493 94.4172V87.6855L138.487 82.6911L159.117 95.0687C163.677 97.6745 167.441 97.6021 169.323 96.8059C165.414 103.755 153.688 99.6288 147.825 95.7201L133.493 87.6855V94.4172L142.396 99.6288L150.214 104.189C159.334 108.749 167.803 111.789 175.62 100.497C176.923 87.2512 177.357 72.0506 146.956 59.0216L151.951 54.0271Z" fill="#F3B52A"/>
<path d="M175.62 100.497C182.786 95.9373 187.216 71.5729 151.951 54.0271L146.956 59.0216C177.357 72.0506 176.923 87.2512 175.62 100.497ZM175.62 100.497C167.803 111.789 159.334 108.749 150.214 104.189L142.396 99.6288L133.493 94.4172V87.6855M133.493 87.6855L138.487 82.6911L159.117 95.0687C163.677 97.6745 167.441 97.6021 169.323 96.8059C165.414 103.755 153.688 99.6288 147.825 95.7201L133.493 87.6855Z" stroke="black"/>
<path d="M55.1011 11.6826C49.8895 13.3474 45.9012 33.2241 67.696 52.5506L63.7872 38.2186C62.0499 34.7442 49.0209 16.8943 63.7872 19.0658L67.6959 14.5056C66.4654 12.3341 62.05 10.3797 55.1011 11.6826Z" fill="#FCDB39" stroke="black"/>
<defs>
<filter id="filter0_d" x="0.202637" y="85.5002" width="291.533" height="311.374" filterUnits="userSpaceOnUse" color-interpolation-filters="sRGB">
<feFlood flood-opacity="0" result="BackgroundImageFix"/>
<feColorMatrix in="SourceAlpha" type="matrix" values="0 0 0 0 0 0 0 0 0 0 0 0 0 0 0 0 0 0 127 0"/>
<feOffset dx="50"/>
<feGaussianBlur stdDeviation="5"/>
<feColorMatrix type="matrix" values="0 0 0 0 0 0 0 0 0 0 0 0 0 0 0 0 0 0 0.25 0"/>
<feBlend mode="normal" in2="BackgroundImageFix" result="effect1_dropShadow"/>
<feBlend mode="normal" in="SourceGraphic" in2="effect1_dropShadow" result="shape"/>
</filter>
</defs>
</svg>
