<svg width="287" height="321" viewBox="0 0 287 321" fill="none" xmlns="http://www.w3.org/2000/svg">
<g filter="url(#filter0_d)">
<path d="M231 208.074L189 309.034V149.466L231 56.01V208.074Z" fill="#F3B52A" stroke="black"/>
<path d="M190.429 145.793H1L50.6078 56.01H231L190.429 145.793Z" fill="#FEE777" stroke="black"/>
<rect x="1.5" y="146.489" width="189" height="163.805" fill="#FCDB39" stroke="black"/>
<path d="M25.16 188.133C25.36 186.746 25.7467 185.533 26.32 184.493C26.8933 183.44 27.6067 182.566 28.46 181.873C29.3267 181.166 30.3133 180.64 31.42 180.293C32.54 179.933 33.74 179.753 35.02 179.753C36.3533 179.753 37.5533 179.946 38.62 180.333C39.7 180.706 40.62 181.233 41.38 181.913C42.14 182.58 42.72 183.366 43.12 184.273C43.5333 185.18 43.74 186.16 43.74 187.213C43.74 188.133 43.6333 188.946 43.42 189.653C43.22 190.346 42.9267 190.953 42.54 191.473C42.1533 191.993 41.6733 192.433 41.1 192.793C40.5267 193.153 39.88 193.453 39.16 193.693C40.8933 194.24 42.1867 195.073 43.04 196.193C43.8933 197.313 44.32 198.72 44.32 200.413C44.32 201.853 44.0533 203.126 43.52 204.233C42.9867 205.34 42.2667 206.273 41.36 207.033C40.4533 207.78 39.4 208.346 38.2 208.733C37.0133 209.12 35.7533 209.313 34.42 209.313C32.9667 209.313 31.7 209.146 30.62 208.813C29.54 208.48 28.6 207.986 27.8 207.333C27 206.68 26.32 205.88 25.76 204.933C25.2 203.986 24.72 202.893 24.32 201.653L26.5 200.753C27.0733 200.513 27.6067 200.453 28.1 200.573C28.6067 200.68 28.9733 200.946 29.2 201.373C29.44 201.84 29.7 202.3 29.98 202.753C30.2733 203.206 30.62 203.613 31.02 203.973C31.42 204.32 31.8867 204.606 32.42 204.833C32.9667 205.046 33.6133 205.153 34.36 205.153C35.2 205.153 35.9333 205.02 36.56 204.753C37.1867 204.473 37.7067 204.113 38.12 203.673C38.5467 203.233 38.86 202.746 39.06 202.213C39.2733 201.666 39.38 201.12 39.38 200.573C39.38 199.88 39.3067 199.253 39.16 198.693C39.0133 198.12 38.7067 197.633 38.24 197.233C37.7733 196.833 37.1 196.52 36.22 196.293C35.3533 196.066 34.1867 195.953 32.72 195.953V192.433C33.9333 192.42 34.94 192.306 35.74 192.093C36.54 191.88 37.1733 191.586 37.64 191.213C38.12 190.826 38.4533 190.366 38.64 189.833C38.8267 189.3 38.92 188.713 38.92 188.073C38.92 186.713 38.54 185.68 37.78 184.973C37.02 184.266 36.0067 183.913 34.74 183.913C34.1533 183.913 33.6133 184 33.12 184.173C32.6267 184.333 32.18 184.566 31.78 184.873C31.3933 185.166 31.0667 185.513 30.8 185.913C30.5333 186.313 30.3333 186.753 30.2 187.233C29.9733 187.846 29.6733 188.253 29.3 188.453C28.94 188.653 28.4267 188.7 27.76 188.593L25.16 188.133ZM53.3031 192.033C53.9431 190.806 54.7031 189.846 55.5831 189.153C56.4631 188.446 57.5031 188.093 58.7031 188.093C59.6498 188.093 60.4098 188.3 60.9831 188.713L60.6631 192.413C60.5965 192.653 60.4965 192.826 60.3631 192.933C60.2431 193.026 60.0765 193.073 59.8631 193.073C59.6631 193.073 59.3631 193.04 58.9631 192.973C58.5765 192.906 58.1965 192.873 57.8231 192.873C57.2765 192.873 56.7898 192.953 56.3631 193.113C55.9365 193.273 55.5498 193.506 55.2031 193.813C54.8698 194.106 54.5698 194.466 54.3031 194.893C54.0498 195.32 53.8098 195.806 53.5831 196.353V208.993H48.6431V188.473H51.5431C52.0498 188.473 52.4031 188.566 52.6031 188.753C52.8031 188.926 52.9365 189.246 53.0031 189.713L53.3031 192.033ZM75.8981 193.713C75.3381 193.033 74.7248 192.553 74.0581 192.273C73.4048 191.993 72.6981 191.853 71.9381 191.853C71.1915 191.853 70.5181 191.993 69.9181 192.273C69.3181 192.553 68.8048 192.98 68.3781 193.553C67.9515 194.113 67.6248 194.833 67.3981 195.713C67.1715 196.58 67.0581 197.606 67.0581 198.793C67.0581 199.993 67.1515 201.013 67.3381 201.853C67.5381 202.68 67.8181 203.36 68.1781 203.893C68.5381 204.413 68.9781 204.793 69.4981 205.033C70.0181 205.26 70.5981 205.373 71.2381 205.373C72.2648 205.373 73.1381 205.16 73.8581 204.733C74.5781 204.306 75.2581 203.7 75.8981 202.913V193.713ZM80.8381 179.273V208.993H77.8181C77.1648 208.993 76.7515 208.693 76.5781 208.093L76.1581 206.113C75.3315 207.06 74.3781 207.826 73.2981 208.413C72.2315 209 70.9848 209.293 69.5581 209.293C68.4381 209.293 67.4115 209.06 66.4781 208.593C65.5448 208.126 64.7381 207.453 64.0581 206.573C63.3915 205.68 62.8715 204.58 62.4981 203.273C62.1381 201.966 61.9581 200.473 61.9581 198.793C61.9581 197.273 62.1648 195.86 62.5781 194.553C62.9915 193.246 63.5848 192.113 64.3581 191.153C65.1315 190.193 66.0581 189.446 67.1381 188.913C68.2181 188.366 69.4315 188.093 70.7781 188.093C71.9248 188.093 72.9048 188.273 73.7181 188.633C74.5315 188.993 75.2581 189.48 75.8981 190.093V179.273H80.8381ZM30.38 251.673C30.94 252.353 31.5467 252.833 32.2 253.113C32.8667 253.393 33.5867 253.533 34.36 253.533C35.1067 253.533 35.78 253.393 36.38 253.113C36.98 252.833 37.4867 252.406 37.9 251.833C38.3267 251.26 38.6533 250.54 38.88 249.673C39.1067 248.793 39.22 247.76 39.22 246.573C39.22 245.373 39.12 244.36 38.92 243.533C38.7333 242.693 38.46 242.013 38.1 241.493C37.74 240.973 37.3 240.593 36.78 240.353C36.2733 240.113 35.6933 239.993 35.04 239.993C34.0133 239.993 33.14 240.213 32.42 240.653C31.7 241.08 31.02 241.686 30.38 242.473V251.673ZM30.12 239.273C30.96 238.326 31.9133 237.56 32.98 236.973C34.0467 236.386 35.3 236.093 36.74 236.093C37.86 236.093 38.88 236.326 39.8 236.793C40.7333 237.26 41.5333 237.94 42.2 238.833C42.88 239.713 43.4 240.806 43.76 242.113C44.1333 243.406 44.32 244.893 44.32 246.573C44.32 248.106 44.1133 249.526 43.7 250.833C43.2867 252.14 42.6933 253.273 41.92 254.233C41.16 255.193 40.2333 255.946 39.14 256.493C38.06 257.026 36.8467 257.293 35.5 257.293C34.3533 257.293 33.3733 257.12 32.56 256.773C31.7467 256.413 31.02 255.92 30.38 255.293V263.693H25.44V236.473H28.46C29.1 236.473 29.52 236.773 29.72 237.373L30.12 239.273ZM53.1744 227.273V256.993H48.2344V227.273H53.1744ZM68.9363 248.233C67.5096 248.3 66.3096 248.426 65.3363 248.613C64.3629 248.786 63.5829 249.013 62.9963 249.293C62.4096 249.573 61.9896 249.9 61.7363 250.273C61.4829 250.646 61.3563 251.053 61.3563 251.493C61.3563 252.36 61.6096 252.98 62.1163 253.353C62.6363 253.726 63.3096 253.913 64.1363 253.913C65.1496 253.913 66.0229 253.733 66.7563 253.373C67.5029 253 68.2296 252.44 68.9363 251.693V248.233ZM57.6163 239.333C59.9763 237.173 62.8163 236.093 66.1363 236.093C67.3363 236.093 68.4096 236.293 69.3563 236.693C70.3029 237.08 71.1029 237.626 71.7563 238.333C72.4096 239.026 72.9029 239.86 73.2363 240.833C73.5829 241.806 73.7563 242.873 73.7563 244.033V256.993H71.5163C71.0496 256.993 70.6896 256.926 70.4363 256.793C70.1829 256.646 69.9829 256.36 69.8363 255.933L69.3963 254.453C68.8763 254.92 68.3696 255.333 67.8763 255.693C67.3829 256.04 66.8696 256.333 66.3363 256.573C65.8029 256.813 65.2296 256.993 64.6163 257.113C64.0163 257.246 63.3496 257.313 62.6163 257.313C61.7496 257.313 60.9496 257.2 60.2163 256.973C59.4829 256.733 58.8496 256.38 58.3163 255.913C57.7829 255.446 57.3696 254.866 57.0763 254.173C56.7829 253.48 56.6363 252.673 56.6363 251.753C56.6363 251.233 56.7229 250.72 56.8963 250.213C57.0696 249.693 57.3496 249.2 57.7363 248.733C58.1363 248.266 58.6496 247.826 59.2763 247.413C59.9029 247 60.6696 246.64 61.5763 246.333C62.4963 246.026 63.5629 245.78 64.7763 245.593C65.9896 245.393 67.3763 245.273 68.9363 245.233V244.033C68.9363 242.66 68.6429 241.646 68.0563 240.993C67.4696 240.326 66.6229 239.993 65.5163 239.993C64.7163 239.993 64.0496 240.086 63.5163 240.273C62.9963 240.46 62.5363 240.673 62.1363 240.913C61.7363 241.14 61.3696 241.346 61.0363 241.533C60.7163 241.72 60.3563 241.813 59.9563 241.813C59.6096 241.813 59.3163 241.726 59.0763 241.553C58.8363 241.366 58.6429 241.153 58.4963 240.913L57.6163 239.333ZM93.1088 240.813C92.9621 241 92.8154 241.146 92.6688 241.253C92.5354 241.36 92.3354 241.413 92.0688 241.413C91.8154 241.413 91.5688 241.34 91.3288 241.193C91.0888 241.033 90.8021 240.86 90.4688 240.673C90.1354 240.473 89.7354 240.3 89.2688 240.153C88.8154 239.993 88.2488 239.913 87.5688 239.913C86.7021 239.913 85.9421 240.073 85.2888 240.393C84.6354 240.7 84.0888 241.146 83.6488 241.733C83.2221 242.32 82.9021 243.033 82.6888 243.873C82.4754 244.7 82.3688 245.64 82.3688 246.693C82.3688 247.786 82.4821 248.76 82.7088 249.613C82.9488 250.466 83.2888 251.186 83.7288 251.773C84.1688 252.346 84.7021 252.786 85.3288 253.093C85.9554 253.386 86.6621 253.533 87.4488 253.533C88.2354 253.533 88.8688 253.44 89.3488 253.253C89.8421 253.053 90.2554 252.84 90.5888 252.613C90.9221 252.373 91.2088 252.16 91.4488 251.973C91.7021 251.773 91.9821 251.673 92.2888 251.673C92.6888 251.673 92.9888 251.826 93.1888 252.133L94.6088 253.933C94.0621 254.573 93.4688 255.113 92.8288 255.553C92.1888 255.98 91.5221 256.326 90.8288 256.593C90.1488 256.846 89.4421 257.026 88.7088 257.133C87.9888 257.24 87.2688 257.293 86.5488 257.293C85.2821 257.293 84.0888 257.06 82.9688 256.593C81.8488 256.113 80.8688 255.42 80.0288 254.513C79.1888 253.606 78.5221 252.5 78.0288 251.193C77.5488 249.873 77.3088 248.373 77.3088 246.693C77.3088 245.186 77.5221 243.793 77.9488 242.513C78.3888 241.22 79.0288 240.106 79.8688 239.173C80.7088 238.226 81.7488 237.486 82.9888 236.953C84.2288 236.42 85.6554 236.153 87.2687 236.153C88.8021 236.153 90.1421 236.4 91.2888 236.893C92.4488 237.386 93.4888 238.093 94.4088 239.013L93.1088 240.813ZM110.574 244.373C110.574 243.733 110.481 243.133 110.294 242.573C110.121 242 109.854 241.5 109.494 241.073C109.134 240.646 108.674 240.313 108.114 240.073C107.567 239.82 106.927 239.693 106.194 239.693C104.767 239.693 103.641 240.1 102.814 240.913C102.001 241.726 101.481 242.88 101.254 244.373H110.574ZM101.154 247.353C101.234 248.406 101.421 249.32 101.714 250.093C102.007 250.853 102.394 251.486 102.874 251.993C103.354 252.486 103.921 252.86 104.574 253.113C105.241 253.353 105.974 253.473 106.774 253.473C107.574 253.473 108.261 253.38 108.834 253.193C109.421 253.006 109.927 252.8 110.354 252.573C110.794 252.346 111.174 252.14 111.494 251.953C111.827 251.766 112.147 251.673 112.454 251.673C112.867 251.673 113.174 251.826 113.374 252.133L114.794 253.933C114.247 254.573 113.634 255.113 112.954 255.553C112.274 255.98 111.561 256.326 110.814 256.593C110.081 256.846 109.327 257.026 108.554 257.133C107.794 257.24 107.054 257.293 106.334 257.293C104.907 257.293 103.581 257.06 102.354 256.593C101.127 256.113 100.061 255.413 99.1541 254.493C98.2474 253.56 97.5341 252.413 97.0141 251.053C96.4941 249.68 96.2341 248.093 96.2341 246.293C96.2341 244.893 96.4607 243.58 96.9141 242.353C97.3674 241.113 98.0141 240.04 98.8541 239.133C99.7074 238.213 100.741 237.486 101.954 236.953C103.181 236.42 104.561 236.153 106.094 236.153C107.387 236.153 108.581 236.36 109.674 236.773C110.767 237.186 111.707 237.793 112.494 238.593C113.281 239.38 113.894 240.353 114.334 241.513C114.787 242.66 115.014 243.973 115.014 245.453C115.014 246.2 114.934 246.706 114.774 246.973C114.614 247.226 114.307 247.353 113.854 247.353H101.154Z" fill="#2B2B2B"/>
<rect x="1" y="293.491" width="190" height="8.08543" fill="#ED6A5E"/>
<rect x="1" y="284.731" width="190" height="8.75922" fill="#09BC8A"/>
<rect x="1" y="276.646" width="190" height="8.75922" fill="#1B6AE3"/>
</g>
<path d="M95.4985 102.078V93.5713L139.134 94.8315V102.078C137.611 105.491 133.305 111.372 116.765 111.372C114.244 111.372 96.1286 110.742 95.4985 102.078Z" fill="#F3B52A" stroke="black"/>
<path d="M71.8694 19.8376L82.2662 29.9303L87.7796 28.1975C83.0538 26.6747 74.5012 21.5499 78.0973 13.2324L74.6036 13.8509L71.8694 19.8376Z" fill="#F3B52A" stroke="black"/>
<path d="M138.856 92.3752C138.856 95.3173 136.633 98.4099 132.709 100.812C128.818 103.195 123.403 104.793 117.395 104.793C111.387 104.793 105.972 103.195 102.081 100.812C98.1569 98.4099 95.9336 95.3173 95.9336 92.3752C95.9336 89.4571 98.1272 86.6475 102.046 84.5236C105.936 82.4157 111.361 81.0889 117.395 81.0889C123.428 81.0889 128.854 82.4157 132.743 84.5236C136.663 86.6475 138.856 89.4571 138.856 92.3752Z" fill="#FCDB39" stroke="black" stroke-width="1.5"/>
<path d="M111.881 86.3249V71.5173H122.593V86.3249C120.335 87.7952 116.292 89.0029 111.881 86.3249Z" fill="#F3B52A" stroke="black"/>
<path d="M117.71 71.8324C109.046 71.8324 88.8824 71.8324 78.4856 19.8484C84.3142 39.5394 144.962 48.8335 155.832 17.6431C145.592 71.8324 125.901 71.8324 117.71 71.8324Z" fill="#FCDB39" stroke="black"/>
<path d="M155.239 18.4307C155.239 23.0893 151.23 27.9364 144.284 31.6689C137.393 35.3718 127.83 37.8442 117.237 37.8442C106.645 37.8442 97.0814 35.3718 90.1907 31.6689C83.2449 27.9364 79.2356 23.0893 79.2356 18.4307C79.2356 13.7981 83.2102 9.37991 90.1578 6.07552C97.0493 2.79788 106.622 0.75 117.237 0.75C127.852 0.75 137.425 2.79788 144.317 6.07552C151.264 9.37991 155.239 13.7981 155.239 18.4307Z" fill="#F3B52A" stroke="black" stroke-width="1.5"/>
<path d="M151.458 18.1157C151.458 22.2522 147.89 26.5873 141.657 29.9385C135.479 33.26 126.9 35.4813 117.395 35.4813C107.89 35.4813 99.3111 33.26 93.1331 29.9385C86.8997 26.5873 83.3313 22.2522 83.3313 18.1157C83.3313 14.0258 86.8367 10.3508 93.075 7.65986C99.2557 4.99377 107.851 3.42798 117.395 3.42798C126.938 3.42798 135.534 4.99377 141.715 7.65986C147.953 10.3508 151.458 14.0258 151.458 18.1157Z" fill="#F8D838" stroke="black" stroke-width="1.5"/>
<path d="M92.3479 30.3524C113.772 20.5227 135.773 25.469 144.017 28.9346C124.956 41.2218 102.062 35.7608 92.3479 30.3524Z" fill="#1B1B1B"/>
<path d="M86.362 9.105C83.9991 7.05713 77.698 3.46562 73.6023 8.5065C76.9104 8.03394 82.4238 8.31736 83.369 10.5228L86.362 9.105Z" fill="#F3B52A" stroke="black"/>
<path d="M140.609 47.8566V42.6582C144.705 43.1833 159.197 52.7399 159.828 57.1507C168.492 78.1018 152.676 81.0634 144.862 76.5266L130.843 68.4927V63.6093C138.246 65.6572 153.999 75.2663 156.992 69.9104C159.04 65.3421 158.63 54.5358 140.609 47.8566Z" fill="#FCDB39" stroke="black"/>
<path d="M144.232 39.1926C169.815 51.9208 166.601 69.5954 161.403 72.9035C155.732 81.0949 149.588 78.8895 142.972 75.5814L137.301 72.2734L130.843 68.4927V63.6094L134.466 59.9862L149.431 68.9653C152.739 70.8556 155.469 70.8031 156.835 70.2255C153.999 75.2664 145.493 72.2734 141.239 69.4379L130.843 63.6094V68.4927L137.301 72.2734L142.972 75.5814C149.588 78.8895 155.732 81.0949 161.403 72.9035C162.348 63.2943 162.663 52.2674 140.609 42.8158L144.232 39.1926Z" fill="#F3B52A"/>
<path d="M161.403 72.9035C166.601 69.5954 169.815 51.9208 144.232 39.1926L140.609 42.8158C162.663 52.2674 162.348 63.2943 161.403 72.9035ZM161.403 72.9035C155.732 81.0949 149.588 78.8895 142.972 75.5814L137.301 72.2734L130.843 68.4927V63.6094M130.843 63.6094L134.466 59.9862L149.431 68.9653C152.739 70.8556 155.469 70.8031 156.835 70.2255C153.999 75.2664 145.493 72.2734 141.239 69.4379L130.843 63.6094Z" stroke="black"/>
<path d="M73.9751 8.47491C70.1944 9.68262 67.3012 24.1017 83.1117 38.1216L80.2761 27.7248C79.0159 25.2044 69.5643 12.2556 80.2761 13.8309L83.1116 10.5228C82.219 8.94749 79.0159 7.52974 73.9751 8.47491Z" fill="#FCDB39" stroke="black"/>
<defs>
<filter id="filter0_d" x="0.152588" y="45.51" width="286.622" height="275.283" filterUnits="userSpaceOnUse" color-interpolation-filters="sRGB">
<feFlood flood-opacity="0" result="BackgroundImageFix"/>
<feColorMatrix in="SourceAlpha" type="matrix" values="0 0 0 0 0 0 0 0 0 0 0 0 0 0 0 0 0 0 127 0"/>
<feOffset dx="45"/>
<feGaussianBlur stdDeviation="5"/>
<feColorMatrix type="matrix" values="0 0 0 0 0 0 0 0 0 0 0 0 0 0 0 0 0 0 0.25 0"/>
<feBlend mode="normal" in2="BackgroundImageFix" result="effect1_dropShadow"/>
<feBlend mode="normal" in="SourceGraphic" in2="effect1_dropShadow" result="shape"/>
</filter>
</defs>
</svg>
