<svg width="373" height="495" viewBox="0 0 373 495" fill="none" xmlns="http://www.w3.org/2000/svg">
<g filter="url(#filter0_d)">
<path d="M48 307.852L1 437.478V239.038L48 136V307.852Z" stroke="black"/>
<rect x="1.5" y="238.085" width="264" height="246.081" fill="#FCDB39" stroke="black"/>
<path d="M265.794 237.367H1L48.3905 136L312 137.267L265.794 237.367Z" fill="#FEE777" stroke="black"/>
<path d="M44.7 379.3V383H28.7V379.3H34.56V362.44C34.56 361.773 34.58 361.087 34.62 360.38L30.46 363.86C30.22 364.047 29.98 364.167 29.74 364.22C29.5133 364.26 29.2933 364.26 29.08 364.22C28.88 364.18 28.7 364.113 28.54 364.02C28.38 363.913 28.26 363.8 28.18 363.68L26.62 361.54L35.44 354.04H39.5V379.3H44.7ZM62.1631 366.48C62.0298 366.693 61.8898 366.847 61.7431 366.94C61.5965 367.02 61.4098 367.06 61.1831 367.06C60.9431 367.06 60.6831 366.993 60.4031 366.86C60.1365 366.727 59.8231 366.58 59.4631 366.42C59.1031 366.247 58.6898 366.093 58.2231 365.96C57.7698 365.827 57.2298 365.76 56.6031 365.76C55.6298 365.76 54.8631 365.967 54.3031 366.38C53.7565 366.793 53.4831 367.333 53.4831 368C53.4831 368.44 53.6231 368.813 53.9031 369.12C54.1965 369.413 54.5765 369.673 55.0431 369.9C55.5231 370.127 56.0631 370.333 56.6631 370.52C57.2631 370.693 57.8698 370.887 58.4831 371.1C59.1098 371.313 59.7231 371.56 60.3231 371.84C60.9231 372.107 61.4565 372.453 61.9231 372.88C62.4031 373.293 62.7831 373.793 63.0631 374.38C63.3565 374.967 63.5031 375.673 63.5031 376.5C63.5031 377.487 63.3231 378.4 62.9631 379.24C62.6165 380.067 62.0965 380.787 61.4031 381.4C60.7098 382 59.8498 382.473 58.8231 382.82C57.8098 383.153 56.6365 383.32 55.3031 383.32C54.5965 383.32 53.9031 383.253 53.2231 383.12C52.5565 383 51.9098 382.827 51.2831 382.6C50.6698 382.373 50.0965 382.107 49.5631 381.8C49.0431 381.493 48.5831 381.16 48.1831 380.8L49.3231 378.92C49.4698 378.693 49.6431 378.52 49.8431 378.4C50.0431 378.28 50.2965 378.22 50.6031 378.22C50.9098 378.22 51.1965 378.307 51.4631 378.48C51.7431 378.653 52.0631 378.84 52.4231 379.04C52.7831 379.24 53.2031 379.427 53.6831 379.6C54.1765 379.773 54.7965 379.86 55.5431 379.86C56.1298 379.86 56.6298 379.793 57.0431 379.66C57.4698 379.513 57.8165 379.327 58.0831 379.1C58.3631 378.873 58.5631 378.613 58.6831 378.32C58.8165 378.013 58.8831 377.7 58.8831 377.38C58.8831 376.9 58.7365 376.507 58.4431 376.2C58.1631 375.893 57.7831 375.627 57.3031 375.4C56.8365 375.173 56.2965 374.973 55.6831 374.8C55.0831 374.613 54.4631 374.413 53.8231 374.2C53.1965 373.987 52.5765 373.74 51.9631 373.46C51.3631 373.167 50.8231 372.8 50.3431 372.36C49.8765 371.92 49.4965 371.38 49.2031 370.74C48.9231 370.1 48.7831 369.327 48.7831 368.42C48.7831 367.58 48.9498 366.78 49.2831 366.02C49.6165 365.26 50.1031 364.6 50.7431 364.04C51.3965 363.467 52.2031 363.013 53.1631 362.68C54.1365 362.333 55.2565 362.16 56.5231 362.16C57.9365 362.16 59.2231 362.393 60.3831 362.86C61.5431 363.327 62.5098 363.94 63.2831 364.7L62.1631 366.48ZM74.0613 383.32C72.2746 383.32 70.9013 382.82 69.9413 381.82C68.9946 380.807 68.5213 379.413 68.5213 377.64V366.18H66.4213C66.1546 366.18 65.9279 366.093 65.7413 365.92C65.5546 365.747 65.4613 365.487 65.4613 365.14V363.18L68.7613 362.64L69.8013 357.04C69.8679 356.773 69.9946 356.567 70.1813 356.42C70.3679 356.273 70.6079 356.2 70.9013 356.2H73.4613V362.66H78.9413V366.18H73.4613V377.3C73.4613 377.94 73.6146 378.44 73.9213 378.8C74.2413 379.16 74.6746 379.34 75.2213 379.34C75.5279 379.34 75.7813 379.307 75.9813 379.24C76.1946 379.16 76.3746 379.08 76.5213 379C76.6813 378.92 76.8213 378.847 76.9413 378.78C77.0613 378.7 77.1813 378.66 77.3013 378.66C77.4479 378.66 77.5679 378.7 77.6613 378.78C77.7546 378.847 77.8546 378.953 77.9613 379.1L79.4413 381.5C78.7213 382.1 77.8946 382.553 76.9613 382.86C76.0279 383.167 75.0613 383.32 74.0613 383.32ZM31.38 425.68C31.94 426.36 32.5467 426.84 33.2 427.12C33.8667 427.4 34.5867 427.54 35.36 427.54C36.1067 427.54 36.78 427.4 37.38 427.12C37.98 426.84 38.4867 426.413 38.9 425.84C39.3267 425.267 39.6533 424.547 39.88 423.68C40.1067 422.8 40.22 421.767 40.22 420.58C40.22 419.38 40.12 418.367 39.92 417.54C39.7333 416.7 39.46 416.02 39.1 415.5C38.74 414.98 38.3 414.6 37.78 414.36C37.2733 414.12 36.6933 414 36.04 414C35.0133 414 34.14 414.22 33.42 414.66C32.7 415.087 32.02 415.693 31.38 416.48V425.68ZM31.12 413.28C31.96 412.333 32.9133 411.567 33.98 410.98C35.0467 410.393 36.3 410.1 37.74 410.1C38.86 410.1 39.88 410.333 40.8 410.8C41.7333 411.267 42.5333 411.947 43.2 412.84C43.88 413.72 44.4 414.813 44.76 416.12C45.1333 417.413 45.32 418.9 45.32 420.58C45.32 422.113 45.1133 423.533 44.7 424.84C44.2867 426.147 43.6933 427.28 42.92 428.24C42.16 429.2 41.2333 429.953 40.14 430.5C39.06 431.033 37.8467 431.3 36.5 431.3C35.3533 431.3 34.3733 431.127 33.56 430.78C32.7467 430.42 32.02 429.927 31.38 429.3V437.7H26.44V410.48H29.46C30.1 410.48 30.52 410.78 30.72 411.38L31.12 413.28ZM54.1744 401.28V431H49.2344V401.28H54.1744ZM69.9363 422.24C68.5096 422.307 67.3096 422.433 66.3363 422.62C65.3629 422.793 64.5829 423.02 63.9963 423.3C63.4096 423.58 62.9896 423.907 62.7363 424.28C62.4829 424.653 62.3563 425.06 62.3563 425.5C62.3563 426.367 62.6096 426.987 63.1163 427.36C63.6363 427.733 64.3096 427.92 65.1363 427.92C66.1496 427.92 67.0229 427.74 67.7563 427.38C68.5029 427.007 69.2296 426.447 69.9363 425.7V422.24ZM58.6163 413.34C60.9763 411.18 63.8163 410.1 67.1363 410.1C68.3363 410.1 69.4096 410.3 70.3563 410.7C71.3029 411.087 72.1029 411.633 72.7563 412.34C73.4096 413.033 73.9029 413.867 74.2363 414.84C74.5829 415.813 74.7563 416.88 74.7563 418.04V431H72.5163C72.0496 431 71.6896 430.933 71.4363 430.8C71.1829 430.653 70.9829 430.367 70.8363 429.94L70.3963 428.46C69.8763 428.927 69.3696 429.34 68.8763 429.7C68.3829 430.047 67.8696 430.34 67.3363 430.58C66.8029 430.82 66.2296 431 65.6163 431.12C65.0163 431.253 64.3496 431.32 63.6163 431.32C62.7496 431.32 61.9496 431.207 61.2163 430.98C60.4829 430.74 59.8496 430.387 59.3163 429.92C58.7829 429.453 58.3696 428.873 58.0763 428.18C57.7829 427.487 57.6363 426.68 57.6363 425.76C57.6363 425.24 57.7229 424.727 57.8963 424.22C58.0696 423.7 58.3496 423.207 58.7363 422.74C59.1363 422.273 59.6496 421.833 60.2763 421.42C60.9029 421.007 61.6696 420.647 62.5763 420.34C63.4963 420.033 64.5629 419.787 65.7763 419.6C66.9896 419.4 68.3763 419.28 69.9363 419.24V418.04C69.9363 416.667 69.6429 415.653 69.0563 415C68.4696 414.333 67.6229 414 66.5163 414C65.7163 414 65.0496 414.093 64.5163 414.28C63.9963 414.467 63.5363 414.68 63.1363 414.92C62.7363 415.147 62.3696 415.353 62.0363 415.54C61.7163 415.727 61.3563 415.82 60.9563 415.82C60.6096 415.82 60.3163 415.733 60.0763 415.56C59.8363 415.373 59.6429 415.16 59.4963 414.92L58.6163 413.34ZM94.1088 414.82C93.9621 415.007 93.8154 415.153 93.6688 415.26C93.5354 415.367 93.3354 415.42 93.0688 415.42C92.8154 415.42 92.5688 415.347 92.3288 415.2C92.0888 415.04 91.8021 414.867 91.4688 414.68C91.1354 414.48 90.7354 414.307 90.2688 414.16C89.8154 414 89.2488 413.92 88.5688 413.92C87.7021 413.92 86.9421 414.08 86.2888 414.4C85.6354 414.707 85.0888 415.153 84.6488 415.74C84.2221 416.327 83.9021 417.04 83.6888 417.88C83.4754 418.707 83.3688 419.647 83.3688 420.7C83.3688 421.793 83.4821 422.767 83.7088 423.62C83.9488 424.473 84.2888 425.193 84.7288 425.78C85.1688 426.353 85.7021 426.793 86.3288 427.1C86.9554 427.393 87.6621 427.54 88.4488 427.54C89.2354 427.54 89.8688 427.447 90.3488 427.26C90.8421 427.06 91.2554 426.847 91.5888 426.62C91.9221 426.38 92.2088 426.167 92.4488 425.98C92.7021 425.78 92.9821 425.68 93.2888 425.68C93.6888 425.68 93.9888 425.833 94.1888 426.14L95.6088 427.94C95.0621 428.58 94.4688 429.12 93.8288 429.56C93.1888 429.987 92.5221 430.333 91.8288 430.6C91.1488 430.853 90.4421 431.033 89.7088 431.14C88.9888 431.247 88.2688 431.3 87.5488 431.3C86.2821 431.3 85.0888 431.067 83.9688 430.6C82.8488 430.12 81.8688 429.427 81.0288 428.52C80.1888 427.613 79.5221 426.507 79.0288 425.2C78.5488 423.88 78.3088 422.38 78.3088 420.7C78.3088 419.193 78.5221 417.8 78.9488 416.52C79.3888 415.227 80.0288 414.113 80.8688 413.18C81.7088 412.233 82.7488 411.493 83.9888 410.96C85.2288 410.427 86.6554 410.16 88.2687 410.16C89.8021 410.16 91.1421 410.407 92.2888 410.9C93.4488 411.393 94.4888 412.1 95.4088 413.02L94.1088 414.82ZM111.574 418.38C111.574 417.74 111.481 417.14 111.294 416.58C111.121 416.007 110.854 415.507 110.494 415.08C110.134 414.653 109.674 414.32 109.114 414.08C108.567 413.827 107.927 413.7 107.194 413.7C105.767 413.7 104.641 414.107 103.814 414.92C103.001 415.733 102.481 416.887 102.254 418.38H111.574ZM102.154 421.36C102.234 422.413 102.421 423.327 102.714 424.1C103.007 424.86 103.394 425.493 103.874 426C104.354 426.493 104.921 426.867 105.574 427.12C106.241 427.36 106.974 427.48 107.774 427.48C108.574 427.48 109.261 427.387 109.834 427.2C110.421 427.013 110.927 426.807 111.354 426.58C111.794 426.353 112.174 426.147 112.494 425.96C112.827 425.773 113.147 425.68 113.454 425.68C113.867 425.68 114.174 425.833 114.374 426.14L115.794 427.94C115.247 428.58 114.634 429.12 113.954 429.56C113.274 429.987 112.561 430.333 111.814 430.6C111.081 430.853 110.327 431.033 109.554 431.14C108.794 431.247 108.054 431.3 107.334 431.3C105.907 431.3 104.581 431.067 103.354 430.6C102.127 430.12 101.061 429.42 100.154 428.5C99.2474 427.567 98.5341 426.42 98.0141 425.06C97.4941 423.687 97.2341 422.1 97.2341 420.3C97.2341 418.9 97.4607 417.587 97.9141 416.36C98.3674 415.12 99.0141 414.047 99.8541 413.14C100.707 412.22 101.741 411.493 102.954 410.96C104.181 410.427 105.561 410.16 107.094 410.16C108.387 410.16 109.581 410.367 110.674 410.78C111.767 411.193 112.707 411.8 113.494 412.6C114.281 413.387 114.894 414.36 115.334 415.52C115.787 416.667 116.014 417.98 116.014 419.46C116.014 420.207 115.934 420.713 115.774 420.98C115.614 421.233 115.307 421.36 114.854 421.36H102.154Z" fill="#2B2B2B"/>
<path d="M312.5 367.657L266 483.53V237.017L312.5 137.311V367.657Z" fill="#F3B52A" stroke="black"/>
<rect x="1" y="469.903" width="265" height="6.89797" fill="#ED6A5E"/>
<rect x="1" y="462.431" width="265" height="7.4728" fill="#09BC8A"/>
<rect x="1" y="455.532" width="265" height="7.4728" fill="#1B6AE3"/>
</g>
<path d="M114.87 191.124V175.197L196.569 177.557V191.124C193.718 197.515 185.656 208.526 154.687 208.526C149.968 208.526 116.049 207.346 114.87 191.124Z" fill="#F3B52A" stroke="black"/>
<path d="M70.6279 37.1425L90.0943 56.0395L100.417 52.7951C91.569 49.944 75.5556 40.3485 82.2888 24.7754L75.7473 25.9333L70.6279 37.1425Z" fill="#F3B52A" stroke="black"/>
<path d="M196.704 172.958C196.704 178.799 192.312 184.764 184.882 189.313C177.484 193.843 167.225 196.863 155.867 196.863C144.509 196.863 134.25 193.843 126.852 189.313C119.422 184.764 115.03 178.799 115.03 172.958C115.03 167.14 119.392 161.706 126.818 157.682C134.214 153.674 144.483 151.172 155.867 151.172C167.251 151.172 177.52 153.674 184.916 157.682C192.342 161.706 196.704 167.14 196.704 172.958Z" fill="#FCDB39" stroke="black" stroke-width="1.5"/>
<path d="M145.544 161.63V133.905H165.6V161.63C161.373 164.382 153.802 166.644 145.544 161.63Z" fill="#F3B52A" stroke="black"/>
<path d="M156.457 134.495C140.235 134.495 102.482 134.495 83.0156 37.1632C93.9287 74.0312 207.482 91.433 227.834 33.0339C208.662 134.495 171.794 134.495 156.457 134.495Z" fill="#FCDB39" stroke="black"/>
<path d="M227.378 34.5085C227.378 43.6069 219.585 52.8513 206.522 59.8713C193.514 66.8616 175.499 71.5114 155.572 71.5114C135.645 71.5114 117.63 66.8616 104.622 59.8713C91.5587 52.8513 83.7656 43.6069 83.7656 34.5085C83.7656 25.4362 91.5239 16.9985 104.589 10.7846C117.598 4.59745 135.622 0.75 155.572 0.75C175.522 0.75 193.546 4.59745 206.555 10.7846C219.62 16.9985 227.378 25.4362 227.378 34.5085Z" fill="#F3B52A" stroke="black" stroke-width="1.5"/>
<path d="M220.3 33.9187C220.3 42.0397 213.332 50.3255 201.603 56.6314C189.929 62.9075 173.758 67.0874 155.867 67.0874C137.976 67.0874 121.805 62.9075 110.131 56.6314C98.4019 50.3255 91.4343 42.0397 91.4343 33.9187C91.4343 25.8445 98.3389 18.8027 110.073 13.7412C121.749 8.70448 137.938 5.76416 155.867 5.76416C173.797 5.76416 189.985 8.70448 201.661 13.7412C213.395 18.8027 220.3 25.8445 220.3 33.9187Z" fill="#F8D838" stroke="black" stroke-width="1.5"/>
<path d="M108.971 56.8299C149.083 38.4253 190.277 47.6866 205.713 54.1754C170.024 77.1811 127.159 66.9563 108.971 56.8299Z" fill="#1B1B1B"/>
<path d="M97.7628 17.0475C93.3387 13.2132 81.5409 6.48866 73.8723 15.9269C80.0662 15.0421 90.3892 15.5728 92.1589 19.702L97.7628 17.0475Z" fill="#F3B52A" stroke="black"/>
<path d="M199.332 89.6038V79.8706C207.001 80.8538 234.136 98.7471 235.315 107.006C251.537 146.233 221.925 151.778 207.296 143.284L181.046 128.242V119.098C194.908 122.933 224.403 140.924 230.006 130.896C233.841 122.343 233.074 102.109 199.332 89.6038Z" fill="#FCDB39" stroke="black"/>
<path d="M206.116 73.3821C254.015 97.2136 247.998 130.306 238.265 136.5C227.647 151.837 216.144 147.708 203.756 141.514L193.138 135.32L181.046 128.242V119.098L187.829 112.315L215.849 129.127C222.043 132.666 227.155 132.568 229.712 131.486C224.403 140.924 208.476 135.32 200.512 130.011L181.046 119.098V128.242L193.138 135.32L203.756 141.514C216.144 147.708 227.647 151.837 238.265 136.5C240.035 118.509 240.624 97.8625 199.332 80.1658L206.116 73.3821Z" fill="#F3B52A"/>
<path d="M238.265 136.5C247.998 130.306 254.015 97.2136 206.116 73.3821L199.332 80.1658C240.624 97.8625 240.035 118.509 238.265 136.5ZM238.265 136.5C227.647 151.837 216.144 147.708 203.756 141.514L193.138 135.32L181.046 128.242V119.098M181.046 119.098L187.829 112.315L215.849 129.127C222.043 132.666 227.155 132.568 229.712 131.486C224.403 140.924 208.476 135.32 200.512 130.011L181.046 119.098Z" stroke="black"/>
<path d="M74.5704 15.8678C67.4917 18.129 62.0746 45.1265 91.6773 71.3765L86.3681 51.9102C84.0085 47.1911 66.3119 22.9465 86.3681 25.8959L91.6771 19.7021C90.0058 16.7526 84.0085 14.0981 74.5704 15.8678Z" fill="#FCDB39" stroke="black"/>
<defs>
<filter id="filter0_d" x="0.214355" y="125.499" width="372.786" height="369.167" filterUnits="userSpaceOnUse" color-interpolation-filters="sRGB">
<feFlood flood-opacity="0" result="BackgroundImageFix"/>
<feColorMatrix in="SourceAlpha" type="matrix" values="0 0 0 0 0 0 0 0 0 0 0 0 0 0 0 0 0 0 127 0"/>
<feOffset dx="50"/>
<feGaussianBlur stdDeviation="5"/>
<feColorMatrix type="matrix" values="0 0 0 0 0 0 0 0 0 0 0 0 0 0 0 0 0 0 0.25 0"/>
<feBlend mode="normal" in2="BackgroundImageFix" result="effect1_dropShadow"/>
<feBlend mode="normal" in="SourceGraphic" in2="effect1_dropShadow" result="shape"/>
</filter>
</defs>
</svg>
