<svg width="292" height="312" viewBox="0 0 292 312" fill="none" xmlns="http://www.w3.org/2000/svg">
<g filter="url(#filter0_d)">
<path d="M231 184.604L189 299.865V117.694L231 11.0002V184.604Z" fill="#F3B52A" stroke="black"/>
<path d="M190.429 113.501H1L50.6078 11.0002H231L190.429 113.501Z" fill="#FEE777" stroke="black"/>
<rect x="1.5" y="114.225" width="189" height="187.15" fill="#FCDB39" stroke="black"/>
<path d="M38.62 191.4C39.1533 191.4 39.5733 191.553 39.88 191.86C40.2 192.153 40.36 192.547 40.36 193.04V196H20.52V194.36C20.52 194.027 20.5867 193.68 20.72 193.32C20.8667 192.947 21.0933 192.613 21.4 192.32L30.18 183.52C30.9133 182.773 31.5667 182.06 32.14 181.38C32.7267 180.7 33.2133 180.027 33.6 179.36C33.9867 178.693 34.28 178.02 34.48 177.34C34.6933 176.647 34.8 175.92 34.8 175.16C34.8 174.467 34.7 173.86 34.5 173.34C34.3 172.807 34.0133 172.36 33.64 172C33.28 171.64 32.84 171.373 32.32 171.2C31.8133 171.013 31.24 170.92 30.6 170.92C30.0133 170.92 29.4667 171.007 28.96 171.18C28.4667 171.34 28.0267 171.573 27.64 171.88C27.2533 172.173 26.9267 172.52 26.66 172.92C26.3933 173.32 26.1933 173.76 26.06 174.24C25.8333 174.853 25.54 175.26 25.18 175.46C24.82 175.66 24.3 175.707 23.62 175.6L21.02 175.14C21.22 173.753 21.6067 172.54 22.18 171.5C22.7533 170.447 23.4667 169.573 24.32 168.88C25.1867 168.173 26.1733 167.647 27.28 167.3C28.4 166.94 29.6 166.76 30.88 166.76C32.2133 166.76 33.4333 166.96 34.54 167.36C35.6467 167.747 36.5933 168.3 37.38 169.02C38.1667 169.74 38.78 170.607 39.22 171.62C39.66 172.633 39.88 173.76 39.88 175C39.88 176.067 39.72 177.053 39.4 177.96C39.0933 178.867 38.6733 179.733 38.14 180.56C37.62 181.387 37.0067 182.187 36.3 182.96C35.5933 183.733 34.8533 184.52 34.08 185.32L27.56 191.98C28.1867 191.793 28.8067 191.653 29.42 191.56C30.0467 191.453 30.64 191.4 31.2 191.4H38.62ZM49.2631 178C49.6765 177.587 50.1098 177.207 50.5631 176.86C51.0298 176.5 51.5165 176.2 52.0231 175.96C52.5431 175.707 53.0965 175.513 53.6831 175.38C54.2698 175.233 54.9098 175.16 55.6031 175.16C56.7231 175.16 57.7165 175.353 58.5831 175.74C59.4498 176.113 60.1698 176.647 60.7431 177.34C61.3298 178.02 61.7698 178.84 62.0631 179.8C62.3698 180.747 62.5231 181.793 62.5231 182.94V196H57.5831V182.94C57.5831 181.687 57.2965 180.72 56.7231 180.04C56.1498 179.347 55.2765 179 54.1031 179C53.2498 179 52.4498 179.193 51.7031 179.58C50.9565 179.967 50.2498 180.493 49.5831 181.16V196H44.6431V175.48H47.6631C48.3031 175.48 48.7231 175.78 48.9231 176.38L49.2631 178ZM80.1013 180.72C79.5413 180.04 78.9279 179.56 78.2613 179.28C77.6079 179 76.9013 178.86 76.1413 178.86C75.3946 178.86 74.7213 179 74.1213 179.28C73.5213 179.56 73.0079 179.987 72.5813 180.56C72.1546 181.12 71.8279 181.84 71.6013 182.72C71.3746 183.587 71.2613 184.613 71.2613 185.8C71.2613 187 71.3546 188.02 71.5413 188.86C71.7413 189.687 72.0213 190.367 72.3813 190.9C72.7413 191.42 73.1813 191.8 73.7013 192.04C74.2213 192.267 74.8013 192.38 75.4413 192.38C76.4679 192.38 77.3413 192.167 78.0613 191.74C78.7813 191.313 79.4613 190.707 80.1013 189.92V180.72ZM85.0413 166.28V196H82.0213C81.3679 196 80.9546 195.7 80.7813 195.1L80.3613 193.12C79.5346 194.067 78.5813 194.833 77.5013 195.42C76.4346 196.007 75.1879 196.3 73.7613 196.3C72.6413 196.3 71.6146 196.067 70.6813 195.6C69.7479 195.133 68.9413 194.46 68.2613 193.58C67.5946 192.687 67.0746 191.587 66.7013 190.28C66.3413 188.973 66.1613 187.48 66.1613 185.8C66.1613 184.28 66.3679 182.867 66.7813 181.56C67.1946 180.253 67.7879 179.12 68.5613 178.16C69.3346 177.2 70.2613 176.453 71.3413 175.92C72.4213 175.373 73.6346 175.1 74.9813 175.1C76.1279 175.1 77.1079 175.28 77.9213 175.64C78.7346 176 79.4613 176.487 80.1013 177.1V166.28H85.0413ZM26.38 238.68C26.94 239.36 27.5467 239.84 28.2 240.12C28.8667 240.4 29.5867 240.54 30.36 240.54C31.1067 240.54 31.78 240.4 32.38 240.12C32.98 239.84 33.4867 239.413 33.9 238.84C34.3267 238.267 34.6533 237.547 34.88 236.68C35.1067 235.8 35.22 234.767 35.22 233.58C35.22 232.38 35.12 231.367 34.92 230.54C34.7333 229.7 34.46 229.02 34.1 228.5C33.74 227.98 33.3 227.6 32.78 227.36C32.2733 227.12 31.6933 227 31.04 227C30.0133 227 29.14 227.22 28.42 227.66C27.7 228.087 27.02 228.693 26.38 229.48V238.68ZM26.12 226.28C26.96 225.333 27.9133 224.567 28.98 223.98C30.0467 223.393 31.3 223.1 32.74 223.1C33.86 223.1 34.88 223.333 35.8 223.8C36.7333 224.267 37.5333 224.947 38.2 225.84C38.88 226.72 39.4 227.813 39.76 229.12C40.1333 230.413 40.32 231.9 40.32 233.58C40.32 235.113 40.1133 236.533 39.7 237.84C39.2867 239.147 38.6933 240.28 37.92 241.24C37.16 242.2 36.2333 242.953 35.14 243.5C34.06 244.033 32.8467 244.3 31.5 244.3C30.3533 244.3 29.3733 244.127 28.56 243.78C27.7467 243.42 27.02 242.927 26.38 242.3V250.7H21.44V223.48H24.46C25.1 223.48 25.52 223.78 25.72 224.38L26.12 226.28ZM49.1744 214.28V244H44.2344V214.28H49.1744ZM64.9363 235.24C63.5096 235.307 62.3096 235.433 61.3363 235.62C60.3629 235.793 59.5829 236.02 58.9963 236.3C58.4096 236.58 57.9896 236.907 57.7363 237.28C57.4829 237.653 57.3563 238.06 57.3563 238.5C57.3563 239.367 57.6096 239.987 58.1163 240.36C58.6363 240.733 59.3096 240.92 60.1363 240.92C61.1496 240.92 62.0229 240.74 62.7563 240.38C63.5029 240.007 64.2296 239.447 64.9363 238.7V235.24ZM53.6163 226.34C55.9763 224.18 58.8163 223.1 62.1363 223.1C63.3363 223.1 64.4096 223.3 65.3563 223.7C66.3029 224.087 67.1029 224.633 67.7563 225.34C68.4096 226.033 68.9029 226.867 69.2363 227.84C69.5829 228.813 69.7563 229.88 69.7563 231.04V244H67.5163C67.0496 244 66.6896 243.933 66.4363 243.8C66.1829 243.653 65.9829 243.367 65.8363 242.94L65.3963 241.46C64.8763 241.927 64.3696 242.34 63.8763 242.7C63.3829 243.047 62.8696 243.34 62.3363 243.58C61.8029 243.82 61.2296 244 60.6163 244.12C60.0163 244.253 59.3496 244.32 58.6163 244.32C57.7496 244.32 56.9496 244.207 56.2163 243.98C55.4829 243.74 54.8496 243.387 54.3163 242.92C53.7829 242.453 53.3696 241.873 53.0763 241.18C52.7829 240.487 52.6363 239.68 52.6363 238.76C52.6363 238.24 52.7229 237.727 52.8963 237.22C53.0696 236.7 53.3496 236.207 53.7363 235.74C54.1363 235.273 54.6496 234.833 55.2763 234.42C55.9029 234.007 56.6696 233.647 57.5763 233.34C58.4963 233.033 59.5629 232.787 60.7763 232.6C61.9896 232.4 63.3763 232.28 64.9363 232.24V231.04C64.9363 229.667 64.6429 228.653 64.0563 228C63.4696 227.333 62.6229 227 61.5163 227C60.7163 227 60.0496 227.093 59.5163 227.28C58.9963 227.467 58.5363 227.68 58.1363 227.92C57.7363 228.147 57.3696 228.353 57.0363 228.54C56.7163 228.727 56.3563 228.82 55.9563 228.82C55.6096 228.82 55.3163 228.733 55.0763 228.56C54.8363 228.373 54.6429 228.16 54.4963 227.92L53.6163 226.34ZM89.1088 227.82C88.9621 228.007 88.8154 228.153 88.6688 228.26C88.5354 228.367 88.3354 228.42 88.0688 228.42C87.8154 228.42 87.5688 228.347 87.3288 228.2C87.0888 228.04 86.8021 227.867 86.4688 227.68C86.1354 227.48 85.7354 227.307 85.2688 227.16C84.8154 227 84.2488 226.92 83.5688 226.92C82.7021 226.92 81.9421 227.08 81.2888 227.4C80.6354 227.707 80.0888 228.153 79.6488 228.74C79.2221 229.327 78.9021 230.04 78.6888 230.88C78.4754 231.707 78.3688 232.647 78.3688 233.7C78.3688 234.793 78.4821 235.767 78.7088 236.62C78.9488 237.473 79.2888 238.193 79.7288 238.78C80.1688 239.353 80.7021 239.793 81.3288 240.1C81.9554 240.393 82.6621 240.54 83.4488 240.54C84.2354 240.54 84.8688 240.447 85.3488 240.26C85.8421 240.06 86.2554 239.847 86.5888 239.62C86.9221 239.38 87.2088 239.167 87.4488 238.98C87.7021 238.78 87.9821 238.68 88.2888 238.68C88.6888 238.68 88.9888 238.833 89.1888 239.14L90.6088 240.94C90.0621 241.58 89.4688 242.12 88.8288 242.56C88.1888 242.987 87.5221 243.333 86.8288 243.6C86.1488 243.853 85.4421 244.033 84.7088 244.14C83.9888 244.247 83.2688 244.3 82.5488 244.3C81.2821 244.3 80.0888 244.067 78.9688 243.6C77.8488 243.12 76.8688 242.427 76.0288 241.52C75.1888 240.613 74.5221 239.507 74.0288 238.2C73.5488 236.88 73.3088 235.38 73.3088 233.7C73.3088 232.193 73.5221 230.8 73.9488 229.52C74.3888 228.227 75.0288 227.113 75.8688 226.18C76.7088 225.233 77.7488 224.493 78.9888 223.96C80.2288 223.427 81.6554 223.16 83.2687 223.16C84.8021 223.16 86.1421 223.407 87.2888 223.9C88.4488 224.393 89.4888 225.1 90.4088 226.02L89.1088 227.82ZM106.574 231.38C106.574 230.74 106.481 230.14 106.294 229.58C106.121 229.007 105.854 228.507 105.494 228.08C105.134 227.653 104.674 227.32 104.114 227.08C103.567 226.827 102.927 226.7 102.194 226.7C100.767 226.7 99.6407 227.107 98.8141 227.92C98.0007 228.733 97.4807 229.887 97.2541 231.38H106.574ZM97.1541 234.36C97.2341 235.413 97.4207 236.327 97.7141 237.1C98.0074 237.86 98.3941 238.493 98.8741 239C99.3541 239.493 99.9207 239.867 100.574 240.12C101.241 240.36 101.974 240.48 102.774 240.48C103.574 240.48 104.261 240.387 104.834 240.2C105.421 240.013 105.927 239.807 106.354 239.58C106.794 239.353 107.174 239.147 107.494 238.96C107.827 238.773 108.147 238.68 108.454 238.68C108.867 238.68 109.174 238.833 109.374 239.14L110.794 240.94C110.247 241.58 109.634 242.12 108.954 242.56C108.274 242.987 107.561 243.333 106.814 243.6C106.081 243.853 105.327 244.033 104.554 244.14C103.794 244.247 103.054 244.3 102.334 244.3C100.907 244.3 99.5807 244.067 98.3541 243.6C97.1274 243.12 96.0607 242.42 95.1541 241.5C94.2474 240.567 93.5341 239.42 93.0141 238.06C92.4941 236.687 92.2341 235.1 92.2341 233.3C92.2341 231.9 92.4607 230.587 92.9141 229.36C93.3674 228.12 94.0141 227.047 94.8541 226.14C95.7074 225.22 96.7407 224.493 97.9541 223.96C99.1807 223.427 100.561 223.16 102.094 223.16C103.387 223.16 104.581 223.367 105.674 223.78C106.767 224.193 107.707 224.8 108.494 225.6C109.281 226.387 109.894 227.36 110.334 228.52C110.787 229.667 111.014 230.98 111.014 232.46C111.014 233.207 110.934 233.713 110.774 233.98C110.614 234.233 110.307 234.36 109.854 234.36H97.1541Z" fill="#2B2B2B"/>
<rect x="1" y="282.121" width="190" height="9.23076" fill="#ED6A5E"/>
<rect x="1" y="272.121" width="190" height="9.99999" fill="#09BC8A"/>
<rect x="1" y="262.89" width="190" height="9.99999" fill="#1B6AE3"/>
</g>
<defs>
<filter id="filter0_d" x="0.202637" y="0.500244" width="291.533" height="311.374" filterUnits="userSpaceOnUse" color-interpolation-filters="sRGB">
<feFlood flood-opacity="0" result="BackgroundImageFix"/>
<feColorMatrix in="SourceAlpha" type="matrix" values="0 0 0 0 0 0 0 0 0 0 0 0 0 0 0 0 0 0 127 0"/>
<feOffset dx="50"/>
<feGaussianBlur stdDeviation="5"/>
<feColorMatrix type="matrix" values="0 0 0 0 0 0 0 0 0 0 0 0 0 0 0 0 0 0 0.25 0"/>
<feBlend mode="normal" in2="BackgroundImageFix" result="effect1_dropShadow"/>
<feBlend mode="normal" in="SourceGraphic" in2="effect1_dropShadow" result="shape"/>
</filter>
</defs>
</svg>
