<svg width="287" height="276" viewBox="0 0 287 276" fill="none" xmlns="http://www.w3.org/2000/svg">
<g filter="url(#filter0_d)">
<path d="M231 163.074L189 264.034V104.466L231 11.01V163.074Z" fill="#F3B52A" stroke="black"/>
<path d="M190.429 100.793H1L50.6078 11.01H231L190.429 100.793Z" fill="#FEE777" stroke="black"/>
<rect x="1.5" y="101.489" width="189" height="163.805" fill="#FCDB39" stroke="black"/>
<path d="M25.16 143.133C25.36 141.746 25.7467 140.533 26.32 139.493C26.8933 138.44 27.6067 137.566 28.46 136.873C29.3267 136.166 30.3133 135.64 31.42 135.293C32.54 134.933 33.74 134.753 35.02 134.753C36.3533 134.753 37.5533 134.946 38.62 135.333C39.7 135.706 40.62 136.233 41.38 136.913C42.14 137.58 42.72 138.366 43.12 139.273C43.5333 140.18 43.74 141.16 43.74 142.213C43.74 143.133 43.6333 143.946 43.42 144.653C43.22 145.346 42.9267 145.953 42.54 146.473C42.1533 146.993 41.6733 147.433 41.1 147.793C40.5267 148.153 39.88 148.453 39.16 148.693C40.8933 149.24 42.1867 150.073 43.04 151.193C43.8933 152.313 44.32 153.72 44.32 155.413C44.32 156.853 44.0533 158.126 43.52 159.233C42.9867 160.34 42.2667 161.273 41.36 162.033C40.4533 162.78 39.4 163.346 38.2 163.733C37.0133 164.12 35.7533 164.313 34.42 164.313C32.9667 164.313 31.7 164.146 30.62 163.813C29.54 163.48 28.6 162.986 27.8 162.333C27 161.68 26.32 160.88 25.76 159.933C25.2 158.986 24.72 157.893 24.32 156.653L26.5 155.753C27.0733 155.513 27.6067 155.453 28.1 155.573C28.6067 155.68 28.9733 155.946 29.2 156.373C29.44 156.84 29.7 157.3 29.98 157.753C30.2733 158.206 30.62 158.613 31.02 158.973C31.42 159.32 31.8867 159.606 32.42 159.833C32.9667 160.046 33.6133 160.153 34.36 160.153C35.2 160.153 35.9333 160.02 36.56 159.753C37.1867 159.473 37.7067 159.113 38.12 158.673C38.5467 158.233 38.86 157.746 39.06 157.213C39.2733 156.666 39.38 156.12 39.38 155.573C39.38 154.88 39.3067 154.253 39.16 153.693C39.0133 153.12 38.7067 152.633 38.24 152.233C37.7733 151.833 37.1 151.52 36.22 151.293C35.3533 151.066 34.1867 150.953 32.72 150.953V147.433C33.9333 147.42 34.94 147.306 35.74 147.093C36.54 146.88 37.1733 146.586 37.64 146.213C38.12 145.826 38.4533 145.366 38.64 144.833C38.8267 144.3 38.92 143.713 38.92 143.073C38.92 141.713 38.54 140.68 37.78 139.973C37.02 139.266 36.0067 138.913 34.74 138.913C34.1533 138.913 33.6133 139 33.12 139.173C32.6267 139.333 32.18 139.566 31.78 139.873C31.3933 140.166 31.0667 140.513 30.8 140.913C30.5333 141.313 30.3333 141.753 30.2 142.233C29.9733 142.846 29.6733 143.253 29.3 143.453C28.94 143.653 28.4267 143.7 27.76 143.593L25.16 143.133ZM53.3031 147.033C53.9431 145.806 54.7031 144.846 55.5831 144.153C56.4631 143.446 57.5031 143.093 58.7031 143.093C59.6498 143.093 60.4098 143.3 60.9831 143.713L60.6631 147.413C60.5965 147.653 60.4965 147.826 60.3631 147.933C60.2431 148.026 60.0765 148.073 59.8631 148.073C59.6631 148.073 59.3631 148.04 58.9631 147.973C58.5765 147.906 58.1965 147.873 57.8231 147.873C57.2765 147.873 56.7898 147.953 56.3631 148.113C55.9365 148.273 55.5498 148.506 55.2031 148.813C54.8698 149.106 54.5698 149.466 54.3031 149.893C54.0498 150.32 53.8098 150.806 53.5831 151.353V163.993H48.6431V143.473H51.5431C52.0498 143.473 52.4031 143.566 52.6031 143.753C52.8031 143.926 52.9365 144.246 53.0031 144.713L53.3031 147.033ZM75.8981 148.713C75.3381 148.033 74.7248 147.553 74.0581 147.273C73.4048 146.993 72.6981 146.853 71.9381 146.853C71.1915 146.853 70.5181 146.993 69.9181 147.273C69.3181 147.553 68.8048 147.98 68.3781 148.553C67.9515 149.113 67.6248 149.833 67.3981 150.713C67.1715 151.58 67.0581 152.606 67.0581 153.793C67.0581 154.993 67.1515 156.013 67.3381 156.853C67.5381 157.68 67.8181 158.36 68.1781 158.893C68.5381 159.413 68.9781 159.793 69.4981 160.033C70.0181 160.26 70.5981 160.373 71.2381 160.373C72.2648 160.373 73.1381 160.16 73.8581 159.733C74.5781 159.306 75.2581 158.7 75.8981 157.913V148.713ZM80.8381 134.273V163.993H77.8181C77.1648 163.993 76.7515 163.693 76.5781 163.093L76.1581 161.113C75.3315 162.06 74.3781 162.826 73.2981 163.413C72.2315 164 70.9848 164.293 69.5581 164.293C68.4381 164.293 67.4115 164.06 66.4781 163.593C65.5448 163.126 64.7381 162.453 64.0581 161.573C63.3915 160.68 62.8715 159.58 62.4981 158.273C62.1381 156.966 61.9581 155.473 61.9581 153.793C61.9581 152.273 62.1648 150.86 62.5781 149.553C62.9915 148.246 63.5848 147.113 64.3581 146.153C65.1315 145.193 66.0581 144.446 67.1381 143.913C68.2181 143.366 69.4315 143.093 70.7781 143.093C71.9248 143.093 72.9048 143.273 73.7181 143.633C74.5315 143.993 75.2581 144.48 75.8981 145.093V134.273H80.8381ZM30.38 206.673C30.94 207.353 31.5467 207.833 32.2 208.113C32.8667 208.393 33.5867 208.533 34.36 208.533C35.1067 208.533 35.78 208.393 36.38 208.113C36.98 207.833 37.4867 207.406 37.9 206.833C38.3267 206.26 38.6533 205.54 38.88 204.673C39.1067 203.793 39.22 202.76 39.22 201.573C39.22 200.373 39.12 199.36 38.92 198.533C38.7333 197.693 38.46 197.013 38.1 196.493C37.74 195.973 37.3 195.593 36.78 195.353C36.2733 195.113 35.6933 194.993 35.04 194.993C34.0133 194.993 33.14 195.213 32.42 195.653C31.7 196.08 31.02 196.686 30.38 197.473V206.673ZM30.12 194.273C30.96 193.326 31.9133 192.56 32.98 191.973C34.0467 191.386 35.3 191.093 36.74 191.093C37.86 191.093 38.88 191.326 39.8 191.793C40.7333 192.26 41.5333 192.94 42.2 193.833C42.88 194.713 43.4 195.806 43.76 197.113C44.1333 198.406 44.32 199.893 44.32 201.573C44.32 203.106 44.1133 204.526 43.7 205.833C43.2867 207.14 42.6933 208.273 41.92 209.233C41.16 210.193 40.2333 210.946 39.14 211.493C38.06 212.026 36.8467 212.293 35.5 212.293C34.3533 212.293 33.3733 212.12 32.56 211.773C31.7467 211.413 31.02 210.92 30.38 210.293V218.693H25.44V191.473H28.46C29.1 191.473 29.52 191.773 29.72 192.373L30.12 194.273ZM53.1744 182.273V211.993H48.2344V182.273H53.1744ZM68.9363 203.233C67.5096 203.3 66.3096 203.426 65.3363 203.613C64.3629 203.786 63.5829 204.013 62.9963 204.293C62.4096 204.573 61.9896 204.9 61.7363 205.273C61.4829 205.646 61.3563 206.053 61.3563 206.493C61.3563 207.36 61.6096 207.98 62.1163 208.353C62.6363 208.726 63.3096 208.913 64.1363 208.913C65.1496 208.913 66.0229 208.733 66.7563 208.373C67.5029 208 68.2296 207.44 68.9363 206.693V203.233ZM57.6163 194.333C59.9763 192.173 62.8163 191.093 66.1363 191.093C67.3363 191.093 68.4096 191.293 69.3563 191.693C70.3029 192.08 71.1029 192.626 71.7563 193.333C72.4096 194.026 72.9029 194.86 73.2363 195.833C73.5829 196.806 73.7563 197.873 73.7563 199.033V211.993H71.5163C71.0496 211.993 70.6896 211.926 70.4363 211.793C70.1829 211.646 69.9829 211.36 69.8363 210.933L69.3963 209.453C68.8763 209.92 68.3696 210.333 67.8763 210.693C67.3829 211.04 66.8696 211.333 66.3363 211.573C65.8029 211.813 65.2296 211.993 64.6163 212.113C64.0163 212.246 63.3496 212.313 62.6163 212.313C61.7496 212.313 60.9496 212.2 60.2163 211.973C59.4829 211.733 58.8496 211.38 58.3163 210.913C57.7829 210.446 57.3696 209.866 57.0763 209.173C56.7829 208.48 56.6363 207.673 56.6363 206.753C56.6363 206.233 56.7229 205.72 56.8963 205.213C57.0696 204.693 57.3496 204.2 57.7363 203.733C58.1363 203.266 58.6496 202.826 59.2763 202.413C59.9029 202 60.6696 201.64 61.5763 201.333C62.4963 201.026 63.5629 200.78 64.7763 200.593C65.9896 200.393 67.3763 200.273 68.9363 200.233V199.033C68.9363 197.66 68.6429 196.646 68.0563 195.993C67.4696 195.326 66.6229 194.993 65.5163 194.993C64.7163 194.993 64.0496 195.086 63.5163 195.273C62.9963 195.46 62.5363 195.673 62.1363 195.913C61.7363 196.14 61.3696 196.346 61.0363 196.533C60.7163 196.72 60.3563 196.813 59.9563 196.813C59.6096 196.813 59.3163 196.726 59.0763 196.553C58.8363 196.366 58.6429 196.153 58.4963 195.913L57.6163 194.333ZM93.1088 195.813C92.9621 196 92.8154 196.146 92.6688 196.253C92.5354 196.36 92.3354 196.413 92.0688 196.413C91.8154 196.413 91.5688 196.34 91.3288 196.193C91.0888 196.033 90.8021 195.86 90.4688 195.673C90.1354 195.473 89.7354 195.3 89.2688 195.153C88.8154 194.993 88.2488 194.913 87.5688 194.913C86.7021 194.913 85.9421 195.073 85.2888 195.393C84.6354 195.7 84.0888 196.146 83.6488 196.733C83.2221 197.32 82.9021 198.033 82.6888 198.873C82.4754 199.7 82.3688 200.64 82.3688 201.693C82.3688 202.786 82.4821 203.76 82.7088 204.613C82.9488 205.466 83.2888 206.186 83.7288 206.773C84.1688 207.346 84.7021 207.786 85.3288 208.093C85.9554 208.386 86.6621 208.533 87.4488 208.533C88.2354 208.533 88.8688 208.44 89.3488 208.253C89.8421 208.053 90.2554 207.84 90.5888 207.613C90.9221 207.373 91.2088 207.16 91.4488 206.973C91.7021 206.773 91.9821 206.673 92.2888 206.673C92.6888 206.673 92.9888 206.826 93.1888 207.133L94.6088 208.933C94.0621 209.573 93.4688 210.113 92.8288 210.553C92.1888 210.98 91.5221 211.326 90.8288 211.593C90.1488 211.846 89.4421 212.026 88.7088 212.133C87.9888 212.24 87.2688 212.293 86.5488 212.293C85.2821 212.293 84.0888 212.06 82.9688 211.593C81.8488 211.113 80.8688 210.42 80.0288 209.513C79.1888 208.606 78.5221 207.5 78.0288 206.193C77.5488 204.873 77.3088 203.373 77.3088 201.693C77.3088 200.186 77.5221 198.793 77.9488 197.513C78.3888 196.22 79.0288 195.106 79.8688 194.173C80.7088 193.226 81.7488 192.486 82.9888 191.953C84.2288 191.42 85.6554 191.153 87.2687 191.153C88.8021 191.153 90.1421 191.4 91.2888 191.893C92.4488 192.386 93.4888 193.093 94.4088 194.013L93.1088 195.813ZM110.574 199.373C110.574 198.733 110.481 198.133 110.294 197.573C110.121 197 109.854 196.5 109.494 196.073C109.134 195.646 108.674 195.313 108.114 195.073C107.567 194.82 106.927 194.693 106.194 194.693C104.767 194.693 103.641 195.1 102.814 195.913C102.001 196.726 101.481 197.88 101.254 199.373H110.574ZM101.154 202.353C101.234 203.406 101.421 204.32 101.714 205.093C102.007 205.853 102.394 206.486 102.874 206.993C103.354 207.486 103.921 207.86 104.574 208.113C105.241 208.353 105.974 208.473 106.774 208.473C107.574 208.473 108.261 208.38 108.834 208.193C109.421 208.006 109.927 207.8 110.354 207.573C110.794 207.346 111.174 207.14 111.494 206.953C111.827 206.766 112.147 206.673 112.454 206.673C112.867 206.673 113.174 206.826 113.374 207.133L114.794 208.933C114.247 209.573 113.634 210.113 112.954 210.553C112.274 210.98 111.561 211.326 110.814 211.593C110.081 211.846 109.327 212.026 108.554 212.133C107.794 212.24 107.054 212.293 106.334 212.293C104.907 212.293 103.581 212.06 102.354 211.593C101.127 211.113 100.061 210.413 99.1541 209.493C98.2474 208.56 97.5341 207.413 97.0141 206.053C96.4941 204.68 96.2341 203.093 96.2341 201.293C96.2341 199.893 96.4607 198.58 96.9141 197.353C97.3674 196.113 98.0141 195.04 98.8541 194.133C99.7074 193.213 100.741 192.486 101.954 191.953C103.181 191.42 104.561 191.153 106.094 191.153C107.387 191.153 108.581 191.36 109.674 191.773C110.767 192.186 111.707 192.793 112.494 193.593C113.281 194.38 113.894 195.353 114.334 196.513C114.787 197.66 115.014 198.973 115.014 200.453C115.014 201.2 114.934 201.706 114.774 201.973C114.614 202.226 114.307 202.353 113.854 202.353H101.154Z" fill="#2B2B2B"/>
</g>
<defs>
<filter id="filter0_d" x="0.152588" y="0.51001" width="286.622" height="275.283" filterUnits="userSpaceOnUse" color-interpolation-filters="sRGB">
<feFlood flood-opacity="0" result="BackgroundImageFix"/>
<feColorMatrix in="SourceAlpha" type="matrix" values="0 0 0 0 0 0 0 0 0 0 0 0 0 0 0 0 0 0 127 0"/>
<feOffset dx="45"/>
<feGaussianBlur stdDeviation="5"/>
<feColorMatrix type="matrix" values="0 0 0 0 0 0 0 0 0 0 0 0 0 0 0 0 0 0 0.25 0"/>
<feBlend mode="normal" in2="BackgroundImageFix" result="effect1_dropShadow"/>
<feBlend mode="normal" in="SourceGraphic" in2="effect1_dropShadow" result="shape"/>
</filter>
</defs>
</svg>
